M48
;DRILL file {kicad (2014-08-05 BZR 5054)-product} date vie 12 sep 2014 23:02:51 COT
;FORMAT={-:-/ absolute / inch / decimal}
FMAT,2
INCH,TZ
T1C0.016
T2C0.024
T3C0.032
T4C0.040
T5C0.118
%
G90
G05
M72
T1
X4.Y-5.2
X4.Y-5.44
X4.Y-5.66
X4.02Y-4.5
X4.3Y-5.72
X4.326Y-4.472
X4.368Y-4.602
X4.4717Y-5.5999
X4.48Y-4.798
X4.612Y-5.426
X4.994Y-4.462
X5.0522Y-4.8039
X5.0988Y-4.6036
X5.1156Y-4.8192
X5.1285Y-4.6351
X5.16Y-3.76
X5.18Y-3.88
X5.25Y-3.619
X5.36Y-3.74
X5.3625Y-4.1722
X5.4023Y-3.9461
X5.4147Y-4.102
X5.418Y-4.0586
X5.4259Y-4.1655
X5.4587Y-4.5685
X5.4734Y-3.6302
X5.5019Y-4.0255
X5.5517Y-4.4383
X5.5793Y-3.8316
X5.5894Y-4.4625
X5.6165Y-3.6368
X5.6196Y-4.2001
X5.6313Y-4.4432
X5.6579Y-3.5873
X5.7013Y-3.5969
X5.761Y-4.5963
X5.8194Y-4.4807
X5.8477Y-3.7564
X5.86Y-5.82
X5.9Y-4.469
X6.08Y-5.76
X6.12Y-4.8
T2
X4.075Y-3.4
X4.075Y-3.5
X4.075Y-3.6
X4.075Y-3.7
X4.075Y-3.8
X4.075Y-3.9
X4.075Y-4.
X4.075Y-4.1
X4.075Y-4.2
X4.075Y-4.3
X4.075Y-4.7
X4.075Y-5.5
X4.175Y-4.3
X4.175Y-4.7
X4.175Y-5.5
X4.275Y-4.3
X4.275Y-4.7
X4.275Y-5.5
X4.375Y-4.3
X4.375Y-4.7
X4.375Y-5.5
X4.475Y-4.3
X4.475Y-4.7
X4.475Y-5.5
X4.575Y-4.3
X4.575Y-4.7
X4.575Y-5.5
X4.675Y-4.3
X4.675Y-4.7
X4.675Y-5.5
X4.775Y-4.3
X4.775Y-4.7
X4.775Y-5.5
X4.875Y-3.4
X4.875Y-3.5
X4.875Y-3.6
X4.875Y-3.7
X4.875Y-3.8
X4.875Y-3.9
X4.875Y-4.
X4.875Y-4.1
X4.875Y-4.2
X4.875Y-4.3
X4.875Y-4.7
X4.875Y-5.5
X4.975Y-4.7
X4.975Y-4.8
X4.975Y-4.9
X4.975Y-5.
X4.975Y-5.1
X4.975Y-5.2
X4.975Y-5.3
X4.975Y-5.4
X4.975Y-5.5
X5.1Y-3.4
X5.1Y-3.5
X5.1Y-3.6
X5.1Y-3.7
X5.1Y-3.8
X5.1Y-3.9
X5.1Y-4.
X5.1Y-4.1
X5.1Y-4.2
X5.1Y-4.3
X5.2Y-4.3
X5.2Y-4.7
X5.2Y-4.8
X5.2Y-4.9
X5.2Y-5.
X5.2Y-5.1
X5.2Y-5.2
X5.2Y-5.3
X5.2Y-5.4
X5.2Y-5.5
X5.3Y-4.3
X5.3Y-4.7
X5.3Y-5.5
X5.4Y-4.3
X5.4Y-4.7
X5.4Y-5.5
X5.5Y-4.3
X5.5Y-4.7
X5.5Y-5.5
X5.6Y-4.3
X5.6Y-4.7
X5.6Y-5.5
X5.7Y-4.3
X5.7Y-4.7
X5.7Y-5.5
X5.8Y-4.3
X5.8Y-4.7
X5.8Y-5.5
X5.9Y-3.4
X5.9Y-3.5
X5.9Y-3.6
X5.9Y-3.7
X5.9Y-3.8
X5.9Y-3.9
X5.9Y-4.
X5.9Y-4.1
X5.9Y-4.2
X5.9Y-4.3
X5.9Y-4.7
X5.9Y-5.5
X6.Y-4.7
X6.Y-5.5
X6.1Y-4.7
X6.1Y-5.5
T3
X5.125Y-5.775
X5.225Y-5.775
X5.325Y-5.775
X5.475Y-5.775
X5.575Y-5.775
X5.675Y-5.775
X5.875Y-5.7
X5.875Y-5.9
X6.175Y-5.7
X6.175Y-5.9
T4
X6.05Y-3.3
X6.05Y-3.4
X6.05Y-3.5
X6.05Y-3.6
X6.05Y-3.7
X6.05Y-3.8
X6.05Y-3.9
X6.05Y-4.
X6.05Y-4.1
X6.05Y-4.2
X6.05Y-4.3
X6.05Y-4.4
X6.05Y-4.5
X6.15Y-3.3
X6.15Y-3.4
X6.15Y-3.5
X6.15Y-3.6
X6.15Y-3.7
X6.15Y-3.8
X6.15Y-3.9
X6.15Y-4.
X6.15Y-4.1
X6.15Y-4.2
X6.15Y-4.3
X6.15Y-4.4
X6.15Y-4.5
T5
X4.675Y-5.2
X4.7Y-3.4
X5.3Y-4.1
T0
M30
