%FSLAX34Y34*%
G04 Gerber Fmt 3.4, Leading zero omitted, Abs format*
G04 (created by PCBNEW (2014-04-12 BZR 4800)-product) date dom 07 sep 2014 17:12:40 COT*
%MOIN*%
G01*
G70*
G90*
G04 APERTURE LIST*
%ADD10C,0.003937*%
%ADD11C,0.004921*%
%ADD12C,0.009843*%
%ADD13C,0.005000*%
%ADD14C,0.010000*%
%ADD15C,0.012000*%
%ADD16C,0.005906*%
%ADD17C,0.008000*%
%ADD18C,0.004500*%
%ADD19C,0.019685*%
G04 APERTURE END LIST*
G54D10*
G54D11*
X54152Y-52538D02*
X54152Y-52813D01*
X54152Y-52551D02*
X54179Y-52538D01*
X54231Y-52538D01*
X54257Y-52551D01*
X54270Y-52564D01*
X54284Y-52590D01*
X54284Y-52669D01*
X54270Y-52695D01*
X54257Y-52708D01*
X54231Y-52722D01*
X54179Y-52722D01*
X54152Y-52708D01*
X54402Y-52722D02*
X54402Y-52538D01*
X54402Y-52446D02*
X54389Y-52459D01*
X54402Y-52472D01*
X54415Y-52459D01*
X54402Y-52446D01*
X54402Y-52472D01*
X54520Y-52472D02*
X54533Y-52459D01*
X54559Y-52446D01*
X54625Y-52446D01*
X54651Y-52459D01*
X54664Y-52472D01*
X54677Y-52499D01*
X54677Y-52525D01*
X54664Y-52564D01*
X54507Y-52722D01*
X54677Y-52722D01*
X54795Y-52722D02*
X54795Y-52538D01*
X54795Y-52564D02*
X54809Y-52551D01*
X54835Y-52538D01*
X54874Y-52538D01*
X54900Y-52551D01*
X54914Y-52577D01*
X54914Y-52722D01*
X54914Y-52577D02*
X54927Y-52551D01*
X54953Y-52538D01*
X54992Y-52538D01*
X55019Y-52551D01*
X55032Y-52577D01*
X55032Y-52722D01*
X55163Y-52722D02*
X55163Y-52538D01*
X55163Y-52446D02*
X55150Y-52459D01*
X55163Y-52472D01*
X55176Y-52459D01*
X55163Y-52446D01*
X55163Y-52472D01*
X55412Y-52708D02*
X55386Y-52722D01*
X55333Y-52722D01*
X55307Y-52708D01*
X55294Y-52695D01*
X55281Y-52669D01*
X55281Y-52590D01*
X55294Y-52564D01*
X55307Y-52551D01*
X55333Y-52538D01*
X55386Y-52538D01*
X55412Y-52551D01*
X55530Y-52722D02*
X55530Y-52538D01*
X55530Y-52590D02*
X55543Y-52564D01*
X55557Y-52551D01*
X55583Y-52538D01*
X55609Y-52538D01*
X55740Y-52722D02*
X55714Y-52708D01*
X55701Y-52695D01*
X55688Y-52669D01*
X55688Y-52590D01*
X55701Y-52564D01*
X55714Y-52551D01*
X55740Y-52538D01*
X55780Y-52538D01*
X55806Y-52551D01*
X55819Y-52564D01*
X55832Y-52590D01*
X55832Y-52669D01*
X55819Y-52695D01*
X55806Y-52708D01*
X55780Y-52722D01*
X55740Y-52722D01*
X56068Y-52538D02*
X56068Y-52722D01*
X56003Y-52433D02*
X55937Y-52630D01*
X56108Y-52630D01*
X56383Y-52446D02*
X56475Y-52722D01*
X56567Y-52446D01*
X56803Y-52722D02*
X56646Y-52722D01*
X56725Y-52722D02*
X56725Y-52446D01*
X56698Y-52485D01*
X56672Y-52512D01*
X56646Y-52525D01*
X56921Y-52695D02*
X56935Y-52708D01*
X56921Y-52722D01*
X56908Y-52708D01*
X56921Y-52695D01*
X56921Y-52722D01*
X57105Y-52446D02*
X57131Y-52446D01*
X57158Y-52459D01*
X57171Y-52472D01*
X57184Y-52499D01*
X57197Y-52551D01*
X57197Y-52617D01*
X57184Y-52669D01*
X57171Y-52695D01*
X57158Y-52708D01*
X57131Y-52722D01*
X57105Y-52722D01*
X57079Y-52708D01*
X57066Y-52695D01*
X57053Y-52669D01*
X57040Y-52617D01*
X57040Y-52551D01*
X57053Y-52499D01*
X57066Y-52472D01*
X57079Y-52459D01*
X57105Y-52446D01*
X54533Y-53157D02*
X54533Y-52881D01*
X54533Y-53012D02*
X54690Y-53012D01*
X54690Y-53157D02*
X54690Y-52881D01*
X54940Y-53157D02*
X54940Y-53012D01*
X54927Y-52986D01*
X54900Y-52973D01*
X54848Y-52973D01*
X54822Y-52986D01*
X54940Y-53144D02*
X54914Y-53157D01*
X54848Y-53157D01*
X54822Y-53144D01*
X54809Y-53117D01*
X54809Y-53091D01*
X54822Y-53065D01*
X54848Y-53052D01*
X54914Y-53052D01*
X54940Y-53039D01*
X55189Y-53144D02*
X55163Y-53157D01*
X55110Y-53157D01*
X55084Y-53144D01*
X55071Y-53130D01*
X55058Y-53104D01*
X55058Y-53025D01*
X55071Y-52999D01*
X55084Y-52986D01*
X55110Y-52973D01*
X55163Y-52973D01*
X55189Y-52986D01*
X55307Y-53157D02*
X55307Y-52881D01*
X55333Y-53052D02*
X55412Y-53157D01*
X55412Y-52973D02*
X55307Y-53078D01*
X55622Y-53012D02*
X55662Y-53025D01*
X55675Y-53039D01*
X55688Y-53065D01*
X55688Y-53104D01*
X55675Y-53130D01*
X55662Y-53144D01*
X55635Y-53157D01*
X55530Y-53157D01*
X55530Y-52881D01*
X55622Y-52881D01*
X55648Y-52894D01*
X55662Y-52907D01*
X55675Y-52934D01*
X55675Y-52960D01*
X55662Y-52986D01*
X55648Y-52999D01*
X55622Y-53012D01*
X55530Y-53012D01*
X55845Y-53157D02*
X55819Y-53144D01*
X55806Y-53130D01*
X55793Y-53104D01*
X55793Y-53025D01*
X55806Y-52999D01*
X55819Y-52986D01*
X55845Y-52973D01*
X55885Y-52973D01*
X55911Y-52986D01*
X55924Y-52999D01*
X55937Y-53025D01*
X55937Y-53104D01*
X55924Y-53130D01*
X55911Y-53144D01*
X55885Y-53157D01*
X55845Y-53157D01*
X56252Y-52907D02*
X56265Y-52894D01*
X56291Y-52881D01*
X56357Y-52881D01*
X56383Y-52894D01*
X56396Y-52907D01*
X56410Y-52934D01*
X56410Y-52960D01*
X56396Y-52999D01*
X56239Y-53157D01*
X56410Y-53157D01*
X56580Y-52881D02*
X56606Y-52881D01*
X56633Y-52894D01*
X56646Y-52907D01*
X56659Y-52934D01*
X56672Y-52986D01*
X56672Y-53052D01*
X56659Y-53104D01*
X56646Y-53130D01*
X56633Y-53144D01*
X56606Y-53157D01*
X56580Y-53157D01*
X56554Y-53144D01*
X56541Y-53130D01*
X56528Y-53104D01*
X56515Y-53052D01*
X56515Y-52986D01*
X56528Y-52934D01*
X56541Y-52907D01*
X56554Y-52894D01*
X56580Y-52881D01*
X56935Y-53157D02*
X56777Y-53157D01*
X56856Y-53157D02*
X56856Y-52881D01*
X56830Y-52920D01*
X56803Y-52947D01*
X56777Y-52960D01*
X57171Y-52973D02*
X57171Y-53157D01*
X57105Y-52868D02*
X57040Y-53065D01*
X57210Y-53065D01*
X54704Y-53460D02*
X54690Y-53447D01*
X54664Y-53434D01*
X54638Y-53434D01*
X54612Y-53447D01*
X54599Y-53460D01*
X54585Y-53487D01*
X54585Y-53513D01*
X54599Y-53539D01*
X54612Y-53552D01*
X54638Y-53565D01*
X54664Y-53565D01*
X54690Y-53552D01*
X54704Y-53539D01*
X54704Y-53434D02*
X54704Y-53539D01*
X54717Y-53552D01*
X54730Y-53552D01*
X54756Y-53539D01*
X54769Y-53513D01*
X54769Y-53447D01*
X54743Y-53408D01*
X54704Y-53382D01*
X54651Y-53369D01*
X54599Y-53382D01*
X54559Y-53408D01*
X54533Y-53447D01*
X54520Y-53500D01*
X54533Y-53552D01*
X54559Y-53592D01*
X54599Y-53618D01*
X54651Y-53631D01*
X54704Y-53618D01*
X54743Y-53592D01*
X55005Y-53408D02*
X55005Y-53592D01*
X54887Y-53408D02*
X54887Y-53552D01*
X54900Y-53579D01*
X54927Y-53592D01*
X54966Y-53592D01*
X54992Y-53579D01*
X55005Y-53565D01*
X55137Y-53408D02*
X55137Y-53592D01*
X55137Y-53434D02*
X55150Y-53421D01*
X55176Y-53408D01*
X55215Y-53408D01*
X55242Y-53421D01*
X55255Y-53447D01*
X55255Y-53592D01*
X55386Y-53408D02*
X55386Y-53644D01*
X55373Y-53670D01*
X55347Y-53684D01*
X55333Y-53684D01*
X55386Y-53316D02*
X55373Y-53329D01*
X55386Y-53342D01*
X55399Y-53329D01*
X55386Y-53316D01*
X55386Y-53342D01*
X55635Y-53408D02*
X55635Y-53592D01*
X55517Y-53408D02*
X55517Y-53552D01*
X55530Y-53579D01*
X55557Y-53592D01*
X55596Y-53592D01*
X55622Y-53579D01*
X55635Y-53565D01*
X55885Y-53408D02*
X55885Y-53631D01*
X55872Y-53657D01*
X55858Y-53670D01*
X55832Y-53684D01*
X55793Y-53684D01*
X55767Y-53670D01*
X55885Y-53579D02*
X55858Y-53592D01*
X55806Y-53592D01*
X55780Y-53579D01*
X55767Y-53565D01*
X55753Y-53539D01*
X55753Y-53460D01*
X55767Y-53434D01*
X55780Y-53421D01*
X55806Y-53408D01*
X55858Y-53408D01*
X55885Y-53421D01*
X56134Y-53408D02*
X56134Y-53592D01*
X56016Y-53408D02*
X56016Y-53552D01*
X56029Y-53579D01*
X56055Y-53592D01*
X56095Y-53592D01*
X56121Y-53579D01*
X56134Y-53565D01*
X56370Y-53579D02*
X56344Y-53592D01*
X56291Y-53592D01*
X56265Y-53579D01*
X56252Y-53552D01*
X56252Y-53447D01*
X56265Y-53421D01*
X56291Y-53408D01*
X56344Y-53408D01*
X56370Y-53421D01*
X56383Y-53447D01*
X56383Y-53474D01*
X56252Y-53500D01*
X56462Y-53408D02*
X56567Y-53408D01*
X56501Y-53316D02*
X56501Y-53552D01*
X56515Y-53579D01*
X56541Y-53592D01*
X56567Y-53592D01*
X56764Y-53579D02*
X56738Y-53592D01*
X56685Y-53592D01*
X56659Y-53579D01*
X56646Y-53552D01*
X56646Y-53447D01*
X56659Y-53421D01*
X56685Y-53408D01*
X56738Y-53408D01*
X56764Y-53421D01*
X56777Y-53447D01*
X56777Y-53474D01*
X56646Y-53500D01*
X56895Y-53592D02*
X56895Y-53408D01*
X56895Y-53460D02*
X56908Y-53434D01*
X56921Y-53421D01*
X56948Y-53408D01*
X56974Y-53408D01*
X57105Y-53592D02*
X57079Y-53579D01*
X57066Y-53565D01*
X57053Y-53539D01*
X57053Y-53460D01*
X57066Y-53434D01*
X57079Y-53421D01*
X57105Y-53408D01*
X57145Y-53408D01*
X57171Y-53421D01*
X57184Y-53434D01*
X57197Y-53460D01*
X57197Y-53539D01*
X57184Y-53565D01*
X57171Y-53579D01*
X57145Y-53592D01*
X57105Y-53592D01*
X52748Y-54027D02*
X52748Y-53751D01*
X52814Y-53751D01*
X52853Y-53764D01*
X52879Y-53791D01*
X52893Y-53817D01*
X52906Y-53869D01*
X52906Y-53909D01*
X52893Y-53961D01*
X52879Y-53987D01*
X52853Y-54014D01*
X52814Y-54027D01*
X52748Y-54027D01*
X53129Y-54014D02*
X53103Y-54027D01*
X53050Y-54027D01*
X53024Y-54014D01*
X53011Y-53987D01*
X53011Y-53882D01*
X53024Y-53856D01*
X53050Y-53843D01*
X53103Y-53843D01*
X53129Y-53856D01*
X53142Y-53882D01*
X53142Y-53909D01*
X53011Y-53935D01*
X53247Y-54014D02*
X53273Y-54027D01*
X53326Y-54027D01*
X53352Y-54014D01*
X53365Y-53987D01*
X53365Y-53974D01*
X53352Y-53948D01*
X53326Y-53935D01*
X53286Y-53935D01*
X53260Y-53922D01*
X53247Y-53895D01*
X53247Y-53882D01*
X53260Y-53856D01*
X53286Y-53843D01*
X53326Y-53843D01*
X53352Y-53856D01*
X53483Y-54027D02*
X53483Y-53843D01*
X53483Y-53751D02*
X53470Y-53764D01*
X53483Y-53777D01*
X53496Y-53764D01*
X53483Y-53751D01*
X53483Y-53777D01*
X53732Y-53843D02*
X53732Y-54066D01*
X53719Y-54092D01*
X53706Y-54105D01*
X53680Y-54119D01*
X53641Y-54119D01*
X53614Y-54105D01*
X53732Y-54014D02*
X53706Y-54027D01*
X53654Y-54027D01*
X53627Y-54014D01*
X53614Y-54000D01*
X53601Y-53974D01*
X53601Y-53895D01*
X53614Y-53869D01*
X53627Y-53856D01*
X53654Y-53843D01*
X53706Y-53843D01*
X53732Y-53856D01*
X53864Y-53843D02*
X53864Y-54027D01*
X53864Y-53869D02*
X53877Y-53856D01*
X53903Y-53843D01*
X53942Y-53843D01*
X53969Y-53856D01*
X53982Y-53882D01*
X53982Y-54027D01*
X54218Y-54014D02*
X54192Y-54027D01*
X54139Y-54027D01*
X54113Y-54014D01*
X54100Y-53987D01*
X54100Y-53882D01*
X54113Y-53856D01*
X54139Y-53843D01*
X54192Y-53843D01*
X54218Y-53856D01*
X54231Y-53882D01*
X54231Y-53909D01*
X54100Y-53935D01*
X54467Y-54027D02*
X54467Y-53751D01*
X54467Y-54014D02*
X54441Y-54027D01*
X54389Y-54027D01*
X54362Y-54014D01*
X54349Y-54000D01*
X54336Y-53974D01*
X54336Y-53895D01*
X54349Y-53869D01*
X54362Y-53856D01*
X54389Y-53843D01*
X54441Y-53843D01*
X54467Y-53856D01*
X54809Y-54027D02*
X54809Y-53843D01*
X54809Y-53751D02*
X54795Y-53764D01*
X54809Y-53777D01*
X54822Y-53764D01*
X54809Y-53751D01*
X54809Y-53777D01*
X54940Y-53843D02*
X54940Y-54027D01*
X54940Y-53869D02*
X54953Y-53856D01*
X54979Y-53843D01*
X55019Y-53843D01*
X55045Y-53856D01*
X55058Y-53882D01*
X55058Y-54027D01*
X55557Y-54000D02*
X55543Y-54014D01*
X55504Y-54027D01*
X55478Y-54027D01*
X55438Y-54014D01*
X55412Y-53987D01*
X55399Y-53961D01*
X55386Y-53909D01*
X55386Y-53869D01*
X55399Y-53817D01*
X55412Y-53791D01*
X55438Y-53764D01*
X55478Y-53751D01*
X55504Y-53751D01*
X55543Y-53764D01*
X55557Y-53777D01*
X55714Y-54027D02*
X55688Y-54014D01*
X55675Y-54000D01*
X55662Y-53974D01*
X55662Y-53895D01*
X55675Y-53869D01*
X55688Y-53856D01*
X55714Y-53843D01*
X55753Y-53843D01*
X55780Y-53856D01*
X55793Y-53869D01*
X55806Y-53895D01*
X55806Y-53974D01*
X55793Y-54000D01*
X55780Y-54014D01*
X55753Y-54027D01*
X55714Y-54027D01*
X55963Y-54027D02*
X55937Y-54014D01*
X55924Y-53987D01*
X55924Y-53751D01*
X56108Y-54027D02*
X56082Y-54014D01*
X56068Y-54000D01*
X56055Y-53974D01*
X56055Y-53895D01*
X56068Y-53869D01*
X56082Y-53856D01*
X56108Y-53843D01*
X56147Y-53843D01*
X56173Y-53856D01*
X56187Y-53869D01*
X56200Y-53895D01*
X56200Y-53974D01*
X56187Y-54000D01*
X56173Y-54014D01*
X56147Y-54027D01*
X56108Y-54027D01*
X56318Y-54027D02*
X56318Y-53843D01*
X56318Y-53869D02*
X56331Y-53856D01*
X56357Y-53843D01*
X56396Y-53843D01*
X56423Y-53856D01*
X56436Y-53882D01*
X56436Y-54027D01*
X56436Y-53882D02*
X56449Y-53856D01*
X56475Y-53843D01*
X56515Y-53843D01*
X56541Y-53856D01*
X56554Y-53882D01*
X56554Y-54027D01*
X56685Y-54027D02*
X56685Y-53751D01*
X56685Y-53856D02*
X56711Y-53843D01*
X56764Y-53843D01*
X56790Y-53856D01*
X56803Y-53869D01*
X56816Y-53895D01*
X56816Y-53974D01*
X56803Y-54000D01*
X56790Y-54014D01*
X56764Y-54027D01*
X56711Y-54027D01*
X56685Y-54014D01*
X56935Y-54027D02*
X56935Y-53843D01*
X56935Y-53751D02*
X56921Y-53764D01*
X56935Y-53777D01*
X56948Y-53764D01*
X56935Y-53751D01*
X56935Y-53777D01*
X57184Y-54027D02*
X57184Y-53882D01*
X57171Y-53856D01*
X57145Y-53843D01*
X57092Y-53843D01*
X57066Y-53856D01*
X57184Y-54014D02*
X57158Y-54027D01*
X57092Y-54027D01*
X57066Y-54014D01*
X57053Y-53987D01*
X57053Y-53961D01*
X57066Y-53935D01*
X57092Y-53922D01*
X57158Y-53922D01*
X57184Y-53909D01*
G54D12*
X41934Y-41178D02*
X41934Y-40784D01*
X42103Y-41178D02*
X42103Y-40971D01*
X42084Y-40934D01*
X42047Y-40915D01*
X41991Y-40915D01*
X41953Y-40934D01*
X41934Y-40953D01*
X42234Y-40915D02*
X42384Y-40915D01*
X42290Y-40784D02*
X42290Y-41121D01*
X42309Y-41159D01*
X42347Y-41178D01*
X42384Y-41178D01*
X42459Y-40915D02*
X42609Y-40915D01*
X42515Y-40784D02*
X42515Y-41121D01*
X42534Y-41159D01*
X42572Y-41178D01*
X42609Y-41178D01*
X42740Y-40915D02*
X42740Y-41309D01*
X42740Y-40934D02*
X42778Y-40915D01*
X42853Y-40915D01*
X42890Y-40934D01*
X42909Y-40953D01*
X42928Y-40990D01*
X42928Y-41103D01*
X42909Y-41140D01*
X42890Y-41159D01*
X42853Y-41178D01*
X42778Y-41178D01*
X42740Y-41159D01*
X43097Y-41140D02*
X43115Y-41159D01*
X43097Y-41178D01*
X43078Y-41159D01*
X43097Y-41140D01*
X43097Y-41178D01*
X43097Y-40934D02*
X43115Y-40953D01*
X43097Y-40971D01*
X43078Y-40953D01*
X43097Y-40934D01*
X43097Y-40971D01*
X43565Y-40765D02*
X43228Y-41271D01*
X43978Y-40765D02*
X43640Y-41271D01*
X44109Y-41178D02*
X44109Y-40784D01*
X44278Y-41178D02*
X44278Y-40971D01*
X44259Y-40934D01*
X44221Y-40915D01*
X44165Y-40915D01*
X44128Y-40934D01*
X44109Y-40953D01*
X44634Y-41178D02*
X44634Y-40971D01*
X44615Y-40934D01*
X44578Y-40915D01*
X44503Y-40915D01*
X44465Y-40934D01*
X44634Y-41159D02*
X44596Y-41178D01*
X44503Y-41178D01*
X44465Y-41159D01*
X44446Y-41121D01*
X44446Y-41084D01*
X44465Y-41046D01*
X44503Y-41028D01*
X44596Y-41028D01*
X44634Y-41009D01*
X44990Y-41159D02*
X44953Y-41178D01*
X44878Y-41178D01*
X44840Y-41159D01*
X44821Y-41140D01*
X44803Y-41103D01*
X44803Y-40990D01*
X44821Y-40953D01*
X44840Y-40934D01*
X44878Y-40915D01*
X44953Y-40915D01*
X44990Y-40934D01*
X45159Y-41178D02*
X45159Y-40784D01*
X45196Y-41028D02*
X45309Y-41178D01*
X45309Y-40915D02*
X45159Y-41065D01*
X45478Y-41178D02*
X45478Y-40784D01*
X45478Y-40934D02*
X45515Y-40915D01*
X45590Y-40915D01*
X45628Y-40934D01*
X45646Y-40953D01*
X45665Y-40990D01*
X45665Y-41103D01*
X45646Y-41140D01*
X45628Y-41159D01*
X45590Y-41178D01*
X45515Y-41178D01*
X45478Y-41159D01*
X45890Y-41178D02*
X45853Y-41159D01*
X45834Y-41140D01*
X45815Y-41103D01*
X45815Y-40990D01*
X45834Y-40953D01*
X45853Y-40934D01*
X45890Y-40915D01*
X45946Y-40915D01*
X45984Y-40934D01*
X46003Y-40953D01*
X46021Y-40990D01*
X46021Y-41103D01*
X46003Y-41140D01*
X45984Y-41159D01*
X45946Y-41178D01*
X45890Y-41178D01*
X46190Y-41140D02*
X46209Y-41159D01*
X46190Y-41178D01*
X46171Y-41159D01*
X46190Y-41140D01*
X46190Y-41178D01*
X46546Y-41159D02*
X46509Y-41178D01*
X46434Y-41178D01*
X46396Y-41159D01*
X46377Y-41140D01*
X46359Y-41103D01*
X46359Y-40990D01*
X46377Y-40953D01*
X46396Y-40934D01*
X46434Y-40915D01*
X46509Y-40915D01*
X46546Y-40934D01*
X46771Y-41178D02*
X46734Y-41159D01*
X46715Y-41140D01*
X46696Y-41103D01*
X46696Y-40990D01*
X46715Y-40953D01*
X46734Y-40934D01*
X46771Y-40915D01*
X46827Y-40915D01*
X46865Y-40934D01*
X46884Y-40953D01*
X46902Y-40990D01*
X46902Y-41103D01*
X46884Y-41140D01*
X46865Y-41159D01*
X46827Y-41178D01*
X46771Y-41178D01*
X47352Y-40765D02*
X47015Y-41271D01*
X47484Y-41178D02*
X47484Y-40784D01*
X47652Y-41178D02*
X47652Y-40971D01*
X47634Y-40934D01*
X47596Y-40915D01*
X47540Y-40915D01*
X47502Y-40934D01*
X47484Y-40953D01*
X47802Y-40915D02*
X47877Y-41178D01*
X47952Y-40990D01*
X48027Y-41178D01*
X48102Y-40915D01*
G54D13*
X44273Y-56964D02*
X44426Y-56964D01*
X44350Y-57040D02*
X44350Y-56888D01*
X41523Y-56914D02*
X41676Y-56914D01*
X41600Y-56990D02*
X41600Y-56838D01*
G54D14*
X62000Y-32500D02*
X62000Y-45500D01*
X60000Y-33500D02*
X60000Y-45500D01*
X62000Y-45500D02*
X60000Y-45500D01*
X62000Y-32500D02*
X61000Y-32500D01*
X60000Y-32500D02*
X60000Y-33500D01*
X61000Y-32500D02*
X61000Y-33500D01*
X61000Y-33500D02*
X60000Y-33500D01*
X60000Y-32500D02*
X61000Y-32500D01*
G54D13*
X44800Y-56250D02*
X45700Y-56250D01*
X45700Y-56250D02*
X45700Y-56750D01*
X45700Y-56750D02*
X44800Y-56750D01*
X44800Y-56750D02*
X44800Y-56250D01*
X42950Y-56750D02*
X42050Y-56750D01*
X42050Y-56750D02*
X42050Y-56250D01*
X42050Y-56250D02*
X42950Y-56250D01*
X42950Y-56250D02*
X42950Y-56750D01*
X44450Y-56750D02*
X43550Y-56750D01*
X43550Y-56750D02*
X43550Y-56250D01*
X43550Y-56250D02*
X44450Y-56250D01*
X44450Y-56250D02*
X44450Y-56750D01*
X41700Y-56750D02*
X40800Y-56750D01*
X40800Y-56750D02*
X40800Y-56250D01*
X40800Y-56250D02*
X41700Y-56250D01*
X41700Y-56250D02*
X41700Y-56750D01*
G54D15*
X54250Y-58250D02*
X54250Y-57250D01*
X54250Y-57250D02*
X57250Y-57250D01*
X57250Y-57250D02*
X57250Y-58250D01*
X57250Y-58250D02*
X54250Y-58250D01*
X55250Y-57250D02*
X55250Y-58250D01*
X50750Y-58250D02*
X50750Y-57250D01*
X50750Y-57250D02*
X53750Y-57250D01*
X53750Y-57250D02*
X53750Y-58250D01*
X53750Y-58250D02*
X50750Y-58250D01*
X51750Y-57250D02*
X51750Y-58250D01*
G54D13*
X61250Y-58000D02*
G75*
G03X61250Y-58000I-1000J0D01*
G74*
G01*
X58750Y-56500D02*
X61750Y-56500D01*
X61750Y-56500D02*
X61750Y-59500D01*
X61750Y-59500D02*
X58750Y-59500D01*
X58750Y-56500D02*
X58750Y-59500D01*
G54D10*
G36*
X44997Y-40366D02*
X44993Y-40390D01*
X44976Y-40401D01*
X44955Y-40406D01*
X44830Y-40422D01*
X44720Y-40421D01*
X44684Y-40415D01*
X44622Y-40394D01*
X44562Y-40361D01*
X44550Y-40352D01*
X44492Y-40296D01*
X44453Y-40236D01*
X44431Y-40162D01*
X44420Y-40065D01*
X44420Y-40059D01*
X44418Y-39988D01*
X44421Y-39937D01*
X44432Y-39895D01*
X44453Y-39848D01*
X44461Y-39833D01*
X44524Y-39743D01*
X44607Y-39679D01*
X44706Y-39644D01*
X44820Y-39637D01*
X44844Y-39639D01*
X44917Y-39650D01*
X44962Y-39665D01*
X44981Y-39689D01*
X44980Y-39727D01*
X44964Y-39781D01*
X44948Y-39816D01*
X44929Y-39826D01*
X44910Y-39821D01*
X44872Y-39813D01*
X44818Y-39808D01*
X44794Y-39808D01*
X44740Y-39811D01*
X44703Y-39826D01*
X44668Y-39858D01*
X44666Y-39861D01*
X44622Y-39930D01*
X44603Y-40007D01*
X44606Y-40083D01*
X44630Y-40154D01*
X44672Y-40212D01*
X44733Y-40249D01*
X44765Y-40258D01*
X44824Y-40260D01*
X44888Y-40252D01*
X44899Y-40250D01*
X44943Y-40239D01*
X44971Y-40235D01*
X44975Y-40236D01*
X44980Y-40254D01*
X44987Y-40294D01*
X44991Y-40319D01*
X44997Y-40366D01*
X44997Y-40366D01*
X44997Y-40366D01*
G37*
G36*
X47499Y-40062D02*
X47479Y-40175D01*
X47434Y-40276D01*
X47428Y-40285D01*
X47366Y-40349D01*
X47311Y-40380D01*
X47311Y-40054D01*
X47302Y-39958D01*
X47300Y-39950D01*
X47267Y-39875D01*
X47219Y-39825D01*
X47158Y-39804D01*
X47090Y-39813D01*
X47080Y-39817D01*
X47029Y-39855D01*
X46994Y-39914D01*
X46975Y-39986D01*
X46973Y-40063D01*
X46987Y-40137D01*
X47018Y-40199D01*
X47065Y-40242D01*
X47127Y-40263D01*
X47182Y-40255D01*
X47237Y-40215D01*
X47241Y-40212D01*
X47290Y-40140D01*
X47311Y-40054D01*
X47311Y-40380D01*
X47283Y-40396D01*
X47189Y-40422D01*
X47094Y-40425D01*
X47025Y-40409D01*
X46945Y-40371D01*
X46886Y-40322D01*
X46838Y-40251D01*
X46829Y-40233D01*
X46797Y-40159D01*
X46784Y-40086D01*
X46783Y-40042D01*
X46789Y-39939D01*
X46810Y-39858D01*
X46848Y-39789D01*
X46888Y-39742D01*
X46970Y-39679D01*
X47062Y-39644D01*
X47158Y-39636D01*
X47253Y-39654D01*
X47340Y-39698D01*
X47413Y-39765D01*
X47459Y-39839D01*
X47493Y-39947D01*
X47499Y-40062D01*
X47499Y-40062D01*
X47499Y-40062D01*
G37*
G36*
X44265Y-40218D02*
X44264Y-40307D01*
X44259Y-40364D01*
X44252Y-40387D01*
X44226Y-40397D01*
X44174Y-40404D01*
X44105Y-40409D01*
X44083Y-40410D01*
X44083Y-40266D01*
X44083Y-40175D01*
X44083Y-40083D01*
X43991Y-40083D01*
X43928Y-40087D01*
X43887Y-40100D01*
X43866Y-40116D01*
X43836Y-40161D01*
X43837Y-40202D01*
X43865Y-40235D01*
X43918Y-40258D01*
X43994Y-40266D01*
X43995Y-40266D01*
X44083Y-40266D01*
X44083Y-40410D01*
X44026Y-40412D01*
X43945Y-40411D01*
X43870Y-40408D01*
X43810Y-40402D01*
X43772Y-40393D01*
X43771Y-40393D01*
X43711Y-40349D01*
X43671Y-40284D01*
X43651Y-40208D01*
X43654Y-40128D01*
X43683Y-40053D01*
X43683Y-40053D01*
X43731Y-40000D01*
X43801Y-39965D01*
X43895Y-39947D01*
X43963Y-39944D01*
X44085Y-39944D01*
X44075Y-39901D01*
X44055Y-39851D01*
X44020Y-39820D01*
X43965Y-39805D01*
X43884Y-39804D01*
X43864Y-39805D01*
X43737Y-39815D01*
X43726Y-39747D01*
X43721Y-39703D01*
X43721Y-39675D01*
X43722Y-39671D01*
X43741Y-39665D01*
X43784Y-39655D01*
X43835Y-39646D01*
X43956Y-39636D01*
X44061Y-39649D01*
X44146Y-39684D01*
X44209Y-39741D01*
X44227Y-39770D01*
X44239Y-39798D01*
X44247Y-39837D01*
X44254Y-39893D01*
X44259Y-39969D01*
X44262Y-40072D01*
X44263Y-40097D01*
X44265Y-40218D01*
X44265Y-40218D01*
X44265Y-40218D01*
G37*
G36*
X46660Y-40130D02*
X46639Y-40217D01*
X46592Y-40294D01*
X46520Y-40354D01*
X46459Y-40380D01*
X46459Y-40076D01*
X46433Y-40028D01*
X46413Y-40016D01*
X46413Y-39676D01*
X46413Y-39675D01*
X46392Y-39627D01*
X46344Y-39592D01*
X46270Y-39571D01*
X46195Y-39566D01*
X46100Y-39566D01*
X46100Y-39691D01*
X46100Y-39816D01*
X46170Y-39816D01*
X46235Y-39812D01*
X46300Y-39802D01*
X46307Y-39800D01*
X46371Y-39775D01*
X46406Y-39734D01*
X46413Y-39676D01*
X46413Y-40016D01*
X46377Y-39993D01*
X46293Y-39972D01*
X46195Y-39966D01*
X46100Y-39966D01*
X46100Y-40108D01*
X46100Y-40250D01*
X46212Y-40249D01*
X46310Y-40242D01*
X46382Y-40221D01*
X46382Y-40220D01*
X46434Y-40180D01*
X46456Y-40138D01*
X46459Y-40076D01*
X46459Y-40380D01*
X46428Y-40393D01*
X46415Y-40397D01*
X46361Y-40404D01*
X46284Y-40410D01*
X46195Y-40413D01*
X46103Y-40413D01*
X46018Y-40411D01*
X45952Y-40405D01*
X45945Y-40404D01*
X45900Y-40397D01*
X45900Y-39915D01*
X45900Y-39433D01*
X45945Y-39422D01*
X45995Y-39414D01*
X46067Y-39411D01*
X46153Y-39410D01*
X46241Y-39412D01*
X46322Y-39417D01*
X46386Y-39424D01*
X46411Y-39430D01*
X46494Y-39468D01*
X46557Y-39524D01*
X46598Y-39591D01*
X46615Y-39666D01*
X46607Y-39740D01*
X46571Y-39809D01*
X46546Y-39836D01*
X46519Y-39864D01*
X46510Y-39881D01*
X46513Y-39883D01*
X46547Y-39896D01*
X46586Y-39931D01*
X46622Y-39978D01*
X46647Y-40026D01*
X46650Y-40036D01*
X46660Y-40130D01*
X46660Y-40130D01*
X46660Y-40130D01*
G37*
G36*
X43483Y-40400D02*
X43391Y-40400D01*
X43300Y-40400D01*
X43300Y-40191D01*
X43300Y-39983D01*
X43091Y-39983D01*
X42883Y-39983D01*
X42883Y-40191D01*
X42883Y-40400D01*
X42791Y-40400D01*
X42700Y-40400D01*
X42700Y-39908D01*
X42700Y-39416D01*
X42791Y-39416D01*
X42883Y-39416D01*
X42883Y-39608D01*
X42883Y-39800D01*
X43091Y-39800D01*
X43300Y-39800D01*
X43300Y-39608D01*
X43300Y-39416D01*
X43391Y-39416D01*
X43483Y-39416D01*
X43483Y-39908D01*
X43483Y-40400D01*
X43483Y-40400D01*
X43483Y-40400D01*
G37*
G36*
X45783Y-40390D02*
X45768Y-40395D01*
X45728Y-40398D01*
X45677Y-40400D01*
X45572Y-40400D01*
X45511Y-40312D01*
X45463Y-40249D01*
X45407Y-40183D01*
X45375Y-40150D01*
X45300Y-40076D01*
X45300Y-40238D01*
X45300Y-40400D01*
X45208Y-40400D01*
X45116Y-40400D01*
X45116Y-39867D01*
X45117Y-39737D01*
X45118Y-39619D01*
X45119Y-39515D01*
X45121Y-39430D01*
X45124Y-39368D01*
X45127Y-39334D01*
X45129Y-39328D01*
X45151Y-39321D01*
X45195Y-39313D01*
X45220Y-39309D01*
X45300Y-39297D01*
X45300Y-39611D01*
X45301Y-39925D01*
X45430Y-39787D01*
X45560Y-39650D01*
X45663Y-39650D01*
X45717Y-39651D01*
X45754Y-39656D01*
X45766Y-39662D01*
X45755Y-39678D01*
X45726Y-39714D01*
X45682Y-39763D01*
X45628Y-39822D01*
X45618Y-39833D01*
X45470Y-39991D01*
X45564Y-40091D01*
X45609Y-40142D01*
X45656Y-40201D01*
X45702Y-40262D01*
X45742Y-40318D01*
X45770Y-40362D01*
X45783Y-40388D01*
X45783Y-40390D01*
X45783Y-40390D01*
X45783Y-40390D01*
G37*
G36*
X43843Y-38730D02*
X43843Y-38784D01*
X43840Y-38864D01*
X43833Y-38981D01*
X43823Y-39069D01*
X43809Y-39131D01*
X43790Y-39171D01*
X43765Y-39194D01*
X43750Y-39200D01*
X43710Y-39206D01*
X43688Y-39204D01*
X43683Y-39187D01*
X43702Y-39148D01*
X43708Y-39139D01*
X43731Y-39094D01*
X43755Y-39025D01*
X43777Y-38944D01*
X43783Y-38919D01*
X43805Y-38819D01*
X43822Y-38750D01*
X43833Y-38712D01*
X43840Y-38706D01*
X43843Y-38730D01*
X43843Y-38730D01*
X43843Y-38730D01*
G37*
G36*
X47949Y-37363D02*
X47945Y-37401D01*
X47926Y-37425D01*
X47888Y-37443D01*
X47821Y-37461D01*
X47816Y-37461D01*
X47816Y-37368D01*
X47804Y-37351D01*
X47771Y-37321D01*
X47729Y-37289D01*
X47679Y-37250D01*
X47615Y-37196D01*
X47547Y-37135D01*
X47505Y-37096D01*
X47435Y-37031D01*
X47386Y-36990D01*
X47354Y-36970D01*
X47337Y-36970D01*
X47333Y-36985D01*
X47345Y-37006D01*
X47377Y-37044D01*
X47424Y-37093D01*
X47482Y-37149D01*
X47544Y-37206D01*
X47606Y-37259D01*
X47662Y-37304D01*
X47668Y-37308D01*
X47738Y-37355D01*
X47786Y-37380D01*
X47812Y-37380D01*
X47816Y-37368D01*
X47816Y-37461D01*
X47751Y-37458D01*
X47675Y-37433D01*
X47590Y-37383D01*
X47494Y-37309D01*
X47383Y-37207D01*
X47372Y-37196D01*
X47309Y-37135D01*
X47264Y-37094D01*
X47233Y-37070D01*
X47212Y-37060D01*
X47194Y-37061D01*
X47180Y-37067D01*
X47157Y-37080D01*
X47109Y-37108D01*
X47039Y-37148D01*
X46950Y-37199D01*
X46847Y-37259D01*
X46732Y-37325D01*
X46611Y-37396D01*
X46080Y-37704D01*
X46177Y-37803D01*
X46330Y-37936D01*
X46507Y-38048D01*
X46703Y-38138D01*
X46912Y-38203D01*
X46978Y-38217D01*
X47052Y-38232D01*
X47113Y-38246D01*
X47155Y-38256D01*
X47170Y-38261D01*
X47176Y-38280D01*
X47158Y-38309D01*
X47120Y-38344D01*
X47077Y-38374D01*
X47018Y-38401D01*
X46959Y-38413D01*
X46959Y-38325D01*
X46950Y-38317D01*
X46923Y-38307D01*
X46873Y-38291D01*
X46808Y-38272D01*
X46783Y-38265D01*
X46677Y-38233D01*
X46577Y-38194D01*
X46481Y-38145D01*
X46386Y-38085D01*
X46289Y-38011D01*
X46188Y-37920D01*
X46079Y-37811D01*
X45961Y-37680D01*
X45831Y-37527D01*
X45685Y-37349D01*
X45665Y-37325D01*
X45526Y-37156D01*
X45399Y-37017D01*
X45285Y-36906D01*
X45182Y-36823D01*
X45149Y-36801D01*
X45058Y-36750D01*
X44963Y-36711D01*
X44874Y-36688D01*
X44822Y-36684D01*
X44801Y-36686D01*
X44804Y-36693D01*
X44833Y-36708D01*
X44870Y-36724D01*
X44973Y-36773D01*
X45073Y-36836D01*
X45174Y-36914D01*
X45280Y-37011D01*
X45393Y-37131D01*
X45516Y-37275D01*
X45590Y-37366D01*
X45734Y-37544D01*
X45863Y-37696D01*
X45979Y-37826D01*
X46086Y-37934D01*
X46186Y-38024D01*
X46283Y-38098D01*
X46379Y-38159D01*
X46478Y-38209D01*
X46581Y-38249D01*
X46693Y-38284D01*
X46725Y-38292D01*
X46802Y-38311D01*
X46870Y-38324D01*
X46921Y-38331D01*
X46953Y-38332D01*
X46959Y-38325D01*
X46959Y-38413D01*
X46953Y-38414D01*
X46877Y-38412D01*
X46780Y-38396D01*
X46725Y-38384D01*
X46565Y-38336D01*
X46409Y-38272D01*
X46269Y-38196D01*
X46241Y-38178D01*
X46161Y-38117D01*
X46065Y-38032D01*
X45960Y-37927D01*
X45847Y-37808D01*
X45732Y-37677D01*
X45619Y-37539D01*
X45608Y-37525D01*
X45470Y-37355D01*
X45346Y-37212D01*
X45233Y-37093D01*
X45129Y-36996D01*
X45031Y-36919D01*
X44938Y-36859D01*
X44875Y-36826D01*
X44814Y-36806D01*
X44763Y-36797D01*
X44763Y-36677D01*
X44761Y-36672D01*
X44741Y-36670D01*
X44738Y-36672D01*
X44741Y-36682D01*
X44750Y-36683D01*
X44763Y-36677D01*
X44763Y-36797D01*
X44738Y-36792D01*
X44656Y-36785D01*
X44578Y-36785D01*
X44514Y-36792D01*
X44475Y-36806D01*
X44447Y-36833D01*
X44417Y-36876D01*
X44387Y-36927D01*
X44366Y-36969D01*
X44366Y-36833D01*
X44356Y-36824D01*
X44331Y-36834D01*
X44298Y-36860D01*
X44267Y-36893D01*
X44237Y-36939D01*
X44232Y-36964D01*
X44248Y-36964D01*
X44282Y-36939D01*
X44300Y-36921D01*
X44336Y-36880D01*
X44360Y-36847D01*
X44366Y-36833D01*
X44366Y-36969D01*
X44361Y-36980D01*
X44345Y-37024D01*
X44340Y-37054D01*
X44345Y-37062D01*
X44367Y-37075D01*
X44361Y-37088D01*
X44332Y-37096D01*
X44295Y-37096D01*
X44255Y-37092D01*
X44231Y-37081D01*
X44213Y-37055D01*
X44195Y-37006D01*
X44193Y-37000D01*
X44175Y-36949D01*
X44161Y-36913D01*
X44156Y-36901D01*
X44136Y-36902D01*
X44092Y-36921D01*
X44027Y-36956D01*
X43945Y-37006D01*
X43919Y-37022D01*
X43782Y-37109D01*
X43878Y-37178D01*
X43940Y-37224D01*
X44012Y-37280D01*
X44078Y-37336D01*
X44083Y-37339D01*
X44133Y-37382D01*
X44175Y-37414D01*
X44201Y-37431D01*
X44205Y-37433D01*
X44217Y-37422D01*
X44213Y-37396D01*
X44197Y-37365D01*
X44173Y-37342D01*
X44168Y-37339D01*
X44123Y-37307D01*
X44109Y-37270D01*
X44112Y-37246D01*
X44133Y-37215D01*
X44179Y-37194D01*
X44252Y-37184D01*
X44309Y-37183D01*
X44374Y-37185D01*
X44416Y-37194D01*
X44445Y-37212D01*
X44450Y-37216D01*
X44475Y-37257D01*
X44482Y-37305D01*
X44471Y-37346D01*
X44454Y-37364D01*
X44439Y-37378D01*
X44433Y-37396D01*
X44433Y-37266D01*
X44418Y-37243D01*
X44379Y-37227D01*
X44324Y-37220D01*
X44276Y-37223D01*
X44224Y-37233D01*
X44203Y-37244D01*
X44209Y-37259D01*
X44225Y-37273D01*
X44241Y-37298D01*
X44256Y-37346D01*
X44267Y-37395D01*
X44284Y-37486D01*
X44301Y-37547D01*
X44318Y-37577D01*
X44333Y-37574D01*
X44346Y-37540D01*
X44356Y-37473D01*
X44357Y-37465D01*
X44368Y-37387D01*
X44386Y-37336D01*
X44401Y-37315D01*
X44425Y-37285D01*
X44433Y-37266D01*
X44433Y-37396D01*
X44430Y-37403D01*
X44426Y-37448D01*
X44425Y-37518D01*
X44425Y-37523D01*
X44425Y-37665D01*
X44545Y-37787D01*
X44609Y-37854D01*
X44648Y-37901D01*
X44664Y-37932D01*
X44658Y-37947D01*
X44642Y-37950D01*
X44630Y-37953D01*
X44620Y-37967D01*
X44612Y-37994D01*
X44606Y-38037D01*
X44603Y-38098D01*
X44601Y-38182D01*
X44600Y-38291D01*
X44601Y-38428D01*
X44602Y-38540D01*
X44604Y-38680D01*
X44606Y-38790D01*
X44608Y-38875D01*
X44611Y-38937D01*
X44615Y-38981D01*
X44620Y-39010D01*
X44626Y-39027D01*
X44634Y-39038D01*
X44637Y-39040D01*
X44660Y-39061D01*
X44666Y-39072D01*
X44651Y-39083D01*
X44608Y-39097D01*
X44547Y-39111D01*
X44547Y-37891D01*
X44386Y-37732D01*
X44135Y-37495D01*
X43875Y-37264D01*
X43651Y-37080D01*
X43442Y-36913D01*
X43417Y-36951D01*
X43380Y-37001D01*
X43322Y-37072D01*
X43245Y-37162D01*
X43150Y-37270D01*
X43041Y-37392D01*
X42960Y-37479D01*
X42888Y-37559D01*
X42824Y-37633D01*
X42772Y-37697D01*
X42734Y-37746D01*
X42715Y-37776D01*
X42714Y-37780D01*
X42712Y-37806D01*
X42709Y-37862D01*
X42707Y-37943D01*
X42705Y-38046D01*
X42704Y-38166D01*
X42702Y-38300D01*
X42702Y-38444D01*
X42701Y-38472D01*
X42700Y-39120D01*
X42804Y-39108D01*
X42871Y-39101D01*
X42956Y-39092D01*
X43041Y-39083D01*
X43058Y-39082D01*
X43139Y-39076D01*
X43239Y-39071D01*
X43343Y-39067D01*
X43410Y-39067D01*
X43611Y-39066D01*
X43621Y-38837D01*
X43630Y-38608D01*
X43687Y-38556D01*
X43761Y-38505D01*
X43857Y-38462D01*
X43963Y-38432D01*
X44046Y-38420D01*
X44107Y-38417D01*
X44145Y-38421D01*
X44170Y-38434D01*
X44184Y-38447D01*
X44223Y-38474D01*
X44273Y-38492D01*
X44274Y-38492D01*
X44298Y-38497D01*
X44315Y-38504D01*
X44326Y-38519D01*
X44331Y-38544D01*
X44330Y-38586D01*
X44323Y-38648D01*
X44312Y-38735D01*
X44299Y-38827D01*
X44287Y-38913D01*
X44278Y-38986D01*
X44273Y-39042D01*
X44271Y-39073D01*
X44272Y-39077D01*
X44291Y-39079D01*
X44334Y-39078D01*
X44393Y-39074D01*
X44404Y-39073D01*
X44528Y-39062D01*
X44538Y-38477D01*
X44547Y-37891D01*
X44547Y-39111D01*
X44545Y-39111D01*
X44466Y-39125D01*
X44413Y-39132D01*
X44340Y-39144D01*
X44293Y-39159D01*
X44265Y-39180D01*
X44264Y-39182D01*
X44264Y-39182D01*
X44264Y-38664D01*
X44263Y-38604D01*
X44254Y-38565D01*
X44235Y-38543D01*
X44207Y-38534D01*
X44190Y-38533D01*
X44169Y-38536D01*
X44153Y-38547D01*
X44141Y-38572D01*
X44131Y-38617D01*
X44122Y-38685D01*
X44114Y-38765D01*
X44104Y-38890D01*
X44104Y-38986D01*
X44112Y-39055D01*
X44130Y-39098D01*
X44144Y-39112D01*
X44167Y-39124D01*
X44182Y-39113D01*
X44194Y-39086D01*
X44205Y-39050D01*
X44218Y-38990D01*
X44232Y-38916D01*
X44240Y-38863D01*
X44256Y-38749D01*
X44264Y-38664D01*
X44264Y-39182D01*
X44240Y-39207D01*
X44218Y-39213D01*
X44187Y-39201D01*
X44145Y-39174D01*
X44103Y-39141D01*
X44072Y-39109D01*
X44067Y-39100D01*
X44055Y-39055D01*
X44050Y-38977D01*
X44054Y-38868D01*
X44065Y-38727D01*
X44069Y-38688D01*
X44078Y-38597D01*
X44080Y-38534D01*
X44073Y-38495D01*
X44055Y-38475D01*
X44023Y-38470D01*
X43975Y-38473D01*
X43960Y-38475D01*
X43881Y-38496D01*
X43835Y-38525D01*
X43790Y-38565D01*
X43743Y-38605D01*
X43742Y-38606D01*
X43723Y-38622D01*
X43709Y-38639D01*
X43699Y-38663D01*
X43691Y-38698D01*
X43685Y-38752D01*
X43678Y-38830D01*
X43673Y-38897D01*
X43663Y-39010D01*
X43653Y-39092D01*
X43641Y-39149D01*
X43626Y-39183D01*
X43608Y-39198D01*
X43597Y-39200D01*
X43584Y-39186D01*
X43583Y-39177D01*
X43567Y-39150D01*
X43522Y-39130D01*
X43450Y-39120D01*
X43354Y-39118D01*
X43236Y-39124D01*
X43100Y-39139D01*
X42983Y-39158D01*
X42894Y-39172D01*
X42815Y-39185D01*
X42751Y-39194D01*
X42711Y-39199D01*
X42704Y-39199D01*
X42666Y-39200D01*
X42666Y-38678D01*
X42666Y-38157D01*
X42495Y-38326D01*
X42425Y-38392D01*
X42354Y-38455D01*
X42290Y-38507D01*
X42240Y-38542D01*
X42233Y-38547D01*
X42162Y-38583D01*
X42113Y-38598D01*
X42088Y-38593D01*
X42087Y-38569D01*
X42113Y-38526D01*
X42138Y-38497D01*
X42273Y-38343D01*
X42386Y-38212D01*
X42478Y-38103D01*
X42551Y-38015D01*
X42604Y-37945D01*
X42640Y-37894D01*
X42660Y-37860D01*
X42663Y-37842D01*
X42661Y-37839D01*
X42644Y-37843D01*
X42608Y-37861D01*
X42577Y-37881D01*
X42521Y-37915D01*
X42478Y-37931D01*
X42454Y-37930D01*
X42450Y-37920D01*
X42461Y-37902D01*
X42489Y-37869D01*
X42518Y-37840D01*
X42587Y-37760D01*
X42624Y-37677D01*
X42633Y-37608D01*
X42638Y-37565D01*
X42650Y-37551D01*
X42665Y-37566D01*
X42673Y-37591D01*
X42688Y-37622D01*
X42703Y-37633D01*
X42723Y-37621D01*
X42761Y-37589D01*
X42813Y-37539D01*
X42875Y-37478D01*
X42944Y-37407D01*
X43015Y-37333D01*
X43084Y-37258D01*
X43148Y-37187D01*
X43202Y-37123D01*
X43221Y-37100D01*
X43293Y-37009D01*
X43347Y-36941D01*
X43386Y-36893D01*
X43413Y-36862D01*
X43431Y-36843D01*
X43441Y-36835D01*
X43448Y-36833D01*
X43465Y-36843D01*
X43500Y-36871D01*
X43547Y-36911D01*
X43562Y-36925D01*
X43610Y-36967D01*
X43648Y-36999D01*
X43670Y-37015D01*
X43672Y-37016D01*
X43691Y-37008D01*
X43733Y-36987D01*
X43793Y-36955D01*
X43865Y-36915D01*
X43945Y-36871D01*
X44026Y-36825D01*
X44103Y-36781D01*
X44171Y-36742D01*
X44224Y-36711D01*
X44257Y-36690D01*
X44261Y-36687D01*
X44299Y-36648D01*
X44323Y-36605D01*
X44325Y-36598D01*
X44338Y-36559D01*
X44354Y-36553D01*
X44376Y-36579D01*
X44380Y-36585D01*
X44396Y-36604D01*
X44417Y-36613D01*
X44454Y-36614D01*
X44505Y-36609D01*
X44616Y-36598D01*
X44699Y-36590D01*
X44762Y-36587D01*
X44810Y-36586D01*
X44849Y-36590D01*
X44886Y-36596D01*
X44902Y-36600D01*
X45007Y-36632D01*
X45111Y-36679D01*
X45216Y-36744D01*
X45324Y-36828D01*
X45438Y-36934D01*
X45560Y-37064D01*
X45692Y-37219D01*
X45817Y-37375D01*
X45874Y-37447D01*
X45923Y-37510D01*
X45962Y-37559D01*
X45986Y-37589D01*
X45992Y-37597D01*
X46007Y-37590D01*
X46047Y-37569D01*
X46109Y-37535D01*
X46189Y-37490D01*
X46282Y-37436D01*
X46386Y-37376D01*
X46411Y-37362D01*
X46617Y-37242D01*
X46796Y-37139D01*
X46948Y-37052D01*
X47076Y-36982D01*
X47179Y-36926D01*
X47259Y-36885D01*
X47296Y-36867D01*
X47343Y-36847D01*
X47379Y-36840D01*
X47413Y-36846D01*
X47449Y-36870D01*
X47493Y-36913D01*
X47551Y-36980D01*
X47561Y-36991D01*
X47631Y-37064D01*
X47716Y-37140D01*
X47803Y-37207D01*
X47805Y-37208D01*
X47869Y-37254D01*
X47911Y-37287D01*
X47935Y-37312D01*
X47946Y-37336D01*
X47949Y-37362D01*
X47949Y-37363D01*
X47949Y-37363D01*
X47949Y-37363D01*
G37*
G36*
X43611Y-38603D02*
X43604Y-38612D01*
X43600Y-38615D01*
X43560Y-38631D01*
X43513Y-38638D01*
X43500Y-38638D01*
X43500Y-38572D01*
X43500Y-38428D01*
X43500Y-38225D01*
X43500Y-38183D01*
X43500Y-38093D01*
X43497Y-38037D01*
X43484Y-38004D01*
X43455Y-37988D01*
X43403Y-37983D01*
X43373Y-37983D01*
X43300Y-37983D01*
X43300Y-38083D01*
X43300Y-38183D01*
X43400Y-38183D01*
X43500Y-38183D01*
X43500Y-38225D01*
X43491Y-38216D01*
X43483Y-38225D01*
X43491Y-38233D01*
X43500Y-38225D01*
X43500Y-38428D01*
X43496Y-38417D01*
X43496Y-38341D01*
X43494Y-38338D01*
X43484Y-38341D01*
X43483Y-38350D01*
X43489Y-38363D01*
X43494Y-38361D01*
X43496Y-38341D01*
X43496Y-38417D01*
X43494Y-38412D01*
X43473Y-38403D01*
X43429Y-38400D01*
X43400Y-38400D01*
X43344Y-38400D01*
X43344Y-38362D01*
X43335Y-38344D01*
X43333Y-38341D01*
X43320Y-38304D01*
X43322Y-38266D01*
X43324Y-38231D01*
X43316Y-38216D01*
X43316Y-38216D01*
X43306Y-38231D01*
X43300Y-38269D01*
X43300Y-38291D01*
X43302Y-38340D01*
X43313Y-38362D01*
X43327Y-38366D01*
X43344Y-38362D01*
X43344Y-38400D01*
X43344Y-38400D01*
X43314Y-38405D01*
X43302Y-38417D01*
X43300Y-38440D01*
X43300Y-38445D01*
X43300Y-38490D01*
X43325Y-38453D01*
X43365Y-38423D01*
X43405Y-38416D01*
X43449Y-38422D01*
X43479Y-38436D01*
X43480Y-38436D01*
X43496Y-38446D01*
X43500Y-38428D01*
X43500Y-38572D01*
X43494Y-38555D01*
X43479Y-38563D01*
X43446Y-38579D01*
X43416Y-38587D01*
X43397Y-38592D01*
X43409Y-38596D01*
X43437Y-38597D01*
X43480Y-38595D01*
X43498Y-38582D01*
X43500Y-38572D01*
X43500Y-38638D01*
X43448Y-38637D01*
X43391Y-38631D01*
X43344Y-38628D01*
X43344Y-38579D01*
X43337Y-38562D01*
X43331Y-38554D01*
X43311Y-38527D01*
X43304Y-38518D01*
X43301Y-38526D01*
X43300Y-38547D01*
X43310Y-38577D01*
X43327Y-38583D01*
X43344Y-38579D01*
X43344Y-38628D01*
X43331Y-38626D01*
X43266Y-38623D01*
X43266Y-38556D01*
X43266Y-38416D01*
X43266Y-38366D01*
X43266Y-38291D01*
X43266Y-38216D01*
X43266Y-38020D01*
X43263Y-37998D01*
X43248Y-37987D01*
X43213Y-37983D01*
X43175Y-37983D01*
X43122Y-37984D01*
X43094Y-37990D01*
X43084Y-38004D01*
X43083Y-38020D01*
X43086Y-38044D01*
X43100Y-38039D01*
X43103Y-38036D01*
X43133Y-38022D01*
X43175Y-38016D01*
X43218Y-38022D01*
X43246Y-38036D01*
X43261Y-38045D01*
X43266Y-38024D01*
X43266Y-38020D01*
X43266Y-38216D01*
X43266Y-38216D01*
X43266Y-38154D01*
X43261Y-38137D01*
X43253Y-38141D01*
X43229Y-38167D01*
X43226Y-38170D01*
X43226Y-38181D01*
X43238Y-38183D01*
X43262Y-38169D01*
X43266Y-38154D01*
X43266Y-38216D01*
X43176Y-38216D01*
X43117Y-38220D01*
X43116Y-38220D01*
X43116Y-38175D01*
X43104Y-38161D01*
X43100Y-38158D01*
X43084Y-38159D01*
X43083Y-38165D01*
X43095Y-38182D01*
X43100Y-38183D01*
X43116Y-38177D01*
X43116Y-38175D01*
X43116Y-38220D01*
X43084Y-38234D01*
X43069Y-38266D01*
X43066Y-38318D01*
X43068Y-38344D01*
X43077Y-38359D01*
X43102Y-38365D01*
X43152Y-38366D01*
X43166Y-38366D01*
X43266Y-38366D01*
X43266Y-38416D01*
X43253Y-38400D01*
X43249Y-38400D01*
X43239Y-38410D01*
X43241Y-38416D01*
X43256Y-38432D01*
X43259Y-38433D01*
X43266Y-38420D01*
X43266Y-38416D01*
X43266Y-38556D01*
X43260Y-38538D01*
X43245Y-38545D01*
X43210Y-38566D01*
X43200Y-38571D01*
X43195Y-38578D01*
X43219Y-38581D01*
X43220Y-38582D01*
X43257Y-38575D01*
X43266Y-38556D01*
X43266Y-38623D01*
X43248Y-38623D01*
X43160Y-38620D01*
X43160Y-38576D01*
X43136Y-38565D01*
X43133Y-38564D01*
X43097Y-38545D01*
X43089Y-38537D01*
X43089Y-38403D01*
X43082Y-38400D01*
X43068Y-38413D01*
X43066Y-38425D01*
X43070Y-38447D01*
X43073Y-38450D01*
X43083Y-38436D01*
X43089Y-38425D01*
X43089Y-38403D01*
X43089Y-38537D01*
X43079Y-38528D01*
X43069Y-38524D01*
X43066Y-38545D01*
X43072Y-38571D01*
X43095Y-38581D01*
X43120Y-38582D01*
X43156Y-38580D01*
X43160Y-38576D01*
X43160Y-38620D01*
X43151Y-38620D01*
X43050Y-38619D01*
X43050Y-38619D01*
X43050Y-38183D01*
X43050Y-38083D01*
X43050Y-37983D01*
X42958Y-37983D01*
X42866Y-37983D01*
X42866Y-38083D01*
X42866Y-38183D01*
X42958Y-38183D01*
X43050Y-38183D01*
X43050Y-38619D01*
X43044Y-38619D01*
X43044Y-38227D01*
X43027Y-38219D01*
X42986Y-38216D01*
X42960Y-38216D01*
X42866Y-38216D01*
X42866Y-38291D01*
X42866Y-38366D01*
X42950Y-38366D01*
X42999Y-38365D01*
X43023Y-38358D01*
X43032Y-38341D01*
X43033Y-38318D01*
X43036Y-38272D01*
X43043Y-38243D01*
X43044Y-38227D01*
X43044Y-38619D01*
X43033Y-38619D01*
X43033Y-38555D01*
X43033Y-38416D01*
X43020Y-38400D01*
X43015Y-38400D01*
X43005Y-38410D01*
X43008Y-38416D01*
X43023Y-38432D01*
X43025Y-38433D01*
X43033Y-38420D01*
X43033Y-38416D01*
X43033Y-38555D01*
X43028Y-38536D01*
X43013Y-38546D01*
X42982Y-38562D01*
X42950Y-38566D01*
X42909Y-38559D01*
X42897Y-38552D01*
X42897Y-38410D01*
X42894Y-38405D01*
X42874Y-38403D01*
X42872Y-38405D01*
X42874Y-38415D01*
X42883Y-38416D01*
X42897Y-38410D01*
X42897Y-38552D01*
X42886Y-38546D01*
X42870Y-38536D01*
X42866Y-38555D01*
X42873Y-38572D01*
X42897Y-38580D01*
X42946Y-38583D01*
X42950Y-38583D01*
X43000Y-38581D01*
X43026Y-38572D01*
X43033Y-38556D01*
X43033Y-38555D01*
X43033Y-38619D01*
X43019Y-38619D01*
X42903Y-38618D01*
X42819Y-38615D01*
X42768Y-38610D01*
X42749Y-38603D01*
X42761Y-38594D01*
X42779Y-38589D01*
X42792Y-38584D01*
X42801Y-38576D01*
X42808Y-38559D01*
X42812Y-38530D01*
X42815Y-38483D01*
X42816Y-38414D01*
X42816Y-38318D01*
X42816Y-38258D01*
X42817Y-38144D01*
X42818Y-38060D01*
X42820Y-38000D01*
X42824Y-37961D01*
X42830Y-37938D01*
X42839Y-37928D01*
X42841Y-37927D01*
X42863Y-37926D01*
X42866Y-37933D01*
X42882Y-37939D01*
X42929Y-37943D01*
X43004Y-37947D01*
X43103Y-37949D01*
X43215Y-37950D01*
X43346Y-37950D01*
X43446Y-37953D01*
X43516Y-37957D01*
X43560Y-37964D01*
X43579Y-37973D01*
X43575Y-37985D01*
X43566Y-37991D01*
X43560Y-38011D01*
X43555Y-38062D01*
X43552Y-38140D01*
X43550Y-38242D01*
X43550Y-38300D01*
X43550Y-38407D01*
X43550Y-38484D01*
X43552Y-38538D01*
X43556Y-38571D01*
X43561Y-38590D01*
X43570Y-38598D01*
X43582Y-38600D01*
X43587Y-38600D01*
X43611Y-38603D01*
X43611Y-38603D01*
X43611Y-38603D01*
G37*
G54D16*
X51000Y-46000D02*
X40000Y-46000D01*
X40000Y-46000D02*
X40000Y-56000D01*
X40000Y-56000D02*
X51000Y-56000D01*
X51000Y-56000D02*
X51000Y-46000D01*
X50000Y-44000D02*
X50000Y-33000D01*
X50000Y-33000D02*
X40000Y-33000D01*
X40000Y-33000D02*
X40000Y-44000D01*
X40000Y-44000D02*
X50000Y-44000D01*
X60000Y-44000D02*
X60000Y-33000D01*
X60000Y-33000D02*
X50000Y-33000D01*
X50000Y-33000D02*
X50000Y-44000D01*
X50000Y-44000D02*
X60000Y-44000D01*
X51000Y-56000D02*
X62000Y-56000D01*
X62000Y-56000D02*
X62000Y-46000D01*
X62000Y-46000D02*
X51000Y-46000D01*
X51000Y-46000D02*
X51000Y-56000D01*
G54D10*
G36*
X44166Y-53850D02*
X44091Y-53850D01*
X44016Y-53850D01*
X44016Y-53634D01*
X44016Y-53546D01*
X44015Y-53485D01*
X44011Y-53444D01*
X44004Y-53419D01*
X43992Y-53401D01*
X43975Y-53386D01*
X43972Y-53384D01*
X43936Y-53360D01*
X43909Y-53350D01*
X43908Y-53350D01*
X43881Y-53359D01*
X43846Y-53382D01*
X43843Y-53384D01*
X43825Y-53399D01*
X43813Y-53416D01*
X43806Y-53440D01*
X43801Y-53477D01*
X43800Y-53535D01*
X43800Y-53619D01*
X43800Y-53634D01*
X43800Y-53850D01*
X43725Y-53850D01*
X43650Y-53850D01*
X43650Y-53050D01*
X43650Y-52250D01*
X43723Y-52250D01*
X43773Y-52254D01*
X43801Y-52266D01*
X43804Y-52270D01*
X43815Y-52282D01*
X43838Y-52269D01*
X43879Y-52252D01*
X43937Y-52246D01*
X43999Y-52252D01*
X44050Y-52268D01*
X44057Y-52272D01*
X44099Y-52305D01*
X44127Y-52342D01*
X44145Y-52390D01*
X44154Y-52458D01*
X44156Y-52550D01*
X44156Y-52565D01*
X44154Y-52654D01*
X44147Y-52725D01*
X44138Y-52771D01*
X44135Y-52780D01*
X44089Y-52832D01*
X44023Y-52867D01*
X44016Y-52869D01*
X44016Y-52510D01*
X44012Y-52468D01*
X44003Y-52440D01*
X43985Y-52418D01*
X43935Y-52388D01*
X43880Y-52388D01*
X43833Y-52416D01*
X43814Y-52443D01*
X43803Y-52481D01*
X43800Y-52540D01*
X43800Y-52559D01*
X43801Y-52621D01*
X43809Y-52662D01*
X43825Y-52691D01*
X43842Y-52710D01*
X43880Y-52739D01*
X43916Y-52744D01*
X43930Y-52742D01*
X43969Y-52728D01*
X43991Y-52714D01*
X44000Y-52691D01*
X44008Y-52644D01*
X44013Y-52583D01*
X44013Y-52576D01*
X44016Y-52510D01*
X44016Y-52869D01*
X43948Y-52881D01*
X43874Y-52871D01*
X43845Y-52859D01*
X43800Y-52835D01*
X43800Y-53044D01*
X43800Y-53130D01*
X43801Y-53189D01*
X43805Y-53223D01*
X43811Y-53240D01*
X43820Y-53243D01*
X43829Y-53240D01*
X43863Y-53230D01*
X43914Y-53222D01*
X43933Y-53220D01*
X44012Y-53228D01*
X44081Y-53262D01*
X44130Y-53319D01*
X44144Y-53350D01*
X44152Y-53390D01*
X44159Y-53455D01*
X44163Y-53538D01*
X44165Y-53629D01*
X44166Y-53850D01*
X44166Y-53850D01*
X44166Y-53850D01*
G37*
G36*
X44753Y-53847D02*
X44600Y-53847D01*
X44600Y-53629D01*
X44596Y-53599D01*
X44581Y-53586D01*
X44543Y-53583D01*
X44534Y-53583D01*
X44462Y-53590D01*
X44408Y-53608D01*
X44376Y-53636D01*
X44371Y-53669D01*
X44383Y-53691D01*
X44413Y-53707D01*
X44462Y-53715D01*
X44516Y-53715D01*
X44561Y-53706D01*
X44580Y-53696D01*
X44594Y-53665D01*
X44600Y-53629D01*
X44600Y-53847D01*
X44554Y-53848D01*
X44469Y-53848D01*
X44411Y-53846D01*
X44371Y-53841D01*
X44344Y-53833D01*
X44321Y-53819D01*
X44302Y-53803D01*
X44257Y-53746D01*
X44237Y-53679D01*
X44241Y-53609D01*
X44270Y-53547D01*
X44311Y-53507D01*
X44351Y-53491D01*
X44414Y-53478D01*
X44476Y-53471D01*
X44539Y-53465D01*
X44577Y-53458D01*
X44594Y-53448D01*
X44599Y-53431D01*
X44600Y-53425D01*
X44591Y-53387D01*
X44580Y-53370D01*
X44547Y-53355D01*
X44497Y-53350D01*
X44444Y-53354D01*
X44403Y-53367D01*
X44395Y-53373D01*
X44375Y-53387D01*
X44352Y-53382D01*
X44318Y-53361D01*
X44286Y-53331D01*
X44270Y-53304D01*
X44270Y-53300D01*
X44291Y-53269D01*
X44337Y-53244D01*
X44400Y-53227D01*
X44472Y-53218D01*
X44545Y-53219D01*
X44611Y-53230D01*
X44639Y-53241D01*
X44675Y-53261D01*
X44701Y-53284D01*
X44719Y-53316D01*
X44732Y-53363D01*
X44740Y-53429D01*
X44744Y-53519D01*
X44747Y-53594D01*
X44753Y-53847D01*
X44753Y-53847D01*
X44753Y-53847D01*
G37*
G36*
X45299Y-53275D02*
X45249Y-53328D01*
X45216Y-53362D01*
X45192Y-53373D01*
X45165Y-53366D01*
X45158Y-53363D01*
X45104Y-53355D01*
X45054Y-53375D01*
X45019Y-53418D01*
X45016Y-53425D01*
X45009Y-53459D01*
X45004Y-53517D01*
X45000Y-53592D01*
X45000Y-53659D01*
X45000Y-53850D01*
X44933Y-53850D01*
X44866Y-53850D01*
X44866Y-53533D01*
X44866Y-53216D01*
X44933Y-53216D01*
X44979Y-53220D01*
X44998Y-53234D01*
X45000Y-53242D01*
X45003Y-53257D01*
X45019Y-53256D01*
X45049Y-53242D01*
X45111Y-53221D01*
X45179Y-53218D01*
X45238Y-53230D01*
X45264Y-53245D01*
X45299Y-53275D01*
X45299Y-53275D01*
X45299Y-53275D01*
G37*
G36*
X45783Y-53850D02*
X45716Y-53850D01*
X45670Y-53846D01*
X45651Y-53832D01*
X45650Y-53824D01*
X45646Y-53807D01*
X45641Y-53808D01*
X45641Y-53530D01*
X45640Y-53466D01*
X45634Y-53426D01*
X45621Y-53400D01*
X45602Y-53381D01*
X45564Y-53358D01*
X45533Y-53350D01*
X45499Y-53360D01*
X45464Y-53381D01*
X45443Y-53403D01*
X45431Y-53429D01*
X45426Y-53471D01*
X45425Y-53530D01*
X45431Y-53616D01*
X45451Y-53675D01*
X45487Y-53707D01*
X45533Y-53716D01*
X45578Y-53704D01*
X45609Y-53681D01*
X45628Y-53653D01*
X45637Y-53612D01*
X45641Y-53549D01*
X45641Y-53530D01*
X45641Y-53808D01*
X45632Y-53811D01*
X45612Y-53824D01*
X45560Y-53844D01*
X45492Y-53849D01*
X45422Y-53838D01*
X45371Y-53817D01*
X45332Y-53783D01*
X45305Y-53734D01*
X45289Y-53665D01*
X45284Y-53573D01*
X45285Y-53498D01*
X45293Y-53401D01*
X45308Y-53330D01*
X45334Y-53281D01*
X45372Y-53247D01*
X45396Y-53234D01*
X45463Y-53218D01*
X45538Y-53221D01*
X45600Y-53242D01*
X45650Y-53267D01*
X45650Y-53117D01*
X45650Y-52966D01*
X45716Y-52966D01*
X45783Y-52966D01*
X45783Y-53408D01*
X45783Y-53850D01*
X45783Y-53850D01*
X45783Y-53850D01*
G37*
G36*
X46730Y-53214D02*
X46673Y-53394D01*
X46644Y-53486D01*
X46614Y-53583D01*
X46586Y-53671D01*
X46573Y-53712D01*
X46531Y-53850D01*
X46467Y-53850D01*
X46404Y-53850D01*
X46348Y-53658D01*
X46325Y-53584D01*
X46305Y-53523D01*
X46290Y-53482D01*
X46282Y-53466D01*
X46282Y-53466D01*
X46274Y-53481D01*
X46259Y-53522D01*
X46239Y-53583D01*
X46217Y-53657D01*
X46217Y-53658D01*
X46161Y-53850D01*
X46098Y-53850D01*
X46035Y-53850D01*
X45941Y-53556D01*
X45911Y-53462D01*
X45883Y-53377D01*
X45861Y-53309D01*
X45845Y-53261D01*
X45838Y-53240D01*
X45840Y-53225D01*
X45865Y-53218D01*
X45906Y-53216D01*
X45982Y-53216D01*
X46007Y-53304D01*
X46025Y-53367D01*
X46047Y-53444D01*
X46065Y-53508D01*
X46083Y-53567D01*
X46096Y-53596D01*
X46105Y-53597D01*
X46108Y-53591D01*
X46145Y-53474D01*
X46173Y-53385D01*
X46195Y-53320D01*
X46213Y-53276D01*
X46228Y-53248D01*
X46243Y-53232D01*
X46258Y-53226D01*
X46276Y-53225D01*
X46281Y-53225D01*
X46336Y-53225D01*
X46396Y-53412D01*
X46420Y-53485D01*
X46441Y-53545D01*
X46457Y-53585D01*
X46466Y-53600D01*
X46473Y-53584D01*
X46488Y-53543D01*
X46506Y-53483D01*
X46526Y-53412D01*
X46576Y-53225D01*
X46653Y-53219D01*
X46730Y-53214D01*
X46730Y-53214D01*
X46730Y-53214D01*
G37*
G36*
X47233Y-53847D02*
X47083Y-53847D01*
X47083Y-53623D01*
X47079Y-53597D01*
X47061Y-53585D01*
X47019Y-53583D01*
X47017Y-53583D01*
X46945Y-53590D01*
X46891Y-53608D01*
X46859Y-53636D01*
X46854Y-53669D01*
X46866Y-53691D01*
X46896Y-53708D01*
X46942Y-53716D01*
X46995Y-53717D01*
X47041Y-53710D01*
X47070Y-53695D01*
X47073Y-53690D01*
X47081Y-53652D01*
X47083Y-53623D01*
X47083Y-53847D01*
X47045Y-53848D01*
X46957Y-53847D01*
X46895Y-53844D01*
X46852Y-53837D01*
X46820Y-53825D01*
X46805Y-53817D01*
X46757Y-53770D01*
X46728Y-53706D01*
X46721Y-53636D01*
X46724Y-53618D01*
X46754Y-53552D01*
X46812Y-53505D01*
X46896Y-53476D01*
X47004Y-53466D01*
X47052Y-53465D01*
X47075Y-53457D01*
X47082Y-53439D01*
X47083Y-53428D01*
X47075Y-53389D01*
X47063Y-53370D01*
X47029Y-53355D01*
X46979Y-53350D01*
X46927Y-53356D01*
X46887Y-53371D01*
X46883Y-53374D01*
X46863Y-53387D01*
X46842Y-53383D01*
X46808Y-53359D01*
X46801Y-53353D01*
X46747Y-53308D01*
X46791Y-53267D01*
X46840Y-53238D01*
X46911Y-53221D01*
X46990Y-53216D01*
X47069Y-53223D01*
X47122Y-53239D01*
X47161Y-53260D01*
X47190Y-53288D01*
X47210Y-53329D01*
X47223Y-53387D01*
X47230Y-53468D01*
X47233Y-53575D01*
X47233Y-53614D01*
X47233Y-53847D01*
X47233Y-53847D01*
X47233Y-53847D01*
G37*
G36*
X47779Y-53266D02*
X47767Y-53290D01*
X47734Y-53330D01*
X47702Y-53364D01*
X47679Y-53375D01*
X47654Y-53369D01*
X47650Y-53366D01*
X47605Y-53355D01*
X47572Y-53357D01*
X47537Y-53376D01*
X47511Y-53415D01*
X47494Y-53477D01*
X47485Y-53566D01*
X47483Y-53666D01*
X47483Y-53850D01*
X47416Y-53850D01*
X47350Y-53850D01*
X47350Y-53533D01*
X47350Y-53216D01*
X47416Y-53216D01*
X47462Y-53220D01*
X47481Y-53234D01*
X47483Y-53242D01*
X47486Y-53257D01*
X47502Y-53256D01*
X47532Y-53242D01*
X47604Y-53220D01*
X47683Y-53220D01*
X47740Y-53236D01*
X47770Y-53251D01*
X47779Y-53266D01*
X47779Y-53266D01*
X47779Y-53266D01*
G37*
G36*
X48283Y-53583D02*
X48150Y-53583D01*
X48150Y-53452D01*
X48140Y-53430D01*
X48117Y-53396D01*
X48115Y-53393D01*
X48069Y-53358D01*
X48014Y-53351D01*
X47962Y-53372D01*
X47950Y-53383D01*
X47919Y-53419D01*
X47916Y-53444D01*
X47941Y-53459D01*
X47997Y-53466D01*
X48033Y-53466D01*
X48090Y-53464D01*
X48132Y-53459D01*
X48149Y-53452D01*
X48150Y-53452D01*
X48150Y-53583D01*
X48100Y-53583D01*
X48019Y-53583D01*
X47967Y-53585D01*
X47936Y-53589D01*
X47921Y-53597D01*
X47916Y-53610D01*
X47916Y-53616D01*
X47931Y-53662D01*
X47969Y-53695D01*
X48021Y-53713D01*
X48080Y-53713D01*
X48137Y-53692D01*
X48141Y-53690D01*
X48170Y-53674D01*
X48193Y-53676D01*
X48225Y-53697D01*
X48231Y-53702D01*
X48264Y-53730D01*
X48281Y-53750D01*
X48282Y-53753D01*
X48269Y-53767D01*
X48236Y-53791D01*
X48211Y-53807D01*
X48131Y-53839D01*
X48043Y-53851D01*
X47957Y-53843D01*
X47888Y-53817D01*
X47830Y-53765D01*
X47791Y-53690D01*
X47771Y-53588D01*
X47770Y-53581D01*
X47772Y-53473D01*
X47795Y-53378D01*
X47837Y-53301D01*
X47896Y-53247D01*
X47927Y-53232D01*
X48000Y-53217D01*
X48080Y-53221D01*
X48150Y-53243D01*
X48162Y-53249D01*
X48228Y-53306D01*
X48268Y-53381D01*
X48283Y-53477D01*
X48283Y-53487D01*
X48283Y-53583D01*
X48283Y-53583D01*
X48283Y-53583D01*
G37*
G36*
X43561Y-52555D02*
X43557Y-52638D01*
X43544Y-52712D01*
X43525Y-52764D01*
X43471Y-52824D01*
X43416Y-52855D01*
X43416Y-52557D01*
X43414Y-52494D01*
X43406Y-52454D01*
X43389Y-52426D01*
X43380Y-52417D01*
X43328Y-52387D01*
X43274Y-52390D01*
X43224Y-52424D01*
X43199Y-52455D01*
X43186Y-52493D01*
X43183Y-52550D01*
X43183Y-52558D01*
X43188Y-52638D01*
X43207Y-52692D01*
X43239Y-52725D01*
X43255Y-52733D01*
X43313Y-52740D01*
X43367Y-52715D01*
X43387Y-52696D01*
X43406Y-52661D01*
X43415Y-52607D01*
X43416Y-52557D01*
X43416Y-52855D01*
X43399Y-52864D01*
X43318Y-52883D01*
X43236Y-52877D01*
X43175Y-52852D01*
X43124Y-52818D01*
X43091Y-52784D01*
X43070Y-52742D01*
X43059Y-52684D01*
X43053Y-52603D01*
X43052Y-52581D01*
X43050Y-52503D01*
X43052Y-52449D01*
X43058Y-52410D01*
X43071Y-52379D01*
X43083Y-52358D01*
X43139Y-52296D01*
X43211Y-52258D01*
X43292Y-52244D01*
X43375Y-52254D01*
X43452Y-52289D01*
X43518Y-52348D01*
X43523Y-52355D01*
X43544Y-52403D01*
X43557Y-52473D01*
X43561Y-52555D01*
X43561Y-52555D01*
X43561Y-52555D01*
G37*
G36*
X44753Y-52616D02*
X44606Y-52616D01*
X44606Y-52473D01*
X44605Y-52467D01*
X44577Y-52419D01*
X44530Y-52387D01*
X44491Y-52379D01*
X44438Y-52394D01*
X44395Y-52431D01*
X44378Y-52467D01*
X44376Y-52484D01*
X44386Y-52494D01*
X44415Y-52498D01*
X44468Y-52499D01*
X44491Y-52500D01*
X44554Y-52499D01*
X44589Y-52495D01*
X44605Y-52488D01*
X44606Y-52473D01*
X44606Y-52616D01*
X44561Y-52616D01*
X44368Y-52616D01*
X44385Y-52667D01*
X44418Y-52720D01*
X44468Y-52746D01*
X44534Y-52744D01*
X44594Y-52722D01*
X44633Y-52705D01*
X44658Y-52706D01*
X44684Y-52726D01*
X44695Y-52738D01*
X44723Y-52770D01*
X44726Y-52792D01*
X44718Y-52805D01*
X44666Y-52846D01*
X44593Y-52871D01*
X44510Y-52881D01*
X44429Y-52874D01*
X44366Y-52852D01*
X44307Y-52804D01*
X44265Y-52734D01*
X44240Y-52649D01*
X44232Y-52557D01*
X44242Y-52465D01*
X44270Y-52380D01*
X44316Y-52310D01*
X44351Y-52278D01*
X44404Y-52256D01*
X44473Y-52246D01*
X44546Y-52250D01*
X44608Y-52266D01*
X44630Y-52279D01*
X44690Y-52333D01*
X44726Y-52395D01*
X44744Y-52475D01*
X44746Y-52508D01*
X44753Y-52616D01*
X44753Y-52616D01*
X44753Y-52616D01*
G37*
G36*
X45350Y-52883D02*
X45283Y-52883D01*
X45216Y-52883D01*
X45216Y-52702D01*
X45214Y-52622D01*
X45210Y-52549D01*
X45203Y-52492D01*
X45198Y-52468D01*
X45166Y-52414D01*
X45121Y-52387D01*
X45071Y-52388D01*
X45022Y-52419D01*
X45019Y-52421D01*
X45004Y-52440D01*
X44994Y-52462D01*
X44987Y-52495D01*
X44984Y-52543D01*
X44983Y-52615D01*
X44983Y-52671D01*
X44983Y-52883D01*
X44916Y-52883D01*
X44850Y-52883D01*
X44850Y-52566D01*
X44850Y-52250D01*
X44915Y-52250D01*
X44958Y-52253D01*
X44983Y-52263D01*
X44986Y-52266D01*
X45004Y-52271D01*
X45045Y-52263D01*
X45060Y-52258D01*
X45137Y-52243D01*
X45179Y-52248D01*
X45236Y-52268D01*
X45280Y-52293D01*
X45310Y-52328D01*
X45331Y-52377D01*
X45343Y-52446D01*
X45348Y-52538D01*
X45350Y-52649D01*
X45350Y-52883D01*
X45350Y-52883D01*
X45350Y-52883D01*
G37*
G36*
X46205Y-52704D02*
X46183Y-52773D01*
X46135Y-52828D01*
X46064Y-52865D01*
X45973Y-52882D01*
X45950Y-52882D01*
X45870Y-52875D01*
X45799Y-52854D01*
X45791Y-52851D01*
X45741Y-52825D01*
X45699Y-52800D01*
X45691Y-52794D01*
X45671Y-52776D01*
X45670Y-52760D01*
X45690Y-52736D01*
X45703Y-52722D01*
X45748Y-52676D01*
X45822Y-52713D01*
X45891Y-52739D01*
X45957Y-52748D01*
X46012Y-52742D01*
X46051Y-52720D01*
X46066Y-52685D01*
X46066Y-52683D01*
X46062Y-52663D01*
X46045Y-52648D01*
X46010Y-52637D01*
X45949Y-52627D01*
X45925Y-52623D01*
X45829Y-52602D01*
X45763Y-52567D01*
X45731Y-52530D01*
X45717Y-52479D01*
X45714Y-52415D01*
X45724Y-52355D01*
X45732Y-52334D01*
X45774Y-52290D01*
X45837Y-52261D01*
X45916Y-52247D01*
X46002Y-52250D01*
X46088Y-52269D01*
X46167Y-52304D01*
X46183Y-52314D01*
X46195Y-52329D01*
X46187Y-52349D01*
X46159Y-52381D01*
X46125Y-52413D01*
X46100Y-52421D01*
X46078Y-52414D01*
X46008Y-52386D01*
X45943Y-52378D01*
X45891Y-52389D01*
X45858Y-52419D01*
X45855Y-52426D01*
X45854Y-52452D01*
X45878Y-52470D01*
X45928Y-52484D01*
X45986Y-52493D01*
X46081Y-52512D01*
X46147Y-52547D01*
X46188Y-52598D01*
X46198Y-52625D01*
X46205Y-52704D01*
X46205Y-52704D01*
X46205Y-52704D01*
G37*
G36*
X46780Y-52627D02*
X46776Y-52684D01*
X46764Y-52727D01*
X46754Y-52749D01*
X46700Y-52820D01*
X46646Y-52853D01*
X46646Y-52592D01*
X46644Y-52520D01*
X46626Y-52457D01*
X46596Y-52410D01*
X46566Y-52391D01*
X46508Y-52387D01*
X46460Y-52410D01*
X46424Y-52455D01*
X46403Y-52517D01*
X46401Y-52591D01*
X46417Y-52663D01*
X46448Y-52709D01*
X46494Y-52734D01*
X46546Y-52736D01*
X46594Y-52715D01*
X46628Y-52672D01*
X46632Y-52662D01*
X46646Y-52592D01*
X46646Y-52853D01*
X46626Y-52865D01*
X46535Y-52883D01*
X46525Y-52883D01*
X46448Y-52875D01*
X46387Y-52849D01*
X46381Y-52845D01*
X46328Y-52800D01*
X46293Y-52746D01*
X46274Y-52676D01*
X46269Y-52584D01*
X46270Y-52547D01*
X46276Y-52457D01*
X46291Y-52392D01*
X46318Y-52341D01*
X46361Y-52297D01*
X46385Y-52279D01*
X46437Y-52256D01*
X46506Y-52246D01*
X46579Y-52250D01*
X46641Y-52266D01*
X46664Y-52279D01*
X46715Y-52323D01*
X46748Y-52369D01*
X46768Y-52427D01*
X46777Y-52505D01*
X46779Y-52547D01*
X46780Y-52627D01*
X46780Y-52627D01*
X46780Y-52627D01*
G37*
G36*
X47383Y-52883D02*
X47316Y-52883D01*
X47270Y-52879D01*
X47251Y-52865D01*
X47250Y-52857D01*
X47246Y-52842D01*
X47230Y-52843D01*
X47200Y-52857D01*
X47128Y-52879D01*
X47050Y-52878D01*
X46982Y-52854D01*
X46976Y-52850D01*
X46942Y-52826D01*
X46918Y-52799D01*
X46902Y-52763D01*
X46891Y-52714D01*
X46886Y-52646D01*
X46884Y-52552D01*
X46883Y-52495D01*
X46883Y-52250D01*
X46950Y-52250D01*
X47016Y-52250D01*
X47016Y-52451D01*
X47018Y-52532D01*
X47021Y-52604D01*
X47027Y-52657D01*
X47034Y-52685D01*
X47071Y-52723D01*
X47124Y-52739D01*
X47174Y-52730D01*
X47204Y-52708D01*
X47226Y-52672D01*
X47240Y-52616D01*
X47247Y-52537D01*
X47250Y-52430D01*
X47250Y-52250D01*
X47316Y-52250D01*
X47383Y-52250D01*
X47383Y-52566D01*
X47383Y-52883D01*
X47383Y-52883D01*
X47383Y-52883D01*
G37*
G36*
X47932Y-52296D02*
X47922Y-52315D01*
X47896Y-52348D01*
X47882Y-52365D01*
X47849Y-52400D01*
X47827Y-52410D01*
X47813Y-52403D01*
X47773Y-52384D01*
X47725Y-52390D01*
X47683Y-52416D01*
X47669Y-52433D01*
X47660Y-52455D01*
X47654Y-52489D01*
X47651Y-52541D01*
X47650Y-52616D01*
X47650Y-52666D01*
X47650Y-52883D01*
X47575Y-52883D01*
X47500Y-52883D01*
X47500Y-52566D01*
X47500Y-52250D01*
X47575Y-52250D01*
X47619Y-52253D01*
X47646Y-52262D01*
X47650Y-52267D01*
X47661Y-52275D01*
X47685Y-52265D01*
X47729Y-52251D01*
X47784Y-52247D01*
X47842Y-52251D01*
X47891Y-52262D01*
X47924Y-52279D01*
X47932Y-52296D01*
X47932Y-52296D01*
X47932Y-52296D01*
G37*
G36*
X48425Y-52347D02*
X48376Y-52398D01*
X48327Y-52449D01*
X48274Y-52416D01*
X48205Y-52387D01*
X48145Y-52389D01*
X48097Y-52420D01*
X48064Y-52476D01*
X48050Y-52556D01*
X48050Y-52571D01*
X48061Y-52643D01*
X48093Y-52699D01*
X48140Y-52734D01*
X48195Y-52745D01*
X48252Y-52728D01*
X48268Y-52717D01*
X48316Y-52682D01*
X48366Y-52719D01*
X48403Y-52748D01*
X48413Y-52769D01*
X48398Y-52793D01*
X48379Y-52812D01*
X48305Y-52859D01*
X48219Y-52881D01*
X48128Y-52877D01*
X48043Y-52845D01*
X48043Y-52845D01*
X47976Y-52792D01*
X47933Y-52720D01*
X47912Y-52625D01*
X47908Y-52557D01*
X47918Y-52455D01*
X47946Y-52376D01*
X47995Y-52314D01*
X48017Y-52296D01*
X48094Y-52259D01*
X48182Y-52246D01*
X48272Y-52257D01*
X48353Y-52291D01*
X48375Y-52307D01*
X48425Y-52347D01*
X48425Y-52347D01*
X48425Y-52347D01*
G37*
G36*
X48950Y-52616D02*
X48816Y-52616D01*
X48816Y-52490D01*
X48807Y-52463D01*
X48787Y-52428D01*
X48765Y-52400D01*
X48760Y-52396D01*
X48715Y-52382D01*
X48663Y-52387D01*
X48619Y-52408D01*
X48609Y-52420D01*
X48587Y-52457D01*
X48586Y-52481D01*
X48609Y-52494D01*
X48661Y-52499D01*
X48700Y-52500D01*
X48757Y-52498D01*
X48799Y-52495D01*
X48816Y-52490D01*
X48816Y-52490D01*
X48816Y-52616D01*
X48766Y-52616D01*
X48686Y-52617D01*
X48633Y-52619D01*
X48602Y-52623D01*
X48587Y-52631D01*
X48583Y-52644D01*
X48583Y-52647D01*
X48597Y-52686D01*
X48633Y-52722D01*
X48679Y-52745D01*
X48706Y-52750D01*
X48755Y-52741D01*
X48799Y-52722D01*
X48832Y-52706D01*
X48856Y-52706D01*
X48889Y-52725D01*
X48899Y-52732D01*
X48932Y-52758D01*
X48941Y-52775D01*
X48929Y-52795D01*
X48921Y-52804D01*
X48862Y-52848D01*
X48784Y-52874D01*
X48697Y-52882D01*
X48614Y-52868D01*
X48590Y-52859D01*
X48519Y-52811D01*
X48469Y-52739D01*
X48441Y-52646D01*
X48436Y-52535D01*
X48437Y-52523D01*
X48457Y-52416D01*
X48498Y-52335D01*
X48560Y-52280D01*
X48643Y-52250D01*
X48701Y-52246D01*
X48794Y-52259D01*
X48866Y-52299D01*
X48917Y-52363D01*
X48945Y-52449D01*
X48950Y-52515D01*
X48950Y-52616D01*
X48950Y-52616D01*
X48950Y-52616D01*
G37*
G36*
X48300Y-50263D02*
X48220Y-50280D01*
X48173Y-50289D01*
X48166Y-50290D01*
X48166Y-50160D01*
X48166Y-49957D01*
X48166Y-49753D01*
X47896Y-49702D01*
X47778Y-49678D01*
X47691Y-49657D01*
X47632Y-49639D01*
X47599Y-49623D01*
X47596Y-49620D01*
X47575Y-49590D01*
X47546Y-49536D01*
X47512Y-49465D01*
X47476Y-49384D01*
X47441Y-49301D01*
X47409Y-49221D01*
X47384Y-49152D01*
X47369Y-49102D01*
X47366Y-49081D01*
X47367Y-49056D01*
X47372Y-49031D01*
X47383Y-49003D01*
X47404Y-48966D01*
X47436Y-48916D01*
X47482Y-48847D01*
X47537Y-48768D01*
X47669Y-48578D01*
X47524Y-48432D01*
X47379Y-48287D01*
X47192Y-48416D01*
X47095Y-48482D01*
X47021Y-48531D01*
X46965Y-48565D01*
X46922Y-48586D01*
X46889Y-48596D01*
X46863Y-48599D01*
X46825Y-48592D01*
X46766Y-48573D01*
X46692Y-48545D01*
X46611Y-48511D01*
X46528Y-48475D01*
X46452Y-48439D01*
X46389Y-48406D01*
X46346Y-48380D01*
X46331Y-48366D01*
X46316Y-48333D01*
X46298Y-48271D01*
X46278Y-48187D01*
X46258Y-48085D01*
X46254Y-48066D01*
X46207Y-47808D01*
X46000Y-47808D01*
X45792Y-47808D01*
X45745Y-48066D01*
X45724Y-48174D01*
X45703Y-48262D01*
X45684Y-48327D01*
X45669Y-48364D01*
X45668Y-48366D01*
X45642Y-48387D01*
X45592Y-48416D01*
X45524Y-48450D01*
X45446Y-48486D01*
X45363Y-48522D01*
X45283Y-48554D01*
X45213Y-48580D01*
X45160Y-48595D01*
X45136Y-48599D01*
X45108Y-48596D01*
X45075Y-48585D01*
X45032Y-48564D01*
X44975Y-48529D01*
X44900Y-48480D01*
X44807Y-48416D01*
X44620Y-48287D01*
X44474Y-48433D01*
X44329Y-48579D01*
X44370Y-48635D01*
X44451Y-48748D01*
X44520Y-48850D01*
X44574Y-48939D01*
X44612Y-49010D01*
X44631Y-49061D01*
X44633Y-49076D01*
X44626Y-49112D01*
X44607Y-49171D01*
X44580Y-49246D01*
X44546Y-49329D01*
X44510Y-49413D01*
X44474Y-49492D01*
X44442Y-49558D01*
X44415Y-49604D01*
X44403Y-49620D01*
X44376Y-49636D01*
X44323Y-49653D01*
X44241Y-49674D01*
X44130Y-49697D01*
X44103Y-49702D01*
X43833Y-49753D01*
X43833Y-49960D01*
X43834Y-50038D01*
X43837Y-50103D01*
X43841Y-50148D01*
X43846Y-50166D01*
X43847Y-50166D01*
X43876Y-50169D01*
X43930Y-50178D01*
X44001Y-50191D01*
X44081Y-50207D01*
X44163Y-50223D01*
X44239Y-50239D01*
X44301Y-50253D01*
X44343Y-50264D01*
X44355Y-50268D01*
X44393Y-50294D01*
X44412Y-50316D01*
X44433Y-50356D01*
X44460Y-50417D01*
X44491Y-50493D01*
X44523Y-50576D01*
X44555Y-50660D01*
X44582Y-50739D01*
X44603Y-50804D01*
X44614Y-50848D01*
X44616Y-50861D01*
X44611Y-50892D01*
X44593Y-50934D01*
X44561Y-50992D01*
X44512Y-51068D01*
X44473Y-51127D01*
X44330Y-51338D01*
X44469Y-51477D01*
X44524Y-51531D01*
X44571Y-51576D01*
X44605Y-51606D01*
X44620Y-51616D01*
X44638Y-51607D01*
X44678Y-51583D01*
X44735Y-51546D01*
X44803Y-51500D01*
X44828Y-51483D01*
X44921Y-51421D01*
X44995Y-51378D01*
X45054Y-51354D01*
X45105Y-51347D01*
X45153Y-51355D01*
X45202Y-51376D01*
X45240Y-51390D01*
X45265Y-51390D01*
X45266Y-51388D01*
X45276Y-51369D01*
X45296Y-51325D01*
X45325Y-51260D01*
X45359Y-51180D01*
X45396Y-51090D01*
X45436Y-50995D01*
X45474Y-50901D01*
X45510Y-50813D01*
X45541Y-50736D01*
X45565Y-50675D01*
X45579Y-50636D01*
X45583Y-50623D01*
X45570Y-50605D01*
X45538Y-50578D01*
X45525Y-50569D01*
X45446Y-50499D01*
X45371Y-50404D01*
X45305Y-50291D01*
X45297Y-50273D01*
X45252Y-50141D01*
X45234Y-49997D01*
X45241Y-49850D01*
X45273Y-49707D01*
X45330Y-49577D01*
X45346Y-49550D01*
X45442Y-49430D01*
X45560Y-49330D01*
X45695Y-49255D01*
X45839Y-49208D01*
X45889Y-49199D01*
X46044Y-49193D01*
X46196Y-49218D01*
X46340Y-49271D01*
X46470Y-49351D01*
X46583Y-49455D01*
X46652Y-49548D01*
X46715Y-49675D01*
X46753Y-49817D01*
X46766Y-49965D01*
X46753Y-50111D01*
X46714Y-50247D01*
X46702Y-50273D01*
X46638Y-50389D01*
X46564Y-50487D01*
X46485Y-50561D01*
X46474Y-50569D01*
X46438Y-50596D01*
X46418Y-50619D01*
X46416Y-50623D01*
X46422Y-50643D01*
X46439Y-50689D01*
X46465Y-50754D01*
X46498Y-50835D01*
X46534Y-50925D01*
X46573Y-51020D01*
X46612Y-51114D01*
X46649Y-51201D01*
X46682Y-51278D01*
X46709Y-51338D01*
X46726Y-51377D01*
X46733Y-51388D01*
X46755Y-51391D01*
X46791Y-51379D01*
X46797Y-51376D01*
X46847Y-51355D01*
X46894Y-51347D01*
X46945Y-51355D01*
X47004Y-51379D01*
X47078Y-51421D01*
X47171Y-51483D01*
X47242Y-51531D01*
X47303Y-51571D01*
X47349Y-51600D01*
X47375Y-51615D01*
X47379Y-51616D01*
X47395Y-51605D01*
X47429Y-51575D01*
X47477Y-51530D01*
X47530Y-51477D01*
X47669Y-51338D01*
X47526Y-51127D01*
X47466Y-51036D01*
X47424Y-50967D01*
X47397Y-50917D01*
X47385Y-50879D01*
X47383Y-50861D01*
X47389Y-50830D01*
X47405Y-50774D01*
X47430Y-50702D01*
X47459Y-50620D01*
X47491Y-50535D01*
X47523Y-50455D01*
X47553Y-50385D01*
X47577Y-50334D01*
X47587Y-50316D01*
X47602Y-50296D01*
X47625Y-50279D01*
X47660Y-50264D01*
X47712Y-50249D01*
X47785Y-50232D01*
X47885Y-50213D01*
X47924Y-50205D01*
X48166Y-50160D01*
X48166Y-50290D01*
X48102Y-50302D01*
X48017Y-50318D01*
X47933Y-50333D01*
X47852Y-50349D01*
X47783Y-50364D01*
X47732Y-50378D01*
X47707Y-50389D01*
X47706Y-50389D01*
X47694Y-50411D01*
X47672Y-50457D01*
X47643Y-50523D01*
X47611Y-50600D01*
X47602Y-50625D01*
X47515Y-50841D01*
X47663Y-51058D01*
X47716Y-51135D01*
X47763Y-51206D01*
X47800Y-51263D01*
X47825Y-51302D01*
X47832Y-51313D01*
X47838Y-51328D01*
X47837Y-51345D01*
X47827Y-51365D01*
X47804Y-51395D01*
X47767Y-51437D01*
X47711Y-51495D01*
X47639Y-51568D01*
X47570Y-51636D01*
X47507Y-51696D01*
X47455Y-51743D01*
X47418Y-51773D01*
X47400Y-51783D01*
X47379Y-51774D01*
X47334Y-51749D01*
X47273Y-51711D01*
X47200Y-51664D01*
X47141Y-51624D01*
X46908Y-51466D01*
X46794Y-51526D01*
X46734Y-51557D01*
X46696Y-51572D01*
X46673Y-51573D01*
X46659Y-51564D01*
X46647Y-51542D01*
X46624Y-51495D01*
X46594Y-51425D01*
X46557Y-51339D01*
X46515Y-51241D01*
X46471Y-51134D01*
X46426Y-51025D01*
X46383Y-50918D01*
X46342Y-50817D01*
X46307Y-50727D01*
X46278Y-50653D01*
X46259Y-50599D01*
X46250Y-50570D01*
X46250Y-50567D01*
X46263Y-50543D01*
X46297Y-50509D01*
X46342Y-50475D01*
X46452Y-50380D01*
X46536Y-50271D01*
X46593Y-50151D01*
X46623Y-50025D01*
X46626Y-49896D01*
X46602Y-49769D01*
X46551Y-49648D01*
X46474Y-49538D01*
X46370Y-49442D01*
X46330Y-49414D01*
X46206Y-49354D01*
X46073Y-49323D01*
X45936Y-49322D01*
X45803Y-49350D01*
X45678Y-49409D01*
X45669Y-49414D01*
X45556Y-49504D01*
X45470Y-49611D01*
X45411Y-49728D01*
X45378Y-49854D01*
X45372Y-49982D01*
X45393Y-50110D01*
X45441Y-50233D01*
X45516Y-50346D01*
X45618Y-50446D01*
X45657Y-50475D01*
X45706Y-50512D01*
X45739Y-50546D01*
X45750Y-50567D01*
X45743Y-50590D01*
X45726Y-50639D01*
X45699Y-50709D01*
X45665Y-50796D01*
X45625Y-50895D01*
X45582Y-51002D01*
X45538Y-51111D01*
X45493Y-51218D01*
X45451Y-51319D01*
X45413Y-51408D01*
X45381Y-51481D01*
X45356Y-51534D01*
X45342Y-51562D01*
X45340Y-51564D01*
X45325Y-51573D01*
X45301Y-51571D01*
X45262Y-51555D01*
X45205Y-51526D01*
X45091Y-51465D01*
X44857Y-51624D01*
X44778Y-51677D01*
X44708Y-51722D01*
X44651Y-51757D01*
X44612Y-51778D01*
X44598Y-51783D01*
X44579Y-51771D01*
X44541Y-51740D01*
X44488Y-51692D01*
X44424Y-51631D01*
X44360Y-51568D01*
X44284Y-51491D01*
X44230Y-51434D01*
X44193Y-51393D01*
X44171Y-51364D01*
X44162Y-51344D01*
X44162Y-51328D01*
X44167Y-51313D01*
X44184Y-51286D01*
X44215Y-51238D01*
X44258Y-51173D01*
X44308Y-51099D01*
X44336Y-51058D01*
X44484Y-50841D01*
X44397Y-50625D01*
X44365Y-50544D01*
X44335Y-50475D01*
X44311Y-50422D01*
X44295Y-50393D01*
X44293Y-50389D01*
X44270Y-50379D01*
X44222Y-50366D01*
X44154Y-50350D01*
X44074Y-50335D01*
X44066Y-50333D01*
X43978Y-50317D01*
X43894Y-50302D01*
X43824Y-50289D01*
X43779Y-50280D01*
X43700Y-50263D01*
X43700Y-49949D01*
X43700Y-49833D01*
X43703Y-49740D01*
X43707Y-49672D01*
X43712Y-49633D01*
X43716Y-49624D01*
X43738Y-49618D01*
X43786Y-49607D01*
X43856Y-49592D01*
X43941Y-49575D01*
X44021Y-49560D01*
X44308Y-49507D01*
X44404Y-49285D01*
X44500Y-49064D01*
X44336Y-48827D01*
X44282Y-48747D01*
X44234Y-48676D01*
X44196Y-48618D01*
X44171Y-48578D01*
X44162Y-48563D01*
X44170Y-48544D01*
X44198Y-48506D01*
X44242Y-48455D01*
X44297Y-48395D01*
X44359Y-48331D01*
X44423Y-48267D01*
X44485Y-48208D01*
X44540Y-48158D01*
X44584Y-48122D01*
X44612Y-48104D01*
X44619Y-48103D01*
X44639Y-48115D01*
X44682Y-48143D01*
X44743Y-48183D01*
X44816Y-48233D01*
X44885Y-48281D01*
X45130Y-48449D01*
X45344Y-48361D01*
X45558Y-48273D01*
X45616Y-47965D01*
X45675Y-47658D01*
X46000Y-47658D01*
X46324Y-47658D01*
X46383Y-47965D01*
X46441Y-48272D01*
X46655Y-48360D01*
X46869Y-48449D01*
X47114Y-48280D01*
X47194Y-48225D01*
X47266Y-48177D01*
X47324Y-48138D01*
X47364Y-48113D01*
X47380Y-48103D01*
X47400Y-48111D01*
X47437Y-48140D01*
X47488Y-48184D01*
X47548Y-48240D01*
X47611Y-48302D01*
X47675Y-48367D01*
X47733Y-48429D01*
X47783Y-48484D01*
X47818Y-48529D01*
X47836Y-48557D01*
X47837Y-48563D01*
X47824Y-48585D01*
X47796Y-48629D01*
X47756Y-48690D01*
X47706Y-48764D01*
X47663Y-48827D01*
X47499Y-49064D01*
X47595Y-49285D01*
X47691Y-49507D01*
X47978Y-49560D01*
X48073Y-49578D01*
X48156Y-49595D01*
X48223Y-49609D01*
X48267Y-49619D01*
X48283Y-49624D01*
X48289Y-49645D01*
X48294Y-49695D01*
X48297Y-49774D01*
X48299Y-49876D01*
X48300Y-49949D01*
X48300Y-50263D01*
X48300Y-50263D01*
X48300Y-50263D01*
G37*
G54D17*
X62726Y-39369D02*
X62226Y-39369D01*
X62226Y-39178D01*
X62250Y-39130D01*
X62273Y-39107D01*
X62321Y-39083D01*
X62392Y-39083D01*
X62440Y-39107D01*
X62464Y-39130D01*
X62488Y-39178D01*
X62488Y-39369D01*
X62726Y-38607D02*
X62726Y-38892D01*
X62726Y-38750D02*
X62226Y-38750D01*
X62297Y-38797D01*
X62345Y-38845D01*
X62369Y-38892D01*
G54D18*
X44920Y-57090D02*
X44860Y-56995D01*
X44817Y-57090D02*
X44817Y-56890D01*
X44885Y-56890D01*
X44902Y-56900D01*
X44911Y-56909D01*
X44920Y-56928D01*
X44920Y-56957D01*
X44911Y-56976D01*
X44902Y-56985D01*
X44885Y-56995D01*
X44817Y-56995D01*
X45091Y-57090D02*
X44988Y-57090D01*
X45040Y-57090D02*
X45040Y-56890D01*
X45022Y-56919D01*
X45005Y-56938D01*
X44988Y-56947D01*
X42170Y-57040D02*
X42110Y-56945D01*
X42067Y-57040D02*
X42067Y-56840D01*
X42135Y-56840D01*
X42152Y-56850D01*
X42161Y-56859D01*
X42170Y-56878D01*
X42170Y-56907D01*
X42161Y-56926D01*
X42152Y-56935D01*
X42135Y-56945D01*
X42067Y-56945D01*
X42238Y-56859D02*
X42247Y-56850D01*
X42264Y-56840D01*
X42307Y-56840D01*
X42324Y-56850D01*
X42332Y-56859D01*
X42341Y-56878D01*
X42341Y-56897D01*
X42332Y-56926D01*
X42230Y-57040D01*
X42341Y-57040D01*
X43567Y-57090D02*
X43567Y-56890D01*
X43610Y-56890D01*
X43635Y-56900D01*
X43652Y-56919D01*
X43661Y-56938D01*
X43670Y-56976D01*
X43670Y-57004D01*
X43661Y-57042D01*
X43652Y-57061D01*
X43635Y-57080D01*
X43610Y-57090D01*
X43567Y-57090D01*
X43841Y-57090D02*
X43738Y-57090D01*
X43790Y-57090D02*
X43790Y-56890D01*
X43772Y-56919D01*
X43755Y-56938D01*
X43738Y-56947D01*
X40817Y-57040D02*
X40817Y-56840D01*
X40860Y-56840D01*
X40885Y-56850D01*
X40902Y-56869D01*
X40911Y-56888D01*
X40920Y-56926D01*
X40920Y-56954D01*
X40911Y-56992D01*
X40902Y-57011D01*
X40885Y-57030D01*
X40860Y-57040D01*
X40817Y-57040D01*
X40988Y-56859D02*
X40997Y-56850D01*
X41014Y-56840D01*
X41057Y-56840D01*
X41074Y-56850D01*
X41082Y-56859D01*
X41091Y-56878D01*
X41091Y-56897D01*
X41082Y-56926D01*
X40980Y-57040D01*
X41091Y-57040D01*
G54D12*
X54309Y-58978D02*
X54309Y-58584D01*
X54534Y-58978D02*
X54365Y-58753D01*
X54534Y-58584D02*
X54309Y-58809D01*
X54909Y-58978D02*
X54684Y-58978D01*
X54796Y-58978D02*
X54796Y-58584D01*
X54759Y-58640D01*
X54721Y-58678D01*
X54684Y-58696D01*
X50709Y-58978D02*
X50709Y-58584D01*
X50934Y-58978D02*
X50765Y-58753D01*
X50934Y-58584D02*
X50709Y-58809D01*
X51084Y-58621D02*
X51103Y-58603D01*
X51140Y-58584D01*
X51234Y-58584D01*
X51271Y-58603D01*
X51290Y-58621D01*
X51309Y-58659D01*
X51309Y-58696D01*
X51290Y-58753D01*
X51065Y-58978D01*
X51309Y-58978D01*
G54D17*
X58180Y-58219D02*
X57990Y-58352D01*
X58180Y-58447D02*
X57780Y-58447D01*
X57780Y-58295D01*
X57800Y-58257D01*
X57819Y-58238D01*
X57857Y-58219D01*
X57914Y-58219D01*
X57952Y-58238D01*
X57971Y-58257D01*
X57990Y-58295D01*
X57990Y-58447D01*
X58161Y-58066D02*
X58180Y-58009D01*
X58180Y-57914D01*
X58161Y-57876D01*
X58142Y-57857D01*
X58104Y-57838D01*
X58066Y-57838D01*
X58028Y-57857D01*
X58009Y-57876D01*
X57990Y-57914D01*
X57971Y-57990D01*
X57952Y-58028D01*
X57933Y-58047D01*
X57895Y-58066D01*
X57857Y-58066D01*
X57819Y-58047D01*
X57800Y-58028D01*
X57780Y-57990D01*
X57780Y-57895D01*
X57800Y-57838D01*
X57780Y-57723D02*
X57780Y-57495D01*
X58180Y-57609D02*
X57780Y-57609D01*
G54D19*
X41362Y-51356D02*
X41362Y-50568D01*
X41625Y-51131D01*
X41887Y-50568D01*
X41887Y-51356D01*
X42187Y-50568D02*
X42674Y-50568D01*
X42412Y-50868D01*
X42524Y-50868D01*
X42599Y-50906D01*
X42637Y-50943D01*
X42674Y-51018D01*
X42674Y-51206D01*
X42637Y-51281D01*
X42599Y-51318D01*
X42524Y-51356D01*
X42299Y-51356D01*
X42224Y-51318D01*
X42187Y-51281D01*
G54D11*
X40962Y-46142D02*
X40868Y-46142D01*
X40859Y-46235D01*
X40868Y-46226D01*
X40887Y-46217D01*
X40934Y-46217D01*
X40953Y-46226D01*
X40962Y-46235D01*
X40971Y-46254D01*
X40971Y-46301D01*
X40962Y-46320D01*
X40953Y-46329D01*
X40934Y-46339D01*
X40887Y-46339D01*
X40868Y-46329D01*
X40859Y-46320D01*
X41028Y-46142D02*
X41093Y-46339D01*
X41159Y-46142D01*
X41756Y-46142D02*
X41878Y-46142D01*
X41812Y-46217D01*
X41840Y-46217D01*
X41859Y-46226D01*
X41868Y-46235D01*
X41878Y-46254D01*
X41878Y-46301D01*
X41868Y-46320D01*
X41859Y-46329D01*
X41840Y-46339D01*
X41784Y-46339D01*
X41765Y-46329D01*
X41756Y-46320D01*
X41934Y-46142D02*
X42000Y-46339D01*
X42065Y-46142D01*
X42112Y-46142D02*
X42234Y-46142D01*
X42168Y-46217D01*
X42196Y-46217D01*
X42215Y-46226D01*
X42224Y-46235D01*
X42234Y-46254D01*
X42234Y-46301D01*
X42224Y-46320D01*
X42215Y-46329D01*
X42196Y-46339D01*
X42140Y-46339D01*
X42121Y-46329D01*
X42112Y-46320D01*
X44854Y-46339D02*
X44854Y-46142D01*
X44901Y-46142D01*
X44929Y-46151D01*
X44948Y-46170D01*
X44957Y-46189D01*
X44967Y-46226D01*
X44967Y-46254D01*
X44957Y-46292D01*
X44948Y-46310D01*
X44929Y-46329D01*
X44901Y-46339D01*
X44854Y-46339D01*
X45060Y-46339D02*
X45098Y-46339D01*
X45117Y-46329D01*
X45126Y-46320D01*
X45145Y-46292D01*
X45154Y-46254D01*
X45154Y-46179D01*
X45145Y-46160D01*
X45135Y-46151D01*
X45117Y-46142D01*
X45079Y-46142D01*
X45060Y-46151D01*
X45051Y-46160D01*
X45042Y-46179D01*
X45042Y-46226D01*
X45051Y-46245D01*
X45060Y-46254D01*
X45079Y-46264D01*
X45117Y-46264D01*
X45135Y-46254D01*
X45145Y-46245D01*
X45154Y-46226D01*
X45760Y-46339D02*
X45760Y-46142D01*
X45807Y-46142D01*
X45835Y-46151D01*
X45854Y-46170D01*
X45864Y-46189D01*
X45873Y-46226D01*
X45873Y-46254D01*
X45864Y-46292D01*
X45854Y-46310D01*
X45835Y-46329D01*
X45807Y-46339D01*
X45760Y-46339D01*
X46060Y-46339D02*
X45948Y-46339D01*
X46004Y-46339D02*
X46004Y-46142D01*
X45985Y-46170D01*
X45967Y-46189D01*
X45948Y-46198D01*
X46182Y-46142D02*
X46201Y-46142D01*
X46220Y-46151D01*
X46229Y-46160D01*
X46239Y-46179D01*
X46248Y-46217D01*
X46248Y-46264D01*
X46239Y-46301D01*
X46229Y-46320D01*
X46220Y-46329D01*
X46201Y-46339D01*
X46182Y-46339D01*
X46164Y-46329D01*
X46154Y-46320D01*
X46145Y-46301D01*
X46135Y-46264D01*
X46135Y-46217D01*
X46145Y-46179D01*
X46154Y-46160D01*
X46164Y-46151D01*
X46182Y-46142D01*
X43854Y-46339D02*
X43854Y-46142D01*
X43901Y-46142D01*
X43929Y-46151D01*
X43948Y-46170D01*
X43957Y-46189D01*
X43967Y-46226D01*
X43967Y-46254D01*
X43957Y-46292D01*
X43948Y-46310D01*
X43929Y-46329D01*
X43901Y-46339D01*
X43854Y-46339D01*
X44079Y-46226D02*
X44060Y-46217D01*
X44051Y-46207D01*
X44042Y-46189D01*
X44042Y-46179D01*
X44051Y-46160D01*
X44060Y-46151D01*
X44079Y-46142D01*
X44117Y-46142D01*
X44135Y-46151D01*
X44145Y-46160D01*
X44154Y-46179D01*
X44154Y-46189D01*
X44145Y-46207D01*
X44135Y-46217D01*
X44117Y-46226D01*
X44079Y-46226D01*
X44060Y-46235D01*
X44051Y-46245D01*
X44042Y-46264D01*
X44042Y-46301D01*
X44051Y-46320D01*
X44060Y-46329D01*
X44079Y-46339D01*
X44117Y-46339D01*
X44135Y-46329D01*
X44145Y-46320D01*
X44154Y-46301D01*
X44154Y-46264D01*
X44145Y-46245D01*
X44135Y-46235D01*
X44117Y-46226D01*
X42854Y-46339D02*
X42854Y-46142D01*
X42901Y-46142D01*
X42929Y-46151D01*
X42948Y-46170D01*
X42957Y-46189D01*
X42967Y-46226D01*
X42967Y-46254D01*
X42957Y-46292D01*
X42948Y-46310D01*
X42929Y-46329D01*
X42901Y-46339D01*
X42854Y-46339D01*
X43032Y-46142D02*
X43164Y-46142D01*
X43079Y-46339D01*
X46760Y-46339D02*
X46760Y-46142D01*
X46807Y-46142D01*
X46835Y-46151D01*
X46854Y-46170D01*
X46864Y-46189D01*
X46873Y-46226D01*
X46873Y-46254D01*
X46864Y-46292D01*
X46854Y-46310D01*
X46835Y-46329D01*
X46807Y-46339D01*
X46760Y-46339D01*
X47060Y-46339D02*
X46948Y-46339D01*
X47004Y-46339D02*
X47004Y-46142D01*
X46985Y-46170D01*
X46967Y-46189D01*
X46948Y-46198D01*
X47248Y-46339D02*
X47135Y-46339D01*
X47192Y-46339D02*
X47192Y-46142D01*
X47173Y-46170D01*
X47154Y-46189D01*
X47135Y-46198D01*
X48760Y-46339D02*
X48760Y-46142D01*
X48807Y-46142D01*
X48835Y-46151D01*
X48854Y-46170D01*
X48864Y-46189D01*
X48873Y-46226D01*
X48873Y-46254D01*
X48864Y-46292D01*
X48854Y-46310D01*
X48835Y-46329D01*
X48807Y-46339D01*
X48760Y-46339D01*
X49060Y-46339D02*
X48948Y-46339D01*
X49004Y-46339D02*
X49004Y-46142D01*
X48985Y-46170D01*
X48967Y-46189D01*
X48948Y-46198D01*
X49126Y-46142D02*
X49248Y-46142D01*
X49182Y-46217D01*
X49210Y-46217D01*
X49229Y-46226D01*
X49239Y-46235D01*
X49248Y-46254D01*
X49248Y-46301D01*
X49239Y-46320D01*
X49229Y-46329D01*
X49210Y-46339D01*
X49154Y-46339D01*
X49135Y-46329D01*
X49126Y-46320D01*
X50181Y-46282D02*
X50275Y-46282D01*
X50162Y-46339D02*
X50228Y-46142D01*
X50293Y-46339D01*
X50471Y-46339D02*
X50406Y-46245D01*
X50359Y-46339D02*
X50359Y-46142D01*
X50434Y-46142D01*
X50453Y-46151D01*
X50462Y-46160D01*
X50471Y-46179D01*
X50471Y-46207D01*
X50462Y-46226D01*
X50453Y-46235D01*
X50434Y-46245D01*
X50359Y-46245D01*
X50556Y-46235D02*
X50621Y-46235D01*
X50649Y-46339D02*
X50556Y-46339D01*
X50556Y-46142D01*
X50649Y-46142D01*
X50799Y-46235D02*
X50734Y-46235D01*
X50734Y-46339D02*
X50734Y-46142D01*
X50828Y-46142D01*
X50609Y-49032D02*
X50703Y-49032D01*
X50590Y-49089D02*
X50656Y-48892D01*
X50721Y-49089D01*
X50890Y-49089D02*
X50778Y-49089D01*
X50834Y-49089D02*
X50834Y-48892D01*
X50815Y-48920D01*
X50796Y-48939D01*
X50778Y-48948D01*
X47760Y-46339D02*
X47760Y-46142D01*
X47807Y-46142D01*
X47835Y-46151D01*
X47854Y-46170D01*
X47864Y-46189D01*
X47873Y-46226D01*
X47873Y-46254D01*
X47864Y-46292D01*
X47854Y-46310D01*
X47835Y-46329D01*
X47807Y-46339D01*
X47760Y-46339D01*
X48060Y-46339D02*
X47948Y-46339D01*
X48004Y-46339D02*
X48004Y-46142D01*
X47985Y-46170D01*
X47967Y-46189D01*
X47948Y-46198D01*
X48135Y-46160D02*
X48145Y-46151D01*
X48164Y-46142D01*
X48210Y-46142D01*
X48229Y-46151D01*
X48239Y-46160D01*
X48248Y-46179D01*
X48248Y-46198D01*
X48239Y-46226D01*
X48126Y-46339D01*
X48248Y-46339D01*
X50609Y-48032D02*
X50703Y-48032D01*
X50590Y-48089D02*
X50656Y-47892D01*
X50721Y-48089D01*
X50824Y-47892D02*
X50843Y-47892D01*
X50862Y-47901D01*
X50871Y-47910D01*
X50881Y-47929D01*
X50890Y-47967D01*
X50890Y-48014D01*
X50881Y-48051D01*
X50871Y-48070D01*
X50862Y-48079D01*
X50843Y-48089D01*
X50824Y-48089D01*
X50806Y-48079D01*
X50796Y-48070D01*
X50787Y-48051D01*
X50778Y-48014D01*
X50778Y-47967D01*
X50787Y-47929D01*
X50796Y-47910D01*
X50806Y-47901D01*
X50824Y-47892D01*
X50609Y-50032D02*
X50703Y-50032D01*
X50590Y-50089D02*
X50656Y-49892D01*
X50721Y-50089D01*
X50778Y-49910D02*
X50787Y-49901D01*
X50806Y-49892D01*
X50853Y-49892D01*
X50871Y-49901D01*
X50881Y-49910D01*
X50890Y-49929D01*
X50890Y-49948D01*
X50881Y-49976D01*
X50768Y-50089D01*
X50890Y-50089D01*
X50609Y-51032D02*
X50703Y-51032D01*
X50590Y-51089D02*
X50656Y-50892D01*
X50721Y-51089D01*
X50768Y-50892D02*
X50890Y-50892D01*
X50824Y-50967D01*
X50853Y-50967D01*
X50871Y-50976D01*
X50881Y-50985D01*
X50890Y-51004D01*
X50890Y-51051D01*
X50881Y-51070D01*
X50871Y-51079D01*
X50853Y-51089D01*
X50796Y-51089D01*
X50778Y-51079D01*
X50768Y-51070D01*
X50609Y-53032D02*
X50703Y-53032D01*
X50590Y-53089D02*
X50656Y-52892D01*
X50721Y-53089D01*
X50881Y-52892D02*
X50787Y-52892D01*
X50778Y-52985D01*
X50787Y-52976D01*
X50806Y-52967D01*
X50853Y-52967D01*
X50871Y-52976D01*
X50881Y-52985D01*
X50890Y-53004D01*
X50890Y-53051D01*
X50881Y-53070D01*
X50871Y-53079D01*
X50853Y-53089D01*
X50806Y-53089D01*
X50787Y-53079D01*
X50778Y-53070D01*
X50609Y-54032D02*
X50703Y-54032D01*
X50590Y-54089D02*
X50656Y-53892D01*
X50721Y-54089D01*
X50871Y-53892D02*
X50834Y-53892D01*
X50815Y-53901D01*
X50806Y-53910D01*
X50787Y-53939D01*
X50778Y-53976D01*
X50778Y-54051D01*
X50787Y-54070D01*
X50796Y-54079D01*
X50815Y-54089D01*
X50853Y-54089D01*
X50871Y-54079D01*
X50881Y-54070D01*
X50890Y-54051D01*
X50890Y-54004D01*
X50881Y-53985D01*
X50871Y-53976D01*
X50853Y-53967D01*
X50815Y-53967D01*
X50796Y-53976D01*
X50787Y-53985D01*
X50778Y-54004D01*
X50609Y-52032D02*
X50703Y-52032D01*
X50590Y-52089D02*
X50656Y-51892D01*
X50721Y-52089D01*
X50871Y-51957D02*
X50871Y-52089D01*
X50824Y-51882D02*
X50778Y-52023D01*
X50899Y-52023D01*
X48873Y-55839D02*
X48807Y-55745D01*
X48760Y-55839D02*
X48760Y-55642D01*
X48835Y-55642D01*
X48854Y-55651D01*
X48864Y-55660D01*
X48873Y-55679D01*
X48873Y-55707D01*
X48864Y-55726D01*
X48854Y-55735D01*
X48835Y-55745D01*
X48760Y-55745D01*
X48939Y-55642D02*
X49070Y-55839D01*
X49070Y-55642D02*
X48939Y-55839D01*
X49182Y-55642D02*
X49201Y-55642D01*
X49220Y-55651D01*
X49229Y-55660D01*
X49239Y-55679D01*
X49248Y-55717D01*
X49248Y-55764D01*
X49239Y-55801D01*
X49229Y-55820D01*
X49220Y-55829D01*
X49201Y-55839D01*
X49182Y-55839D01*
X49164Y-55829D01*
X49154Y-55820D01*
X49145Y-55801D01*
X49135Y-55764D01*
X49135Y-55717D01*
X49145Y-55679D01*
X49154Y-55660D01*
X49164Y-55651D01*
X49182Y-55642D01*
X47756Y-55642D02*
X47868Y-55642D01*
X47812Y-55839D02*
X47812Y-55642D01*
X47915Y-55642D02*
X48046Y-55839D01*
X48046Y-55642D02*
X47915Y-55839D01*
X48224Y-55839D02*
X48112Y-55839D01*
X48168Y-55839D02*
X48168Y-55642D01*
X48149Y-55670D01*
X48131Y-55689D01*
X48112Y-55698D01*
X50609Y-55782D02*
X50703Y-55782D01*
X50590Y-55839D02*
X50656Y-55642D01*
X50721Y-55839D01*
X50768Y-55642D02*
X50899Y-55642D01*
X50815Y-55839D01*
X46854Y-55839D02*
X46854Y-55642D01*
X46901Y-55642D01*
X46929Y-55651D01*
X46948Y-55670D01*
X46957Y-55689D01*
X46967Y-55726D01*
X46967Y-55754D01*
X46957Y-55792D01*
X46948Y-55810D01*
X46929Y-55829D01*
X46901Y-55839D01*
X46854Y-55839D01*
X47042Y-55660D02*
X47051Y-55651D01*
X47070Y-55642D01*
X47117Y-55642D01*
X47135Y-55651D01*
X47145Y-55660D01*
X47154Y-55679D01*
X47154Y-55698D01*
X47145Y-55726D01*
X47032Y-55839D01*
X47154Y-55839D01*
X45854Y-55839D02*
X45854Y-55642D01*
X45901Y-55642D01*
X45929Y-55651D01*
X45948Y-55670D01*
X45957Y-55689D01*
X45967Y-55726D01*
X45967Y-55754D01*
X45957Y-55792D01*
X45948Y-55810D01*
X45929Y-55829D01*
X45901Y-55839D01*
X45854Y-55839D01*
X46032Y-55642D02*
X46154Y-55642D01*
X46089Y-55717D01*
X46117Y-55717D01*
X46135Y-55726D01*
X46145Y-55735D01*
X46154Y-55754D01*
X46154Y-55801D01*
X46145Y-55820D01*
X46135Y-55829D01*
X46117Y-55839D01*
X46060Y-55839D01*
X46042Y-55829D01*
X46032Y-55820D01*
X44854Y-55839D02*
X44854Y-55642D01*
X44901Y-55642D01*
X44929Y-55651D01*
X44948Y-55670D01*
X44957Y-55689D01*
X44967Y-55726D01*
X44967Y-55754D01*
X44957Y-55792D01*
X44948Y-55810D01*
X44929Y-55829D01*
X44901Y-55839D01*
X44854Y-55839D01*
X45135Y-55707D02*
X45135Y-55839D01*
X45089Y-55632D02*
X45042Y-55773D01*
X45164Y-55773D01*
X43854Y-55839D02*
X43854Y-55642D01*
X43901Y-55642D01*
X43929Y-55651D01*
X43948Y-55670D01*
X43957Y-55689D01*
X43967Y-55726D01*
X43967Y-55754D01*
X43957Y-55792D01*
X43948Y-55810D01*
X43929Y-55829D01*
X43901Y-55839D01*
X43854Y-55839D01*
X44145Y-55642D02*
X44051Y-55642D01*
X44042Y-55735D01*
X44051Y-55726D01*
X44070Y-55717D01*
X44117Y-55717D01*
X44135Y-55726D01*
X44145Y-55735D01*
X44154Y-55754D01*
X44154Y-55801D01*
X44145Y-55820D01*
X44135Y-55829D01*
X44117Y-55839D01*
X44070Y-55839D01*
X44051Y-55829D01*
X44042Y-55820D01*
X42854Y-55839D02*
X42854Y-55642D01*
X42901Y-55642D01*
X42929Y-55651D01*
X42948Y-55670D01*
X42957Y-55689D01*
X42967Y-55726D01*
X42967Y-55754D01*
X42957Y-55792D01*
X42948Y-55810D01*
X42929Y-55829D01*
X42901Y-55839D01*
X42854Y-55839D01*
X43135Y-55642D02*
X43098Y-55642D01*
X43079Y-55651D01*
X43070Y-55660D01*
X43051Y-55689D01*
X43042Y-55726D01*
X43042Y-55801D01*
X43051Y-55820D01*
X43060Y-55829D01*
X43079Y-55839D01*
X43117Y-55839D01*
X43135Y-55829D01*
X43145Y-55820D01*
X43154Y-55801D01*
X43154Y-55754D01*
X43145Y-55735D01*
X43135Y-55726D01*
X43117Y-55717D01*
X43079Y-55717D01*
X43060Y-55726D01*
X43051Y-55735D01*
X43042Y-55754D01*
X41892Y-55839D02*
X41826Y-55745D01*
X41779Y-55839D02*
X41779Y-55642D01*
X41854Y-55642D01*
X41873Y-55651D01*
X41882Y-55660D01*
X41892Y-55679D01*
X41892Y-55707D01*
X41882Y-55726D01*
X41873Y-55735D01*
X41854Y-55745D01*
X41779Y-55745D01*
X41967Y-55829D02*
X41995Y-55839D01*
X42042Y-55839D01*
X42060Y-55829D01*
X42070Y-55820D01*
X42079Y-55801D01*
X42079Y-55782D01*
X42070Y-55764D01*
X42060Y-55754D01*
X42042Y-55745D01*
X42004Y-55735D01*
X41985Y-55726D01*
X41976Y-55717D01*
X41967Y-55698D01*
X41967Y-55679D01*
X41976Y-55660D01*
X41985Y-55651D01*
X42004Y-55642D01*
X42051Y-55642D01*
X42079Y-55651D01*
X42135Y-55642D02*
X42248Y-55642D01*
X42192Y-55839D02*
X42192Y-55642D01*
X40850Y-55651D02*
X40831Y-55642D01*
X40803Y-55642D01*
X40775Y-55651D01*
X40756Y-55670D01*
X40746Y-55689D01*
X40737Y-55726D01*
X40737Y-55754D01*
X40746Y-55792D01*
X40756Y-55810D01*
X40775Y-55829D01*
X40803Y-55839D01*
X40821Y-55839D01*
X40850Y-55829D01*
X40859Y-55820D01*
X40859Y-55754D01*
X40821Y-55754D01*
X40943Y-55839D02*
X40943Y-55642D01*
X41056Y-55839D01*
X41056Y-55642D01*
X41149Y-55839D02*
X41149Y-55642D01*
X41196Y-55642D01*
X41224Y-55651D01*
X41243Y-55670D01*
X41253Y-55689D01*
X41262Y-55726D01*
X41262Y-55754D01*
X41253Y-55792D01*
X41243Y-55810D01*
X41224Y-55829D01*
X41196Y-55839D01*
X41149Y-55839D01*
G54D19*
X45356Y-35637D02*
X44568Y-35637D01*
X45131Y-35374D01*
X44568Y-35112D01*
X45356Y-35112D01*
X45356Y-34325D02*
X45356Y-34775D01*
X45356Y-34550D02*
X44568Y-34550D01*
X44681Y-34625D01*
X44756Y-34700D01*
X44793Y-34775D01*
G54D11*
X49642Y-34037D02*
X49642Y-34131D01*
X49735Y-34140D01*
X49726Y-34131D01*
X49717Y-34112D01*
X49717Y-34065D01*
X49726Y-34046D01*
X49735Y-34037D01*
X49754Y-34028D01*
X49801Y-34028D01*
X49820Y-34037D01*
X49829Y-34046D01*
X49839Y-34065D01*
X49839Y-34112D01*
X49829Y-34131D01*
X49820Y-34140D01*
X49642Y-33971D02*
X49839Y-33906D01*
X49642Y-33840D01*
X49642Y-35243D02*
X49642Y-35121D01*
X49717Y-35187D01*
X49717Y-35159D01*
X49726Y-35140D01*
X49735Y-35131D01*
X49754Y-35121D01*
X49801Y-35121D01*
X49820Y-35131D01*
X49829Y-35140D01*
X49839Y-35159D01*
X49839Y-35215D01*
X49829Y-35234D01*
X49820Y-35243D01*
X49642Y-35065D02*
X49839Y-34999D01*
X49642Y-34934D01*
X49642Y-34887D02*
X49642Y-34765D01*
X49717Y-34831D01*
X49717Y-34803D01*
X49726Y-34784D01*
X49735Y-34775D01*
X49754Y-34765D01*
X49801Y-34765D01*
X49820Y-34775D01*
X49829Y-34784D01*
X49839Y-34803D01*
X49839Y-34859D01*
X49829Y-34878D01*
X49820Y-34887D01*
X49839Y-38145D02*
X49642Y-38145D01*
X49642Y-38098D01*
X49651Y-38070D01*
X49670Y-38051D01*
X49689Y-38042D01*
X49726Y-38032D01*
X49754Y-38032D01*
X49792Y-38042D01*
X49810Y-38051D01*
X49829Y-38070D01*
X49839Y-38098D01*
X49839Y-38145D01*
X49839Y-37939D02*
X49839Y-37901D01*
X49829Y-37882D01*
X49820Y-37873D01*
X49792Y-37854D01*
X49754Y-37845D01*
X49679Y-37845D01*
X49660Y-37854D01*
X49651Y-37864D01*
X49642Y-37882D01*
X49642Y-37920D01*
X49651Y-37939D01*
X49660Y-37948D01*
X49679Y-37957D01*
X49726Y-37957D01*
X49745Y-37948D01*
X49754Y-37939D01*
X49764Y-37920D01*
X49764Y-37882D01*
X49754Y-37864D01*
X49745Y-37854D01*
X49726Y-37845D01*
X49839Y-39239D02*
X49642Y-39239D01*
X49642Y-39192D01*
X49651Y-39164D01*
X49670Y-39145D01*
X49689Y-39135D01*
X49726Y-39126D01*
X49754Y-39126D01*
X49792Y-39135D01*
X49810Y-39145D01*
X49829Y-39164D01*
X49839Y-39192D01*
X49839Y-39239D01*
X49839Y-38939D02*
X49839Y-39051D01*
X49839Y-38995D02*
X49642Y-38995D01*
X49670Y-39014D01*
X49689Y-39032D01*
X49698Y-39051D01*
X49642Y-38817D02*
X49642Y-38798D01*
X49651Y-38779D01*
X49660Y-38770D01*
X49679Y-38760D01*
X49717Y-38751D01*
X49764Y-38751D01*
X49801Y-38760D01*
X49820Y-38770D01*
X49829Y-38779D01*
X49839Y-38798D01*
X49839Y-38817D01*
X49829Y-38835D01*
X49820Y-38845D01*
X49801Y-38854D01*
X49764Y-38864D01*
X49717Y-38864D01*
X49679Y-38854D01*
X49660Y-38845D01*
X49651Y-38835D01*
X49642Y-38817D01*
X49839Y-37145D02*
X49642Y-37145D01*
X49642Y-37098D01*
X49651Y-37070D01*
X49670Y-37051D01*
X49689Y-37042D01*
X49726Y-37032D01*
X49754Y-37032D01*
X49792Y-37042D01*
X49810Y-37051D01*
X49829Y-37070D01*
X49839Y-37098D01*
X49839Y-37145D01*
X49726Y-36920D02*
X49717Y-36939D01*
X49707Y-36948D01*
X49689Y-36957D01*
X49679Y-36957D01*
X49660Y-36948D01*
X49651Y-36939D01*
X49642Y-36920D01*
X49642Y-36882D01*
X49651Y-36864D01*
X49660Y-36854D01*
X49679Y-36845D01*
X49689Y-36845D01*
X49707Y-36854D01*
X49717Y-36864D01*
X49726Y-36882D01*
X49726Y-36920D01*
X49735Y-36939D01*
X49745Y-36948D01*
X49764Y-36957D01*
X49801Y-36957D01*
X49820Y-36948D01*
X49829Y-36939D01*
X49839Y-36920D01*
X49839Y-36882D01*
X49829Y-36864D01*
X49820Y-36854D01*
X49801Y-36845D01*
X49764Y-36845D01*
X49745Y-36854D01*
X49735Y-36864D01*
X49726Y-36882D01*
X49839Y-36145D02*
X49642Y-36145D01*
X49642Y-36098D01*
X49651Y-36070D01*
X49670Y-36051D01*
X49689Y-36042D01*
X49726Y-36032D01*
X49754Y-36032D01*
X49792Y-36042D01*
X49810Y-36051D01*
X49829Y-36070D01*
X49839Y-36098D01*
X49839Y-36145D01*
X49642Y-35967D02*
X49642Y-35835D01*
X49839Y-35920D01*
X49839Y-40239D02*
X49642Y-40239D01*
X49642Y-40192D01*
X49651Y-40164D01*
X49670Y-40145D01*
X49689Y-40135D01*
X49726Y-40126D01*
X49754Y-40126D01*
X49792Y-40135D01*
X49810Y-40145D01*
X49829Y-40164D01*
X49839Y-40192D01*
X49839Y-40239D01*
X49839Y-39939D02*
X49839Y-40051D01*
X49839Y-39995D02*
X49642Y-39995D01*
X49670Y-40014D01*
X49689Y-40032D01*
X49698Y-40051D01*
X49839Y-39751D02*
X49839Y-39864D01*
X49839Y-39807D02*
X49642Y-39807D01*
X49670Y-39826D01*
X49689Y-39845D01*
X49698Y-39864D01*
X49839Y-42239D02*
X49642Y-42239D01*
X49642Y-42192D01*
X49651Y-42164D01*
X49670Y-42145D01*
X49689Y-42135D01*
X49726Y-42126D01*
X49754Y-42126D01*
X49792Y-42135D01*
X49810Y-42145D01*
X49829Y-42164D01*
X49839Y-42192D01*
X49839Y-42239D01*
X49839Y-41939D02*
X49839Y-42051D01*
X49839Y-41995D02*
X49642Y-41995D01*
X49670Y-42014D01*
X49689Y-42032D01*
X49698Y-42051D01*
X49642Y-41873D02*
X49642Y-41751D01*
X49717Y-41817D01*
X49717Y-41789D01*
X49726Y-41770D01*
X49735Y-41760D01*
X49754Y-41751D01*
X49801Y-41751D01*
X49820Y-41760D01*
X49829Y-41770D01*
X49839Y-41789D01*
X49839Y-41845D01*
X49829Y-41864D01*
X49820Y-41873D01*
X49782Y-43818D02*
X49782Y-43724D01*
X49839Y-43837D02*
X49642Y-43771D01*
X49839Y-43706D01*
X49839Y-43528D02*
X49745Y-43593D01*
X49839Y-43640D02*
X49642Y-43640D01*
X49642Y-43565D01*
X49651Y-43546D01*
X49660Y-43537D01*
X49679Y-43528D01*
X49707Y-43528D01*
X49726Y-43537D01*
X49735Y-43546D01*
X49745Y-43565D01*
X49745Y-43640D01*
X49735Y-43443D02*
X49735Y-43378D01*
X49839Y-43350D02*
X49839Y-43443D01*
X49642Y-43443D01*
X49642Y-43350D01*
X49735Y-43200D02*
X49735Y-43265D01*
X49839Y-43265D02*
X49642Y-43265D01*
X49642Y-43171D01*
X47032Y-43890D02*
X47032Y-43796D01*
X47089Y-43909D02*
X46892Y-43843D01*
X47089Y-43778D01*
X47089Y-43609D02*
X47089Y-43721D01*
X47089Y-43665D02*
X46892Y-43665D01*
X46920Y-43684D01*
X46939Y-43703D01*
X46948Y-43721D01*
X49839Y-41239D02*
X49642Y-41239D01*
X49642Y-41192D01*
X49651Y-41164D01*
X49670Y-41145D01*
X49689Y-41135D01*
X49726Y-41126D01*
X49754Y-41126D01*
X49792Y-41135D01*
X49810Y-41145D01*
X49829Y-41164D01*
X49839Y-41192D01*
X49839Y-41239D01*
X49839Y-40939D02*
X49839Y-41051D01*
X49839Y-40995D02*
X49642Y-40995D01*
X49670Y-41014D01*
X49689Y-41032D01*
X49698Y-41051D01*
X49660Y-40864D02*
X49651Y-40854D01*
X49642Y-40835D01*
X49642Y-40789D01*
X49651Y-40770D01*
X49660Y-40760D01*
X49679Y-40751D01*
X49698Y-40751D01*
X49726Y-40760D01*
X49839Y-40873D01*
X49839Y-40751D01*
X48032Y-43890D02*
X48032Y-43796D01*
X48089Y-43909D02*
X47892Y-43843D01*
X48089Y-43778D01*
X47892Y-43675D02*
X47892Y-43656D01*
X47901Y-43637D01*
X47910Y-43628D01*
X47929Y-43618D01*
X47967Y-43609D01*
X48014Y-43609D01*
X48051Y-43618D01*
X48070Y-43628D01*
X48079Y-43637D01*
X48089Y-43656D01*
X48089Y-43675D01*
X48079Y-43693D01*
X48070Y-43703D01*
X48051Y-43712D01*
X48014Y-43721D01*
X47967Y-43721D01*
X47929Y-43712D01*
X47910Y-43703D01*
X47901Y-43693D01*
X47892Y-43675D01*
X46032Y-43890D02*
X46032Y-43796D01*
X46089Y-43909D02*
X45892Y-43843D01*
X46089Y-43778D01*
X45910Y-43721D02*
X45901Y-43712D01*
X45892Y-43693D01*
X45892Y-43646D01*
X45901Y-43628D01*
X45910Y-43618D01*
X45929Y-43609D01*
X45948Y-43609D01*
X45976Y-43618D01*
X46089Y-43731D01*
X46089Y-43609D01*
X45032Y-43890D02*
X45032Y-43796D01*
X45089Y-43909D02*
X44892Y-43843D01*
X45089Y-43778D01*
X44892Y-43731D02*
X44892Y-43609D01*
X44967Y-43675D01*
X44967Y-43646D01*
X44976Y-43628D01*
X44985Y-43618D01*
X45004Y-43609D01*
X45051Y-43609D01*
X45070Y-43618D01*
X45079Y-43628D01*
X45089Y-43646D01*
X45089Y-43703D01*
X45079Y-43721D01*
X45070Y-43731D01*
X43032Y-43890D02*
X43032Y-43796D01*
X43089Y-43909D02*
X42892Y-43843D01*
X43089Y-43778D01*
X42892Y-43618D02*
X42892Y-43712D01*
X42985Y-43721D01*
X42976Y-43712D01*
X42967Y-43693D01*
X42967Y-43646D01*
X42976Y-43628D01*
X42985Y-43618D01*
X43004Y-43609D01*
X43051Y-43609D01*
X43070Y-43618D01*
X43079Y-43628D01*
X43089Y-43646D01*
X43089Y-43693D01*
X43079Y-43712D01*
X43070Y-43721D01*
X42032Y-43890D02*
X42032Y-43796D01*
X42089Y-43909D02*
X41892Y-43843D01*
X42089Y-43778D01*
X41892Y-43628D02*
X41892Y-43665D01*
X41901Y-43684D01*
X41910Y-43693D01*
X41939Y-43712D01*
X41976Y-43721D01*
X42051Y-43721D01*
X42070Y-43712D01*
X42079Y-43703D01*
X42089Y-43684D01*
X42089Y-43646D01*
X42079Y-43628D01*
X42070Y-43618D01*
X42051Y-43609D01*
X42004Y-43609D01*
X41985Y-43618D01*
X41976Y-43628D01*
X41967Y-43646D01*
X41967Y-43684D01*
X41976Y-43703D01*
X41985Y-43712D01*
X42004Y-43721D01*
X44032Y-43890D02*
X44032Y-43796D01*
X44089Y-43909D02*
X43892Y-43843D01*
X44089Y-43778D01*
X43957Y-43628D02*
X44089Y-43628D01*
X43882Y-43675D02*
X44023Y-43721D01*
X44023Y-43600D01*
X40339Y-42126D02*
X40245Y-42192D01*
X40339Y-42239D02*
X40142Y-42239D01*
X40142Y-42164D01*
X40151Y-42145D01*
X40160Y-42135D01*
X40179Y-42126D01*
X40207Y-42126D01*
X40226Y-42135D01*
X40235Y-42145D01*
X40245Y-42164D01*
X40245Y-42239D01*
X40142Y-42060D02*
X40339Y-41929D01*
X40142Y-41929D02*
X40339Y-42060D01*
X40142Y-41817D02*
X40142Y-41798D01*
X40151Y-41779D01*
X40160Y-41770D01*
X40179Y-41760D01*
X40217Y-41751D01*
X40264Y-41751D01*
X40301Y-41760D01*
X40320Y-41770D01*
X40329Y-41779D01*
X40339Y-41798D01*
X40339Y-41817D01*
X40329Y-41835D01*
X40320Y-41845D01*
X40301Y-41854D01*
X40264Y-41864D01*
X40217Y-41864D01*
X40179Y-41854D01*
X40160Y-41845D01*
X40151Y-41835D01*
X40142Y-41817D01*
X40142Y-41243D02*
X40142Y-41131D01*
X40339Y-41187D02*
X40142Y-41187D01*
X40142Y-41084D02*
X40339Y-40953D01*
X40142Y-40953D02*
X40339Y-41084D01*
X40339Y-40775D02*
X40339Y-40887D01*
X40339Y-40831D02*
X40142Y-40831D01*
X40170Y-40850D01*
X40189Y-40868D01*
X40198Y-40887D01*
X40282Y-43890D02*
X40282Y-43796D01*
X40339Y-43909D02*
X40142Y-43843D01*
X40339Y-43778D01*
X40142Y-43731D02*
X40142Y-43600D01*
X40339Y-43684D01*
X40339Y-40145D02*
X40142Y-40145D01*
X40142Y-40098D01*
X40151Y-40070D01*
X40170Y-40051D01*
X40189Y-40042D01*
X40226Y-40032D01*
X40254Y-40032D01*
X40292Y-40042D01*
X40310Y-40051D01*
X40329Y-40070D01*
X40339Y-40098D01*
X40339Y-40145D01*
X40160Y-39957D02*
X40151Y-39948D01*
X40142Y-39929D01*
X40142Y-39882D01*
X40151Y-39864D01*
X40160Y-39854D01*
X40179Y-39845D01*
X40198Y-39845D01*
X40226Y-39854D01*
X40339Y-39967D01*
X40339Y-39845D01*
X40339Y-39145D02*
X40142Y-39145D01*
X40142Y-39098D01*
X40151Y-39070D01*
X40170Y-39051D01*
X40189Y-39042D01*
X40226Y-39032D01*
X40254Y-39032D01*
X40292Y-39042D01*
X40310Y-39051D01*
X40329Y-39070D01*
X40339Y-39098D01*
X40339Y-39145D01*
X40142Y-38967D02*
X40142Y-38845D01*
X40217Y-38910D01*
X40217Y-38882D01*
X40226Y-38864D01*
X40235Y-38854D01*
X40254Y-38845D01*
X40301Y-38845D01*
X40320Y-38854D01*
X40329Y-38864D01*
X40339Y-38882D01*
X40339Y-38939D01*
X40329Y-38957D01*
X40320Y-38967D01*
X40339Y-38145D02*
X40142Y-38145D01*
X40142Y-38098D01*
X40151Y-38070D01*
X40170Y-38051D01*
X40189Y-38042D01*
X40226Y-38032D01*
X40254Y-38032D01*
X40292Y-38042D01*
X40310Y-38051D01*
X40329Y-38070D01*
X40339Y-38098D01*
X40339Y-38145D01*
X40207Y-37864D02*
X40339Y-37864D01*
X40132Y-37910D02*
X40273Y-37957D01*
X40273Y-37835D01*
X40339Y-37145D02*
X40142Y-37145D01*
X40142Y-37098D01*
X40151Y-37070D01*
X40170Y-37051D01*
X40189Y-37042D01*
X40226Y-37032D01*
X40254Y-37032D01*
X40292Y-37042D01*
X40310Y-37051D01*
X40329Y-37070D01*
X40339Y-37098D01*
X40339Y-37145D01*
X40142Y-36854D02*
X40142Y-36948D01*
X40235Y-36957D01*
X40226Y-36948D01*
X40217Y-36929D01*
X40217Y-36882D01*
X40226Y-36864D01*
X40235Y-36854D01*
X40254Y-36845D01*
X40301Y-36845D01*
X40320Y-36854D01*
X40329Y-36864D01*
X40339Y-36882D01*
X40339Y-36929D01*
X40329Y-36948D01*
X40320Y-36957D01*
X40339Y-36145D02*
X40142Y-36145D01*
X40142Y-36098D01*
X40151Y-36070D01*
X40170Y-36051D01*
X40189Y-36042D01*
X40226Y-36032D01*
X40254Y-36032D01*
X40292Y-36042D01*
X40310Y-36051D01*
X40329Y-36070D01*
X40339Y-36098D01*
X40339Y-36145D01*
X40142Y-35864D02*
X40142Y-35901D01*
X40151Y-35920D01*
X40160Y-35929D01*
X40189Y-35948D01*
X40226Y-35957D01*
X40301Y-35957D01*
X40320Y-35948D01*
X40329Y-35939D01*
X40339Y-35920D01*
X40339Y-35882D01*
X40329Y-35864D01*
X40320Y-35854D01*
X40301Y-35845D01*
X40254Y-35845D01*
X40235Y-35854D01*
X40226Y-35864D01*
X40217Y-35882D01*
X40217Y-35920D01*
X40226Y-35939D01*
X40235Y-35948D01*
X40254Y-35957D01*
X40339Y-35107D02*
X40245Y-35173D01*
X40339Y-35220D02*
X40142Y-35220D01*
X40142Y-35145D01*
X40151Y-35126D01*
X40160Y-35117D01*
X40179Y-35107D01*
X40207Y-35107D01*
X40226Y-35117D01*
X40235Y-35126D01*
X40245Y-35145D01*
X40245Y-35220D01*
X40329Y-35032D02*
X40339Y-35004D01*
X40339Y-34957D01*
X40329Y-34939D01*
X40320Y-34929D01*
X40301Y-34920D01*
X40282Y-34920D01*
X40264Y-34929D01*
X40254Y-34939D01*
X40245Y-34957D01*
X40235Y-34995D01*
X40226Y-35014D01*
X40217Y-35023D01*
X40198Y-35032D01*
X40179Y-35032D01*
X40160Y-35023D01*
X40151Y-35014D01*
X40142Y-34995D01*
X40142Y-34948D01*
X40151Y-34920D01*
X40142Y-34864D02*
X40142Y-34751D01*
X40339Y-34807D02*
X40142Y-34807D01*
X40151Y-34149D02*
X40142Y-34168D01*
X40142Y-34196D01*
X40151Y-34224D01*
X40170Y-34243D01*
X40189Y-34253D01*
X40226Y-34262D01*
X40254Y-34262D01*
X40292Y-34253D01*
X40310Y-34243D01*
X40329Y-34224D01*
X40339Y-34196D01*
X40339Y-34178D01*
X40329Y-34149D01*
X40320Y-34140D01*
X40254Y-34140D01*
X40254Y-34178D01*
X40339Y-34056D02*
X40142Y-34056D01*
X40339Y-33943D01*
X40142Y-33943D01*
X40339Y-33850D02*
X40142Y-33850D01*
X40142Y-33803D01*
X40151Y-33775D01*
X40170Y-33756D01*
X40189Y-33746D01*
X40226Y-33737D01*
X40254Y-33737D01*
X40292Y-33746D01*
X40310Y-33756D01*
X40329Y-33775D01*
X40339Y-33803D01*
X40339Y-33850D01*
G54D19*
X55356Y-35637D02*
X54568Y-35637D01*
X55131Y-35374D01*
X54568Y-35112D01*
X55356Y-35112D01*
X54643Y-34775D02*
X54606Y-34737D01*
X54568Y-34662D01*
X54568Y-34475D01*
X54606Y-34400D01*
X54643Y-34362D01*
X54718Y-34325D01*
X54793Y-34325D01*
X54906Y-34362D01*
X55356Y-34812D01*
X55356Y-34325D01*
G54D11*
X59642Y-34037D02*
X59642Y-34131D01*
X59735Y-34140D01*
X59726Y-34131D01*
X59717Y-34112D01*
X59717Y-34065D01*
X59726Y-34046D01*
X59735Y-34037D01*
X59754Y-34028D01*
X59801Y-34028D01*
X59820Y-34037D01*
X59829Y-34046D01*
X59839Y-34065D01*
X59839Y-34112D01*
X59829Y-34131D01*
X59820Y-34140D01*
X59642Y-33971D02*
X59839Y-33906D01*
X59642Y-33840D01*
X59642Y-35243D02*
X59642Y-35121D01*
X59717Y-35187D01*
X59717Y-35159D01*
X59726Y-35140D01*
X59735Y-35131D01*
X59754Y-35121D01*
X59801Y-35121D01*
X59820Y-35131D01*
X59829Y-35140D01*
X59839Y-35159D01*
X59839Y-35215D01*
X59829Y-35234D01*
X59820Y-35243D01*
X59642Y-35065D02*
X59839Y-34999D01*
X59642Y-34934D01*
X59642Y-34887D02*
X59642Y-34765D01*
X59717Y-34831D01*
X59717Y-34803D01*
X59726Y-34784D01*
X59735Y-34775D01*
X59754Y-34765D01*
X59801Y-34765D01*
X59820Y-34775D01*
X59829Y-34784D01*
X59839Y-34803D01*
X59839Y-34859D01*
X59829Y-34878D01*
X59820Y-34887D01*
X59839Y-38145D02*
X59642Y-38145D01*
X59642Y-38098D01*
X59651Y-38070D01*
X59670Y-38051D01*
X59689Y-38042D01*
X59726Y-38032D01*
X59754Y-38032D01*
X59792Y-38042D01*
X59810Y-38051D01*
X59829Y-38070D01*
X59839Y-38098D01*
X59839Y-38145D01*
X59839Y-37939D02*
X59839Y-37901D01*
X59829Y-37882D01*
X59820Y-37873D01*
X59792Y-37854D01*
X59754Y-37845D01*
X59679Y-37845D01*
X59660Y-37854D01*
X59651Y-37864D01*
X59642Y-37882D01*
X59642Y-37920D01*
X59651Y-37939D01*
X59660Y-37948D01*
X59679Y-37957D01*
X59726Y-37957D01*
X59745Y-37948D01*
X59754Y-37939D01*
X59764Y-37920D01*
X59764Y-37882D01*
X59754Y-37864D01*
X59745Y-37854D01*
X59726Y-37845D01*
X59839Y-39239D02*
X59642Y-39239D01*
X59642Y-39192D01*
X59651Y-39164D01*
X59670Y-39145D01*
X59689Y-39135D01*
X59726Y-39126D01*
X59754Y-39126D01*
X59792Y-39135D01*
X59810Y-39145D01*
X59829Y-39164D01*
X59839Y-39192D01*
X59839Y-39239D01*
X59839Y-38939D02*
X59839Y-39051D01*
X59839Y-38995D02*
X59642Y-38995D01*
X59670Y-39014D01*
X59689Y-39032D01*
X59698Y-39051D01*
X59642Y-38817D02*
X59642Y-38798D01*
X59651Y-38779D01*
X59660Y-38770D01*
X59679Y-38760D01*
X59717Y-38751D01*
X59764Y-38751D01*
X59801Y-38760D01*
X59820Y-38770D01*
X59829Y-38779D01*
X59839Y-38798D01*
X59839Y-38817D01*
X59829Y-38835D01*
X59820Y-38845D01*
X59801Y-38854D01*
X59764Y-38864D01*
X59717Y-38864D01*
X59679Y-38854D01*
X59660Y-38845D01*
X59651Y-38835D01*
X59642Y-38817D01*
X59839Y-37145D02*
X59642Y-37145D01*
X59642Y-37098D01*
X59651Y-37070D01*
X59670Y-37051D01*
X59689Y-37042D01*
X59726Y-37032D01*
X59754Y-37032D01*
X59792Y-37042D01*
X59810Y-37051D01*
X59829Y-37070D01*
X59839Y-37098D01*
X59839Y-37145D01*
X59726Y-36920D02*
X59717Y-36939D01*
X59707Y-36948D01*
X59689Y-36957D01*
X59679Y-36957D01*
X59660Y-36948D01*
X59651Y-36939D01*
X59642Y-36920D01*
X59642Y-36882D01*
X59651Y-36864D01*
X59660Y-36854D01*
X59679Y-36845D01*
X59689Y-36845D01*
X59707Y-36854D01*
X59717Y-36864D01*
X59726Y-36882D01*
X59726Y-36920D01*
X59735Y-36939D01*
X59745Y-36948D01*
X59764Y-36957D01*
X59801Y-36957D01*
X59820Y-36948D01*
X59829Y-36939D01*
X59839Y-36920D01*
X59839Y-36882D01*
X59829Y-36864D01*
X59820Y-36854D01*
X59801Y-36845D01*
X59764Y-36845D01*
X59745Y-36854D01*
X59735Y-36864D01*
X59726Y-36882D01*
X59839Y-36145D02*
X59642Y-36145D01*
X59642Y-36098D01*
X59651Y-36070D01*
X59670Y-36051D01*
X59689Y-36042D01*
X59726Y-36032D01*
X59754Y-36032D01*
X59792Y-36042D01*
X59810Y-36051D01*
X59829Y-36070D01*
X59839Y-36098D01*
X59839Y-36145D01*
X59642Y-35967D02*
X59642Y-35835D01*
X59839Y-35920D01*
X59839Y-40239D02*
X59642Y-40239D01*
X59642Y-40192D01*
X59651Y-40164D01*
X59670Y-40145D01*
X59689Y-40135D01*
X59726Y-40126D01*
X59754Y-40126D01*
X59792Y-40135D01*
X59810Y-40145D01*
X59829Y-40164D01*
X59839Y-40192D01*
X59839Y-40239D01*
X59839Y-39939D02*
X59839Y-40051D01*
X59839Y-39995D02*
X59642Y-39995D01*
X59670Y-40014D01*
X59689Y-40032D01*
X59698Y-40051D01*
X59839Y-39751D02*
X59839Y-39864D01*
X59839Y-39807D02*
X59642Y-39807D01*
X59670Y-39826D01*
X59689Y-39845D01*
X59698Y-39864D01*
X59839Y-42239D02*
X59642Y-42239D01*
X59642Y-42192D01*
X59651Y-42164D01*
X59670Y-42145D01*
X59689Y-42135D01*
X59726Y-42126D01*
X59754Y-42126D01*
X59792Y-42135D01*
X59810Y-42145D01*
X59829Y-42164D01*
X59839Y-42192D01*
X59839Y-42239D01*
X59839Y-41939D02*
X59839Y-42051D01*
X59839Y-41995D02*
X59642Y-41995D01*
X59670Y-42014D01*
X59689Y-42032D01*
X59698Y-42051D01*
X59642Y-41873D02*
X59642Y-41751D01*
X59717Y-41817D01*
X59717Y-41789D01*
X59726Y-41770D01*
X59735Y-41760D01*
X59754Y-41751D01*
X59801Y-41751D01*
X59820Y-41760D01*
X59829Y-41770D01*
X59839Y-41789D01*
X59839Y-41845D01*
X59829Y-41864D01*
X59820Y-41873D01*
X59782Y-43818D02*
X59782Y-43724D01*
X59839Y-43837D02*
X59642Y-43771D01*
X59839Y-43706D01*
X59839Y-43528D02*
X59745Y-43593D01*
X59839Y-43640D02*
X59642Y-43640D01*
X59642Y-43565D01*
X59651Y-43546D01*
X59660Y-43537D01*
X59679Y-43528D01*
X59707Y-43528D01*
X59726Y-43537D01*
X59735Y-43546D01*
X59745Y-43565D01*
X59745Y-43640D01*
X59735Y-43443D02*
X59735Y-43378D01*
X59839Y-43350D02*
X59839Y-43443D01*
X59642Y-43443D01*
X59642Y-43350D01*
X59735Y-43200D02*
X59735Y-43265D01*
X59839Y-43265D02*
X59642Y-43265D01*
X59642Y-43171D01*
X57032Y-43890D02*
X57032Y-43796D01*
X57089Y-43909D02*
X56892Y-43843D01*
X57089Y-43778D01*
X57089Y-43609D02*
X57089Y-43721D01*
X57089Y-43665D02*
X56892Y-43665D01*
X56920Y-43684D01*
X56939Y-43703D01*
X56948Y-43721D01*
X59839Y-41239D02*
X59642Y-41239D01*
X59642Y-41192D01*
X59651Y-41164D01*
X59670Y-41145D01*
X59689Y-41135D01*
X59726Y-41126D01*
X59754Y-41126D01*
X59792Y-41135D01*
X59810Y-41145D01*
X59829Y-41164D01*
X59839Y-41192D01*
X59839Y-41239D01*
X59839Y-40939D02*
X59839Y-41051D01*
X59839Y-40995D02*
X59642Y-40995D01*
X59670Y-41014D01*
X59689Y-41032D01*
X59698Y-41051D01*
X59660Y-40864D02*
X59651Y-40854D01*
X59642Y-40835D01*
X59642Y-40789D01*
X59651Y-40770D01*
X59660Y-40760D01*
X59679Y-40751D01*
X59698Y-40751D01*
X59726Y-40760D01*
X59839Y-40873D01*
X59839Y-40751D01*
X58032Y-43890D02*
X58032Y-43796D01*
X58089Y-43909D02*
X57892Y-43843D01*
X58089Y-43778D01*
X57892Y-43675D02*
X57892Y-43656D01*
X57901Y-43637D01*
X57910Y-43628D01*
X57929Y-43618D01*
X57967Y-43609D01*
X58014Y-43609D01*
X58051Y-43618D01*
X58070Y-43628D01*
X58079Y-43637D01*
X58089Y-43656D01*
X58089Y-43675D01*
X58079Y-43693D01*
X58070Y-43703D01*
X58051Y-43712D01*
X58014Y-43721D01*
X57967Y-43721D01*
X57929Y-43712D01*
X57910Y-43703D01*
X57901Y-43693D01*
X57892Y-43675D01*
X56032Y-43890D02*
X56032Y-43796D01*
X56089Y-43909D02*
X55892Y-43843D01*
X56089Y-43778D01*
X55910Y-43721D02*
X55901Y-43712D01*
X55892Y-43693D01*
X55892Y-43646D01*
X55901Y-43628D01*
X55910Y-43618D01*
X55929Y-43609D01*
X55948Y-43609D01*
X55976Y-43618D01*
X56089Y-43731D01*
X56089Y-43609D01*
X55032Y-43890D02*
X55032Y-43796D01*
X55089Y-43909D02*
X54892Y-43843D01*
X55089Y-43778D01*
X54892Y-43731D02*
X54892Y-43609D01*
X54967Y-43675D01*
X54967Y-43646D01*
X54976Y-43628D01*
X54985Y-43618D01*
X55004Y-43609D01*
X55051Y-43609D01*
X55070Y-43618D01*
X55079Y-43628D01*
X55089Y-43646D01*
X55089Y-43703D01*
X55079Y-43721D01*
X55070Y-43731D01*
X53032Y-43890D02*
X53032Y-43796D01*
X53089Y-43909D02*
X52892Y-43843D01*
X53089Y-43778D01*
X52892Y-43618D02*
X52892Y-43712D01*
X52985Y-43721D01*
X52976Y-43712D01*
X52967Y-43693D01*
X52967Y-43646D01*
X52976Y-43628D01*
X52985Y-43618D01*
X53004Y-43609D01*
X53051Y-43609D01*
X53070Y-43618D01*
X53079Y-43628D01*
X53089Y-43646D01*
X53089Y-43693D01*
X53079Y-43712D01*
X53070Y-43721D01*
X52032Y-43890D02*
X52032Y-43796D01*
X52089Y-43909D02*
X51892Y-43843D01*
X52089Y-43778D01*
X51892Y-43628D02*
X51892Y-43665D01*
X51901Y-43684D01*
X51910Y-43693D01*
X51939Y-43712D01*
X51976Y-43721D01*
X52051Y-43721D01*
X52070Y-43712D01*
X52079Y-43703D01*
X52089Y-43684D01*
X52089Y-43646D01*
X52079Y-43628D01*
X52070Y-43618D01*
X52051Y-43609D01*
X52004Y-43609D01*
X51985Y-43618D01*
X51976Y-43628D01*
X51967Y-43646D01*
X51967Y-43684D01*
X51976Y-43703D01*
X51985Y-43712D01*
X52004Y-43721D01*
X54032Y-43890D02*
X54032Y-43796D01*
X54089Y-43909D02*
X53892Y-43843D01*
X54089Y-43778D01*
X53957Y-43628D02*
X54089Y-43628D01*
X53882Y-43675D02*
X54023Y-43721D01*
X54023Y-43600D01*
X50339Y-42126D02*
X50245Y-42192D01*
X50339Y-42239D02*
X50142Y-42239D01*
X50142Y-42164D01*
X50151Y-42145D01*
X50160Y-42135D01*
X50179Y-42126D01*
X50207Y-42126D01*
X50226Y-42135D01*
X50235Y-42145D01*
X50245Y-42164D01*
X50245Y-42239D01*
X50142Y-42060D02*
X50339Y-41929D01*
X50142Y-41929D02*
X50339Y-42060D01*
X50142Y-41817D02*
X50142Y-41798D01*
X50151Y-41779D01*
X50160Y-41770D01*
X50179Y-41760D01*
X50217Y-41751D01*
X50264Y-41751D01*
X50301Y-41760D01*
X50320Y-41770D01*
X50329Y-41779D01*
X50339Y-41798D01*
X50339Y-41817D01*
X50329Y-41835D01*
X50320Y-41845D01*
X50301Y-41854D01*
X50264Y-41864D01*
X50217Y-41864D01*
X50179Y-41854D01*
X50160Y-41845D01*
X50151Y-41835D01*
X50142Y-41817D01*
X50142Y-41243D02*
X50142Y-41131D01*
X50339Y-41187D02*
X50142Y-41187D01*
X50142Y-41084D02*
X50339Y-40953D01*
X50142Y-40953D02*
X50339Y-41084D01*
X50339Y-40775D02*
X50339Y-40887D01*
X50339Y-40831D02*
X50142Y-40831D01*
X50170Y-40850D01*
X50189Y-40868D01*
X50198Y-40887D01*
X50282Y-43890D02*
X50282Y-43796D01*
X50339Y-43909D02*
X50142Y-43843D01*
X50339Y-43778D01*
X50142Y-43731D02*
X50142Y-43600D01*
X50339Y-43684D01*
X50339Y-40145D02*
X50142Y-40145D01*
X50142Y-40098D01*
X50151Y-40070D01*
X50170Y-40051D01*
X50189Y-40042D01*
X50226Y-40032D01*
X50254Y-40032D01*
X50292Y-40042D01*
X50310Y-40051D01*
X50329Y-40070D01*
X50339Y-40098D01*
X50339Y-40145D01*
X50160Y-39957D02*
X50151Y-39948D01*
X50142Y-39929D01*
X50142Y-39882D01*
X50151Y-39864D01*
X50160Y-39854D01*
X50179Y-39845D01*
X50198Y-39845D01*
X50226Y-39854D01*
X50339Y-39967D01*
X50339Y-39845D01*
X50339Y-39145D02*
X50142Y-39145D01*
X50142Y-39098D01*
X50151Y-39070D01*
X50170Y-39051D01*
X50189Y-39042D01*
X50226Y-39032D01*
X50254Y-39032D01*
X50292Y-39042D01*
X50310Y-39051D01*
X50329Y-39070D01*
X50339Y-39098D01*
X50339Y-39145D01*
X50142Y-38967D02*
X50142Y-38845D01*
X50217Y-38910D01*
X50217Y-38882D01*
X50226Y-38864D01*
X50235Y-38854D01*
X50254Y-38845D01*
X50301Y-38845D01*
X50320Y-38854D01*
X50329Y-38864D01*
X50339Y-38882D01*
X50339Y-38939D01*
X50329Y-38957D01*
X50320Y-38967D01*
X50339Y-38145D02*
X50142Y-38145D01*
X50142Y-38098D01*
X50151Y-38070D01*
X50170Y-38051D01*
X50189Y-38042D01*
X50226Y-38032D01*
X50254Y-38032D01*
X50292Y-38042D01*
X50310Y-38051D01*
X50329Y-38070D01*
X50339Y-38098D01*
X50339Y-38145D01*
X50207Y-37864D02*
X50339Y-37864D01*
X50132Y-37910D02*
X50273Y-37957D01*
X50273Y-37835D01*
X50339Y-37145D02*
X50142Y-37145D01*
X50142Y-37098D01*
X50151Y-37070D01*
X50170Y-37051D01*
X50189Y-37042D01*
X50226Y-37032D01*
X50254Y-37032D01*
X50292Y-37042D01*
X50310Y-37051D01*
X50329Y-37070D01*
X50339Y-37098D01*
X50339Y-37145D01*
X50142Y-36854D02*
X50142Y-36948D01*
X50235Y-36957D01*
X50226Y-36948D01*
X50217Y-36929D01*
X50217Y-36882D01*
X50226Y-36864D01*
X50235Y-36854D01*
X50254Y-36845D01*
X50301Y-36845D01*
X50320Y-36854D01*
X50329Y-36864D01*
X50339Y-36882D01*
X50339Y-36929D01*
X50329Y-36948D01*
X50320Y-36957D01*
X50339Y-36145D02*
X50142Y-36145D01*
X50142Y-36098D01*
X50151Y-36070D01*
X50170Y-36051D01*
X50189Y-36042D01*
X50226Y-36032D01*
X50254Y-36032D01*
X50292Y-36042D01*
X50310Y-36051D01*
X50329Y-36070D01*
X50339Y-36098D01*
X50339Y-36145D01*
X50142Y-35864D02*
X50142Y-35901D01*
X50151Y-35920D01*
X50160Y-35929D01*
X50189Y-35948D01*
X50226Y-35957D01*
X50301Y-35957D01*
X50320Y-35948D01*
X50329Y-35939D01*
X50339Y-35920D01*
X50339Y-35882D01*
X50329Y-35864D01*
X50320Y-35854D01*
X50301Y-35845D01*
X50254Y-35845D01*
X50235Y-35854D01*
X50226Y-35864D01*
X50217Y-35882D01*
X50217Y-35920D01*
X50226Y-35939D01*
X50235Y-35948D01*
X50254Y-35957D01*
X50339Y-35107D02*
X50245Y-35173D01*
X50339Y-35220D02*
X50142Y-35220D01*
X50142Y-35145D01*
X50151Y-35126D01*
X50160Y-35117D01*
X50179Y-35107D01*
X50207Y-35107D01*
X50226Y-35117D01*
X50235Y-35126D01*
X50245Y-35145D01*
X50245Y-35220D01*
X50329Y-35032D02*
X50339Y-35004D01*
X50339Y-34957D01*
X50329Y-34939D01*
X50320Y-34929D01*
X50301Y-34920D01*
X50282Y-34920D01*
X50264Y-34929D01*
X50254Y-34939D01*
X50245Y-34957D01*
X50235Y-34995D01*
X50226Y-35014D01*
X50217Y-35023D01*
X50198Y-35032D01*
X50179Y-35032D01*
X50160Y-35023D01*
X50151Y-35014D01*
X50142Y-34995D01*
X50142Y-34948D01*
X50151Y-34920D01*
X50142Y-34864D02*
X50142Y-34751D01*
X50339Y-34807D02*
X50142Y-34807D01*
X50151Y-34149D02*
X50142Y-34168D01*
X50142Y-34196D01*
X50151Y-34224D01*
X50170Y-34243D01*
X50189Y-34253D01*
X50226Y-34262D01*
X50254Y-34262D01*
X50292Y-34253D01*
X50310Y-34243D01*
X50329Y-34224D01*
X50339Y-34196D01*
X50339Y-34178D01*
X50329Y-34149D01*
X50320Y-34140D01*
X50254Y-34140D01*
X50254Y-34178D01*
X50339Y-34056D02*
X50142Y-34056D01*
X50339Y-33943D01*
X50142Y-33943D01*
X50339Y-33850D02*
X50142Y-33850D01*
X50142Y-33803D01*
X50151Y-33775D01*
X50170Y-33756D01*
X50189Y-33746D01*
X50226Y-33737D01*
X50254Y-33737D01*
X50292Y-33746D01*
X50310Y-33756D01*
X50329Y-33775D01*
X50339Y-33803D01*
X50339Y-33850D01*
G54D19*
X59362Y-51356D02*
X59362Y-50568D01*
X59625Y-51131D01*
X59887Y-50568D01*
X59887Y-51356D01*
X60599Y-50831D02*
X60599Y-51356D01*
X60412Y-50531D02*
X60224Y-51093D01*
X60712Y-51093D01*
G54D11*
X60962Y-55642D02*
X60868Y-55642D01*
X60859Y-55735D01*
X60868Y-55726D01*
X60887Y-55717D01*
X60934Y-55717D01*
X60953Y-55726D01*
X60962Y-55735D01*
X60971Y-55754D01*
X60971Y-55801D01*
X60962Y-55820D01*
X60953Y-55829D01*
X60934Y-55839D01*
X60887Y-55839D01*
X60868Y-55829D01*
X60859Y-55820D01*
X61028Y-55642D02*
X61093Y-55839D01*
X61159Y-55642D01*
X59756Y-55642D02*
X59878Y-55642D01*
X59812Y-55717D01*
X59840Y-55717D01*
X59859Y-55726D01*
X59868Y-55735D01*
X59878Y-55754D01*
X59878Y-55801D01*
X59868Y-55820D01*
X59859Y-55829D01*
X59840Y-55839D01*
X59784Y-55839D01*
X59765Y-55829D01*
X59756Y-55820D01*
X59934Y-55642D02*
X60000Y-55839D01*
X60065Y-55642D01*
X60112Y-55642D02*
X60234Y-55642D01*
X60168Y-55717D01*
X60196Y-55717D01*
X60215Y-55726D01*
X60224Y-55735D01*
X60234Y-55754D01*
X60234Y-55801D01*
X60224Y-55820D01*
X60215Y-55829D01*
X60196Y-55839D01*
X60140Y-55839D01*
X60121Y-55829D01*
X60112Y-55820D01*
X56854Y-55839D02*
X56854Y-55642D01*
X56901Y-55642D01*
X56929Y-55651D01*
X56948Y-55670D01*
X56957Y-55689D01*
X56967Y-55726D01*
X56967Y-55754D01*
X56957Y-55792D01*
X56948Y-55810D01*
X56929Y-55829D01*
X56901Y-55839D01*
X56854Y-55839D01*
X57060Y-55839D02*
X57098Y-55839D01*
X57117Y-55829D01*
X57126Y-55820D01*
X57145Y-55792D01*
X57154Y-55754D01*
X57154Y-55679D01*
X57145Y-55660D01*
X57135Y-55651D01*
X57117Y-55642D01*
X57079Y-55642D01*
X57060Y-55651D01*
X57051Y-55660D01*
X57042Y-55679D01*
X57042Y-55726D01*
X57051Y-55745D01*
X57060Y-55754D01*
X57079Y-55764D01*
X57117Y-55764D01*
X57135Y-55754D01*
X57145Y-55745D01*
X57154Y-55726D01*
X55760Y-55839D02*
X55760Y-55642D01*
X55807Y-55642D01*
X55835Y-55651D01*
X55854Y-55670D01*
X55864Y-55689D01*
X55873Y-55726D01*
X55873Y-55754D01*
X55864Y-55792D01*
X55854Y-55810D01*
X55835Y-55829D01*
X55807Y-55839D01*
X55760Y-55839D01*
X56060Y-55839D02*
X55948Y-55839D01*
X56004Y-55839D02*
X56004Y-55642D01*
X55985Y-55670D01*
X55967Y-55689D01*
X55948Y-55698D01*
X56182Y-55642D02*
X56201Y-55642D01*
X56220Y-55651D01*
X56229Y-55660D01*
X56239Y-55679D01*
X56248Y-55717D01*
X56248Y-55764D01*
X56239Y-55801D01*
X56229Y-55820D01*
X56220Y-55829D01*
X56201Y-55839D01*
X56182Y-55839D01*
X56164Y-55829D01*
X56154Y-55820D01*
X56145Y-55801D01*
X56135Y-55764D01*
X56135Y-55717D01*
X56145Y-55679D01*
X56154Y-55660D01*
X56164Y-55651D01*
X56182Y-55642D01*
X57854Y-55839D02*
X57854Y-55642D01*
X57901Y-55642D01*
X57929Y-55651D01*
X57948Y-55670D01*
X57957Y-55689D01*
X57967Y-55726D01*
X57967Y-55754D01*
X57957Y-55792D01*
X57948Y-55810D01*
X57929Y-55829D01*
X57901Y-55839D01*
X57854Y-55839D01*
X58079Y-55726D02*
X58060Y-55717D01*
X58051Y-55707D01*
X58042Y-55689D01*
X58042Y-55679D01*
X58051Y-55660D01*
X58060Y-55651D01*
X58079Y-55642D01*
X58117Y-55642D01*
X58135Y-55651D01*
X58145Y-55660D01*
X58154Y-55679D01*
X58154Y-55689D01*
X58145Y-55707D01*
X58135Y-55717D01*
X58117Y-55726D01*
X58079Y-55726D01*
X58060Y-55735D01*
X58051Y-55745D01*
X58042Y-55764D01*
X58042Y-55801D01*
X58051Y-55820D01*
X58060Y-55829D01*
X58079Y-55839D01*
X58117Y-55839D01*
X58135Y-55829D01*
X58145Y-55820D01*
X58154Y-55801D01*
X58154Y-55764D01*
X58145Y-55745D01*
X58135Y-55735D01*
X58117Y-55726D01*
X58854Y-55839D02*
X58854Y-55642D01*
X58901Y-55642D01*
X58929Y-55651D01*
X58948Y-55670D01*
X58957Y-55689D01*
X58967Y-55726D01*
X58967Y-55754D01*
X58957Y-55792D01*
X58948Y-55810D01*
X58929Y-55829D01*
X58901Y-55839D01*
X58854Y-55839D01*
X59032Y-55642D02*
X59164Y-55642D01*
X59079Y-55839D01*
X54760Y-55839D02*
X54760Y-55642D01*
X54807Y-55642D01*
X54835Y-55651D01*
X54854Y-55670D01*
X54864Y-55689D01*
X54873Y-55726D01*
X54873Y-55754D01*
X54864Y-55792D01*
X54854Y-55810D01*
X54835Y-55829D01*
X54807Y-55839D01*
X54760Y-55839D01*
X55060Y-55839D02*
X54948Y-55839D01*
X55004Y-55839D02*
X55004Y-55642D01*
X54985Y-55670D01*
X54967Y-55689D01*
X54948Y-55698D01*
X55248Y-55839D02*
X55135Y-55839D01*
X55192Y-55839D02*
X55192Y-55642D01*
X55173Y-55670D01*
X55154Y-55689D01*
X55135Y-55698D01*
X52760Y-55839D02*
X52760Y-55642D01*
X52807Y-55642D01*
X52835Y-55651D01*
X52854Y-55670D01*
X52864Y-55689D01*
X52873Y-55726D01*
X52873Y-55754D01*
X52864Y-55792D01*
X52854Y-55810D01*
X52835Y-55829D01*
X52807Y-55839D01*
X52760Y-55839D01*
X53060Y-55839D02*
X52948Y-55839D01*
X53004Y-55839D02*
X53004Y-55642D01*
X52985Y-55670D01*
X52967Y-55689D01*
X52948Y-55698D01*
X53126Y-55642D02*
X53248Y-55642D01*
X53182Y-55717D01*
X53210Y-55717D01*
X53229Y-55726D01*
X53239Y-55735D01*
X53248Y-55754D01*
X53248Y-55801D01*
X53239Y-55820D01*
X53229Y-55829D01*
X53210Y-55839D01*
X53154Y-55839D01*
X53135Y-55829D01*
X53126Y-55820D01*
X51181Y-55782D02*
X51275Y-55782D01*
X51162Y-55839D02*
X51228Y-55642D01*
X51293Y-55839D01*
X51471Y-55839D02*
X51406Y-55745D01*
X51359Y-55839D02*
X51359Y-55642D01*
X51434Y-55642D01*
X51453Y-55651D01*
X51462Y-55660D01*
X51471Y-55679D01*
X51471Y-55707D01*
X51462Y-55726D01*
X51453Y-55735D01*
X51434Y-55745D01*
X51359Y-55745D01*
X51556Y-55735D02*
X51621Y-55735D01*
X51649Y-55839D02*
X51556Y-55839D01*
X51556Y-55642D01*
X51649Y-55642D01*
X51799Y-55735D02*
X51734Y-55735D01*
X51734Y-55839D02*
X51734Y-55642D01*
X51828Y-55642D01*
X51109Y-53032D02*
X51203Y-53032D01*
X51090Y-53089D02*
X51156Y-52892D01*
X51221Y-53089D01*
X51390Y-53089D02*
X51278Y-53089D01*
X51334Y-53089D02*
X51334Y-52892D01*
X51315Y-52920D01*
X51296Y-52939D01*
X51278Y-52948D01*
X53760Y-55839D02*
X53760Y-55642D01*
X53807Y-55642D01*
X53835Y-55651D01*
X53854Y-55670D01*
X53864Y-55689D01*
X53873Y-55726D01*
X53873Y-55754D01*
X53864Y-55792D01*
X53854Y-55810D01*
X53835Y-55829D01*
X53807Y-55839D01*
X53760Y-55839D01*
X54060Y-55839D02*
X53948Y-55839D01*
X54004Y-55839D02*
X54004Y-55642D01*
X53985Y-55670D01*
X53967Y-55689D01*
X53948Y-55698D01*
X54135Y-55660D02*
X54145Y-55651D01*
X54164Y-55642D01*
X54210Y-55642D01*
X54229Y-55651D01*
X54239Y-55660D01*
X54248Y-55679D01*
X54248Y-55698D01*
X54239Y-55726D01*
X54126Y-55839D01*
X54248Y-55839D01*
X51109Y-54032D02*
X51203Y-54032D01*
X51090Y-54089D02*
X51156Y-53892D01*
X51221Y-54089D01*
X51324Y-53892D02*
X51343Y-53892D01*
X51362Y-53901D01*
X51371Y-53910D01*
X51381Y-53929D01*
X51390Y-53967D01*
X51390Y-54014D01*
X51381Y-54051D01*
X51371Y-54070D01*
X51362Y-54079D01*
X51343Y-54089D01*
X51324Y-54089D01*
X51306Y-54079D01*
X51296Y-54070D01*
X51287Y-54051D01*
X51278Y-54014D01*
X51278Y-53967D01*
X51287Y-53929D01*
X51296Y-53910D01*
X51306Y-53901D01*
X51324Y-53892D01*
X51109Y-52032D02*
X51203Y-52032D01*
X51090Y-52089D02*
X51156Y-51892D01*
X51221Y-52089D01*
X51278Y-51910D02*
X51287Y-51901D01*
X51306Y-51892D01*
X51353Y-51892D01*
X51371Y-51901D01*
X51381Y-51910D01*
X51390Y-51929D01*
X51390Y-51948D01*
X51381Y-51976D01*
X51268Y-52089D01*
X51390Y-52089D01*
X51109Y-51032D02*
X51203Y-51032D01*
X51090Y-51089D02*
X51156Y-50892D01*
X51221Y-51089D01*
X51268Y-50892D02*
X51390Y-50892D01*
X51324Y-50967D01*
X51353Y-50967D01*
X51371Y-50976D01*
X51381Y-50985D01*
X51390Y-51004D01*
X51390Y-51051D01*
X51381Y-51070D01*
X51371Y-51079D01*
X51353Y-51089D01*
X51296Y-51089D01*
X51278Y-51079D01*
X51268Y-51070D01*
X51109Y-49032D02*
X51203Y-49032D01*
X51090Y-49089D02*
X51156Y-48892D01*
X51221Y-49089D01*
X51381Y-48892D02*
X51287Y-48892D01*
X51278Y-48985D01*
X51287Y-48976D01*
X51306Y-48967D01*
X51353Y-48967D01*
X51371Y-48976D01*
X51381Y-48985D01*
X51390Y-49004D01*
X51390Y-49051D01*
X51381Y-49070D01*
X51371Y-49079D01*
X51353Y-49089D01*
X51306Y-49089D01*
X51287Y-49079D01*
X51278Y-49070D01*
X51109Y-48032D02*
X51203Y-48032D01*
X51090Y-48089D02*
X51156Y-47892D01*
X51221Y-48089D01*
X51371Y-47892D02*
X51334Y-47892D01*
X51315Y-47901D01*
X51306Y-47910D01*
X51287Y-47939D01*
X51278Y-47976D01*
X51278Y-48051D01*
X51287Y-48070D01*
X51296Y-48079D01*
X51315Y-48089D01*
X51353Y-48089D01*
X51371Y-48079D01*
X51381Y-48070D01*
X51390Y-48051D01*
X51390Y-48004D01*
X51381Y-47985D01*
X51371Y-47976D01*
X51353Y-47967D01*
X51315Y-47967D01*
X51296Y-47976D01*
X51287Y-47985D01*
X51278Y-48004D01*
X51109Y-50032D02*
X51203Y-50032D01*
X51090Y-50089D02*
X51156Y-49892D01*
X51221Y-50089D01*
X51371Y-49957D02*
X51371Y-50089D01*
X51324Y-49882D02*
X51278Y-50023D01*
X51399Y-50023D01*
X52873Y-46339D02*
X52807Y-46245D01*
X52760Y-46339D02*
X52760Y-46142D01*
X52835Y-46142D01*
X52854Y-46151D01*
X52864Y-46160D01*
X52873Y-46179D01*
X52873Y-46207D01*
X52864Y-46226D01*
X52854Y-46235D01*
X52835Y-46245D01*
X52760Y-46245D01*
X52939Y-46142D02*
X53070Y-46339D01*
X53070Y-46142D02*
X52939Y-46339D01*
X53182Y-46142D02*
X53201Y-46142D01*
X53220Y-46151D01*
X53229Y-46160D01*
X53239Y-46179D01*
X53248Y-46217D01*
X53248Y-46264D01*
X53239Y-46301D01*
X53229Y-46320D01*
X53220Y-46329D01*
X53201Y-46339D01*
X53182Y-46339D01*
X53164Y-46329D01*
X53154Y-46320D01*
X53145Y-46301D01*
X53135Y-46264D01*
X53135Y-46217D01*
X53145Y-46179D01*
X53154Y-46160D01*
X53164Y-46151D01*
X53182Y-46142D01*
X53756Y-46142D02*
X53868Y-46142D01*
X53812Y-46339D02*
X53812Y-46142D01*
X53915Y-46142D02*
X54046Y-46339D01*
X54046Y-46142D02*
X53915Y-46339D01*
X54224Y-46339D02*
X54112Y-46339D01*
X54168Y-46339D02*
X54168Y-46142D01*
X54149Y-46170D01*
X54131Y-46189D01*
X54112Y-46198D01*
X51109Y-46282D02*
X51203Y-46282D01*
X51090Y-46339D02*
X51156Y-46142D01*
X51221Y-46339D01*
X51268Y-46142D02*
X51399Y-46142D01*
X51315Y-46339D01*
X54854Y-46339D02*
X54854Y-46142D01*
X54901Y-46142D01*
X54929Y-46151D01*
X54948Y-46170D01*
X54957Y-46189D01*
X54967Y-46226D01*
X54967Y-46254D01*
X54957Y-46292D01*
X54948Y-46310D01*
X54929Y-46329D01*
X54901Y-46339D01*
X54854Y-46339D01*
X55042Y-46160D02*
X55051Y-46151D01*
X55070Y-46142D01*
X55117Y-46142D01*
X55135Y-46151D01*
X55145Y-46160D01*
X55154Y-46179D01*
X55154Y-46198D01*
X55145Y-46226D01*
X55032Y-46339D01*
X55154Y-46339D01*
X55854Y-46339D02*
X55854Y-46142D01*
X55901Y-46142D01*
X55929Y-46151D01*
X55948Y-46170D01*
X55957Y-46189D01*
X55967Y-46226D01*
X55967Y-46254D01*
X55957Y-46292D01*
X55948Y-46310D01*
X55929Y-46329D01*
X55901Y-46339D01*
X55854Y-46339D01*
X56032Y-46142D02*
X56154Y-46142D01*
X56089Y-46217D01*
X56117Y-46217D01*
X56135Y-46226D01*
X56145Y-46235D01*
X56154Y-46254D01*
X56154Y-46301D01*
X56145Y-46320D01*
X56135Y-46329D01*
X56117Y-46339D01*
X56060Y-46339D01*
X56042Y-46329D01*
X56032Y-46320D01*
X56854Y-46339D02*
X56854Y-46142D01*
X56901Y-46142D01*
X56929Y-46151D01*
X56948Y-46170D01*
X56957Y-46189D01*
X56967Y-46226D01*
X56967Y-46254D01*
X56957Y-46292D01*
X56948Y-46310D01*
X56929Y-46329D01*
X56901Y-46339D01*
X56854Y-46339D01*
X57135Y-46207D02*
X57135Y-46339D01*
X57089Y-46132D02*
X57042Y-46273D01*
X57164Y-46273D01*
X57854Y-46339D02*
X57854Y-46142D01*
X57901Y-46142D01*
X57929Y-46151D01*
X57948Y-46170D01*
X57957Y-46189D01*
X57967Y-46226D01*
X57967Y-46254D01*
X57957Y-46292D01*
X57948Y-46310D01*
X57929Y-46329D01*
X57901Y-46339D01*
X57854Y-46339D01*
X58145Y-46142D02*
X58051Y-46142D01*
X58042Y-46235D01*
X58051Y-46226D01*
X58070Y-46217D01*
X58117Y-46217D01*
X58135Y-46226D01*
X58145Y-46235D01*
X58154Y-46254D01*
X58154Y-46301D01*
X58145Y-46320D01*
X58135Y-46329D01*
X58117Y-46339D01*
X58070Y-46339D01*
X58051Y-46329D01*
X58042Y-46320D01*
X58854Y-46339D02*
X58854Y-46142D01*
X58901Y-46142D01*
X58929Y-46151D01*
X58948Y-46170D01*
X58957Y-46189D01*
X58967Y-46226D01*
X58967Y-46254D01*
X58957Y-46292D01*
X58948Y-46310D01*
X58929Y-46329D01*
X58901Y-46339D01*
X58854Y-46339D01*
X59135Y-46142D02*
X59098Y-46142D01*
X59079Y-46151D01*
X59070Y-46160D01*
X59051Y-46189D01*
X59042Y-46226D01*
X59042Y-46301D01*
X59051Y-46320D01*
X59060Y-46329D01*
X59079Y-46339D01*
X59117Y-46339D01*
X59135Y-46329D01*
X59145Y-46320D01*
X59154Y-46301D01*
X59154Y-46254D01*
X59145Y-46235D01*
X59135Y-46226D01*
X59117Y-46217D01*
X59079Y-46217D01*
X59060Y-46226D01*
X59051Y-46235D01*
X59042Y-46254D01*
X59892Y-46339D02*
X59826Y-46245D01*
X59779Y-46339D02*
X59779Y-46142D01*
X59854Y-46142D01*
X59873Y-46151D01*
X59882Y-46160D01*
X59892Y-46179D01*
X59892Y-46207D01*
X59882Y-46226D01*
X59873Y-46235D01*
X59854Y-46245D01*
X59779Y-46245D01*
X59967Y-46329D02*
X59995Y-46339D01*
X60042Y-46339D01*
X60060Y-46329D01*
X60070Y-46320D01*
X60079Y-46301D01*
X60079Y-46282D01*
X60070Y-46264D01*
X60060Y-46254D01*
X60042Y-46245D01*
X60004Y-46235D01*
X59985Y-46226D01*
X59976Y-46217D01*
X59967Y-46198D01*
X59967Y-46179D01*
X59976Y-46160D01*
X59985Y-46151D01*
X60004Y-46142D01*
X60051Y-46142D01*
X60079Y-46151D01*
X60135Y-46142D02*
X60248Y-46142D01*
X60192Y-46339D02*
X60192Y-46142D01*
X60850Y-46151D02*
X60831Y-46142D01*
X60803Y-46142D01*
X60775Y-46151D01*
X60756Y-46170D01*
X60746Y-46189D01*
X60737Y-46226D01*
X60737Y-46254D01*
X60746Y-46292D01*
X60756Y-46310D01*
X60775Y-46329D01*
X60803Y-46339D01*
X60821Y-46339D01*
X60850Y-46329D01*
X60859Y-46320D01*
X60859Y-46254D01*
X60821Y-46254D01*
X60943Y-46339D02*
X60943Y-46142D01*
X61056Y-46339D01*
X61056Y-46142D01*
X61149Y-46339D02*
X61149Y-46142D01*
X61196Y-46142D01*
X61224Y-46151D01*
X61243Y-46170D01*
X61253Y-46189D01*
X61262Y-46226D01*
X61262Y-46254D01*
X61253Y-46292D01*
X61243Y-46310D01*
X61224Y-46329D01*
X61196Y-46339D01*
X61149Y-46339D01*
M02*
