M48
;DRILL file {pcbnew (2014-04-12 BZR 4800)-product} date dom 07 sep 2014 17:19:29 COT
;FORMAT={-:-/ absolute / inch / decimal}
FMAT,2
INCH,TZ
T1C0.016
T2C0.024
T3C0.032
T4C0.040
%
G90
G05
M72
T1
X4.025Y-5.65
X4.195Y-5.415
X4.4Y-5.415
X4.4124Y-4.4121
X4.6Y-5.2
X5.2254Y-3.6146
X5.2729Y-5.1635
X5.4229Y-4.1635
X5.449Y-4.128
X5.4814Y-4.1546
X5.5191Y-4.1344
X5.5377Y-4.4512
X5.5691Y-3.7392
X5.6566Y-3.6396
X5.7004Y-3.6299
X5.7045Y-4.4436
X5.7382Y-3.4978
X5.8858Y-4.4754
X5.931Y-3.6498
X5.9924Y-3.5367
X5.9931Y-3.8263
T2
X4.1Y-3.4
X4.1Y-3.5
X4.1Y-3.6
X4.1Y-3.7
X4.1Y-3.8
X4.1Y-3.9
X4.1Y-4.
X4.1Y-4.1
X4.1Y-4.2
X4.1Y-4.3
X4.1Y-4.7
X4.1Y-5.5
X4.2Y-4.3
X4.2Y-4.7
X4.2Y-5.5
X4.3Y-4.3
X4.3Y-4.7
X4.3Y-5.5
X4.4Y-4.3
X4.4Y-4.7
X4.4Y-5.5
X4.5Y-4.3
X4.5Y-4.7
X4.5Y-5.5
X4.6Y-4.3
X4.6Y-4.7
X4.6Y-5.5
X4.7Y-4.3
X4.7Y-4.7
X4.7Y-5.5
X4.8Y-4.3
X4.8Y-4.7
X4.8Y-5.5
X4.9Y-3.4
X4.9Y-3.5
X4.9Y-3.6
X4.9Y-3.7
X4.9Y-3.8
X4.9Y-3.9
X4.9Y-4.
X4.9Y-4.1
X4.9Y-4.2
X4.9Y-4.3
X4.9Y-4.7
X4.9Y-5.5
X5.Y-4.7
X5.Y-4.8
X5.Y-4.9
X5.Y-5.
X5.Y-5.1
X5.Y-5.2
X5.Y-5.3
X5.Y-5.4
X5.Y-5.5
X5.1Y-3.4
X5.1Y-3.5
X5.1Y-3.6
X5.1Y-3.7
X5.1Y-3.8
X5.1Y-3.9
X5.1Y-4.
X5.1Y-4.1
X5.1Y-4.2
X5.1Y-4.3
X5.2Y-4.3
X5.2Y-4.7
X5.2Y-4.8
X5.2Y-4.9
X5.2Y-5.
X5.2Y-5.1
X5.2Y-5.2
X5.2Y-5.3
X5.2Y-5.4
X5.2Y-5.5
X5.3Y-4.3
X5.3Y-4.7
X5.3Y-5.5
X5.4Y-4.3
X5.4Y-4.7
X5.4Y-5.5
X5.5Y-4.3
X5.5Y-4.7
X5.5Y-5.5
X5.6Y-4.3
X5.6Y-4.7
X5.6Y-5.5
X5.7Y-4.3
X5.7Y-4.7
X5.7Y-5.5
X5.8Y-4.3
X5.8Y-4.7
X5.8Y-5.5
X5.9Y-3.4
X5.9Y-3.5
X5.9Y-3.6
X5.9Y-3.7
X5.9Y-3.8
X5.9Y-3.9
X5.9Y-4.
X5.9Y-4.1
X5.9Y-4.2
X5.9Y-4.3
X5.9Y-4.7
X5.9Y-5.5
X6.Y-4.7
X6.Y-5.5
X6.1Y-4.7
X6.1Y-5.5
T3
X5.125Y-5.775
X5.225Y-5.775
X5.325Y-5.775
X5.475Y-5.775
X5.575Y-5.775
X5.675Y-5.775
X5.875Y-5.7
X5.875Y-5.9
X6.175Y-5.7
X6.175Y-5.9
T4
X6.05Y-3.3
X6.05Y-3.4
X6.05Y-3.5
X6.05Y-3.6
X6.05Y-3.7
X6.05Y-3.8
X6.05Y-3.9
X6.05Y-4.
X6.05Y-4.1
X6.05Y-4.2
X6.05Y-4.3
X6.05Y-4.4
X6.05Y-4.5
X6.15Y-3.3
X6.15Y-3.4
X6.15Y-3.5
X6.15Y-3.6
X6.15Y-3.7
X6.15Y-3.8
X6.15Y-3.9
X6.15Y-4.
X6.15Y-4.1
X6.15Y-4.2
X6.15Y-4.3
X6.15Y-4.4
X6.15Y-4.5
T0
M30
