%FSLAX34Y34*%
G04 Gerber Fmt 3.4, Leading zero omitted, Abs format*
G04 (created by PCBNEW (2014-04-12 BZR 4800)-product) date dom 07 sep 2014 17:20:25 COT*
%MOIN*%
G01*
G70*
G90*
G04 APERTURE LIST*
%ADD10C,0.003937*%
%ADD11C,0.005000*%
%ADD12C,0.008000*%
%ADD13C,0.004500*%
%ADD14C,0.006250*%
%ADD15C,0.006300*%
G04 APERTURE END LIST*
G54D10*
G54D11*
X52700Y-35000D02*
X51800Y-35000D01*
X51800Y-35000D02*
X51800Y-34350D01*
X52700Y-33650D02*
X52700Y-33000D01*
X52700Y-33000D02*
X51800Y-33000D01*
X51800Y-33000D02*
X51800Y-33650D01*
X52700Y-34350D02*
X52700Y-35000D01*
X52950Y-35500D02*
X52050Y-35500D01*
X52050Y-35500D02*
X52050Y-36000D01*
X52050Y-36000D02*
X52950Y-36000D01*
X52950Y-36000D02*
X52950Y-35500D01*
X58417Y-35776D02*
X57517Y-35776D01*
X57517Y-35776D02*
X57517Y-35126D01*
X58417Y-34426D02*
X58417Y-33776D01*
X58417Y-33776D02*
X57517Y-33776D01*
X57517Y-33776D02*
X57517Y-34426D01*
X58417Y-35126D02*
X58417Y-35776D01*
X57698Y-32578D02*
X57698Y-33478D01*
X57698Y-33478D02*
X58198Y-33478D01*
X58198Y-33478D02*
X58198Y-32578D01*
X58198Y-32578D02*
X57698Y-32578D01*
G54D12*
X55600Y-32850D02*
X56800Y-32850D01*
X56800Y-32850D02*
X56800Y-35650D01*
X56800Y-35650D02*
X55600Y-35650D01*
X54400Y-32850D02*
X54100Y-32850D01*
X54100Y-32850D02*
X53200Y-33450D01*
X53200Y-33450D02*
X53200Y-35050D01*
X53200Y-35050D02*
X54100Y-35650D01*
X54100Y-35650D02*
X54400Y-35650D01*
G54D11*
X55450Y-39000D02*
X54550Y-39000D01*
X54550Y-39000D02*
X54550Y-39500D01*
X54550Y-39500D02*
X55450Y-39500D01*
X55450Y-39500D02*
X55450Y-39000D01*
X57750Y-36550D02*
X57750Y-37450D01*
X57750Y-37450D02*
X58250Y-37450D01*
X58250Y-37450D02*
X58250Y-36550D01*
X58250Y-36550D02*
X57750Y-36550D01*
G54D12*
X57450Y-37300D02*
X55550Y-37300D01*
X55550Y-37300D02*
X55550Y-38700D01*
X55550Y-38700D02*
X57450Y-38700D01*
X57450Y-38700D02*
X57450Y-37300D01*
X57350Y-38450D02*
G75*
G03X57350Y-38450I-150J0D01*
G74*
G01*
G54D11*
X58550Y-44500D02*
X59450Y-44500D01*
X59450Y-44500D02*
X59450Y-44000D01*
X59450Y-44000D02*
X58550Y-44000D01*
X58550Y-44000D02*
X58550Y-44500D01*
X54950Y-36750D02*
X54050Y-36750D01*
X54050Y-36750D02*
X54050Y-37250D01*
X54050Y-37250D02*
X54950Y-37250D01*
X54950Y-37250D02*
X54950Y-36750D01*
X54050Y-38750D02*
X54950Y-38750D01*
X54950Y-38750D02*
X54950Y-38250D01*
X54950Y-38250D02*
X54050Y-38250D01*
X54050Y-38250D02*
X54050Y-38750D01*
X54050Y-38000D02*
X54950Y-38000D01*
X54950Y-38000D02*
X54950Y-37500D01*
X54950Y-37500D02*
X54050Y-37500D01*
X54050Y-37500D02*
X54050Y-38000D01*
G54D12*
X55550Y-45700D02*
X57450Y-45700D01*
X57450Y-45700D02*
X57450Y-44300D01*
X57450Y-44300D02*
X55550Y-44300D01*
X55550Y-44300D02*
X55550Y-45700D01*
X55950Y-44550D02*
G75*
G03X55950Y-44550I-150J0D01*
G74*
G01*
G54D11*
X60450Y-56000D02*
X59550Y-56000D01*
X59550Y-56000D02*
X59550Y-56500D01*
X59550Y-56500D02*
X60450Y-56500D01*
X60450Y-56500D02*
X60450Y-56000D01*
X52300Y-32857D02*
X52314Y-32871D01*
X52357Y-32885D01*
X52385Y-32885D01*
X52428Y-32871D01*
X52457Y-32842D01*
X52471Y-32814D01*
X52485Y-32757D01*
X52485Y-32714D01*
X52471Y-32657D01*
X52457Y-32628D01*
X52428Y-32600D01*
X52385Y-32585D01*
X52357Y-32585D01*
X52314Y-32600D01*
X52300Y-32614D01*
X52014Y-32885D02*
X52185Y-32885D01*
X52100Y-32885D02*
X52100Y-32585D01*
X52128Y-32628D01*
X52157Y-32657D01*
X52185Y-32671D01*
G54D13*
X52530Y-36321D02*
X52538Y-36330D01*
X52564Y-36340D01*
X52581Y-36340D01*
X52607Y-36330D01*
X52624Y-36311D01*
X52632Y-36292D01*
X52641Y-36254D01*
X52641Y-36226D01*
X52632Y-36188D01*
X52624Y-36169D01*
X52607Y-36150D01*
X52581Y-36140D01*
X52564Y-36140D01*
X52538Y-36150D01*
X52530Y-36159D01*
X52461Y-36159D02*
X52452Y-36150D01*
X52435Y-36140D01*
X52392Y-36140D01*
X52375Y-36150D01*
X52367Y-36159D01*
X52358Y-36178D01*
X52358Y-36197D01*
X52367Y-36226D01*
X52470Y-36340D01*
X52358Y-36340D01*
G54D11*
X58050Y-36107D02*
X58064Y-36121D01*
X58107Y-36135D01*
X58135Y-36135D01*
X58178Y-36121D01*
X58207Y-36092D01*
X58221Y-36064D01*
X58235Y-36007D01*
X58235Y-35964D01*
X58221Y-35907D01*
X58207Y-35878D01*
X58178Y-35850D01*
X58135Y-35835D01*
X58107Y-35835D01*
X58064Y-35850D01*
X58050Y-35864D01*
X57950Y-35835D02*
X57764Y-35835D01*
X57864Y-35950D01*
X57821Y-35950D01*
X57792Y-35964D01*
X57778Y-35978D01*
X57764Y-36007D01*
X57764Y-36078D01*
X57778Y-36107D01*
X57792Y-36121D01*
X57821Y-36135D01*
X57907Y-36135D01*
X57935Y-36121D01*
X57950Y-36107D01*
G54D13*
X57530Y-32821D02*
X57538Y-32830D01*
X57564Y-32840D01*
X57581Y-32840D01*
X57607Y-32830D01*
X57624Y-32811D01*
X57632Y-32792D01*
X57641Y-32754D01*
X57641Y-32726D01*
X57632Y-32688D01*
X57624Y-32669D01*
X57607Y-32650D01*
X57581Y-32640D01*
X57564Y-32640D01*
X57538Y-32650D01*
X57530Y-32659D01*
X57375Y-32707D02*
X57375Y-32840D01*
X57418Y-32630D02*
X57461Y-32773D01*
X57350Y-32773D01*
G54D12*
X54480Y-33945D02*
X54804Y-33945D01*
X54842Y-33964D01*
X54861Y-33983D01*
X54880Y-34021D01*
X54880Y-34097D01*
X54861Y-34135D01*
X54842Y-34154D01*
X54804Y-34173D01*
X54480Y-34173D01*
X54880Y-34573D02*
X54880Y-34345D01*
X54880Y-34459D02*
X54480Y-34459D01*
X54538Y-34421D01*
X54576Y-34383D01*
X54595Y-34345D01*
G54D13*
X55030Y-39821D02*
X55038Y-39830D01*
X55064Y-39840D01*
X55081Y-39840D01*
X55107Y-39830D01*
X55124Y-39811D01*
X55132Y-39792D01*
X55141Y-39754D01*
X55141Y-39726D01*
X55132Y-39688D01*
X55124Y-39669D01*
X55107Y-39650D01*
X55081Y-39640D01*
X55064Y-39640D01*
X55038Y-39650D01*
X55030Y-39659D01*
X54867Y-39640D02*
X54952Y-39640D01*
X54961Y-39735D01*
X54952Y-39726D01*
X54935Y-39716D01*
X54892Y-39716D01*
X54875Y-39726D01*
X54867Y-39735D01*
X54858Y-39754D01*
X54858Y-39802D01*
X54867Y-39821D01*
X54875Y-39830D01*
X54892Y-39840D01*
X54935Y-39840D01*
X54952Y-39830D01*
X54961Y-39821D01*
X58030Y-37671D02*
X58038Y-37680D01*
X58064Y-37690D01*
X58081Y-37690D01*
X58107Y-37680D01*
X58124Y-37661D01*
X58132Y-37642D01*
X58141Y-37604D01*
X58141Y-37576D01*
X58132Y-37538D01*
X58124Y-37519D01*
X58107Y-37500D01*
X58081Y-37490D01*
X58064Y-37490D01*
X58038Y-37500D01*
X58030Y-37509D01*
X57875Y-37490D02*
X57910Y-37490D01*
X57927Y-37500D01*
X57935Y-37509D01*
X57952Y-37538D01*
X57961Y-37576D01*
X57961Y-37652D01*
X57952Y-37671D01*
X57944Y-37680D01*
X57927Y-37690D01*
X57892Y-37690D01*
X57875Y-37680D01*
X57867Y-37671D01*
X57858Y-37652D01*
X57858Y-37604D01*
X57867Y-37585D01*
X57875Y-37576D01*
X57892Y-37566D01*
X57927Y-37566D01*
X57944Y-37576D01*
X57952Y-37585D01*
X57961Y-37604D01*
G54D14*
X57990Y-38335D02*
X57990Y-38578D01*
X57978Y-38607D01*
X57966Y-38621D01*
X57942Y-38635D01*
X57895Y-38635D01*
X57871Y-38621D01*
X57859Y-38607D01*
X57847Y-38578D01*
X57847Y-38335D01*
X57740Y-38364D02*
X57728Y-38350D01*
X57704Y-38335D01*
X57645Y-38335D01*
X57621Y-38350D01*
X57609Y-38364D01*
X57597Y-38392D01*
X57597Y-38421D01*
X57609Y-38464D01*
X57752Y-38635D01*
X57597Y-38635D01*
G54D15*
G54D13*
X59330Y-44790D02*
X59390Y-44695D01*
X59432Y-44790D02*
X59432Y-44590D01*
X59364Y-44590D01*
X59347Y-44600D01*
X59338Y-44609D01*
X59330Y-44628D01*
X59330Y-44657D01*
X59338Y-44676D01*
X59347Y-44685D01*
X59364Y-44695D01*
X59432Y-44695D01*
X59270Y-44590D02*
X59158Y-44590D01*
X59218Y-44666D01*
X59192Y-44666D01*
X59175Y-44676D01*
X59167Y-44685D01*
X59158Y-44704D01*
X59158Y-44752D01*
X59167Y-44771D01*
X59175Y-44780D01*
X59192Y-44790D01*
X59244Y-44790D01*
X59261Y-44780D01*
X59270Y-44771D01*
X53780Y-37090D02*
X53840Y-36995D01*
X53882Y-37090D02*
X53882Y-36890D01*
X53814Y-36890D01*
X53797Y-36900D01*
X53788Y-36909D01*
X53780Y-36928D01*
X53780Y-36957D01*
X53788Y-36976D01*
X53797Y-36985D01*
X53814Y-36995D01*
X53882Y-36995D01*
X53625Y-36957D02*
X53625Y-37090D01*
X53668Y-36880D02*
X53711Y-37023D01*
X53600Y-37023D01*
X53780Y-38590D02*
X53840Y-38495D01*
X53882Y-38590D02*
X53882Y-38390D01*
X53814Y-38390D01*
X53797Y-38400D01*
X53788Y-38409D01*
X53780Y-38428D01*
X53780Y-38457D01*
X53788Y-38476D01*
X53797Y-38485D01*
X53814Y-38495D01*
X53882Y-38495D01*
X53617Y-38390D02*
X53702Y-38390D01*
X53711Y-38485D01*
X53702Y-38476D01*
X53685Y-38466D01*
X53642Y-38466D01*
X53625Y-38476D01*
X53617Y-38485D01*
X53608Y-38504D01*
X53608Y-38552D01*
X53617Y-38571D01*
X53625Y-38580D01*
X53642Y-38590D01*
X53685Y-38590D01*
X53702Y-38580D01*
X53711Y-38571D01*
X53780Y-37840D02*
X53840Y-37745D01*
X53882Y-37840D02*
X53882Y-37640D01*
X53814Y-37640D01*
X53797Y-37650D01*
X53788Y-37659D01*
X53780Y-37678D01*
X53780Y-37707D01*
X53788Y-37726D01*
X53797Y-37735D01*
X53814Y-37745D01*
X53882Y-37745D01*
X53625Y-37640D02*
X53660Y-37640D01*
X53677Y-37650D01*
X53685Y-37659D01*
X53702Y-37688D01*
X53711Y-37726D01*
X53711Y-37802D01*
X53702Y-37821D01*
X53694Y-37830D01*
X53677Y-37840D01*
X53642Y-37840D01*
X53625Y-37830D01*
X53617Y-37821D01*
X53608Y-37802D01*
X53608Y-37754D01*
X53617Y-37735D01*
X53625Y-37726D01*
X53642Y-37716D01*
X53677Y-37716D01*
X53694Y-37726D01*
X53702Y-37735D01*
X53711Y-37754D01*
G54D14*
X55390Y-44935D02*
X55390Y-45178D01*
X55378Y-45207D01*
X55366Y-45221D01*
X55342Y-45235D01*
X55295Y-45235D01*
X55271Y-45221D01*
X55259Y-45207D01*
X55247Y-45178D01*
X55247Y-44935D01*
X55152Y-44935D02*
X54997Y-44935D01*
X55080Y-45050D01*
X55045Y-45050D01*
X55021Y-45064D01*
X55009Y-45078D01*
X54997Y-45107D01*
X54997Y-45178D01*
X55009Y-45207D01*
X55021Y-45221D01*
X55045Y-45235D01*
X55116Y-45235D01*
X55140Y-45221D01*
X55152Y-45207D01*
G54D15*
G54D13*
X60030Y-56340D02*
X60090Y-56245D01*
X60132Y-56340D02*
X60132Y-56140D01*
X60064Y-56140D01*
X60047Y-56150D01*
X60038Y-56159D01*
X60030Y-56178D01*
X60030Y-56207D01*
X60038Y-56226D01*
X60047Y-56235D01*
X60064Y-56245D01*
X60132Y-56245D01*
X59970Y-56140D02*
X59850Y-56140D01*
X59927Y-56340D01*
M02*
