M48
INCH,TZ
T1C0.016
T2C0.024
T3C0.032
T4C0.040
T5C0.118
%
G90
G05
T1
X40379Y-57173
X41477Y-56911
X41600Y-39500
X42961Y-34556
X43983Y-35275
X44200Y-40922
X44500Y-40100
X44500Y-45500
X44800Y-39100
X45000Y-37200
X45097Y-42799
X45100Y-38200
X45200Y-45500
X45300Y-54300
X46000Y-45500
X48745Y-58225
X49957Y-58110
X50665Y-33500
X52000Y-32600
X52800Y-35100
X53060Y-34188
X53200Y-36100
X53300Y-36800
X53300Y-37700
X53573Y-43960
X54197Y-39122
X54500Y-32600
X54632Y-39220
X54700Y-40500
X54802Y-38268
X54939Y-38938
X55503Y-35765
X55732Y-33340
X55760Y-34943
X55812Y-33796
X57000Y-49750
X57265Y-33758
X57286Y-39754
X57441Y-43652
X57482Y-40377
X57581Y-39147
X58000Y-48000
X58902Y-43464
X59500Y-36500
X59707Y-41545
T2
X40750Y-33000
X40750Y-34000
X40750Y-35000
X40750Y-36000
X40750Y-37000
X40750Y-38000
X40750Y-39000
X40750Y-40000
X40750Y-41000
X40750Y-42000
X40750Y-47000
X40750Y-55000
X41750Y-42000
X41750Y-47000
X41750Y-55000
X42750Y-42000
X42750Y-47000
X42750Y-55000
X43750Y-42000
X43750Y-47000
X43750Y-55000
X44750Y-42000
X44750Y-47000
X44750Y-55000
X45750Y-42000
X45750Y-47000
X45750Y-55000
X46750Y-42000
X46750Y-47000
X46750Y-55000
X47750Y-42000
X47750Y-47000
X47750Y-55000
X48750Y-33000
X48750Y-34000
X48750Y-35000
X48750Y-36000
X48750Y-37000
X48750Y-38000
X48750Y-39000
X48750Y-40000
X48750Y-41000
X48750Y-42000
X48750Y-47000
X48750Y-55000
X49750Y-47000
X49750Y-48000
X49750Y-49000
X49750Y-50000
X49750Y-51000
X49750Y-52000
X49750Y-53000
X49750Y-54000
X49750Y-55000
X51000Y-33000
X51000Y-34000
X51000Y-35000
X51000Y-36000
X51000Y-37000
X51000Y-38000
X51000Y-39000
X51000Y-40000
X51000Y-41000
X51000Y-42000
X52000Y-42000
X52000Y-47000
X52000Y-48000
X52000Y-49000
X52000Y-50000
X52000Y-51000
X52000Y-52000
X52000Y-53000
X52000Y-54000
X52000Y-55000
X53000Y-42000
X53000Y-47000
X53000Y-55000
X54000Y-42000
X54000Y-47000
X54000Y-55000
X55000Y-42000
X55000Y-47000
X55000Y-55000
X56000Y-42000
X56000Y-47000
X56000Y-55000
X57000Y-42000
X57000Y-47000
X57000Y-55000
X58000Y-42000
X58000Y-47000
X58000Y-55000
X59000Y-33000
X59000Y-34000
X59000Y-35000
X59000Y-36000
X59000Y-37000
X59000Y-38000
X59000Y-39000
X59000Y-40000
X59000Y-41000
X59000Y-42000
X59000Y-47000
X59000Y-55000
X60000Y-47000
X60000Y-55000
X61000Y-47000
X61000Y-55000
T3
X40500Y-44500
X41500Y-44500
X42500Y-44500
X43000Y-57000
X43500Y-44500
X44000Y-57000
X45000Y-57000
X46500Y-57000
X47000Y-44500
X47500Y-57000
X48000Y-44500
X48500Y-57000
X49000Y-44500
X50000Y-44500
X50500Y-57000
X50500Y-58000
X50500Y-59000
X51000Y-44500
X51500Y-57000
X51500Y-58000
X51500Y-59000
X52000Y-44500
X52500Y-57000
X52500Y-58000
X52500Y-59000
X53000Y-44500
X53500Y-57000
X53500Y-58000
X53500Y-59000
X54000Y-44500
X54500Y-57000
X54500Y-58000
X54500Y-59000
X55500Y-57000
X55500Y-58000
X55500Y-59000
X56000Y-44500
X56500Y-57000
X56500Y-58000
X56500Y-59000
X57000Y-44500
X58000Y-44500
X58750Y-57000
X58750Y-59000
X59000Y-44500
X61750Y-57000
X61750Y-59000
T4
X60500Y-33000
X60500Y-34000
X60500Y-35000
X60500Y-36000
X60500Y-37000
X60500Y-38000
X60500Y-39000
X60500Y-40000
X60500Y-41000
X60500Y-42000
X60500Y-43000
X60500Y-44000
X60500Y-45000
X61500Y-33000
X61500Y-34000
X61500Y-35000
X61500Y-36000
X61500Y-37000
X61500Y-38000
X61500Y-39000
X61500Y-40000
X61500Y-41000
X61500Y-42000
X61500Y-43000
X61500Y-44000
X61500Y-45000
T5
X41709Y-31583
X46750Y-52000
X61000Y-31583
T0
M30
