%FSLAX46Y46*%
G04 Gerber Fmt 4.6, Leading zero omitted, Abs format (unit mm)*
G04 Created by KiCad (PCBNEW (2014-08-05 BZR 5054)-product) date mar 16 sep 2014 17:31:46 COT*
%MOMM*%
G01*
G04 APERTURE LIST*
%ADD10C,0.100000*%
%ADD11R,1.727200X1.727200*%
%ADD12O,1.727200X1.727200*%
%ADD13R,1.143000X0.635000*%
%ADD14R,1.397000X1.397000*%
%ADD15C,1.397000*%
%ADD16C,1.500000*%
%ADD17C,0.800000*%
%ADD18C,0.400000*%
%ADD19C,0.200000*%
%ADD20C,0.300000*%
G04 APERTURE END LIST*
D10*
D11*
X153670000Y-83820000D03*
D12*
X156210000Y-83820000D03*
X153670000Y-86360000D03*
X156210000Y-86360000D03*
X153670000Y-88900000D03*
X156210000Y-88900000D03*
X153670000Y-91440000D03*
X156210000Y-91440000D03*
X153670000Y-93980000D03*
X156210000Y-93980000D03*
X153670000Y-96520000D03*
X156210000Y-96520000D03*
X153670000Y-99060000D03*
X156210000Y-99060000D03*
X153670000Y-101600000D03*
X156210000Y-101600000D03*
X153670000Y-104140000D03*
X156210000Y-104140000D03*
X153670000Y-106680000D03*
X156210000Y-106680000D03*
X153670000Y-109220000D03*
X156210000Y-109220000D03*
X153670000Y-111760000D03*
X156210000Y-111760000D03*
X153670000Y-114300000D03*
X156210000Y-114300000D03*
D13*
X104140000Y-144272000D03*
X104140000Y-142748000D03*
X102235000Y-144272000D03*
X102235000Y-142748000D03*
D14*
X118110000Y-144780000D03*
D15*
X120650000Y-144780000D03*
X123190000Y-144780000D03*
D14*
X109220000Y-144780000D03*
D15*
X111760000Y-144780000D03*
X114300000Y-144780000D03*
X156845000Y-144780000D03*
X156845000Y-149860000D03*
X149225000Y-144780000D03*
X149225000Y-149860000D03*
D16*
X103505000Y-119380000D03*
X106045000Y-119380000D03*
X108585000Y-119380000D03*
X111125000Y-119380000D03*
X113665000Y-119380000D03*
X116205000Y-119380000D03*
X118745000Y-119380000D03*
X121285000Y-119380000D03*
X123825000Y-119380000D03*
X126365000Y-119380000D03*
X126365000Y-121920000D03*
X126365000Y-124460000D03*
X126365000Y-127000000D03*
X126365000Y-129540000D03*
X126365000Y-132080000D03*
X126365000Y-134620000D03*
X126365000Y-137160000D03*
X126365000Y-139700000D03*
X123825000Y-139700000D03*
X121285000Y-139700000D03*
X118745000Y-139700000D03*
X116205000Y-139700000D03*
X113665000Y-139700000D03*
X111125000Y-139700000D03*
X108585000Y-139700000D03*
X106045000Y-139700000D03*
X103505000Y-139700000D03*
X123825000Y-83820000D03*
X123825000Y-86360000D03*
X123825000Y-88900000D03*
X123825000Y-91440000D03*
X123825000Y-93980000D03*
X123825000Y-96520000D03*
X123825000Y-99060000D03*
X123825000Y-101600000D03*
X123825000Y-104140000D03*
X123825000Y-106680000D03*
X121285000Y-106680000D03*
X118745000Y-106680000D03*
X116205000Y-106680000D03*
X113665000Y-106680000D03*
X111125000Y-106680000D03*
X108585000Y-106680000D03*
X106045000Y-106680000D03*
X103505000Y-106680000D03*
X103505000Y-104140000D03*
X103505000Y-101600000D03*
X103505000Y-99060000D03*
X103505000Y-96520000D03*
X103505000Y-93980000D03*
X103505000Y-91440000D03*
X103505000Y-88900000D03*
X103505000Y-86360000D03*
X103505000Y-83820000D03*
X149860000Y-83820000D03*
X149860000Y-86360000D03*
X149860000Y-88900000D03*
X149860000Y-91440000D03*
X149860000Y-93980000D03*
X149860000Y-96520000D03*
X149860000Y-99060000D03*
X149860000Y-101600000D03*
X149860000Y-104140000D03*
X149860000Y-106680000D03*
X147320000Y-106680000D03*
X144780000Y-106680000D03*
X142240000Y-106680000D03*
X139700000Y-106680000D03*
X137160000Y-106680000D03*
X134620000Y-106680000D03*
X132080000Y-106680000D03*
X129540000Y-106680000D03*
X129540000Y-104140000D03*
X129540000Y-101600000D03*
X129540000Y-99060000D03*
X129540000Y-96520000D03*
X129540000Y-93980000D03*
X129540000Y-91440000D03*
X129540000Y-88900000D03*
X129540000Y-86360000D03*
X129540000Y-83820000D03*
X154940000Y-139700000D03*
X152400000Y-139700000D03*
X149860000Y-139700000D03*
X147320000Y-139700000D03*
X144780000Y-139700000D03*
X142240000Y-139700000D03*
X139700000Y-139700000D03*
X137160000Y-139700000D03*
X134620000Y-139700000D03*
X132080000Y-139700000D03*
X132080000Y-137160000D03*
X132080000Y-134620000D03*
X132080000Y-132080000D03*
X132080000Y-129540000D03*
X132080000Y-127000000D03*
X132080000Y-124460000D03*
X132080000Y-121920000D03*
X132080000Y-119380000D03*
X134620000Y-119380000D03*
X137160000Y-119380000D03*
X139700000Y-119380000D03*
X142240000Y-119380000D03*
X144780000Y-119380000D03*
X147320000Y-119380000D03*
X149860000Y-119380000D03*
X152400000Y-119380000D03*
X154940000Y-119380000D03*
D14*
X143510000Y-144780000D03*
D15*
X143510000Y-147320000D03*
X143510000Y-149860000D03*
D14*
X135890000Y-144780000D03*
D15*
X135890000Y-147320000D03*
X135890000Y-149860000D03*
D14*
X140970000Y-144780000D03*
D15*
X140970000Y-147320000D03*
X140970000Y-149860000D03*
D14*
X133350000Y-144780000D03*
D15*
X133350000Y-147320000D03*
X133350000Y-149860000D03*
D14*
X138430000Y-144780000D03*
D15*
X138430000Y-147320000D03*
X138430000Y-149860000D03*
D14*
X130810000Y-144780000D03*
D15*
X130810000Y-147320000D03*
X130810000Y-149860000D03*
D14*
X128270000Y-144780000D03*
D15*
X128270000Y-147320000D03*
X128270000Y-149860000D03*
D14*
X102870000Y-113030000D03*
D15*
X105410000Y-113030000D03*
X107950000Y-113030000D03*
X110490000Y-113030000D03*
D14*
X142240000Y-113030000D03*
D15*
X144780000Y-113030000D03*
X147320000Y-113030000D03*
X149860000Y-113030000D03*
D14*
X137160000Y-113030000D03*
D15*
X134620000Y-113030000D03*
X132080000Y-113030000D03*
X129540000Y-113030000D03*
X127000000Y-113030000D03*
X124460000Y-113030000D03*
X121920000Y-113030000D03*
X119380000Y-113030000D03*
D17*
X142410300Y-93355500D03*
X129336300Y-142038000D03*
X110212000Y-107816300D03*
X114933000Y-107461300D03*
X131365600Y-93066000D03*
X117123100Y-107824100D03*
X118241700Y-105252300D03*
X119709300Y-107682800D03*
X143322800Y-100097000D03*
X120308100Y-108563400D03*
X144423200Y-100190800D03*
X123064100Y-124551100D03*
X136109800Y-115780700D03*
X135422700Y-117590800D03*
X130285100Y-130502900D03*
X138494600Y-99646500D03*
X137453100Y-99501800D03*
X129314400Y-122083400D03*
X133463300Y-109305100D03*
X135040200Y-109689200D03*
X139202300Y-98258300D03*
X136146600Y-109367200D03*
X138799400Y-96761000D03*
X138821200Y-113071100D03*
X140799700Y-102119500D03*
X112263000Y-104285800D03*
X106299300Y-116784500D03*
X145061300Y-101061900D03*
X147117100Y-101799200D03*
X105255400Y-144936600D03*
X102423100Y-145219500D03*
X142352800Y-85094700D03*
X151215000Y-97759700D03*
X146212400Y-108003200D03*
X132246100Y-84599600D03*
D18*
X149342200Y-90190000D02*
X142410300Y-93355500D01*
X150377800Y-90150000D02*
X149342200Y-90190000D01*
X151110000Y-89417800D02*
X150377800Y-90150000D01*
X151110000Y-88382200D02*
X151110000Y-89417800D01*
X151110000Y-85842200D02*
X151110000Y-88382200D01*
X149860000Y-83820000D02*
X151110000Y-85842200D01*
X117455000Y-139182200D02*
X103505000Y-119380000D01*
X117495000Y-140217800D02*
X117455000Y-139182200D01*
X118227200Y-140950000D02*
X117495000Y-140217800D01*
X123799100Y-143081500D02*
X118227200Y-140950000D01*
X123960300Y-143148300D02*
X123799100Y-143081500D01*
X124821700Y-144009700D02*
X123960300Y-143148300D01*
X126571500Y-145892700D02*
X124821700Y-144009700D01*
X127157300Y-146478500D02*
X126571500Y-145892700D01*
X128270000Y-147320000D02*
X127157300Y-146478500D01*
X148728600Y-143581500D02*
X143510000Y-147320000D01*
X153199500Y-141375400D02*
X148728600Y-143581500D01*
X154940000Y-139700000D02*
X153199500Y-141375400D01*
X142725600Y-85994700D02*
X149860000Y-83820000D01*
X141980000Y-85994700D02*
X142725600Y-85994700D01*
X131873300Y-85499600D02*
X141980000Y-85994700D01*
X130057800Y-85110000D02*
X131873300Y-85499600D01*
X129022200Y-85070000D02*
X130057800Y-85110000D01*
X123825000Y-83820000D02*
X129022200Y-85070000D01*
X107950000Y-113030000D02*
X110212000Y-107816300D01*
X129022200Y-87610000D02*
X123825000Y-86360000D01*
X130057800Y-87610000D02*
X129022200Y-87610000D01*
X149860000Y-86360000D02*
X130057800Y-87610000D01*
X137878800Y-141950000D02*
X129336300Y-142038000D01*
X150377800Y-140950000D02*
X137878800Y-141950000D01*
X152400000Y-139700000D02*
X150377800Y-140950000D01*
D19*
X142911500Y-145378500D02*
X143510000Y-144780000D01*
X142811500Y-145378500D02*
X142911500Y-145378500D01*
X142770100Y-145378500D02*
X142811500Y-145378500D01*
X141834200Y-145878500D02*
X142770100Y-145378500D01*
X139499300Y-146273800D02*
X141834200Y-145878500D01*
X139457900Y-146273800D02*
X139499300Y-146273800D01*
X138799100Y-146273800D02*
X139457900Y-146273800D01*
X137360700Y-146273800D02*
X138799100Y-146273800D01*
X136345000Y-146221500D02*
X137360700Y-146273800D01*
X127405800Y-145878500D02*
X136345000Y-146221500D01*
X127171500Y-145644200D02*
X127405800Y-145878500D01*
X125330400Y-143669800D02*
X127171500Y-145644200D01*
X124300200Y-142639600D02*
X125330400Y-143669800D01*
X120808700Y-140850000D02*
X124300200Y-142639600D01*
X120135000Y-140176300D02*
X120808700Y-140850000D01*
X119895000Y-139223700D02*
X120135000Y-140176300D01*
X116542100Y-133555300D02*
X119895000Y-139223700D01*
X116279900Y-133101100D02*
X116542100Y-133555300D01*
X108585000Y-119380000D02*
X116279900Y-133101100D01*
X105967900Y-117584500D02*
X108585000Y-119380000D01*
X102005800Y-114128500D02*
X105967900Y-117584500D01*
X101771500Y-113894200D02*
X102005800Y-114128500D01*
X101771500Y-113562800D02*
X101771500Y-113894200D01*
X101771500Y-112165800D02*
X101771500Y-113562800D01*
X102355000Y-90963700D02*
X101771500Y-112165800D01*
X103028700Y-90290000D02*
X102355000Y-90963700D01*
X123825000Y-88900000D02*
X103028700Y-90290000D01*
X129063700Y-90050000D02*
X123825000Y-88900000D01*
X130016300Y-90050000D02*
X129063700Y-90050000D01*
X149860000Y-88900000D02*
X130016300Y-90050000D01*
X140371500Y-145378500D02*
X140970000Y-144780000D01*
X140271500Y-145378500D02*
X140371500Y-145378500D01*
X140230100Y-145378500D02*
X140271500Y-145378500D01*
X139272500Y-145826200D02*
X140230100Y-145378500D01*
X138984500Y-145826200D02*
X139272500Y-145826200D01*
X137587500Y-145826200D02*
X138984500Y-145826200D01*
X137383800Y-145622500D02*
X137587500Y-145826200D01*
X137331500Y-145544200D02*
X137383800Y-145622500D01*
X136936200Y-144410900D02*
X137331500Y-145544200D01*
X136936200Y-143937500D02*
X136936200Y-144410900D01*
X136732500Y-143733800D02*
X136936200Y-143937500D01*
X136654200Y-143681500D02*
X136732500Y-143733800D01*
X128806400Y-143338000D02*
X136654200Y-143681500D01*
X128791700Y-143331900D02*
X128806400Y-143338000D01*
X123348700Y-140850000D02*
X128791700Y-143331900D01*
X122675000Y-140176300D02*
X123348700Y-140850000D01*
X122435000Y-139223700D02*
X122675000Y-140176300D01*
X117042100Y-133348200D02*
X122435000Y-139223700D01*
X116779900Y-132894000D02*
X117042100Y-133348200D01*
X111125000Y-119380000D02*
X116779900Y-132894000D01*
X114933000Y-107461300D02*
X111125000Y-119380000D01*
X129063700Y-92590000D02*
X123825000Y-91440000D01*
X130016300Y-92590000D02*
X129063700Y-92590000D01*
X131034200Y-92266000D02*
X130016300Y-92590000D01*
X131697000Y-92266000D02*
X131034200Y-92266000D01*
X142078900Y-94155500D02*
X131697000Y-92266000D01*
X142741700Y-94155500D02*
X142078900Y-94155500D01*
X149860000Y-91440000D02*
X142741700Y-94155500D01*
X137831500Y-144181500D02*
X138430000Y-144780000D01*
X137731500Y-144181500D02*
X137831500Y-144181500D01*
X137690100Y-144181500D02*
X137731500Y-144181500D01*
X137631500Y-144122900D02*
X137690100Y-144181500D01*
X137383800Y-143710700D02*
X137631500Y-144122900D01*
X136859300Y-143186200D02*
X137383800Y-143710700D01*
X129004900Y-142838000D02*
X136859300Y-143186200D01*
X125888700Y-140850000D02*
X129004900Y-142838000D01*
X125215000Y-140176300D02*
X125888700Y-140850000D01*
X124975000Y-139223700D02*
X125215000Y-140176300D01*
X120710100Y-131266000D02*
X124975000Y-139223700D01*
X120460700Y-130834000D02*
X120710100Y-131266000D01*
X120447800Y-130811700D02*
X120460700Y-130834000D01*
X113665000Y-119380000D02*
X120447800Y-130811700D01*
X117123100Y-107824100D02*
X113665000Y-119380000D01*
X141880400Y-94655500D02*
X131365600Y-93066000D01*
X142940200Y-94655500D02*
X141880400Y-94655500D01*
X149860000Y-93980000D02*
X142940200Y-94655500D01*
X140176300Y-140850000D02*
X142240000Y-139700000D01*
X137759500Y-141350000D02*
X140176300Y-140850000D01*
X136560500Y-141350000D02*
X137759500Y-141350000D01*
X131480500Y-141350000D02*
X136560500Y-141350000D01*
X131337200Y-141290600D02*
X131480500Y-141350000D01*
X126841300Y-138550000D02*
X131337200Y-141290600D01*
X125888700Y-138310000D02*
X126841300Y-138550000D01*
X125215000Y-137636300D02*
X125888700Y-138310000D01*
X116205000Y-119380000D02*
X125215000Y-137636300D01*
X117281500Y-112341300D02*
X116205000Y-119380000D01*
X117923100Y-108155500D02*
X117281500Y-112341300D01*
X117923100Y-107492700D02*
X117923100Y-108155500D01*
X117595000Y-107156300D02*
X117923100Y-107492700D01*
X117595000Y-106203700D02*
X117595000Y-107156300D01*
X118241700Y-105252300D02*
X117595000Y-106203700D01*
X129063700Y-95370000D02*
X123825000Y-96520000D01*
X138170100Y-94961000D02*
X129063700Y-95370000D01*
X139428700Y-94961000D02*
X138170100Y-94961000D01*
X149860000Y-96520000D02*
X139428700Y-94961000D01*
X137636300Y-140850000D02*
X139700000Y-139700000D01*
X136683700Y-140850000D02*
X137636300Y-140850000D01*
X131603700Y-140850000D02*
X136683700Y-140850000D01*
X130930000Y-140176300D02*
X131603700Y-140850000D01*
X127515000Y-136683700D02*
X130930000Y-140176300D01*
X126841300Y-136010000D02*
X127515000Y-136683700D01*
X125888700Y-135770000D02*
X126841300Y-136010000D01*
X125215000Y-135096300D02*
X125888700Y-135770000D01*
X118745000Y-119380000D02*
X125215000Y-135096300D01*
X130016300Y-97670000D02*
X123825000Y-99060000D01*
X138269500Y-95461000D02*
X130016300Y-97670000D01*
X139329300Y-95461000D02*
X138269500Y-95461000D01*
X149860000Y-99060000D02*
X139329300Y-95461000D01*
X117781500Y-112440800D02*
X119709300Y-107682800D01*
X117781500Y-113619200D02*
X117781500Y-112440800D01*
X118745000Y-119380000D02*
X117781500Y-113619200D01*
X130016300Y-100210000D02*
X123825000Y-101600000D01*
X132394000Y-98026400D02*
X130016300Y-100210000D01*
X132848300Y-97764200D02*
X132394000Y-98026400D01*
X133160400Y-97634900D02*
X132848300Y-97764200D01*
X138468000Y-95961000D02*
X133160400Y-97634900D01*
X139130800Y-95961000D02*
X138468000Y-95961000D01*
X143322800Y-100097000D02*
X139130800Y-95961000D01*
X118281500Y-112575000D02*
X120308100Y-108563400D01*
X118281500Y-113485000D02*
X118281500Y-112575000D01*
X121285000Y-119380000D02*
X118281500Y-113485000D01*
X123864100Y-124219700D02*
X121285000Y-119380000D01*
X125215000Y-130016300D02*
X123864100Y-124219700D01*
X125888700Y-130690000D02*
X125215000Y-130016300D01*
X126841300Y-130930000D02*
X125888700Y-130690000D01*
X127515000Y-131603700D02*
X126841300Y-130930000D01*
X130930000Y-135096300D02*
X127515000Y-131603700D01*
X131603700Y-135770000D02*
X130930000Y-135096300D01*
X132556300Y-136010000D02*
X131603700Y-135770000D01*
X137160000Y-139700000D02*
X132556300Y-136010000D01*
X144091800Y-99390800D02*
X143322800Y-100097000D01*
X144754600Y-99390800D02*
X144091800Y-99390800D01*
X147647000Y-100499200D02*
X144754600Y-99390800D01*
X147661700Y-100505300D02*
X147647000Y-100499200D01*
X149860000Y-101600000D02*
X147661700Y-100505300D01*
X143654200Y-100897000D02*
X144423200Y-100190800D01*
X142991400Y-100897000D02*
X143654200Y-100897000D01*
X139512400Y-97509600D02*
X142991400Y-100897000D01*
X138892200Y-97509600D02*
X139512400Y-97509600D01*
X136823800Y-97701800D02*
X138892200Y-97509600D01*
X133391800Y-98634900D02*
X136823800Y-97701800D01*
X132937500Y-98897100D02*
X133391800Y-98634900D01*
X132584900Y-99249700D02*
X132937500Y-98897100D01*
X131935200Y-99899400D02*
X132584900Y-99249700D01*
X131917100Y-99917600D02*
X131935200Y-99899400D01*
X131667700Y-100349600D02*
X131917100Y-99917600D01*
X131654900Y-100371800D02*
X131667700Y-100349600D01*
X130690000Y-102076300D02*
X131654900Y-100371800D01*
X130016300Y-102750000D02*
X130690000Y-102076300D01*
X123825000Y-104140000D02*
X130016300Y-102750000D01*
X125215000Y-132556300D02*
X123064100Y-124551100D01*
X125888700Y-133230000D02*
X125215000Y-132556300D01*
X126841300Y-133470000D02*
X125888700Y-133230000D01*
X127515000Y-134143700D02*
X126841300Y-133470000D01*
X130930000Y-137636300D02*
X127515000Y-134143700D01*
X131603700Y-138310000D02*
X130930000Y-137636300D01*
X132556300Y-138550000D02*
X131603700Y-138310000D01*
X134620000Y-139700000D02*
X132556300Y-138550000D01*
X145392700Y-100261900D02*
X144423200Y-100190800D01*
X147448500Y-100999200D02*
X145392700Y-100261900D01*
X147917100Y-101467800D02*
X147448500Y-100999200D01*
X149860000Y-104140000D02*
X147917100Y-101467800D01*
X129063700Y-105530000D02*
X123825000Y-106680000D01*
X130161900Y-105506800D02*
X129063700Y-105530000D01*
X130690000Y-106203700D02*
X130161900Y-105506800D01*
X130690000Y-107156300D02*
X130690000Y-106203700D01*
X130016300Y-107830000D02*
X130690000Y-107156300D01*
X121486600Y-111983800D02*
X130016300Y-107830000D01*
X120873800Y-112596600D02*
X121486600Y-111983800D01*
X120873800Y-113463400D02*
X120873800Y-112596600D01*
X126365000Y-119380000D02*
X120873800Y-113463400D01*
X130690000Y-104616300D02*
X130161900Y-105506800D01*
X132654900Y-100786000D02*
X130690000Y-104616300D01*
X132667700Y-100763800D02*
X132654900Y-100786000D01*
X132917100Y-100331800D02*
X132667700Y-100763800D01*
X132935200Y-100313600D02*
X132917100Y-100331800D01*
X132999100Y-100249700D02*
X132935200Y-100313600D01*
X133351700Y-99897100D02*
X132999100Y-100249700D01*
X133806000Y-99634900D02*
X133351700Y-99897100D01*
X137121700Y-98701800D02*
X133806000Y-99634900D01*
X137784500Y-98701800D02*
X137121700Y-98701800D01*
X138801500Y-98905500D02*
X137784500Y-98701800D01*
X138895400Y-98999300D02*
X138801500Y-98905500D01*
X148062800Y-105089400D02*
X138895400Y-98999300D01*
X149860000Y-106680000D02*
X148062800Y-105089400D01*
X136561500Y-113769900D02*
X136109800Y-115780700D01*
X136561500Y-113728500D02*
X136561500Y-113769900D01*
X136561500Y-113628500D02*
X136561500Y-113728500D01*
X137160000Y-113030000D02*
X136561500Y-113628500D01*
X137758500Y-112731500D02*
X137160000Y-113030000D01*
X137858500Y-112731500D02*
X137758500Y-112731500D01*
X138024200Y-112731500D02*
X137858500Y-112731500D01*
X138489800Y-112271100D02*
X138024200Y-112731500D01*
X145256100Y-107829300D02*
X138489800Y-112271100D01*
X145881300Y-107203900D02*
X145256100Y-107829300D01*
X147320000Y-106680000D02*
X145881300Y-107203900D01*
X123348700Y-120530000D02*
X126365000Y-121920000D01*
X122675000Y-119856300D02*
X123348700Y-120530000D01*
X122435000Y-118903700D02*
X122675000Y-119856300D01*
X120426200Y-113598400D02*
X122435000Y-118903700D01*
X120426200Y-112461600D02*
X120426200Y-113598400D01*
X121608100Y-109093300D02*
X120426200Y-112461600D01*
X121608100Y-108033500D02*
X121608100Y-109093300D01*
X121285000Y-106680000D02*
X121608100Y-108033500D01*
X136295800Y-111931500D02*
X134620000Y-113030000D01*
X144780000Y-106680000D02*
X136295800Y-111931500D01*
X134620000Y-113030000D02*
X135422700Y-117590800D01*
X130616500Y-129702900D02*
X126365000Y-127000000D01*
X131085100Y-130171500D02*
X130616500Y-129702900D01*
X132080000Y-132080000D02*
X131085100Y-130171500D01*
X133230000Y-130016300D02*
X132080000Y-132080000D01*
X133730000Y-127599500D02*
X133230000Y-130016300D01*
X134230000Y-125158900D02*
X133730000Y-127599500D01*
X134230000Y-123761100D02*
X134230000Y-125158900D01*
X132080000Y-113030000D02*
X134230000Y-123761100D01*
X132649200Y-112033100D02*
X132080000Y-113030000D01*
X134251800Y-109631700D02*
X132649200Y-112033100D01*
X134251700Y-109362600D02*
X134251800Y-109631700D01*
X134713600Y-108900700D02*
X134251700Y-109362600D01*
X135318900Y-108830000D02*
X134713600Y-108900700D01*
X135646100Y-108694500D02*
X135318900Y-108830000D01*
X135815200Y-108567200D02*
X135646100Y-108694500D01*
X137759500Y-108330000D02*
X135815200Y-108567200D01*
X140176300Y-107830000D02*
X137759500Y-108330000D01*
X142240000Y-106680000D02*
X140176300Y-107830000D01*
X130285100Y-130502900D02*
X126365000Y-129540000D01*
X133230000Y-127476300D02*
X132080000Y-129540000D01*
X133730000Y-125059500D02*
X133230000Y-127476300D01*
X133730000Y-123860500D02*
X133730000Y-125059500D01*
X133230000Y-121443700D02*
X133730000Y-123860500D01*
X132556300Y-120770000D02*
X133230000Y-121443700D01*
X131603700Y-120530000D02*
X132556300Y-120770000D01*
X130930000Y-119856300D02*
X131603700Y-120530000D01*
X129540000Y-113030000D02*
X130930000Y-119856300D01*
X132692200Y-108985700D02*
X129540000Y-113030000D01*
X133143900Y-108534000D02*
X132692200Y-108985700D01*
X134510300Y-108389200D02*
X133143900Y-108534000D01*
X135219500Y-108330000D02*
X134510300Y-108389200D01*
X135362800Y-108270600D02*
X135219500Y-108330000D01*
X135602000Y-108073300D02*
X135362800Y-108270600D01*
X135616700Y-108067200D02*
X135602000Y-108073300D01*
X137636300Y-107830000D02*
X135616700Y-108067200D01*
X139700000Y-106680000D02*
X137636300Y-107830000D01*
X137160000Y-106680000D02*
X138494600Y-99646500D01*
X135318800Y-107649400D02*
X137160000Y-106680000D01*
X135096300Y-107830000D02*
X135318800Y-107649400D01*
X134410900Y-107889200D02*
X135096300Y-107830000D01*
X132948800Y-108062900D02*
X134410900Y-107889200D01*
X132790100Y-108221600D02*
X132948800Y-108062900D01*
X127000000Y-113030000D02*
X132790100Y-108221600D01*
X130608300Y-121538800D02*
X127000000Y-113030000D01*
X130614400Y-121553500D02*
X130608300Y-121538800D01*
X130930000Y-122396300D02*
X130614400Y-121553500D01*
X131603700Y-123070000D02*
X130930000Y-122396300D01*
X132556300Y-123310000D02*
X131603700Y-123070000D01*
X133230000Y-123983700D02*
X132556300Y-123310000D01*
X133230000Y-124936300D02*
X133230000Y-123983700D01*
X132080000Y-127000000D02*
X133230000Y-124936300D01*
X109880600Y-107016300D02*
X111125000Y-106680000D01*
X109412000Y-107484900D02*
X109880600Y-107016300D01*
X105410000Y-113030000D02*
X109412000Y-107484900D01*
X136585100Y-102413900D02*
X137453100Y-99501800D01*
X134620000Y-106680000D02*
X136585100Y-102413900D01*
X132684700Y-107660900D02*
X134620000Y-106680000D01*
X132544400Y-107801100D02*
X132684700Y-107660900D01*
X124460000Y-113030000D02*
X132544400Y-107801100D01*
X130114400Y-121752000D02*
X124460000Y-113030000D01*
X130430000Y-122519500D02*
X130114400Y-121752000D01*
X130489400Y-122662800D02*
X130430000Y-122519500D01*
X132080000Y-124460000D02*
X130489400Y-122662800D01*
X103468500Y-112290100D02*
X108585000Y-106680000D01*
X103468500Y-112331500D02*
X103468500Y-112290100D01*
X103468500Y-112431500D02*
X103468500Y-112331500D01*
X102870000Y-113030000D02*
X103468500Y-112431500D01*
X130282800Y-108270600D02*
X121920000Y-113030000D01*
X132080000Y-106680000D02*
X130282800Y-108270600D01*
X127515000Y-118903700D02*
X121920000Y-113030000D01*
X129314400Y-122083400D02*
X127515000Y-118903700D01*
X130981500Y-113485000D02*
X132080000Y-119380000D01*
X130981500Y-112575000D02*
X130981500Y-113485000D01*
X133463300Y-109305100D02*
X130981500Y-112575000D01*
X120808700Y-105530000D02*
X120285600Y-105846600D01*
X121761300Y-105530000D02*
X120808700Y-105530000D01*
X122435000Y-106203700D02*
X121761300Y-105530000D01*
X122675000Y-107156300D02*
X122435000Y-106203700D01*
X123348700Y-107830000D02*
X122675000Y-107156300D01*
X124301300Y-107830000D02*
X123348700Y-107830000D01*
X129540000Y-106680000D02*
X124301300Y-107830000D01*
X118573100Y-104452300D02*
X120285600Y-105846600D01*
X112594400Y-103485800D02*
X118573100Y-104452300D01*
X111931600Y-103485800D02*
X112594400Y-103485800D01*
X105568700Y-105530000D02*
X111931600Y-103485800D01*
X103505000Y-106680000D02*
X105568700Y-105530000D01*
X121108100Y-108894800D02*
X119380000Y-113030000D01*
X121108100Y-108232000D02*
X121108100Y-108894800D01*
X120445900Y-107377700D02*
X121108100Y-108232000D01*
X120198400Y-107130100D02*
X120445900Y-107377700D01*
X120198400Y-106229900D02*
X120198400Y-107130100D01*
X120285600Y-105846600D02*
X120198400Y-106229900D01*
X137983000Y-98201800D02*
X139202300Y-98258300D01*
X136923200Y-98201800D02*
X137983000Y-98201800D01*
X133598900Y-99134900D02*
X136923200Y-98201800D01*
X133144600Y-99397100D02*
X133598900Y-99134900D01*
X132792000Y-99749700D02*
X133144600Y-99397100D01*
X132435200Y-100106500D02*
X132792000Y-99749700D01*
X132417100Y-100124700D02*
X132435200Y-100106500D01*
X131130600Y-102342800D02*
X132417100Y-100124700D01*
X129540000Y-104140000D02*
X131130600Y-102342800D01*
X133161800Y-112375700D02*
X135040200Y-109689200D01*
X133126200Y-112461600D02*
X133161800Y-112375700D01*
X133126200Y-113598400D02*
X133126200Y-112461600D01*
X134122700Y-118120700D02*
X133126200Y-113598400D01*
X134620000Y-119380000D02*
X134122700Y-118120700D01*
X124301300Y-105290000D02*
X129540000Y-104140000D01*
X123348700Y-105290000D02*
X124301300Y-105290000D01*
X118771600Y-103952300D02*
X123348700Y-105290000D01*
X112792900Y-102985800D02*
X118771600Y-103952300D01*
X111733100Y-102985800D02*
X112792900Y-102985800D01*
X103505000Y-104140000D02*
X111733100Y-102985800D01*
X136724300Y-97201800D02*
X138799400Y-96761000D01*
X133259900Y-98134900D02*
X136724300Y-97201800D01*
X133131500Y-98188000D02*
X133259900Y-98134900D01*
X132677200Y-98450200D02*
X133131500Y-98188000D01*
X132324600Y-98802800D02*
X132677200Y-98450200D01*
X131488300Y-99639100D02*
X132324600Y-98802800D01*
X131470200Y-99657300D02*
X131488300Y-99639100D01*
X129540000Y-101600000D02*
X131470200Y-99657300D01*
X135840200Y-110020600D02*
X136146600Y-109367200D01*
X133573800Y-112596600D02*
X135840200Y-110020600D01*
X133573800Y-113463400D02*
X133573800Y-112596600D01*
X134681300Y-117897900D02*
X133573800Y-113463400D01*
X135115600Y-118332200D02*
X134681300Y-117897900D01*
X137160000Y-119380000D02*
X135115600Y-118332200D01*
X124301300Y-102750000D02*
X129540000Y-101600000D01*
X123348700Y-102750000D02*
X124301300Y-102750000D01*
X103505000Y-101600000D02*
X123348700Y-102750000D01*
X138821200Y-113071100D02*
X139700000Y-119380000D01*
X124301300Y-100210000D02*
X129540000Y-99060000D01*
X123348700Y-100210000D02*
X124301300Y-100210000D01*
X103505000Y-99060000D02*
X123348700Y-100210000D01*
X124301300Y-97670000D02*
X129540000Y-96520000D01*
X123348700Y-97670000D02*
X124301300Y-97670000D01*
X103505000Y-96520000D02*
X123348700Y-97670000D01*
X124301300Y-95130000D02*
X129540000Y-93980000D01*
X123348700Y-95130000D02*
X124301300Y-95130000D01*
X103505000Y-93980000D02*
X123348700Y-95130000D01*
X124301300Y-90290000D02*
X129540000Y-91440000D01*
X123348700Y-90290000D02*
X124301300Y-90290000D01*
X103505000Y-91440000D02*
X123348700Y-90290000D01*
X102355000Y-119856300D02*
X108585000Y-139700000D01*
X101271500Y-114101300D02*
X102355000Y-119856300D01*
X101271500Y-113355700D02*
X101271500Y-114101300D01*
X101271500Y-111958700D02*
X101271500Y-113355700D01*
X101855000Y-90840500D02*
X101271500Y-111958700D01*
X101914400Y-90697200D02*
X101855000Y-90840500D01*
X103505000Y-88900000D02*
X101914400Y-90697200D01*
X124301300Y-87750000D02*
X129540000Y-88900000D01*
X123348700Y-87750000D02*
X124301300Y-87750000D01*
X118417400Y-88460900D02*
X123348700Y-87750000D01*
X103505000Y-88900000D02*
X118417400Y-88460900D01*
X124301300Y-85210000D02*
X129540000Y-86360000D01*
X118417400Y-84259100D02*
X124301300Y-85210000D01*
X117892900Y-84259100D02*
X118417400Y-84259100D01*
X117802500Y-84259100D02*
X117892900Y-84259100D01*
X103505000Y-86360000D02*
X117802500Y-84259100D01*
X147796300Y-105530000D02*
X140799700Y-102119500D01*
X148470000Y-106203700D02*
X147796300Y-105530000D01*
X148470000Y-107156300D02*
X148470000Y-106203700D01*
X147796300Y-107830000D02*
X148470000Y-107156300D01*
X146543800Y-108803200D02*
X147796300Y-107830000D01*
X141375800Y-111931500D02*
X146543800Y-108803200D01*
X141141500Y-112165800D02*
X141375800Y-111931500D01*
X141141500Y-113562800D02*
X141141500Y-112165800D01*
X141141500Y-113894200D02*
X141141500Y-113562800D01*
X141375800Y-114128500D02*
X141141500Y-113894200D01*
X150336300Y-118230000D02*
X141375800Y-114128500D01*
X152400000Y-119380000D02*
X150336300Y-118230000D01*
D18*
X147117100Y-101799200D02*
X145061300Y-101061900D01*
X149225000Y-144780000D02*
X156845000Y-144780000D01*
X123190000Y-144780000D02*
X128270000Y-149860000D01*
X121146400Y-145978500D02*
X123190000Y-144780000D01*
X119015600Y-145978500D02*
X121146400Y-145978500D01*
X118601400Y-145978500D02*
X119015600Y-145978500D01*
X117204400Y-145978500D02*
X118601400Y-145978500D01*
X114300000Y-144780000D02*
X117204400Y-145978500D01*
X112256400Y-145978500D02*
X114300000Y-144780000D01*
X110125600Y-145978500D02*
X112256400Y-145978500D01*
X109711400Y-145978500D02*
X110125600Y-145978500D01*
X108314400Y-145978500D02*
X109711400Y-145978500D01*
X104794300Y-142865500D02*
X108314400Y-145978500D01*
X104711500Y-142865500D02*
X104794300Y-142865500D01*
X104511500Y-142865500D02*
X104711500Y-142865500D01*
X104140000Y-142748000D02*
X104511500Y-142865500D01*
X103768500Y-142630500D02*
X104140000Y-142748000D01*
X103768500Y-142430500D02*
X103768500Y-142630500D01*
X103768500Y-142347700D02*
X103768500Y-142430500D01*
X103505000Y-139700000D02*
X103768500Y-142347700D01*
X102606500Y-142748000D02*
X102235000Y-142748000D01*
X102806500Y-142748000D02*
X102606500Y-142748000D01*
X103568500Y-142748000D02*
X102806500Y-142748000D01*
X103768500Y-142748000D02*
X103568500Y-142748000D01*
X104140000Y-142748000D02*
X103768500Y-142748000D01*
X112375000Y-106162200D02*
X112263000Y-104285800D01*
X112375000Y-107197800D02*
X112375000Y-106162200D01*
X110490000Y-113030000D02*
X112375000Y-107197800D01*
X147816400Y-114228500D02*
X149860000Y-113030000D01*
X146823600Y-114228500D02*
X147816400Y-114228500D01*
X144283600Y-114228500D02*
X146823600Y-114228500D01*
X143581500Y-113526400D02*
X144283600Y-114228500D01*
X143581500Y-112533600D02*
X143581500Y-113526400D01*
X144283600Y-111831500D02*
X143581500Y-112533600D01*
D19*
X150590700Y-108252500D02*
X144283600Y-111831500D01*
D18*
X151432500Y-107410700D02*
X150590700Y-108252500D01*
X151488600Y-107275200D02*
X151432500Y-107410700D01*
X151488600Y-105974800D02*
X151488600Y-107275200D01*
X151610000Y-104759400D02*
X151488600Y-105974800D01*
X151878600Y-98432400D02*
X151610000Y-104759400D01*
X151959500Y-98237100D02*
X151878600Y-98432400D01*
X152064600Y-98111600D02*
X151959500Y-98237100D01*
X152064600Y-97407800D02*
X152064600Y-98111600D01*
X152001200Y-97315100D02*
X152064600Y-97407800D01*
X151927800Y-97137800D02*
X152001200Y-97315100D01*
X151927800Y-95902200D02*
X151927800Y-97137800D01*
X152001200Y-95724900D02*
X151927800Y-95902200D01*
X153670000Y-93980000D02*
X152001200Y-95724900D01*
X106299300Y-116784500D02*
X110490000Y-113030000D01*
D19*
X104611500Y-144272000D02*
X104140000Y-144272000D01*
X104711500Y-144272000D02*
X104611500Y-144272000D01*
X104843000Y-144272000D02*
X104711500Y-144272000D01*
X105029000Y-144458000D02*
X104843000Y-144272000D01*
X105255400Y-144936600D02*
X105029000Y-144458000D01*
X102423100Y-144489500D02*
X102235000Y-144272000D01*
X102423100Y-144589500D02*
X102423100Y-144489500D01*
X102423100Y-145219500D02*
X102423100Y-144589500D01*
X154133600Y-84583600D02*
X153670000Y-83820000D01*
X154133600Y-84683600D02*
X154133600Y-84583600D01*
X154133600Y-84849300D02*
X154133600Y-84683600D01*
X154933600Y-85836600D02*
X154133600Y-84849300D01*
X154933600Y-86883400D02*
X154933600Y-85836600D01*
X154193400Y-87623600D02*
X154933600Y-86883400D01*
X153146600Y-87636400D02*
X154193400Y-87623600D01*
X152406400Y-88376600D02*
X153146600Y-87636400D01*
X151906400Y-90817900D02*
X152406400Y-88376600D01*
X150949300Y-95707500D02*
X151906400Y-90817900D01*
X150949300Y-96971200D02*
X150949300Y-95707500D01*
X150472600Y-97452200D02*
X150949300Y-96971200D01*
X150472600Y-98067200D02*
X150472600Y-97452200D01*
X150973800Y-98598600D02*
X150472600Y-98067200D01*
X151010000Y-101123700D02*
X150973800Y-98598600D01*
X151010000Y-103663700D02*
X151010000Y-101123700D01*
X151010000Y-104616300D02*
X151010000Y-103663700D01*
X150949300Y-105867500D02*
X151010000Y-104616300D01*
X150949300Y-107131200D02*
X150949300Y-105867500D01*
X150311200Y-107769300D02*
X150949300Y-107131200D01*
X142772800Y-111931500D02*
X150311200Y-107769300D01*
X142538500Y-112165800D02*
X142772800Y-111931500D01*
X142538500Y-112331500D02*
X142538500Y-112165800D01*
X142538500Y-112431500D02*
X142538500Y-112331500D01*
X142240000Y-113030000D02*
X142538500Y-112431500D01*
X154946400Y-93456600D02*
X156210000Y-91440000D01*
X154933600Y-94503400D02*
X154946400Y-93456600D01*
X154193400Y-95243600D02*
X154933600Y-94503400D01*
X153171700Y-95317100D02*
X154193400Y-95243600D01*
X152467100Y-96021700D02*
X153171700Y-95317100D01*
X152467100Y-97018300D02*
X152467100Y-96021700D01*
X152593100Y-97158900D02*
X152467100Y-97018300D01*
X152614300Y-97210100D02*
X152593100Y-97158900D01*
X152614300Y-98309300D02*
X152614300Y-97210100D01*
X152593100Y-98360500D02*
X152614300Y-98309300D01*
X152442500Y-98551600D02*
X152593100Y-98360500D01*
X152210000Y-104878700D02*
X152442500Y-98551600D01*
X152027800Y-106082100D02*
X152210000Y-104878700D01*
X152027800Y-107382500D02*
X152027800Y-106082100D01*
X151889600Y-107716100D02*
X152027800Y-107382500D01*
X150896100Y-108709600D02*
X151889600Y-107716100D01*
X144780000Y-113030000D02*
X150896100Y-108709600D01*
X154946400Y-95996600D02*
X156210000Y-93980000D01*
X154933600Y-104663400D02*
X154946400Y-95996600D01*
X154193400Y-105403600D02*
X154933600Y-104663400D01*
X153171700Y-105477100D02*
X154193400Y-105403600D01*
X152467100Y-106181700D02*
X153171700Y-105477100D01*
X152467100Y-107469900D02*
X152467100Y-106181700D01*
X152262000Y-107965000D02*
X152467100Y-107469900D01*
X147320000Y-113030000D02*
X152262000Y-107965000D01*
X151010000Y-83343700D02*
X153670000Y-86360000D01*
X150336300Y-82670000D02*
X151010000Y-83343700D01*
X149383700Y-82670000D02*
X150336300Y-82670000D01*
X142352800Y-85094700D02*
X149383700Y-82670000D01*
X152406400Y-90916600D02*
X153670000Y-88900000D01*
X151388600Y-95794900D02*
X152406400Y-90916600D01*
X151388600Y-97095300D02*
X151388600Y-95794900D01*
X151215000Y-97759700D02*
X151388600Y-97095300D01*
X141168700Y-111431500D02*
X146212400Y-108003200D01*
X140641500Y-111958700D02*
X141168700Y-111431500D01*
X140641500Y-113355700D02*
X140641500Y-111958700D01*
X140641500Y-114101300D02*
X140641500Y-113355700D01*
X143390000Y-118903700D02*
X140641500Y-114101300D01*
X143630000Y-119856300D02*
X143390000Y-118903700D01*
X153550000Y-139223700D02*
X143630000Y-119856300D01*
X153550000Y-140176300D02*
X153550000Y-139223700D01*
X152876300Y-140850000D02*
X153550000Y-140176300D01*
X148398100Y-143063500D02*
X152876300Y-140850000D01*
X144374200Y-145878500D02*
X148398100Y-143063500D01*
X143055000Y-146221500D02*
X144374200Y-145878500D01*
X142411500Y-146865000D02*
X143055000Y-146221500D01*
X142068500Y-147775000D02*
X142411500Y-146865000D01*
X141425000Y-148418500D02*
X142068500Y-147775000D01*
X140515000Y-148418500D02*
X141425000Y-148418500D01*
X127815000Y-148418500D02*
X140515000Y-148418500D01*
X127171500Y-147775000D02*
X127815000Y-148418500D01*
X124288500Y-144325000D02*
X127171500Y-147775000D01*
X123645000Y-143681500D02*
X124288500Y-144325000D01*
X122735000Y-143681500D02*
X123645000Y-143681500D01*
X120650000Y-144780000D02*
X122735000Y-143681500D01*
X130016300Y-82670000D02*
X132246100Y-84599600D01*
X124301300Y-82670000D02*
X130016300Y-82670000D01*
X123348700Y-82670000D02*
X124301300Y-82670000D01*
X103028700Y-85210000D02*
X123348700Y-82670000D01*
X102355000Y-85883700D02*
X103028700Y-85210000D01*
X101355000Y-90741100D02*
X102355000Y-85883700D01*
X100771500Y-111781700D02*
X101355000Y-90741100D01*
X100771500Y-113178700D02*
X100771500Y-111781700D01*
X100771500Y-114278300D02*
X100771500Y-113178700D01*
X101855000Y-119979500D02*
X100771500Y-114278300D01*
X107195000Y-139223700D02*
X101855000Y-119979500D01*
X107435000Y-140176300D02*
X107195000Y-139223700D01*
X111760000Y-144780000D02*
X107435000Y-140176300D01*
D20*
G36*
X117494575Y-104835088D02*
X117391848Y-105082483D01*
X117391553Y-105420634D01*
X117418279Y-105485316D01*
X117140134Y-105894512D01*
X117133081Y-105911163D01*
X116885633Y-105663283D01*
X116444742Y-105480209D01*
X115967353Y-105479793D01*
X115526143Y-105662097D01*
X115188283Y-105999367D01*
X115005209Y-106440258D01*
X115005059Y-106611362D01*
X114865059Y-106611240D01*
X114865207Y-106442353D01*
X114682903Y-106001143D01*
X114345633Y-105663283D01*
X113904742Y-105480209D01*
X113427353Y-105479793D01*
X112986143Y-105662097D01*
X112648283Y-105999367D01*
X112465209Y-106440258D01*
X112464793Y-106917647D01*
X112647097Y-107358857D01*
X112984367Y-107696717D01*
X113425258Y-107879791D01*
X113902647Y-107880207D01*
X114145009Y-107780064D01*
X114206341Y-107928497D01*
X111738505Y-115652603D01*
X111738505Y-113278318D01*
X111738495Y-112781634D01*
X111548441Y-112322801D01*
X111327468Y-112263242D01*
X111256758Y-112333952D01*
X111256758Y-112192532D01*
X111197199Y-111971559D01*
X110738318Y-111781495D01*
X110241634Y-111781505D01*
X109782801Y-111971559D01*
X109723242Y-112192532D01*
X110490000Y-112959289D01*
X111256758Y-112192532D01*
X111256758Y-112333952D01*
X110560711Y-113030000D01*
X111327468Y-113796758D01*
X111548441Y-113737199D01*
X111738505Y-113278318D01*
X111738505Y-115652603D01*
X111256758Y-117160428D01*
X111256758Y-113867468D01*
X110490000Y-113100711D01*
X110419289Y-113171421D01*
X110419289Y-113030000D01*
X109652532Y-112263242D01*
X109431559Y-112322801D01*
X109241495Y-112781682D01*
X109241505Y-113278366D01*
X109431559Y-113737199D01*
X109652532Y-113796758D01*
X110419289Y-113030000D01*
X110419289Y-113171421D01*
X109723242Y-113867468D01*
X109782801Y-114088441D01*
X110241682Y-114278505D01*
X110738366Y-114278495D01*
X111197199Y-114088441D01*
X111256758Y-113867468D01*
X111256758Y-117160428D01*
X110931061Y-118179831D01*
X110887353Y-118179793D01*
X110446143Y-118362097D01*
X110108283Y-118699367D01*
X109925209Y-119140258D01*
X109924793Y-119617647D01*
X110107097Y-120058857D01*
X110444367Y-120396717D01*
X110885258Y-120579791D01*
X111030891Y-120579917D01*
X114388762Y-128604510D01*
X109598878Y-120063466D01*
X109601717Y-120060633D01*
X109784791Y-119619742D01*
X109785207Y-119142353D01*
X109602903Y-118701143D01*
X109265633Y-118363283D01*
X108824742Y-118180209D01*
X108347353Y-118179793D01*
X108010606Y-118318933D01*
X106305375Y-117149034D01*
X102899832Y-114178500D01*
X103658011Y-114178500D01*
X103823405Y-114109991D01*
X103949992Y-113983404D01*
X104018500Y-113818010D01*
X104018500Y-113638989D01*
X104018500Y-112503239D01*
X108265400Y-107846631D01*
X108345258Y-107879791D01*
X108448654Y-107879881D01*
X105560517Y-111881631D01*
X105182552Y-111881302D01*
X104760277Y-112055782D01*
X104436917Y-112378578D01*
X104261700Y-112800547D01*
X104261302Y-113257448D01*
X104435782Y-113679723D01*
X104758578Y-114003083D01*
X105180547Y-114178300D01*
X105637448Y-114178698D01*
X106059723Y-114004218D01*
X106383083Y-113681422D01*
X106558300Y-113259453D01*
X106558698Y-112802552D01*
X106447195Y-112532694D01*
X108979503Y-109023973D01*
X107739824Y-111881317D01*
X107722552Y-111881302D01*
X107300277Y-112055782D01*
X106976917Y-112378578D01*
X106801700Y-112800547D01*
X106801302Y-113257448D01*
X106975782Y-113679723D01*
X107298578Y-114003083D01*
X107720547Y-114178300D01*
X108177448Y-114178698D01*
X108599723Y-114004218D01*
X108923083Y-113681422D01*
X109098300Y-113259453D01*
X109098698Y-112802552D01*
X108932124Y-112399411D01*
X110589126Y-108580175D01*
X110692857Y-108537315D01*
X110932174Y-108298415D01*
X111061852Y-107986117D01*
X111061944Y-107879944D01*
X111362647Y-107880207D01*
X111803857Y-107697903D01*
X112141717Y-107360633D01*
X112324791Y-106919742D01*
X112325207Y-106442353D01*
X112142903Y-106001143D01*
X111805633Y-105663283D01*
X111364742Y-105480209D01*
X110887353Y-105479793D01*
X110446143Y-105662097D01*
X110108283Y-105999367D01*
X109927895Y-106433787D01*
X109785180Y-106472356D01*
X109785207Y-106442353D01*
X109602903Y-106001143D01*
X109265633Y-105663283D01*
X108824742Y-105480209D01*
X108347353Y-105479793D01*
X107906143Y-105662097D01*
X107568283Y-105999367D01*
X107385209Y-106440258D01*
X107384793Y-106917647D01*
X107459337Y-107098058D01*
X103096763Y-111881500D01*
X102329532Y-111881500D01*
X102456066Y-107283757D01*
X102487097Y-107358857D01*
X102824367Y-107696717D01*
X103265258Y-107879791D01*
X103742647Y-107880207D01*
X104183857Y-107697903D01*
X104521717Y-107360633D01*
X104704791Y-106919742D01*
X104705033Y-106640909D01*
X104845102Y-106562856D01*
X104844793Y-106917647D01*
X105027097Y-107358857D01*
X105364367Y-107696717D01*
X105805258Y-107879791D01*
X106282647Y-107880207D01*
X106723857Y-107697903D01*
X107061717Y-107360633D01*
X107244791Y-106919742D01*
X107245207Y-106442353D01*
X107062903Y-106001143D01*
X106780596Y-105718342D01*
X112017780Y-104035800D01*
X112550232Y-104035800D01*
X117494575Y-104835088D01*
X117494575Y-104835088D01*
G37*
X117494575Y-104835088D02*
X117391848Y-105082483D01*
X117391553Y-105420634D01*
X117418279Y-105485316D01*
X117140134Y-105894512D01*
X117133081Y-105911163D01*
X116885633Y-105663283D01*
X116444742Y-105480209D01*
X115967353Y-105479793D01*
X115526143Y-105662097D01*
X115188283Y-105999367D01*
X115005209Y-106440258D01*
X115005059Y-106611362D01*
X114865059Y-106611240D01*
X114865207Y-106442353D01*
X114682903Y-106001143D01*
X114345633Y-105663283D01*
X113904742Y-105480209D01*
X113427353Y-105479793D01*
X112986143Y-105662097D01*
X112648283Y-105999367D01*
X112465209Y-106440258D01*
X112464793Y-106917647D01*
X112647097Y-107358857D01*
X112984367Y-107696717D01*
X113425258Y-107879791D01*
X113902647Y-107880207D01*
X114145009Y-107780064D01*
X114206341Y-107928497D01*
X111738505Y-115652603D01*
X111738505Y-113278318D01*
X111738495Y-112781634D01*
X111548441Y-112322801D01*
X111327468Y-112263242D01*
X111256758Y-112333952D01*
X111256758Y-112192532D01*
X111197199Y-111971559D01*
X110738318Y-111781495D01*
X110241634Y-111781505D01*
X109782801Y-111971559D01*
X109723242Y-112192532D01*
X110490000Y-112959289D01*
X111256758Y-112192532D01*
X111256758Y-112333952D01*
X110560711Y-113030000D01*
X111327468Y-113796758D01*
X111548441Y-113737199D01*
X111738505Y-113278318D01*
X111738505Y-115652603D01*
X111256758Y-117160428D01*
X111256758Y-113867468D01*
X110490000Y-113100711D01*
X110419289Y-113171421D01*
X110419289Y-113030000D01*
X109652532Y-112263242D01*
X109431559Y-112322801D01*
X109241495Y-112781682D01*
X109241505Y-113278366D01*
X109431559Y-113737199D01*
X109652532Y-113796758D01*
X110419289Y-113030000D01*
X110419289Y-113171421D01*
X109723242Y-113867468D01*
X109782801Y-114088441D01*
X110241682Y-114278505D01*
X110738366Y-114278495D01*
X111197199Y-114088441D01*
X111256758Y-113867468D01*
X111256758Y-117160428D01*
X110931061Y-118179831D01*
X110887353Y-118179793D01*
X110446143Y-118362097D01*
X110108283Y-118699367D01*
X109925209Y-119140258D01*
X109924793Y-119617647D01*
X110107097Y-120058857D01*
X110444367Y-120396717D01*
X110885258Y-120579791D01*
X111030891Y-120579917D01*
X114388762Y-128604510D01*
X109598878Y-120063466D01*
X109601717Y-120060633D01*
X109784791Y-119619742D01*
X109785207Y-119142353D01*
X109602903Y-118701143D01*
X109265633Y-118363283D01*
X108824742Y-118180209D01*
X108347353Y-118179793D01*
X108010606Y-118318933D01*
X106305375Y-117149034D01*
X102899832Y-114178500D01*
X103658011Y-114178500D01*
X103823405Y-114109991D01*
X103949992Y-113983404D01*
X104018500Y-113818010D01*
X104018500Y-113638989D01*
X104018500Y-112503239D01*
X108265400Y-107846631D01*
X108345258Y-107879791D01*
X108448654Y-107879881D01*
X105560517Y-111881631D01*
X105182552Y-111881302D01*
X104760277Y-112055782D01*
X104436917Y-112378578D01*
X104261700Y-112800547D01*
X104261302Y-113257448D01*
X104435782Y-113679723D01*
X104758578Y-114003083D01*
X105180547Y-114178300D01*
X105637448Y-114178698D01*
X106059723Y-114004218D01*
X106383083Y-113681422D01*
X106558300Y-113259453D01*
X106558698Y-112802552D01*
X106447195Y-112532694D01*
X108979503Y-109023973D01*
X107739824Y-111881317D01*
X107722552Y-111881302D01*
X107300277Y-112055782D01*
X106976917Y-112378578D01*
X106801700Y-112800547D01*
X106801302Y-113257448D01*
X106975782Y-113679723D01*
X107298578Y-114003083D01*
X107720547Y-114178300D01*
X108177448Y-114178698D01*
X108599723Y-114004218D01*
X108923083Y-113681422D01*
X109098300Y-113259453D01*
X109098698Y-112802552D01*
X108932124Y-112399411D01*
X110589126Y-108580175D01*
X110692857Y-108537315D01*
X110932174Y-108298415D01*
X111061852Y-107986117D01*
X111061944Y-107879944D01*
X111362647Y-107880207D01*
X111803857Y-107697903D01*
X112141717Y-107360633D01*
X112324791Y-106919742D01*
X112325207Y-106442353D01*
X112142903Y-106001143D01*
X111805633Y-105663283D01*
X111364742Y-105480209D01*
X110887353Y-105479793D01*
X110446143Y-105662097D01*
X110108283Y-105999367D01*
X109927895Y-106433787D01*
X109785180Y-106472356D01*
X109785207Y-106442353D01*
X109602903Y-106001143D01*
X109265633Y-105663283D01*
X108824742Y-105480209D01*
X108347353Y-105479793D01*
X107906143Y-105662097D01*
X107568283Y-105999367D01*
X107385209Y-106440258D01*
X107384793Y-106917647D01*
X107459337Y-107098058D01*
X103096763Y-111881500D01*
X102329532Y-111881500D01*
X102456066Y-107283757D01*
X102487097Y-107358857D01*
X102824367Y-107696717D01*
X103265258Y-107879791D01*
X103742647Y-107880207D01*
X104183857Y-107697903D01*
X104521717Y-107360633D01*
X104704791Y-106919742D01*
X104705033Y-106640909D01*
X104845102Y-106562856D01*
X104844793Y-106917647D01*
X105027097Y-107358857D01*
X105364367Y-107696717D01*
X105805258Y-107879791D01*
X106282647Y-107880207D01*
X106723857Y-107697903D01*
X107061717Y-107360633D01*
X107244791Y-106919742D01*
X107245207Y-106442353D01*
X107062903Y-106001143D01*
X106780596Y-105718342D01*
X112017780Y-104035800D01*
X112550232Y-104035800D01*
X117494575Y-104835088D01*
G36*
X118674457Y-82700000D02*
X104649627Y-84453103D01*
X104804601Y-84080586D01*
X104805397Y-83563414D01*
X104608219Y-83085305D01*
X104605953Y-83081914D01*
X104379632Y-83016079D01*
X103575711Y-83820000D01*
X103589853Y-83834142D01*
X103519142Y-83904853D01*
X103505000Y-83890711D01*
X103434289Y-83961422D01*
X103434289Y-83820000D01*
X102630368Y-83016079D01*
X102404047Y-83081914D01*
X102205399Y-83559414D01*
X102204603Y-84076586D01*
X102401781Y-84554695D01*
X102404047Y-84558086D01*
X102630368Y-84623921D01*
X103434289Y-83820000D01*
X103434289Y-83961422D01*
X102701079Y-84694632D01*
X102720950Y-84762942D01*
X102701082Y-84780137D01*
X102639791Y-84821091D01*
X101966091Y-85494791D01*
X101937008Y-85538316D01*
X101899745Y-85575085D01*
X101877973Y-85626668D01*
X101846866Y-85673224D01*
X101836652Y-85724569D01*
X101816298Y-85772796D01*
X101115000Y-89179278D01*
X101115000Y-85725000D01*
X101115000Y-82700000D01*
X102810994Y-82700000D01*
X102770305Y-82716781D01*
X102766914Y-82719047D01*
X102701079Y-82945368D01*
X103505000Y-83749289D01*
X104308921Y-82945368D01*
X104243086Y-82719047D01*
X104197301Y-82700000D01*
X118674457Y-82700000D01*
X118674457Y-82700000D01*
G37*
X118674457Y-82700000D02*
X104649627Y-84453103D01*
X104804601Y-84080586D01*
X104805397Y-83563414D01*
X104608219Y-83085305D01*
X104605953Y-83081914D01*
X104379632Y-83016079D01*
X103575711Y-83820000D01*
X103589853Y-83834142D01*
X103519142Y-83904853D01*
X103505000Y-83890711D01*
X103434289Y-83961422D01*
X103434289Y-83820000D01*
X102630368Y-83016079D01*
X102404047Y-83081914D01*
X102205399Y-83559414D01*
X102204603Y-84076586D01*
X102401781Y-84554695D01*
X102404047Y-84558086D01*
X102630368Y-84623921D01*
X103434289Y-83820000D01*
X103434289Y-83961422D01*
X102701079Y-84694632D01*
X102720950Y-84762942D01*
X102701082Y-84780137D01*
X102639791Y-84821091D01*
X101966091Y-85494791D01*
X101937008Y-85538316D01*
X101899745Y-85575085D01*
X101877973Y-85626668D01*
X101846866Y-85673224D01*
X101836652Y-85724569D01*
X101816298Y-85772796D01*
X101115000Y-89179278D01*
X101115000Y-85725000D01*
X101115000Y-82700000D01*
X102810994Y-82700000D01*
X102770305Y-82716781D01*
X102766914Y-82719047D01*
X102701079Y-82945368D01*
X103505000Y-83749289D01*
X104308921Y-82945368D01*
X104243086Y-82719047D01*
X104197301Y-82700000D01*
X118674457Y-82700000D01*
G36*
X129624853Y-83834142D02*
X129554142Y-83904853D01*
X129540000Y-83890711D01*
X129525857Y-83904852D01*
X129455146Y-83834141D01*
X129469289Y-83820000D01*
X129455147Y-83805858D01*
X129525858Y-83735147D01*
X129540000Y-83749289D01*
X129554141Y-83735146D01*
X129624852Y-83805857D01*
X129610711Y-83820000D01*
X129624853Y-83834142D01*
X129624853Y-83834142D01*
G37*
X129624853Y-83834142D02*
X129554142Y-83904853D01*
X129540000Y-83890711D01*
X129525857Y-83904852D01*
X129455146Y-83834141D01*
X129469289Y-83820000D01*
X129455147Y-83805858D01*
X129525858Y-83735147D01*
X129540000Y-83749289D01*
X129554141Y-83735146D01*
X129624852Y-83805857D01*
X129610711Y-83820000D01*
X129624853Y-83834142D01*
G36*
X150430914Y-105202503D02*
X150411168Y-105609524D01*
X150099742Y-105480209D01*
X149622353Y-105479793D01*
X149425618Y-105561081D01*
X148427315Y-104677539D01*
X148394266Y-104658257D01*
X148367141Y-104631277D01*
X143573863Y-101447000D01*
X143654200Y-101447000D01*
X143748175Y-101428307D01*
X143842874Y-101413626D01*
X143853023Y-101407451D01*
X143864676Y-101405134D01*
X143944350Y-101351897D01*
X144026216Y-101302098D01*
X144310856Y-101040702D01*
X144591534Y-101040947D01*
X144904057Y-100911815D01*
X145029359Y-100786730D01*
X145277649Y-100804939D01*
X147146772Y-101475289D01*
X147497650Y-101826167D01*
X148785788Y-103597829D01*
X148660209Y-103900258D01*
X148659793Y-104377647D01*
X148842097Y-104818857D01*
X149179367Y-105156717D01*
X149620258Y-105339791D01*
X150097647Y-105340207D01*
X150430914Y-105202503D01*
X150430914Y-105202503D01*
G37*
X150430914Y-105202503D02*
X150411168Y-105609524D01*
X150099742Y-105480209D01*
X149622353Y-105479793D01*
X149425618Y-105561081D01*
X148427315Y-104677539D01*
X148394266Y-104658257D01*
X148367141Y-104631277D01*
X143573863Y-101447000D01*
X143654200Y-101447000D01*
X143748175Y-101428307D01*
X143842874Y-101413626D01*
X143853023Y-101407451D01*
X143864676Y-101405134D01*
X143944350Y-101351897D01*
X144026216Y-101302098D01*
X144310856Y-101040702D01*
X144591534Y-101040947D01*
X144904057Y-100911815D01*
X145029359Y-100786730D01*
X145277649Y-100804939D01*
X147146772Y-101475289D01*
X147497650Y-101826167D01*
X148785788Y-103597829D01*
X148660209Y-103900258D01*
X148659793Y-104377647D01*
X148842097Y-104818857D01*
X149179367Y-105156717D01*
X149620258Y-105339791D01*
X150097647Y-105340207D01*
X150430914Y-105202503D01*
G36*
X152064300Y-97589316D02*
X151936015Y-97278843D01*
X151914689Y-97257479D01*
X151920735Y-97234341D01*
X151924893Y-97164208D01*
X151935449Y-97111138D01*
X151948217Y-97200675D01*
X151955988Y-97213808D01*
X151958966Y-97228776D01*
X152010380Y-97305723D01*
X152057507Y-97385361D01*
X152064300Y-97392941D01*
X152064300Y-97589316D01*
X152064300Y-97589316D01*
G37*
X152064300Y-97589316D02*
X151936015Y-97278843D01*
X151914689Y-97257479D01*
X151920735Y-97234341D01*
X151924893Y-97164208D01*
X151935449Y-97111138D01*
X151948217Y-97200675D01*
X151955988Y-97213808D01*
X151958966Y-97228776D01*
X152010380Y-97305723D01*
X152057507Y-97385361D01*
X152064300Y-97392941D01*
X152064300Y-97589316D01*
G36*
X152064300Y-98142926D02*
X152010520Y-98211170D01*
X151980798Y-98269525D01*
X151942438Y-98322607D01*
X151932551Y-98364253D01*
X151913125Y-98402395D01*
X151907997Y-98467684D01*
X151892871Y-98531403D01*
X151661518Y-104827272D01*
X151499300Y-105898698D01*
X151499300Y-105880835D01*
X151559354Y-104642951D01*
X151557360Y-104629569D01*
X151560000Y-104616300D01*
X151560000Y-103663700D01*
X151560000Y-101123700D01*
X151559216Y-101119762D01*
X151559943Y-101115816D01*
X151523743Y-98590716D01*
X151516102Y-98554988D01*
X151695857Y-98480715D01*
X151935174Y-98241815D01*
X152064300Y-97930846D01*
X152064300Y-98142926D01*
X152064300Y-98142926D01*
G37*
X152064300Y-98142926D02*
X152010520Y-98211170D01*
X151980798Y-98269525D01*
X151942438Y-98322607D01*
X151932551Y-98364253D01*
X151913125Y-98402395D01*
X151907997Y-98467684D01*
X151892871Y-98531403D01*
X151661518Y-104827272D01*
X151499300Y-105898698D01*
X151499300Y-105880835D01*
X151559354Y-104642951D01*
X151557360Y-104629569D01*
X151560000Y-104616300D01*
X151560000Y-103663700D01*
X151560000Y-101123700D01*
X151559216Y-101119762D01*
X151559943Y-101115816D01*
X151523743Y-98590716D01*
X151516102Y-98554988D01*
X151695857Y-98480715D01*
X151935174Y-98241815D01*
X152064300Y-97930846D01*
X152064300Y-98142926D01*
G36*
X152720002Y-94990979D02*
X152078191Y-95632791D01*
X151958966Y-95811224D01*
X151938600Y-95913611D01*
X151938600Y-95851662D01*
X152318667Y-94030002D01*
X152394779Y-94030002D01*
X152282496Y-94250382D01*
X152491584Y-94760775D01*
X152720002Y-94990979D01*
X152720002Y-94990979D01*
G37*
X152720002Y-94990979D02*
X152078191Y-95632791D01*
X151958966Y-95811224D01*
X151938600Y-95913611D01*
X151938600Y-95851662D01*
X152318667Y-94030002D01*
X152394779Y-94030002D01*
X152282496Y-94250382D01*
X152491584Y-94760775D01*
X152720002Y-94990979D01*
G36*
X153740000Y-94030000D02*
X153720000Y-94030000D01*
X153720000Y-94050000D01*
X153620000Y-94050000D01*
X153620000Y-94030000D01*
X153600000Y-94030000D01*
X153600000Y-93930000D01*
X153620000Y-93930000D01*
X153620000Y-93910000D01*
X153720000Y-93910000D01*
X153720000Y-93930000D01*
X153740000Y-93930000D01*
X153740000Y-94030000D01*
X153740000Y-94030000D01*
G37*
X153740000Y-94030000D02*
X153720000Y-94030000D01*
X153720000Y-94050000D01*
X153620000Y-94050000D01*
X153620000Y-94030000D01*
X153600000Y-94030000D01*
X153600000Y-93930000D01*
X153620000Y-93930000D01*
X153620000Y-93910000D01*
X153720000Y-93910000D01*
X153720000Y-93930000D01*
X153740000Y-93930000D01*
X153740000Y-94030000D01*
G36*
X156280000Y-88950000D02*
X156260000Y-88950000D01*
X156260000Y-88970000D01*
X156160000Y-88970000D01*
X156160000Y-88950000D01*
X156140000Y-88950000D01*
X156140000Y-88850000D01*
X156160000Y-88850000D01*
X156160000Y-88830000D01*
X156260000Y-88830000D01*
X156260000Y-88850000D01*
X156280000Y-88850000D01*
X156280000Y-88950000D01*
X156280000Y-88950000D01*
G37*
X156280000Y-88950000D02*
X156260000Y-88950000D01*
X156260000Y-88970000D01*
X156160000Y-88970000D01*
X156160000Y-88950000D01*
X156140000Y-88950000D01*
X156140000Y-88850000D01*
X156160000Y-88850000D01*
X156160000Y-88830000D01*
X156260000Y-88830000D01*
X156260000Y-88850000D01*
X156280000Y-88850000D01*
X156280000Y-88950000D01*
G36*
X156280000Y-99110000D02*
X156260000Y-99110000D01*
X156260000Y-99130000D01*
X156160000Y-99130000D01*
X156160000Y-99110000D01*
X156140000Y-99110000D01*
X156140000Y-99010000D01*
X156160000Y-99010000D01*
X156160000Y-98990000D01*
X156260000Y-98990000D01*
X156260000Y-99010000D01*
X156280000Y-99010000D01*
X156280000Y-99110000D01*
X156280000Y-99110000D01*
G37*
X156280000Y-99110000D02*
X156260000Y-99110000D01*
X156260000Y-99130000D01*
X156160000Y-99130000D01*
X156160000Y-99110000D01*
X156140000Y-99110000D01*
X156140000Y-99010000D01*
X156160000Y-99010000D01*
X156160000Y-98990000D01*
X156260000Y-98990000D01*
X156260000Y-99010000D01*
X156280000Y-99010000D01*
X156280000Y-99110000D01*
G36*
X156280000Y-106730000D02*
X156260000Y-106730000D01*
X156260000Y-106750000D01*
X156160000Y-106750000D01*
X156160000Y-106730000D01*
X156140000Y-106730000D01*
X156140000Y-106630000D01*
X156160000Y-106630000D01*
X156160000Y-106610000D01*
X156260000Y-106610000D01*
X156260000Y-106630000D01*
X156280000Y-106630000D01*
X156280000Y-106730000D01*
X156280000Y-106730000D01*
G37*
X156280000Y-106730000D02*
X156260000Y-106730000D01*
X156260000Y-106750000D01*
X156160000Y-106750000D01*
X156160000Y-106730000D01*
X156140000Y-106730000D01*
X156140000Y-106630000D01*
X156160000Y-106630000D01*
X156160000Y-106610000D01*
X156260000Y-106610000D01*
X156260000Y-106630000D01*
X156280000Y-106630000D01*
X156280000Y-106730000D01*
G36*
X157330000Y-148817812D02*
X157074453Y-148711700D01*
X156617552Y-148711302D01*
X156195277Y-148885782D01*
X155871917Y-149208578D01*
X155696700Y-149630547D01*
X155696302Y-150087448D01*
X155870782Y-150509723D01*
X156193578Y-150833083D01*
X156547393Y-150980000D01*
X150473505Y-150980000D01*
X150473505Y-145028318D01*
X150473495Y-144531634D01*
X150283441Y-144072801D01*
X150062468Y-144013242D01*
X149295711Y-144780000D01*
X150062468Y-145546758D01*
X150283441Y-145487199D01*
X150473505Y-145028318D01*
X150473505Y-150980000D01*
X149521902Y-150980000D01*
X149874723Y-150834218D01*
X150198083Y-150511422D01*
X150373300Y-150089453D01*
X150373698Y-149632552D01*
X150199218Y-149210277D01*
X149991758Y-149002454D01*
X149991758Y-145617468D01*
X149225000Y-144850711D01*
X148458242Y-145617468D01*
X148517801Y-145838441D01*
X148976682Y-146028505D01*
X149473366Y-146028495D01*
X149932199Y-145838441D01*
X149991758Y-145617468D01*
X149991758Y-149002454D01*
X149876422Y-148886917D01*
X149454453Y-148711700D01*
X148997552Y-148711302D01*
X148575277Y-148885782D01*
X148251917Y-149208578D01*
X148076700Y-149630547D01*
X148076302Y-150087448D01*
X148250782Y-150509723D01*
X148573578Y-150833083D01*
X148927393Y-150980000D01*
X144758505Y-150980000D01*
X144758505Y-150108318D01*
X144758495Y-149611634D01*
X144568441Y-149152801D01*
X144347468Y-149093242D01*
X144276758Y-149163952D01*
X144276758Y-149022532D01*
X144217199Y-148801559D01*
X143758318Y-148611495D01*
X143261634Y-148611505D01*
X142802801Y-148801559D01*
X142743242Y-149022532D01*
X143510000Y-149789289D01*
X144276758Y-149022532D01*
X144276758Y-149163952D01*
X143580711Y-149860000D01*
X144347468Y-150626758D01*
X144568441Y-150567199D01*
X144758505Y-150108318D01*
X144758505Y-150980000D01*
X144068581Y-150980000D01*
X144217199Y-150918441D01*
X144276758Y-150697468D01*
X143510000Y-149930711D01*
X143439289Y-150001421D01*
X143439289Y-149860000D01*
X142672532Y-149093242D01*
X142451559Y-149152801D01*
X142261495Y-149611682D01*
X142261505Y-150108366D01*
X142451559Y-150567199D01*
X142672532Y-150626758D01*
X143439289Y-149860000D01*
X143439289Y-150001421D01*
X142743242Y-150697468D01*
X142802801Y-150918441D01*
X142951425Y-150980000D01*
X142218505Y-150980000D01*
X142218505Y-150108318D01*
X142218495Y-149611634D01*
X142028441Y-149152801D01*
X141807468Y-149093242D01*
X141040711Y-149860000D01*
X141807468Y-150626758D01*
X142028441Y-150567199D01*
X142218505Y-150108318D01*
X142218505Y-150980000D01*
X141528581Y-150980000D01*
X141677199Y-150918441D01*
X141736758Y-150697468D01*
X140970000Y-149930711D01*
X140899289Y-150001421D01*
X140203242Y-150697468D01*
X140262801Y-150918441D01*
X140411425Y-150980000D01*
X139678505Y-150980000D01*
X138988581Y-150980000D01*
X139137199Y-150918441D01*
X139196758Y-150697468D01*
X138430000Y-149930711D01*
X138359289Y-150001421D01*
X137663242Y-150697468D01*
X137722801Y-150918441D01*
X137871425Y-150980000D01*
X137138505Y-150980000D01*
X136448581Y-150980000D01*
X136597199Y-150918441D01*
X136656758Y-150697468D01*
X135890000Y-149930711D01*
X135819289Y-150001421D01*
X135123242Y-150697468D01*
X135182801Y-150918441D01*
X135331425Y-150980000D01*
X134598505Y-150980000D01*
X133908581Y-150980000D01*
X134057199Y-150918441D01*
X134116758Y-150697468D01*
X133350000Y-149930711D01*
X133279289Y-150001421D01*
X132583242Y-150697468D01*
X132642801Y-150918441D01*
X132791425Y-150980000D01*
X132058505Y-150980000D01*
X131368581Y-150980000D01*
X131517199Y-150918441D01*
X131576758Y-150697468D01*
X130810000Y-149930711D01*
X130739289Y-150001421D01*
X130043242Y-150697468D01*
X130102801Y-150918441D01*
X130251425Y-150980000D01*
X129518505Y-150980000D01*
X128828581Y-150980000D01*
X128977199Y-150918441D01*
X129036758Y-150697468D01*
X128270000Y-149930711D01*
X128199289Y-150001421D01*
X128199289Y-149860000D01*
X127432532Y-149093242D01*
X127211559Y-149152801D01*
X127021495Y-149611682D01*
X127021505Y-150108366D01*
X127211559Y-150567199D01*
X127432532Y-150626758D01*
X128199289Y-149860000D01*
X128199289Y-150001421D01*
X127503242Y-150697468D01*
X127562801Y-150918441D01*
X127711425Y-150980000D01*
X123956758Y-150980000D01*
X123956758Y-145617468D01*
X123190000Y-144850711D01*
X122423242Y-145617468D01*
X122482801Y-145838441D01*
X122941682Y-146028505D01*
X123438366Y-146028495D01*
X123897199Y-145838441D01*
X123956758Y-145617468D01*
X123956758Y-150980000D01*
X123340000Y-150980000D01*
X123340000Y-146535000D01*
X119258500Y-146535000D01*
X119258500Y-145568010D01*
X119258500Y-145388989D01*
X119258500Y-143991989D01*
X119189991Y-143826595D01*
X119063404Y-143700008D01*
X118898010Y-143631500D01*
X118718989Y-143631500D01*
X117321989Y-143631500D01*
X117156595Y-143700009D01*
X117030008Y-143826596D01*
X116961500Y-143991990D01*
X116961500Y-144171011D01*
X116961500Y-145568011D01*
X117030009Y-145733405D01*
X117156596Y-145859992D01*
X117321990Y-145928500D01*
X117501011Y-145928500D01*
X118898011Y-145928500D01*
X119063405Y-145859991D01*
X119189992Y-145733404D01*
X119258500Y-145568010D01*
X119258500Y-146535000D01*
X115548505Y-146535000D01*
X115548505Y-145028318D01*
X115548495Y-144531634D01*
X115358441Y-144072801D01*
X115137468Y-144013242D01*
X115066758Y-144083952D01*
X115066758Y-143942532D01*
X115007199Y-143721559D01*
X114865207Y-143662747D01*
X114865207Y-139462353D01*
X114682903Y-139021143D01*
X114345633Y-138683283D01*
X113904742Y-138500209D01*
X113427353Y-138499793D01*
X112986143Y-138682097D01*
X112648283Y-139019367D01*
X112465209Y-139460258D01*
X112464793Y-139937647D01*
X112647097Y-140378857D01*
X112984367Y-140716717D01*
X113425258Y-140899791D01*
X113902647Y-140900207D01*
X114343857Y-140717903D01*
X114681717Y-140380633D01*
X114864791Y-139939742D01*
X114865207Y-139462353D01*
X114865207Y-143662747D01*
X114548318Y-143531495D01*
X114051634Y-143531505D01*
X113592801Y-143721559D01*
X113533242Y-143942532D01*
X114300000Y-144709289D01*
X115066758Y-143942532D01*
X115066758Y-144083952D01*
X114370711Y-144780000D01*
X115137468Y-145546758D01*
X115358441Y-145487199D01*
X115548505Y-145028318D01*
X115548505Y-146535000D01*
X115066758Y-146535000D01*
X115066758Y-145617468D01*
X114300000Y-144850711D01*
X114229289Y-144921421D01*
X114229289Y-144780000D01*
X113462532Y-144013242D01*
X113241559Y-144072801D01*
X113051495Y-144531682D01*
X113051505Y-145028366D01*
X113241559Y-145487199D01*
X113462532Y-145546758D01*
X114229289Y-144780000D01*
X114229289Y-144921421D01*
X113533242Y-145617468D01*
X113592801Y-145838441D01*
X114051682Y-146028505D01*
X114548366Y-146028495D01*
X115007199Y-145838441D01*
X115066758Y-145617468D01*
X115066758Y-146535000D01*
X101115000Y-146535000D01*
X101115000Y-143178523D01*
X101197233Y-143377050D01*
X101351950Y-143531768D01*
X101430054Y-143564119D01*
X101408595Y-143573009D01*
X101282008Y-143699596D01*
X101213500Y-143864990D01*
X101213500Y-144044011D01*
X101213500Y-144679011D01*
X101282009Y-144844405D01*
X101408596Y-144970992D01*
X101573990Y-145039500D01*
X101577476Y-145039500D01*
X101573248Y-145049683D01*
X101572953Y-145387834D01*
X101702085Y-145700357D01*
X101940985Y-145939674D01*
X102253283Y-146069352D01*
X102591434Y-146069647D01*
X102903957Y-145940515D01*
X103143274Y-145701615D01*
X103272952Y-145389317D01*
X103273247Y-145051166D01*
X103188382Y-144845778D01*
X103313596Y-144970992D01*
X103478990Y-145039500D01*
X103658011Y-145039500D01*
X104405310Y-145039500D01*
X104405253Y-145104934D01*
X104534385Y-145417457D01*
X104773285Y-145656774D01*
X105085583Y-145786452D01*
X105423734Y-145786747D01*
X105736257Y-145657615D01*
X105975574Y-145418715D01*
X106105252Y-145106417D01*
X106105547Y-144768266D01*
X105976415Y-144455743D01*
X105737515Y-144216426D01*
X105431431Y-144089328D01*
X105417909Y-144069091D01*
X105231909Y-143883091D01*
X105144922Y-143824968D01*
X105092991Y-143699595D01*
X104966404Y-143573008D01*
X104944945Y-143564119D01*
X105023050Y-143531768D01*
X105177767Y-143377050D01*
X105261500Y-143174902D01*
X105261500Y-142935500D01*
X105261500Y-142560500D01*
X105261500Y-142321098D01*
X105177767Y-142118950D01*
X105023050Y-141964232D01*
X104820902Y-141880500D01*
X104805397Y-141880500D01*
X104805397Y-139443414D01*
X104608219Y-138965305D01*
X104605953Y-138961914D01*
X104379632Y-138896079D01*
X104308921Y-138966790D01*
X104308921Y-138825368D01*
X104243086Y-138599047D01*
X103765586Y-138400399D01*
X103248414Y-138399603D01*
X102770305Y-138596781D01*
X102766914Y-138599047D01*
X102701079Y-138825368D01*
X103505000Y-139629289D01*
X104308921Y-138825368D01*
X104308921Y-138966790D01*
X103575711Y-139700000D01*
X104379632Y-140503921D01*
X104605953Y-140438086D01*
X104804601Y-139960586D01*
X104805397Y-139443414D01*
X104805397Y-141880500D01*
X104602098Y-141880500D01*
X104327500Y-141880500D01*
X104308921Y-141899079D01*
X104308921Y-140574632D01*
X103505000Y-139770711D01*
X103434289Y-139841422D01*
X103434289Y-139700000D01*
X102630368Y-138896079D01*
X102404047Y-138961914D01*
X102205399Y-139439414D01*
X102204603Y-139956586D01*
X102401781Y-140434695D01*
X102404047Y-140438086D01*
X102630368Y-140503921D01*
X103434289Y-139700000D01*
X103434289Y-139841422D01*
X102701079Y-140574632D01*
X102766914Y-140800953D01*
X103244414Y-140999601D01*
X103761586Y-141000397D01*
X104239695Y-140803219D01*
X104243086Y-140800953D01*
X104308921Y-140574632D01*
X104308921Y-141899079D01*
X104190000Y-142018000D01*
X104190000Y-142698000D01*
X105124000Y-142698000D01*
X105261500Y-142560500D01*
X105261500Y-142935500D01*
X105124000Y-142798000D01*
X104190000Y-142798000D01*
X104190000Y-142818000D01*
X104090000Y-142818000D01*
X104090000Y-142798000D01*
X104090000Y-142698000D01*
X104090000Y-142018000D01*
X103952500Y-141880500D01*
X103677902Y-141880500D01*
X103459098Y-141880500D01*
X103256950Y-141964232D01*
X103187500Y-142033682D01*
X103118050Y-141964232D01*
X102915902Y-141880500D01*
X102697098Y-141880500D01*
X102422500Y-141880500D01*
X102285000Y-142018000D01*
X102285000Y-142698000D01*
X103156000Y-142698000D01*
X103219000Y-142698000D01*
X104090000Y-142698000D01*
X104090000Y-142798000D01*
X103219000Y-142798000D01*
X103156000Y-142798000D01*
X102285000Y-142798000D01*
X102285000Y-142818000D01*
X102185000Y-142818000D01*
X102185000Y-142798000D01*
X102165000Y-142798000D01*
X102165000Y-142698000D01*
X102185000Y-142698000D01*
X102185000Y-142018000D01*
X102047500Y-141880500D01*
X101772902Y-141880500D01*
X101554098Y-141880500D01*
X101351950Y-141964232D01*
X101197233Y-142118950D01*
X101115000Y-142317476D01*
X101115000Y-119031551D01*
X101314671Y-120082188D01*
X101323312Y-120103565D01*
X101325025Y-120126561D01*
X106441523Y-138565310D01*
X106284742Y-138500209D01*
X105807353Y-138499793D01*
X105366143Y-138682097D01*
X105028283Y-139019367D01*
X104845209Y-139460258D01*
X104844793Y-139937647D01*
X105027097Y-140378857D01*
X105364367Y-140716717D01*
X105805258Y-140899791D01*
X106282647Y-140900207D01*
X106723857Y-140717903D01*
X106975652Y-140466547D01*
X106993685Y-140504539D01*
X107017297Y-140525881D01*
X107034147Y-140552886D01*
X109926387Y-143631500D01*
X109828989Y-143631500D01*
X108431989Y-143631500D01*
X108266595Y-143700009D01*
X108140008Y-143826596D01*
X108071500Y-143991990D01*
X108071500Y-144171011D01*
X108071500Y-145568011D01*
X108140009Y-145733405D01*
X108266596Y-145859992D01*
X108431990Y-145928500D01*
X108611011Y-145928500D01*
X110008011Y-145928500D01*
X110173405Y-145859991D01*
X110299992Y-145733404D01*
X110368500Y-145568010D01*
X110368500Y-145388989D01*
X110368500Y-144102102D01*
X110666289Y-144419081D01*
X110611700Y-144550547D01*
X110611302Y-145007448D01*
X110785782Y-145429723D01*
X111108578Y-145753083D01*
X111530547Y-145928300D01*
X111987448Y-145928698D01*
X112409723Y-145754218D01*
X112733083Y-145431422D01*
X112908300Y-145009453D01*
X112908698Y-144552552D01*
X112734218Y-144130277D01*
X112411422Y-143806917D01*
X112325207Y-143771117D01*
X112325207Y-139462353D01*
X112142903Y-139021143D01*
X111805633Y-138683283D01*
X111364742Y-138500209D01*
X110887353Y-138499793D01*
X110446143Y-138682097D01*
X110108283Y-139019367D01*
X109925209Y-139460258D01*
X109924793Y-139937647D01*
X110107097Y-140378857D01*
X110444367Y-140716717D01*
X110885258Y-140899791D01*
X111362647Y-140900207D01*
X111803857Y-140717903D01*
X112141717Y-140380633D01*
X112324791Y-139939742D01*
X112325207Y-139462353D01*
X112325207Y-143771117D01*
X111989453Y-143631700D01*
X111532552Y-143631302D01*
X111462626Y-143660194D01*
X108856559Y-140886194D01*
X109263857Y-140717903D01*
X109601717Y-140380633D01*
X109784791Y-139939742D01*
X109785207Y-139462353D01*
X109602903Y-139021143D01*
X109265633Y-138683283D01*
X108824742Y-138500209D01*
X108784779Y-138500174D01*
X103142623Y-120528868D01*
X103265258Y-120579791D01*
X103555296Y-120580043D01*
X116179302Y-138499977D01*
X115967353Y-138499793D01*
X115526143Y-138682097D01*
X115188283Y-139019367D01*
X115005209Y-139460258D01*
X115004793Y-139937647D01*
X115187097Y-140378857D01*
X115524367Y-140716717D01*
X115965258Y-140899791D01*
X116442647Y-140900207D01*
X116883857Y-140717903D01*
X116990979Y-140610967D01*
X117035381Y-140677419D01*
X117767580Y-141409619D01*
X117775090Y-141414637D01*
X117780312Y-141422008D01*
X117880258Y-141484909D01*
X117978455Y-141550522D01*
X117987315Y-141552284D01*
X117994959Y-141557095D01*
X122393526Y-143239743D01*
X121306793Y-143812297D01*
X121301422Y-143806917D01*
X120879453Y-143631700D01*
X120422552Y-143631302D01*
X120000277Y-143805782D01*
X119676917Y-144128578D01*
X119501700Y-144550547D01*
X119501302Y-145007448D01*
X119675782Y-145429723D01*
X119998578Y-145753083D01*
X120420547Y-145928300D01*
X120877448Y-145928698D01*
X121299723Y-145754218D01*
X121623083Y-145431422D01*
X121798300Y-145009453D01*
X121798485Y-144796575D01*
X121941498Y-144721227D01*
X121941505Y-145028366D01*
X122131559Y-145487199D01*
X122352532Y-145546758D01*
X123119289Y-144780000D01*
X123105147Y-144765857D01*
X123175857Y-144695147D01*
X123190000Y-144709289D01*
X123204141Y-144695146D01*
X123274852Y-144765857D01*
X123260711Y-144780000D01*
X124027468Y-145546758D01*
X124248441Y-145487199D01*
X124346035Y-145251572D01*
X126749460Y-148127678D01*
X126768793Y-148143259D01*
X126782591Y-148163909D01*
X127426088Y-148807405D01*
X127426091Y-148807409D01*
X127540601Y-148883922D01*
X127503242Y-149022532D01*
X128270000Y-149789289D01*
X128284142Y-149775147D01*
X128354852Y-149845857D01*
X128340711Y-149860000D01*
X129107468Y-150626758D01*
X129328441Y-150567199D01*
X129518505Y-150108318D01*
X129518495Y-149611634D01*
X129328441Y-149152801D01*
X129107470Y-149093242D01*
X129203397Y-148997316D01*
X129174581Y-148968500D01*
X129905418Y-148968500D01*
X129876603Y-148997316D01*
X129972529Y-149093242D01*
X129751559Y-149152801D01*
X129561495Y-149611682D01*
X129561505Y-150108366D01*
X129751559Y-150567199D01*
X129972532Y-150626758D01*
X130739289Y-149860000D01*
X130725147Y-149845857D01*
X130795857Y-149775147D01*
X130810000Y-149789289D01*
X130824142Y-149775147D01*
X130894852Y-149845857D01*
X130880711Y-149860000D01*
X131647468Y-150626758D01*
X131868441Y-150567199D01*
X132058505Y-150108318D01*
X132058495Y-149611634D01*
X131868441Y-149152801D01*
X131647470Y-149093242D01*
X131743397Y-148997316D01*
X131714581Y-148968500D01*
X132445418Y-148968500D01*
X132416603Y-148997316D01*
X132512529Y-149093242D01*
X132291559Y-149152801D01*
X132101495Y-149611682D01*
X132101505Y-150108366D01*
X132291559Y-150567199D01*
X132512532Y-150626758D01*
X133279289Y-149860000D01*
X133265147Y-149845857D01*
X133335857Y-149775147D01*
X133350000Y-149789289D01*
X133364142Y-149775147D01*
X133434852Y-149845857D01*
X133420711Y-149860000D01*
X134187468Y-150626758D01*
X134408441Y-150567199D01*
X134598505Y-150108318D01*
X134598495Y-149611634D01*
X134408441Y-149152801D01*
X134187470Y-149093242D01*
X134283397Y-148997316D01*
X134254581Y-148968500D01*
X134985418Y-148968500D01*
X134956603Y-148997316D01*
X135052529Y-149093242D01*
X134831559Y-149152801D01*
X134641495Y-149611682D01*
X134641505Y-150108366D01*
X134831559Y-150567199D01*
X135052532Y-150626758D01*
X135819289Y-149860000D01*
X135805147Y-149845857D01*
X135875857Y-149775147D01*
X135890000Y-149789289D01*
X135904142Y-149775147D01*
X135974852Y-149845857D01*
X135960711Y-149860000D01*
X136727468Y-150626758D01*
X136948441Y-150567199D01*
X137138505Y-150108318D01*
X137138495Y-149611634D01*
X136948441Y-149152801D01*
X136727470Y-149093242D01*
X136823397Y-148997316D01*
X136794581Y-148968500D01*
X137525418Y-148968500D01*
X137496603Y-148997316D01*
X137592529Y-149093242D01*
X137371559Y-149152801D01*
X137181495Y-149611682D01*
X137181505Y-150108366D01*
X137371559Y-150567199D01*
X137592532Y-150626758D01*
X138359289Y-149860000D01*
X138345147Y-149845857D01*
X138415857Y-149775147D01*
X138430000Y-149789289D01*
X138444142Y-149775147D01*
X138514852Y-149845857D01*
X138500711Y-149860000D01*
X139267468Y-150626758D01*
X139488441Y-150567199D01*
X139678505Y-150108318D01*
X139678495Y-149611634D01*
X139488441Y-149152801D01*
X139267470Y-149093242D01*
X139363397Y-148997316D01*
X139334581Y-148968500D01*
X140065418Y-148968500D01*
X140036603Y-148997316D01*
X140132529Y-149093242D01*
X139911559Y-149152801D01*
X139721495Y-149611682D01*
X139721505Y-150108366D01*
X139911559Y-150567199D01*
X140132532Y-150626758D01*
X140899289Y-149860000D01*
X140885147Y-149845857D01*
X140955857Y-149775147D01*
X140970000Y-149789289D01*
X141736758Y-149022532D01*
X141699398Y-148883922D01*
X141813909Y-148807409D01*
X142457408Y-148163909D01*
X142462414Y-148156415D01*
X142469744Y-148151169D01*
X142521851Y-148067462D01*
X142566559Y-148000553D01*
X142858578Y-148293083D01*
X143280547Y-148468300D01*
X143737448Y-148468698D01*
X144159723Y-148294218D01*
X144483083Y-147971422D01*
X144658300Y-147549453D01*
X144658520Y-147296802D01*
X147976502Y-144919866D01*
X147976505Y-145028366D01*
X148166559Y-145487199D01*
X148387532Y-145546758D01*
X149154289Y-144780000D01*
X149140147Y-144765857D01*
X149210857Y-144695147D01*
X149225000Y-144709289D01*
X149991758Y-143942532D01*
X149932199Y-143721559D01*
X149922136Y-143717391D01*
X153487124Y-141958300D01*
X153566272Y-141897538D01*
X153650278Y-141843694D01*
X154651772Y-140879658D01*
X154700258Y-140899791D01*
X155177647Y-140900207D01*
X155618857Y-140717903D01*
X155956717Y-140380633D01*
X156139791Y-139939742D01*
X156140207Y-139462353D01*
X155957903Y-139021143D01*
X155743921Y-138806786D01*
X155743921Y-120254632D01*
X154940000Y-119450711D01*
X154869289Y-119521422D01*
X154869289Y-119380000D01*
X154065368Y-118576079D01*
X153839047Y-118641914D01*
X153640399Y-119119414D01*
X153639603Y-119636586D01*
X153836781Y-120114695D01*
X153839047Y-120118086D01*
X154065368Y-120183921D01*
X154869289Y-119380000D01*
X154869289Y-119521422D01*
X154136079Y-120254632D01*
X154201914Y-120480953D01*
X154679414Y-120679601D01*
X155196586Y-120680397D01*
X155674695Y-120483219D01*
X155678086Y-120480953D01*
X155743921Y-120254632D01*
X155743921Y-138806786D01*
X155620633Y-138683283D01*
X155179742Y-138500209D01*
X154702353Y-138499793D01*
X154261143Y-138682097D01*
X154015921Y-138926889D01*
X153620000Y-138153909D01*
X153620000Y-115575120D01*
X153620000Y-114350000D01*
X152394781Y-114350000D01*
X152282496Y-114570382D01*
X152491584Y-115080775D01*
X152880075Y-115472302D01*
X153388825Y-115685357D01*
X153399618Y-115687500D01*
X153620000Y-115575120D01*
X153620000Y-138153909D01*
X148520207Y-128197282D01*
X148520207Y-119142353D01*
X148337903Y-118701143D01*
X148000633Y-118363283D01*
X147559742Y-118180209D01*
X147082353Y-118179793D01*
X146641143Y-118362097D01*
X146303283Y-118699367D01*
X146120209Y-119140258D01*
X146119793Y-119617647D01*
X146302097Y-120058857D01*
X146639367Y-120396717D01*
X147080258Y-120579791D01*
X147557647Y-120580207D01*
X147998857Y-120397903D01*
X148336717Y-120060633D01*
X148519791Y-119619742D01*
X148520207Y-119142353D01*
X148520207Y-128197282D01*
X144618556Y-120579859D01*
X145017647Y-120580207D01*
X145458857Y-120397903D01*
X145796717Y-120060633D01*
X145979791Y-119619742D01*
X145980207Y-119142353D01*
X145797903Y-118701143D01*
X145460633Y-118363283D01*
X145019742Y-118180209D01*
X144542353Y-118179793D01*
X144101143Y-118362097D01*
X143854594Y-118608214D01*
X141729655Y-114895350D01*
X149245406Y-118335543D01*
X149181143Y-118362097D01*
X148843283Y-118699367D01*
X148660209Y-119140258D01*
X148659793Y-119617647D01*
X148842097Y-120058857D01*
X149179367Y-120396717D01*
X149620258Y-120579791D01*
X150097647Y-120580207D01*
X150538857Y-120397903D01*
X150876717Y-120060633D01*
X151059791Y-119619742D01*
X151060101Y-119262970D01*
X151200034Y-119340947D01*
X151199793Y-119617647D01*
X151382097Y-120058857D01*
X151719367Y-120396717D01*
X152160258Y-120579791D01*
X152637647Y-120580207D01*
X153078857Y-120397903D01*
X153416717Y-120060633D01*
X153599791Y-119619742D01*
X153600207Y-119142353D01*
X153417903Y-118701143D01*
X153080633Y-118363283D01*
X152639742Y-118180209D01*
X152162353Y-118179793D01*
X151721143Y-118362097D01*
X151714728Y-118368500D01*
X151108505Y-118030681D01*
X151108505Y-113278318D01*
X151108495Y-112781634D01*
X150918441Y-112322801D01*
X150697468Y-112263242D01*
X150626758Y-112333952D01*
X149930711Y-113030000D01*
X150697468Y-113796758D01*
X150918441Y-113737199D01*
X151108505Y-113278318D01*
X151108505Y-118030681D01*
X150626758Y-117762227D01*
X150626758Y-113867468D01*
X149860000Y-113100711D01*
X149789289Y-113171421D01*
X149093242Y-113867468D01*
X149152801Y-114088441D01*
X149611682Y-114278505D01*
X150108366Y-114278495D01*
X150567199Y-114088441D01*
X150626758Y-113867468D01*
X150626758Y-117762227D01*
X150604026Y-117749560D01*
X150583065Y-117742798D01*
X150565211Y-117729900D01*
X142806508Y-114178500D01*
X143028011Y-114178500D01*
X143193405Y-114109991D01*
X143319992Y-113983404D01*
X143388500Y-113818010D01*
X143388500Y-113638989D01*
X143388500Y-112241989D01*
X143381025Y-112223943D01*
X150577044Y-108250784D01*
X150577389Y-108250492D01*
X150540401Y-108287480D01*
X145288359Y-111997512D01*
X145009453Y-111881700D01*
X144552552Y-111881302D01*
X144130277Y-112055782D01*
X143806917Y-112378578D01*
X143631700Y-112800547D01*
X143631302Y-113257448D01*
X143805782Y-113679723D01*
X144128578Y-114003083D01*
X144550547Y-114178300D01*
X145007448Y-114178698D01*
X145429723Y-114004218D01*
X145753083Y-113681422D01*
X145928300Y-113259453D01*
X145928620Y-112892001D01*
X146218857Y-112686978D01*
X146171700Y-112800547D01*
X146171302Y-113257448D01*
X146345782Y-113679723D01*
X146668578Y-114003083D01*
X147090547Y-114178300D01*
X147547448Y-114178698D01*
X147969723Y-114004218D01*
X148293083Y-113681422D01*
X148468300Y-113259453D01*
X148468698Y-112802552D01*
X148421592Y-112688546D01*
X148928405Y-112169118D01*
X149022529Y-112263242D01*
X148801559Y-112322801D01*
X148611495Y-112781682D01*
X148611505Y-113278366D01*
X148801559Y-113737199D01*
X149022532Y-113796758D01*
X149789289Y-113030000D01*
X149775147Y-113015857D01*
X149845857Y-112945147D01*
X149860000Y-112959289D01*
X150626758Y-112192532D01*
X150567199Y-111971559D01*
X150108318Y-111781495D01*
X149611634Y-111781505D01*
X149152801Y-111971559D01*
X149093242Y-112192529D01*
X148998249Y-112097536D01*
X152655659Y-108349100D01*
X152712355Y-108261947D01*
X152770125Y-108175496D01*
X152939340Y-107767020D01*
X153167307Y-107919343D01*
X153321429Y-107950000D01*
X153167307Y-107980657D01*
X152741145Y-108265410D01*
X152456392Y-108691572D01*
X152356400Y-109194265D01*
X152356400Y-109245735D01*
X152456392Y-109748428D01*
X152741145Y-110174590D01*
X153167307Y-110459343D01*
X153321429Y-110490000D01*
X153167307Y-110520657D01*
X152741145Y-110805410D01*
X152456392Y-111231572D01*
X152356400Y-111734265D01*
X152356400Y-111785735D01*
X152456392Y-112288428D01*
X152741145Y-112714590D01*
X153167307Y-112999343D01*
X153180367Y-113001940D01*
X152880075Y-113127698D01*
X152491584Y-113519225D01*
X152282496Y-114029618D01*
X152394781Y-114250000D01*
X153620000Y-114250000D01*
X153620000Y-114230000D01*
X153720000Y-114230000D01*
X153720000Y-114250000D01*
X153740000Y-114250000D01*
X153740000Y-114350000D01*
X153720000Y-114350000D01*
X153720000Y-115575120D01*
X153940382Y-115687500D01*
X153951175Y-115685357D01*
X154459925Y-115472302D01*
X154848416Y-115080775D01*
X154981814Y-114755142D01*
X154996392Y-114828428D01*
X155281145Y-115254590D01*
X155707307Y-115539343D01*
X156210000Y-115639335D01*
X156712693Y-115539343D01*
X157138855Y-115254590D01*
X157330000Y-114968521D01*
X157330000Y-143629526D01*
X157093318Y-143531495D01*
X156596634Y-143531505D01*
X156240397Y-143679062D01*
X156240397Y-119123414D01*
X156043219Y-118645305D01*
X156040953Y-118641914D01*
X155814632Y-118576079D01*
X155743921Y-118646790D01*
X155743921Y-118505368D01*
X155678086Y-118279047D01*
X155200586Y-118080399D01*
X154683414Y-118079603D01*
X154205305Y-118276781D01*
X154201914Y-118279047D01*
X154136079Y-118505368D01*
X154940000Y-119309289D01*
X155743921Y-118505368D01*
X155743921Y-118646790D01*
X155010711Y-119380000D01*
X155814632Y-120183921D01*
X156040953Y-120118086D01*
X156239601Y-119640586D01*
X156240397Y-119123414D01*
X156240397Y-143679062D01*
X156137801Y-143721559D01*
X156078242Y-143942532D01*
X156845000Y-144709289D01*
X156859142Y-144695147D01*
X156929852Y-144765857D01*
X156915711Y-144780000D01*
X156929853Y-144794142D01*
X156859142Y-144864852D01*
X156845000Y-144850711D01*
X156774289Y-144921421D01*
X156774289Y-144780000D01*
X156007532Y-144013242D01*
X155786559Y-144072801D01*
X155596495Y-144531682D01*
X155596505Y-145028366D01*
X155786559Y-145487199D01*
X156007532Y-145546758D01*
X156774289Y-144780000D01*
X156774289Y-144921421D01*
X156078242Y-145617468D01*
X156137801Y-145838441D01*
X156596682Y-146028505D01*
X157093366Y-146028495D01*
X157330000Y-145930478D01*
X157330000Y-148817812D01*
X157330000Y-148817812D01*
G37*
X157330000Y-148817812D02*
X157074453Y-148711700D01*
X156617552Y-148711302D01*
X156195277Y-148885782D01*
X155871917Y-149208578D01*
X155696700Y-149630547D01*
X155696302Y-150087448D01*
X155870782Y-150509723D01*
X156193578Y-150833083D01*
X156547393Y-150980000D01*
X150473505Y-150980000D01*
X150473505Y-145028318D01*
X150473495Y-144531634D01*
X150283441Y-144072801D01*
X150062468Y-144013242D01*
X149295711Y-144780000D01*
X150062468Y-145546758D01*
X150283441Y-145487199D01*
X150473505Y-145028318D01*
X150473505Y-150980000D01*
X149521902Y-150980000D01*
X149874723Y-150834218D01*
X150198083Y-150511422D01*
X150373300Y-150089453D01*
X150373698Y-149632552D01*
X150199218Y-149210277D01*
X149991758Y-149002454D01*
X149991758Y-145617468D01*
X149225000Y-144850711D01*
X148458242Y-145617468D01*
X148517801Y-145838441D01*
X148976682Y-146028505D01*
X149473366Y-146028495D01*
X149932199Y-145838441D01*
X149991758Y-145617468D01*
X149991758Y-149002454D01*
X149876422Y-148886917D01*
X149454453Y-148711700D01*
X148997552Y-148711302D01*
X148575277Y-148885782D01*
X148251917Y-149208578D01*
X148076700Y-149630547D01*
X148076302Y-150087448D01*
X148250782Y-150509723D01*
X148573578Y-150833083D01*
X148927393Y-150980000D01*
X144758505Y-150980000D01*
X144758505Y-150108318D01*
X144758495Y-149611634D01*
X144568441Y-149152801D01*
X144347468Y-149093242D01*
X144276758Y-149163952D01*
X144276758Y-149022532D01*
X144217199Y-148801559D01*
X143758318Y-148611495D01*
X143261634Y-148611505D01*
X142802801Y-148801559D01*
X142743242Y-149022532D01*
X143510000Y-149789289D01*
X144276758Y-149022532D01*
X144276758Y-149163952D01*
X143580711Y-149860000D01*
X144347468Y-150626758D01*
X144568441Y-150567199D01*
X144758505Y-150108318D01*
X144758505Y-150980000D01*
X144068581Y-150980000D01*
X144217199Y-150918441D01*
X144276758Y-150697468D01*
X143510000Y-149930711D01*
X143439289Y-150001421D01*
X143439289Y-149860000D01*
X142672532Y-149093242D01*
X142451559Y-149152801D01*
X142261495Y-149611682D01*
X142261505Y-150108366D01*
X142451559Y-150567199D01*
X142672532Y-150626758D01*
X143439289Y-149860000D01*
X143439289Y-150001421D01*
X142743242Y-150697468D01*
X142802801Y-150918441D01*
X142951425Y-150980000D01*
X142218505Y-150980000D01*
X142218505Y-150108318D01*
X142218495Y-149611634D01*
X142028441Y-149152801D01*
X141807468Y-149093242D01*
X141040711Y-149860000D01*
X141807468Y-150626758D01*
X142028441Y-150567199D01*
X142218505Y-150108318D01*
X142218505Y-150980000D01*
X141528581Y-150980000D01*
X141677199Y-150918441D01*
X141736758Y-150697468D01*
X140970000Y-149930711D01*
X140899289Y-150001421D01*
X140203242Y-150697468D01*
X140262801Y-150918441D01*
X140411425Y-150980000D01*
X139678505Y-150980000D01*
X138988581Y-150980000D01*
X139137199Y-150918441D01*
X139196758Y-150697468D01*
X138430000Y-149930711D01*
X138359289Y-150001421D01*
X137663242Y-150697468D01*
X137722801Y-150918441D01*
X137871425Y-150980000D01*
X137138505Y-150980000D01*
X136448581Y-150980000D01*
X136597199Y-150918441D01*
X136656758Y-150697468D01*
X135890000Y-149930711D01*
X135819289Y-150001421D01*
X135123242Y-150697468D01*
X135182801Y-150918441D01*
X135331425Y-150980000D01*
X134598505Y-150980000D01*
X133908581Y-150980000D01*
X134057199Y-150918441D01*
X134116758Y-150697468D01*
X133350000Y-149930711D01*
X133279289Y-150001421D01*
X132583242Y-150697468D01*
X132642801Y-150918441D01*
X132791425Y-150980000D01*
X132058505Y-150980000D01*
X131368581Y-150980000D01*
X131517199Y-150918441D01*
X131576758Y-150697468D01*
X130810000Y-149930711D01*
X130739289Y-150001421D01*
X130043242Y-150697468D01*
X130102801Y-150918441D01*
X130251425Y-150980000D01*
X129518505Y-150980000D01*
X128828581Y-150980000D01*
X128977199Y-150918441D01*
X129036758Y-150697468D01*
X128270000Y-149930711D01*
X128199289Y-150001421D01*
X128199289Y-149860000D01*
X127432532Y-149093242D01*
X127211559Y-149152801D01*
X127021495Y-149611682D01*
X127021505Y-150108366D01*
X127211559Y-150567199D01*
X127432532Y-150626758D01*
X128199289Y-149860000D01*
X128199289Y-150001421D01*
X127503242Y-150697468D01*
X127562801Y-150918441D01*
X127711425Y-150980000D01*
X123956758Y-150980000D01*
X123956758Y-145617468D01*
X123190000Y-144850711D01*
X122423242Y-145617468D01*
X122482801Y-145838441D01*
X122941682Y-146028505D01*
X123438366Y-146028495D01*
X123897199Y-145838441D01*
X123956758Y-145617468D01*
X123956758Y-150980000D01*
X123340000Y-150980000D01*
X123340000Y-146535000D01*
X119258500Y-146535000D01*
X119258500Y-145568010D01*
X119258500Y-145388989D01*
X119258500Y-143991989D01*
X119189991Y-143826595D01*
X119063404Y-143700008D01*
X118898010Y-143631500D01*
X118718989Y-143631500D01*
X117321989Y-143631500D01*
X117156595Y-143700009D01*
X117030008Y-143826596D01*
X116961500Y-143991990D01*
X116961500Y-144171011D01*
X116961500Y-145568011D01*
X117030009Y-145733405D01*
X117156596Y-145859992D01*
X117321990Y-145928500D01*
X117501011Y-145928500D01*
X118898011Y-145928500D01*
X119063405Y-145859991D01*
X119189992Y-145733404D01*
X119258500Y-145568010D01*
X119258500Y-146535000D01*
X115548505Y-146535000D01*
X115548505Y-145028318D01*
X115548495Y-144531634D01*
X115358441Y-144072801D01*
X115137468Y-144013242D01*
X115066758Y-144083952D01*
X115066758Y-143942532D01*
X115007199Y-143721559D01*
X114865207Y-143662747D01*
X114865207Y-139462353D01*
X114682903Y-139021143D01*
X114345633Y-138683283D01*
X113904742Y-138500209D01*
X113427353Y-138499793D01*
X112986143Y-138682097D01*
X112648283Y-139019367D01*
X112465209Y-139460258D01*
X112464793Y-139937647D01*
X112647097Y-140378857D01*
X112984367Y-140716717D01*
X113425258Y-140899791D01*
X113902647Y-140900207D01*
X114343857Y-140717903D01*
X114681717Y-140380633D01*
X114864791Y-139939742D01*
X114865207Y-139462353D01*
X114865207Y-143662747D01*
X114548318Y-143531495D01*
X114051634Y-143531505D01*
X113592801Y-143721559D01*
X113533242Y-143942532D01*
X114300000Y-144709289D01*
X115066758Y-143942532D01*
X115066758Y-144083952D01*
X114370711Y-144780000D01*
X115137468Y-145546758D01*
X115358441Y-145487199D01*
X115548505Y-145028318D01*
X115548505Y-146535000D01*
X115066758Y-146535000D01*
X115066758Y-145617468D01*
X114300000Y-144850711D01*
X114229289Y-144921421D01*
X114229289Y-144780000D01*
X113462532Y-144013242D01*
X113241559Y-144072801D01*
X113051495Y-144531682D01*
X113051505Y-145028366D01*
X113241559Y-145487199D01*
X113462532Y-145546758D01*
X114229289Y-144780000D01*
X114229289Y-144921421D01*
X113533242Y-145617468D01*
X113592801Y-145838441D01*
X114051682Y-146028505D01*
X114548366Y-146028495D01*
X115007199Y-145838441D01*
X115066758Y-145617468D01*
X115066758Y-146535000D01*
X101115000Y-146535000D01*
X101115000Y-143178523D01*
X101197233Y-143377050D01*
X101351950Y-143531768D01*
X101430054Y-143564119D01*
X101408595Y-143573009D01*
X101282008Y-143699596D01*
X101213500Y-143864990D01*
X101213500Y-144044011D01*
X101213500Y-144679011D01*
X101282009Y-144844405D01*
X101408596Y-144970992D01*
X101573990Y-145039500D01*
X101577476Y-145039500D01*
X101573248Y-145049683D01*
X101572953Y-145387834D01*
X101702085Y-145700357D01*
X101940985Y-145939674D01*
X102253283Y-146069352D01*
X102591434Y-146069647D01*
X102903957Y-145940515D01*
X103143274Y-145701615D01*
X103272952Y-145389317D01*
X103273247Y-145051166D01*
X103188382Y-144845778D01*
X103313596Y-144970992D01*
X103478990Y-145039500D01*
X103658011Y-145039500D01*
X104405310Y-145039500D01*
X104405253Y-145104934D01*
X104534385Y-145417457D01*
X104773285Y-145656774D01*
X105085583Y-145786452D01*
X105423734Y-145786747D01*
X105736257Y-145657615D01*
X105975574Y-145418715D01*
X106105252Y-145106417D01*
X106105547Y-144768266D01*
X105976415Y-144455743D01*
X105737515Y-144216426D01*
X105431431Y-144089328D01*
X105417909Y-144069091D01*
X105231909Y-143883091D01*
X105144922Y-143824968D01*
X105092991Y-143699595D01*
X104966404Y-143573008D01*
X104944945Y-143564119D01*
X105023050Y-143531768D01*
X105177767Y-143377050D01*
X105261500Y-143174902D01*
X105261500Y-142935500D01*
X105261500Y-142560500D01*
X105261500Y-142321098D01*
X105177767Y-142118950D01*
X105023050Y-141964232D01*
X104820902Y-141880500D01*
X104805397Y-141880500D01*
X104805397Y-139443414D01*
X104608219Y-138965305D01*
X104605953Y-138961914D01*
X104379632Y-138896079D01*
X104308921Y-138966790D01*
X104308921Y-138825368D01*
X104243086Y-138599047D01*
X103765586Y-138400399D01*
X103248414Y-138399603D01*
X102770305Y-138596781D01*
X102766914Y-138599047D01*
X102701079Y-138825368D01*
X103505000Y-139629289D01*
X104308921Y-138825368D01*
X104308921Y-138966790D01*
X103575711Y-139700000D01*
X104379632Y-140503921D01*
X104605953Y-140438086D01*
X104804601Y-139960586D01*
X104805397Y-139443414D01*
X104805397Y-141880500D01*
X104602098Y-141880500D01*
X104327500Y-141880500D01*
X104308921Y-141899079D01*
X104308921Y-140574632D01*
X103505000Y-139770711D01*
X103434289Y-139841422D01*
X103434289Y-139700000D01*
X102630368Y-138896079D01*
X102404047Y-138961914D01*
X102205399Y-139439414D01*
X102204603Y-139956586D01*
X102401781Y-140434695D01*
X102404047Y-140438086D01*
X102630368Y-140503921D01*
X103434289Y-139700000D01*
X103434289Y-139841422D01*
X102701079Y-140574632D01*
X102766914Y-140800953D01*
X103244414Y-140999601D01*
X103761586Y-141000397D01*
X104239695Y-140803219D01*
X104243086Y-140800953D01*
X104308921Y-140574632D01*
X104308921Y-141899079D01*
X104190000Y-142018000D01*
X104190000Y-142698000D01*
X105124000Y-142698000D01*
X105261500Y-142560500D01*
X105261500Y-142935500D01*
X105124000Y-142798000D01*
X104190000Y-142798000D01*
X104190000Y-142818000D01*
X104090000Y-142818000D01*
X104090000Y-142798000D01*
X104090000Y-142698000D01*
X104090000Y-142018000D01*
X103952500Y-141880500D01*
X103677902Y-141880500D01*
X103459098Y-141880500D01*
X103256950Y-141964232D01*
X103187500Y-142033682D01*
X103118050Y-141964232D01*
X102915902Y-141880500D01*
X102697098Y-141880500D01*
X102422500Y-141880500D01*
X102285000Y-142018000D01*
X102285000Y-142698000D01*
X103156000Y-142698000D01*
X103219000Y-142698000D01*
X104090000Y-142698000D01*
X104090000Y-142798000D01*
X103219000Y-142798000D01*
X103156000Y-142798000D01*
X102285000Y-142798000D01*
X102285000Y-142818000D01*
X102185000Y-142818000D01*
X102185000Y-142798000D01*
X102165000Y-142798000D01*
X102165000Y-142698000D01*
X102185000Y-142698000D01*
X102185000Y-142018000D01*
X102047500Y-141880500D01*
X101772902Y-141880500D01*
X101554098Y-141880500D01*
X101351950Y-141964232D01*
X101197233Y-142118950D01*
X101115000Y-142317476D01*
X101115000Y-119031551D01*
X101314671Y-120082188D01*
X101323312Y-120103565D01*
X101325025Y-120126561D01*
X106441523Y-138565310D01*
X106284742Y-138500209D01*
X105807353Y-138499793D01*
X105366143Y-138682097D01*
X105028283Y-139019367D01*
X104845209Y-139460258D01*
X104844793Y-139937647D01*
X105027097Y-140378857D01*
X105364367Y-140716717D01*
X105805258Y-140899791D01*
X106282647Y-140900207D01*
X106723857Y-140717903D01*
X106975652Y-140466547D01*
X106993685Y-140504539D01*
X107017297Y-140525881D01*
X107034147Y-140552886D01*
X109926387Y-143631500D01*
X109828989Y-143631500D01*
X108431989Y-143631500D01*
X108266595Y-143700009D01*
X108140008Y-143826596D01*
X108071500Y-143991990D01*
X108071500Y-144171011D01*
X108071500Y-145568011D01*
X108140009Y-145733405D01*
X108266596Y-145859992D01*
X108431990Y-145928500D01*
X108611011Y-145928500D01*
X110008011Y-145928500D01*
X110173405Y-145859991D01*
X110299992Y-145733404D01*
X110368500Y-145568010D01*
X110368500Y-145388989D01*
X110368500Y-144102102D01*
X110666289Y-144419081D01*
X110611700Y-144550547D01*
X110611302Y-145007448D01*
X110785782Y-145429723D01*
X111108578Y-145753083D01*
X111530547Y-145928300D01*
X111987448Y-145928698D01*
X112409723Y-145754218D01*
X112733083Y-145431422D01*
X112908300Y-145009453D01*
X112908698Y-144552552D01*
X112734218Y-144130277D01*
X112411422Y-143806917D01*
X112325207Y-143771117D01*
X112325207Y-139462353D01*
X112142903Y-139021143D01*
X111805633Y-138683283D01*
X111364742Y-138500209D01*
X110887353Y-138499793D01*
X110446143Y-138682097D01*
X110108283Y-139019367D01*
X109925209Y-139460258D01*
X109924793Y-139937647D01*
X110107097Y-140378857D01*
X110444367Y-140716717D01*
X110885258Y-140899791D01*
X111362647Y-140900207D01*
X111803857Y-140717903D01*
X112141717Y-140380633D01*
X112324791Y-139939742D01*
X112325207Y-139462353D01*
X112325207Y-143771117D01*
X111989453Y-143631700D01*
X111532552Y-143631302D01*
X111462626Y-143660194D01*
X108856559Y-140886194D01*
X109263857Y-140717903D01*
X109601717Y-140380633D01*
X109784791Y-139939742D01*
X109785207Y-139462353D01*
X109602903Y-139021143D01*
X109265633Y-138683283D01*
X108824742Y-138500209D01*
X108784779Y-138500174D01*
X103142623Y-120528868D01*
X103265258Y-120579791D01*
X103555296Y-120580043D01*
X116179302Y-138499977D01*
X115967353Y-138499793D01*
X115526143Y-138682097D01*
X115188283Y-139019367D01*
X115005209Y-139460258D01*
X115004793Y-139937647D01*
X115187097Y-140378857D01*
X115524367Y-140716717D01*
X115965258Y-140899791D01*
X116442647Y-140900207D01*
X116883857Y-140717903D01*
X116990979Y-140610967D01*
X117035381Y-140677419D01*
X117767580Y-141409619D01*
X117775090Y-141414637D01*
X117780312Y-141422008D01*
X117880258Y-141484909D01*
X117978455Y-141550522D01*
X117987315Y-141552284D01*
X117994959Y-141557095D01*
X122393526Y-143239743D01*
X121306793Y-143812297D01*
X121301422Y-143806917D01*
X120879453Y-143631700D01*
X120422552Y-143631302D01*
X120000277Y-143805782D01*
X119676917Y-144128578D01*
X119501700Y-144550547D01*
X119501302Y-145007448D01*
X119675782Y-145429723D01*
X119998578Y-145753083D01*
X120420547Y-145928300D01*
X120877448Y-145928698D01*
X121299723Y-145754218D01*
X121623083Y-145431422D01*
X121798300Y-145009453D01*
X121798485Y-144796575D01*
X121941498Y-144721227D01*
X121941505Y-145028366D01*
X122131559Y-145487199D01*
X122352532Y-145546758D01*
X123119289Y-144780000D01*
X123105147Y-144765857D01*
X123175857Y-144695147D01*
X123190000Y-144709289D01*
X123204141Y-144695146D01*
X123274852Y-144765857D01*
X123260711Y-144780000D01*
X124027468Y-145546758D01*
X124248441Y-145487199D01*
X124346035Y-145251572D01*
X126749460Y-148127678D01*
X126768793Y-148143259D01*
X126782591Y-148163909D01*
X127426088Y-148807405D01*
X127426091Y-148807409D01*
X127540601Y-148883922D01*
X127503242Y-149022532D01*
X128270000Y-149789289D01*
X128284142Y-149775147D01*
X128354852Y-149845857D01*
X128340711Y-149860000D01*
X129107468Y-150626758D01*
X129328441Y-150567199D01*
X129518505Y-150108318D01*
X129518495Y-149611634D01*
X129328441Y-149152801D01*
X129107470Y-149093242D01*
X129203397Y-148997316D01*
X129174581Y-148968500D01*
X129905418Y-148968500D01*
X129876603Y-148997316D01*
X129972529Y-149093242D01*
X129751559Y-149152801D01*
X129561495Y-149611682D01*
X129561505Y-150108366D01*
X129751559Y-150567199D01*
X129972532Y-150626758D01*
X130739289Y-149860000D01*
X130725147Y-149845857D01*
X130795857Y-149775147D01*
X130810000Y-149789289D01*
X130824142Y-149775147D01*
X130894852Y-149845857D01*
X130880711Y-149860000D01*
X131647468Y-150626758D01*
X131868441Y-150567199D01*
X132058505Y-150108318D01*
X132058495Y-149611634D01*
X131868441Y-149152801D01*
X131647470Y-149093242D01*
X131743397Y-148997316D01*
X131714581Y-148968500D01*
X132445418Y-148968500D01*
X132416603Y-148997316D01*
X132512529Y-149093242D01*
X132291559Y-149152801D01*
X132101495Y-149611682D01*
X132101505Y-150108366D01*
X132291559Y-150567199D01*
X132512532Y-150626758D01*
X133279289Y-149860000D01*
X133265147Y-149845857D01*
X133335857Y-149775147D01*
X133350000Y-149789289D01*
X133364142Y-149775147D01*
X133434852Y-149845857D01*
X133420711Y-149860000D01*
X134187468Y-150626758D01*
X134408441Y-150567199D01*
X134598505Y-150108318D01*
X134598495Y-149611634D01*
X134408441Y-149152801D01*
X134187470Y-149093242D01*
X134283397Y-148997316D01*
X134254581Y-148968500D01*
X134985418Y-148968500D01*
X134956603Y-148997316D01*
X135052529Y-149093242D01*
X134831559Y-149152801D01*
X134641495Y-149611682D01*
X134641505Y-150108366D01*
X134831559Y-150567199D01*
X135052532Y-150626758D01*
X135819289Y-149860000D01*
X135805147Y-149845857D01*
X135875857Y-149775147D01*
X135890000Y-149789289D01*
X135904142Y-149775147D01*
X135974852Y-149845857D01*
X135960711Y-149860000D01*
X136727468Y-150626758D01*
X136948441Y-150567199D01*
X137138505Y-150108318D01*
X137138495Y-149611634D01*
X136948441Y-149152801D01*
X136727470Y-149093242D01*
X136823397Y-148997316D01*
X136794581Y-148968500D01*
X137525418Y-148968500D01*
X137496603Y-148997316D01*
X137592529Y-149093242D01*
X137371559Y-149152801D01*
X137181495Y-149611682D01*
X137181505Y-150108366D01*
X137371559Y-150567199D01*
X137592532Y-150626758D01*
X138359289Y-149860000D01*
X138345147Y-149845857D01*
X138415857Y-149775147D01*
X138430000Y-149789289D01*
X138444142Y-149775147D01*
X138514852Y-149845857D01*
X138500711Y-149860000D01*
X139267468Y-150626758D01*
X139488441Y-150567199D01*
X139678505Y-150108318D01*
X139678495Y-149611634D01*
X139488441Y-149152801D01*
X139267470Y-149093242D01*
X139363397Y-148997316D01*
X139334581Y-148968500D01*
X140065418Y-148968500D01*
X140036603Y-148997316D01*
X140132529Y-149093242D01*
X139911559Y-149152801D01*
X139721495Y-149611682D01*
X139721505Y-150108366D01*
X139911559Y-150567199D01*
X140132532Y-150626758D01*
X140899289Y-149860000D01*
X140885147Y-149845857D01*
X140955857Y-149775147D01*
X140970000Y-149789289D01*
X141736758Y-149022532D01*
X141699398Y-148883922D01*
X141813909Y-148807409D01*
X142457408Y-148163909D01*
X142462414Y-148156415D01*
X142469744Y-148151169D01*
X142521851Y-148067462D01*
X142566559Y-148000553D01*
X142858578Y-148293083D01*
X143280547Y-148468300D01*
X143737448Y-148468698D01*
X144159723Y-148294218D01*
X144483083Y-147971422D01*
X144658300Y-147549453D01*
X144658520Y-147296802D01*
X147976502Y-144919866D01*
X147976505Y-145028366D01*
X148166559Y-145487199D01*
X148387532Y-145546758D01*
X149154289Y-144780000D01*
X149140147Y-144765857D01*
X149210857Y-144695147D01*
X149225000Y-144709289D01*
X149991758Y-143942532D01*
X149932199Y-143721559D01*
X149922136Y-143717391D01*
X153487124Y-141958300D01*
X153566272Y-141897538D01*
X153650278Y-141843694D01*
X154651772Y-140879658D01*
X154700258Y-140899791D01*
X155177647Y-140900207D01*
X155618857Y-140717903D01*
X155956717Y-140380633D01*
X156139791Y-139939742D01*
X156140207Y-139462353D01*
X155957903Y-139021143D01*
X155743921Y-138806786D01*
X155743921Y-120254632D01*
X154940000Y-119450711D01*
X154869289Y-119521422D01*
X154869289Y-119380000D01*
X154065368Y-118576079D01*
X153839047Y-118641914D01*
X153640399Y-119119414D01*
X153639603Y-119636586D01*
X153836781Y-120114695D01*
X153839047Y-120118086D01*
X154065368Y-120183921D01*
X154869289Y-119380000D01*
X154869289Y-119521422D01*
X154136079Y-120254632D01*
X154201914Y-120480953D01*
X154679414Y-120679601D01*
X155196586Y-120680397D01*
X155674695Y-120483219D01*
X155678086Y-120480953D01*
X155743921Y-120254632D01*
X155743921Y-138806786D01*
X155620633Y-138683283D01*
X155179742Y-138500209D01*
X154702353Y-138499793D01*
X154261143Y-138682097D01*
X154015921Y-138926889D01*
X153620000Y-138153909D01*
X153620000Y-115575120D01*
X153620000Y-114350000D01*
X152394781Y-114350000D01*
X152282496Y-114570382D01*
X152491584Y-115080775D01*
X152880075Y-115472302D01*
X153388825Y-115685357D01*
X153399618Y-115687500D01*
X153620000Y-115575120D01*
X153620000Y-138153909D01*
X148520207Y-128197282D01*
X148520207Y-119142353D01*
X148337903Y-118701143D01*
X148000633Y-118363283D01*
X147559742Y-118180209D01*
X147082353Y-118179793D01*
X146641143Y-118362097D01*
X146303283Y-118699367D01*
X146120209Y-119140258D01*
X146119793Y-119617647D01*
X146302097Y-120058857D01*
X146639367Y-120396717D01*
X147080258Y-120579791D01*
X147557647Y-120580207D01*
X147998857Y-120397903D01*
X148336717Y-120060633D01*
X148519791Y-119619742D01*
X148520207Y-119142353D01*
X148520207Y-128197282D01*
X144618556Y-120579859D01*
X145017647Y-120580207D01*
X145458857Y-120397903D01*
X145796717Y-120060633D01*
X145979791Y-119619742D01*
X145980207Y-119142353D01*
X145797903Y-118701143D01*
X145460633Y-118363283D01*
X145019742Y-118180209D01*
X144542353Y-118179793D01*
X144101143Y-118362097D01*
X143854594Y-118608214D01*
X141729655Y-114895350D01*
X149245406Y-118335543D01*
X149181143Y-118362097D01*
X148843283Y-118699367D01*
X148660209Y-119140258D01*
X148659793Y-119617647D01*
X148842097Y-120058857D01*
X149179367Y-120396717D01*
X149620258Y-120579791D01*
X150097647Y-120580207D01*
X150538857Y-120397903D01*
X150876717Y-120060633D01*
X151059791Y-119619742D01*
X151060101Y-119262970D01*
X151200034Y-119340947D01*
X151199793Y-119617647D01*
X151382097Y-120058857D01*
X151719367Y-120396717D01*
X152160258Y-120579791D01*
X152637647Y-120580207D01*
X153078857Y-120397903D01*
X153416717Y-120060633D01*
X153599791Y-119619742D01*
X153600207Y-119142353D01*
X153417903Y-118701143D01*
X153080633Y-118363283D01*
X152639742Y-118180209D01*
X152162353Y-118179793D01*
X151721143Y-118362097D01*
X151714728Y-118368500D01*
X151108505Y-118030681D01*
X151108505Y-113278318D01*
X151108495Y-112781634D01*
X150918441Y-112322801D01*
X150697468Y-112263242D01*
X150626758Y-112333952D01*
X149930711Y-113030000D01*
X150697468Y-113796758D01*
X150918441Y-113737199D01*
X151108505Y-113278318D01*
X151108505Y-118030681D01*
X150626758Y-117762227D01*
X150626758Y-113867468D01*
X149860000Y-113100711D01*
X149789289Y-113171421D01*
X149093242Y-113867468D01*
X149152801Y-114088441D01*
X149611682Y-114278505D01*
X150108366Y-114278495D01*
X150567199Y-114088441D01*
X150626758Y-113867468D01*
X150626758Y-117762227D01*
X150604026Y-117749560D01*
X150583065Y-117742798D01*
X150565211Y-117729900D01*
X142806508Y-114178500D01*
X143028011Y-114178500D01*
X143193405Y-114109991D01*
X143319992Y-113983404D01*
X143388500Y-113818010D01*
X143388500Y-113638989D01*
X143388500Y-112241989D01*
X143381025Y-112223943D01*
X150577044Y-108250784D01*
X150577389Y-108250492D01*
X150540401Y-108287480D01*
X145288359Y-111997512D01*
X145009453Y-111881700D01*
X144552552Y-111881302D01*
X144130277Y-112055782D01*
X143806917Y-112378578D01*
X143631700Y-112800547D01*
X143631302Y-113257448D01*
X143805782Y-113679723D01*
X144128578Y-114003083D01*
X144550547Y-114178300D01*
X145007448Y-114178698D01*
X145429723Y-114004218D01*
X145753083Y-113681422D01*
X145928300Y-113259453D01*
X145928620Y-112892001D01*
X146218857Y-112686978D01*
X146171700Y-112800547D01*
X146171302Y-113257448D01*
X146345782Y-113679723D01*
X146668578Y-114003083D01*
X147090547Y-114178300D01*
X147547448Y-114178698D01*
X147969723Y-114004218D01*
X148293083Y-113681422D01*
X148468300Y-113259453D01*
X148468698Y-112802552D01*
X148421592Y-112688546D01*
X148928405Y-112169118D01*
X149022529Y-112263242D01*
X148801559Y-112322801D01*
X148611495Y-112781682D01*
X148611505Y-113278366D01*
X148801559Y-113737199D01*
X149022532Y-113796758D01*
X149789289Y-113030000D01*
X149775147Y-113015857D01*
X149845857Y-112945147D01*
X149860000Y-112959289D01*
X150626758Y-112192532D01*
X150567199Y-111971559D01*
X150108318Y-111781495D01*
X149611634Y-111781505D01*
X149152801Y-111971559D01*
X149093242Y-112192529D01*
X148998249Y-112097536D01*
X152655659Y-108349100D01*
X152712355Y-108261947D01*
X152770125Y-108175496D01*
X152939340Y-107767020D01*
X153167307Y-107919343D01*
X153321429Y-107950000D01*
X153167307Y-107980657D01*
X152741145Y-108265410D01*
X152456392Y-108691572D01*
X152356400Y-109194265D01*
X152356400Y-109245735D01*
X152456392Y-109748428D01*
X152741145Y-110174590D01*
X153167307Y-110459343D01*
X153321429Y-110490000D01*
X153167307Y-110520657D01*
X152741145Y-110805410D01*
X152456392Y-111231572D01*
X152356400Y-111734265D01*
X152356400Y-111785735D01*
X152456392Y-112288428D01*
X152741145Y-112714590D01*
X153167307Y-112999343D01*
X153180367Y-113001940D01*
X152880075Y-113127698D01*
X152491584Y-113519225D01*
X152282496Y-114029618D01*
X152394781Y-114250000D01*
X153620000Y-114250000D01*
X153620000Y-114230000D01*
X153720000Y-114230000D01*
X153720000Y-114250000D01*
X153740000Y-114250000D01*
X153740000Y-114350000D01*
X153720000Y-114350000D01*
X153720000Y-115575120D01*
X153940382Y-115687500D01*
X153951175Y-115685357D01*
X154459925Y-115472302D01*
X154848416Y-115080775D01*
X154981814Y-114755142D01*
X154996392Y-114828428D01*
X155281145Y-115254590D01*
X155707307Y-115539343D01*
X156210000Y-115639335D01*
X156712693Y-115539343D01*
X157138855Y-115254590D01*
X157330000Y-114968521D01*
X157330000Y-143629526D01*
X157093318Y-143531495D01*
X156596634Y-143531505D01*
X156240397Y-143679062D01*
X156240397Y-119123414D01*
X156043219Y-118645305D01*
X156040953Y-118641914D01*
X155814632Y-118576079D01*
X155743921Y-118646790D01*
X155743921Y-118505368D01*
X155678086Y-118279047D01*
X155200586Y-118080399D01*
X154683414Y-118079603D01*
X154205305Y-118276781D01*
X154201914Y-118279047D01*
X154136079Y-118505368D01*
X154940000Y-119309289D01*
X155743921Y-118505368D01*
X155743921Y-118646790D01*
X155010711Y-119380000D01*
X155814632Y-120183921D01*
X156040953Y-120118086D01*
X156239601Y-119640586D01*
X156240397Y-119123414D01*
X156240397Y-143679062D01*
X156137801Y-143721559D01*
X156078242Y-143942532D01*
X156845000Y-144709289D01*
X156859142Y-144695147D01*
X156929852Y-144765857D01*
X156915711Y-144780000D01*
X156929853Y-144794142D01*
X156859142Y-144864852D01*
X156845000Y-144850711D01*
X156774289Y-144921421D01*
X156774289Y-144780000D01*
X156007532Y-144013242D01*
X155786559Y-144072801D01*
X155596495Y-144531682D01*
X155596505Y-145028366D01*
X155786559Y-145487199D01*
X156007532Y-145546758D01*
X156774289Y-144780000D01*
X156774289Y-144921421D01*
X156078242Y-145617468D01*
X156137801Y-145838441D01*
X156596682Y-146028505D01*
X157093366Y-146028495D01*
X157330000Y-145930478D01*
X157330000Y-148817812D01*
M02*
