%FSLAX46Y46*%
G04 Gerber Fmt 4.6, Leading zero omitted, Abs format (unit mm)*
G04 Created by KiCad (PCBNEW (2014-08-05 BZR 5054)-product) date vie 12 sep 2014 23:02:48 COT*
%MOMM*%
G01*
G04 APERTURE LIST*
%ADD10C,0.100000*%
%ADD11R,1.727200X1.727200*%
%ADD12O,1.727200X1.727200*%
%ADD13R,0.635000X1.143000*%
%ADD14R,1.397000X1.397000*%
%ADD15C,1.397000*%
%ADD16C,1.500000*%
G04 APERTURE END LIST*
D10*
D11*
X153670000Y-83820000D03*
D12*
X156210000Y-83820000D03*
X153670000Y-86360000D03*
X156210000Y-86360000D03*
X153670000Y-88900000D03*
X156210000Y-88900000D03*
X153670000Y-91440000D03*
X156210000Y-91440000D03*
X153670000Y-93980000D03*
X156210000Y-93980000D03*
X153670000Y-96520000D03*
X156210000Y-96520000D03*
X153670000Y-99060000D03*
X156210000Y-99060000D03*
X153670000Y-101600000D03*
X156210000Y-101600000D03*
X153670000Y-104140000D03*
X156210000Y-104140000D03*
X153670000Y-106680000D03*
X156210000Y-106680000D03*
X153670000Y-109220000D03*
X156210000Y-109220000D03*
X153670000Y-111760000D03*
X156210000Y-111760000D03*
X153670000Y-114300000D03*
X156210000Y-114300000D03*
D13*
X113538000Y-143510000D03*
X115062000Y-143510000D03*
X108077000Y-143510000D03*
X106553000Y-143510000D03*
X111887000Y-143510000D03*
X110363000Y-143510000D03*
X104902000Y-143510000D03*
X103378000Y-143510000D03*
D14*
X139065000Y-146685000D03*
D15*
X141605000Y-146685000D03*
X144145000Y-146685000D03*
D14*
X130175000Y-146685000D03*
D15*
X132715000Y-146685000D03*
X135255000Y-146685000D03*
X156845000Y-144780000D03*
X156845000Y-149860000D03*
X149225000Y-144780000D03*
X149225000Y-149860000D03*
D16*
X103505000Y-119380000D03*
X106045000Y-119380000D03*
X108585000Y-119380000D03*
X111125000Y-119380000D03*
X113665000Y-119380000D03*
X116205000Y-119380000D03*
X118745000Y-119380000D03*
X121285000Y-119380000D03*
X123825000Y-119380000D03*
X126365000Y-119380000D03*
X126365000Y-121920000D03*
X126365000Y-124460000D03*
X126365000Y-127000000D03*
X126365000Y-129540000D03*
X126365000Y-132080000D03*
X126365000Y-134620000D03*
X126365000Y-137160000D03*
X126365000Y-139700000D03*
X123825000Y-139700000D03*
X121285000Y-139700000D03*
X118745000Y-139700000D03*
X116205000Y-139700000D03*
X113665000Y-139700000D03*
X111125000Y-139700000D03*
X108585000Y-139700000D03*
X106045000Y-139700000D03*
X103505000Y-139700000D03*
X123825000Y-86360000D03*
X123825000Y-88900000D03*
X123825000Y-91440000D03*
X123825000Y-93980000D03*
X123825000Y-96520000D03*
X123825000Y-99060000D03*
X123825000Y-101600000D03*
X123825000Y-104140000D03*
X123825000Y-106680000D03*
X123825000Y-109220000D03*
X121285000Y-109220000D03*
X118745000Y-109220000D03*
X116205000Y-109220000D03*
X113665000Y-109220000D03*
X111125000Y-109220000D03*
X108585000Y-109220000D03*
X106045000Y-109220000D03*
X103505000Y-109220000D03*
X103505000Y-106680000D03*
X103505000Y-104140000D03*
X103505000Y-101600000D03*
X103505000Y-99060000D03*
X103505000Y-96520000D03*
X103505000Y-93980000D03*
X103505000Y-91440000D03*
X103505000Y-88900000D03*
X103505000Y-86360000D03*
X149860000Y-86360000D03*
X149860000Y-88900000D03*
X149860000Y-91440000D03*
X149860000Y-93980000D03*
X149860000Y-96520000D03*
X149860000Y-99060000D03*
X149860000Y-101600000D03*
X149860000Y-104140000D03*
X149860000Y-106680000D03*
X149860000Y-109220000D03*
X147320000Y-109220000D03*
X144780000Y-109220000D03*
X142240000Y-109220000D03*
X139700000Y-109220000D03*
X137160000Y-109220000D03*
X134620000Y-109220000D03*
X132080000Y-109220000D03*
X129540000Y-109220000D03*
X129540000Y-106680000D03*
X129540000Y-104140000D03*
X129540000Y-101600000D03*
X129540000Y-99060000D03*
X129540000Y-96520000D03*
X129540000Y-93980000D03*
X129540000Y-91440000D03*
X129540000Y-88900000D03*
X129540000Y-86360000D03*
X154940000Y-139700000D03*
X152400000Y-139700000D03*
X149860000Y-139700000D03*
X147320000Y-139700000D03*
X144780000Y-139700000D03*
X142240000Y-139700000D03*
X139700000Y-139700000D03*
X137160000Y-139700000D03*
X134620000Y-139700000D03*
X132080000Y-139700000D03*
X132080000Y-137160000D03*
X132080000Y-134620000D03*
X132080000Y-132080000D03*
X132080000Y-129540000D03*
X132080000Y-127000000D03*
X132080000Y-124460000D03*
X132080000Y-121920000D03*
X132080000Y-119380000D03*
X134620000Y-119380000D03*
X137160000Y-119380000D03*
X139700000Y-119380000D03*
X142240000Y-119380000D03*
X144780000Y-119380000D03*
X147320000Y-119380000D03*
X149860000Y-119380000D03*
X152400000Y-119380000D03*
X154940000Y-119380000D03*
M02*
