%FSLAX46Y46*%
G04 Gerber Fmt 4.6, Leading zero omitted, Abs format (unit mm)*
G04 Created by KiCad (PCBNEW (2014-08-05 BZR 5054)-product) date vie 12 sep 2014 23:02:48 COT*
%MOMM*%
G01*
G04 APERTURE LIST*
%ADD10C,0.100000*%
%ADD11R,1.727200X1.727200*%
%ADD12O,1.727200X1.727200*%
%ADD13R,2.032000X1.524000*%
%ADD14R,0.635000X1.143000*%
%ADD15R,1.143000X0.635000*%
%ADD16R,2.032000X3.657600*%
%ADD17R,2.032000X1.016000*%
%ADD18R,0.299720X1.300480*%
%ADD19R,1.397000X1.397000*%
%ADD20C,1.397000*%
%ADD21C,1.500000*%
G04 APERTURE END LIST*
D10*
D11*
X153670000Y-83820000D03*
D12*
X156210000Y-83820000D03*
X153670000Y-86360000D03*
X156210000Y-86360000D03*
X153670000Y-88900000D03*
X156210000Y-88900000D03*
X153670000Y-91440000D03*
X156210000Y-91440000D03*
X153670000Y-93980000D03*
X156210000Y-93980000D03*
X153670000Y-96520000D03*
X156210000Y-96520000D03*
X153670000Y-99060000D03*
X156210000Y-99060000D03*
X153670000Y-101600000D03*
X156210000Y-101600000D03*
X153670000Y-104140000D03*
X156210000Y-104140000D03*
X153670000Y-106680000D03*
X156210000Y-106680000D03*
X153670000Y-109220000D03*
X156210000Y-109220000D03*
X153670000Y-111760000D03*
X156210000Y-111760000D03*
X153670000Y-114300000D03*
X156210000Y-114300000D03*
D13*
X132715000Y-88011000D03*
X132715000Y-84709000D03*
D14*
X134112000Y-90805000D03*
X132588000Y-90805000D03*
D13*
X147238000Y-89984400D03*
X147238000Y-86682400D03*
D15*
X147190000Y-83130200D03*
X147190000Y-84654200D03*
D16*
X136398000Y-86995000D03*
D17*
X143002000Y-86995000D03*
X143002000Y-89281000D03*
X143002000Y-84709000D03*
D14*
X140462000Y-99695000D03*
X138938000Y-99695000D03*
D15*
X147320000Y-93218000D03*
X147320000Y-94742000D03*
D18*
X145440400Y-99314000D03*
X144805400Y-99314000D03*
X144145000Y-99314000D03*
X143510000Y-99314000D03*
X142849600Y-99314000D03*
X142201900Y-99314000D03*
X141554200Y-99314000D03*
X141554200Y-93726000D03*
X142201900Y-93726000D03*
X142849600Y-93726000D03*
X143510000Y-93726000D03*
X144157700Y-93726000D03*
X144805400Y-93726000D03*
X145453100Y-93726000D03*
D14*
X149098000Y-112395000D03*
X150622000Y-112395000D03*
X139192000Y-93980000D03*
X137668000Y-93980000D03*
X137668000Y-97790000D03*
X139192000Y-97790000D03*
X137668000Y-95885000D03*
X139192000Y-95885000D03*
D18*
X141579600Y-111506000D03*
X142214600Y-111506000D03*
X142875000Y-111506000D03*
X143510000Y-111506000D03*
X144170400Y-111506000D03*
X144818100Y-111506000D03*
X145465800Y-111506000D03*
X145465800Y-117094000D03*
X144818100Y-117094000D03*
X144170400Y-117094000D03*
X143510000Y-117094000D03*
X142862300Y-117094000D03*
X142214600Y-117094000D03*
X141566900Y-117094000D03*
D19*
X139065000Y-146685000D03*
D20*
X141605000Y-146685000D03*
X144145000Y-146685000D03*
D19*
X130175000Y-146685000D03*
D20*
X132715000Y-146685000D03*
X135255000Y-146685000D03*
D14*
X153162000Y-142875000D03*
X151638000Y-142875000D03*
D20*
X156845000Y-144780000D03*
X156845000Y-149860000D03*
X149225000Y-144780000D03*
X149225000Y-149860000D03*
D21*
X103505000Y-119380000D03*
X106045000Y-119380000D03*
X108585000Y-119380000D03*
X111125000Y-119380000D03*
X113665000Y-119380000D03*
X116205000Y-119380000D03*
X118745000Y-119380000D03*
X121285000Y-119380000D03*
X123825000Y-119380000D03*
X126365000Y-119380000D03*
X126365000Y-121920000D03*
X126365000Y-124460000D03*
X126365000Y-127000000D03*
X126365000Y-129540000D03*
X126365000Y-132080000D03*
X126365000Y-134620000D03*
X126365000Y-137160000D03*
X126365000Y-139700000D03*
X123825000Y-139700000D03*
X121285000Y-139700000D03*
X118745000Y-139700000D03*
X116205000Y-139700000D03*
X113665000Y-139700000D03*
X111125000Y-139700000D03*
X108585000Y-139700000D03*
X106045000Y-139700000D03*
X103505000Y-139700000D03*
X123825000Y-86360000D03*
X123825000Y-88900000D03*
X123825000Y-91440000D03*
X123825000Y-93980000D03*
X123825000Y-96520000D03*
X123825000Y-99060000D03*
X123825000Y-101600000D03*
X123825000Y-104140000D03*
X123825000Y-106680000D03*
X123825000Y-109220000D03*
X121285000Y-109220000D03*
X118745000Y-109220000D03*
X116205000Y-109220000D03*
X113665000Y-109220000D03*
X111125000Y-109220000D03*
X108585000Y-109220000D03*
X106045000Y-109220000D03*
X103505000Y-109220000D03*
X103505000Y-106680000D03*
X103505000Y-104140000D03*
X103505000Y-101600000D03*
X103505000Y-99060000D03*
X103505000Y-96520000D03*
X103505000Y-93980000D03*
X103505000Y-91440000D03*
X103505000Y-88900000D03*
X103505000Y-86360000D03*
X149860000Y-86360000D03*
X149860000Y-88900000D03*
X149860000Y-91440000D03*
X149860000Y-93980000D03*
X149860000Y-96520000D03*
X149860000Y-99060000D03*
X149860000Y-101600000D03*
X149860000Y-104140000D03*
X149860000Y-106680000D03*
X149860000Y-109220000D03*
X147320000Y-109220000D03*
X144780000Y-109220000D03*
X142240000Y-109220000D03*
X139700000Y-109220000D03*
X137160000Y-109220000D03*
X134620000Y-109220000D03*
X132080000Y-109220000D03*
X129540000Y-109220000D03*
X129540000Y-106680000D03*
X129540000Y-104140000D03*
X129540000Y-101600000D03*
X129540000Y-99060000D03*
X129540000Y-96520000D03*
X129540000Y-93980000D03*
X129540000Y-91440000D03*
X129540000Y-88900000D03*
X129540000Y-86360000D03*
X154940000Y-139700000D03*
X152400000Y-139700000D03*
X149860000Y-139700000D03*
X147320000Y-139700000D03*
X144780000Y-139700000D03*
X142240000Y-139700000D03*
X139700000Y-139700000D03*
X137160000Y-139700000D03*
X134620000Y-139700000D03*
X132080000Y-139700000D03*
X132080000Y-137160000D03*
X132080000Y-134620000D03*
X132080000Y-132080000D03*
X132080000Y-129540000D03*
X132080000Y-127000000D03*
X132080000Y-124460000D03*
X132080000Y-121920000D03*
X132080000Y-119380000D03*
X134620000Y-119380000D03*
X137160000Y-119380000D03*
X139700000Y-119380000D03*
X142240000Y-119380000D03*
X144780000Y-119380000D03*
X147320000Y-119380000D03*
X149860000Y-119380000D03*
X152400000Y-119380000D03*
X154940000Y-119380000D03*
M02*
