%FSLAX46Y46*%
G04 Gerber Fmt 4.6, Leading zero omitted, Abs format (unit mm)*
G04 Created by KiCad (PCBNEW (2014-08-05 BZR 5054)-product) date vie 12 sep 2014 23:02:48 COT*
%MOMM*%
G01*
G04 APERTURE LIST*
%ADD10C,0.100000*%
%ADD11R,1.727200X1.727200*%
%ADD12O,1.727200X1.727200*%
%ADD13R,0.635000X1.143000*%
%ADD14R,1.397000X1.397000*%
%ADD15C,1.397000*%
%ADD16C,1.500000*%
%ADD17C,0.800000*%
%ADD18C,0.400000*%
%ADD19C,0.200000*%
%ADD20C,0.300000*%
G04 APERTURE END LIST*
D10*
D11*
X153670000Y-83820000D03*
D12*
X156210000Y-83820000D03*
X153670000Y-86360000D03*
X156210000Y-86360000D03*
X153670000Y-88900000D03*
X156210000Y-88900000D03*
X153670000Y-91440000D03*
X156210000Y-91440000D03*
X153670000Y-93980000D03*
X156210000Y-93980000D03*
X153670000Y-96520000D03*
X156210000Y-96520000D03*
X153670000Y-99060000D03*
X156210000Y-99060000D03*
X153670000Y-101600000D03*
X156210000Y-101600000D03*
X153670000Y-104140000D03*
X156210000Y-104140000D03*
X153670000Y-106680000D03*
X156210000Y-106680000D03*
X153670000Y-109220000D03*
X156210000Y-109220000D03*
X153670000Y-111760000D03*
X156210000Y-111760000D03*
X153670000Y-114300000D03*
X156210000Y-114300000D03*
D13*
X113538000Y-143510000D03*
X115062000Y-143510000D03*
X108077000Y-143510000D03*
X106553000Y-143510000D03*
X111887000Y-143510000D03*
X110363000Y-143510000D03*
X104902000Y-143510000D03*
X103378000Y-143510000D03*
D14*
X139065000Y-146685000D03*
D15*
X141605000Y-146685000D03*
X144145000Y-146685000D03*
D14*
X130175000Y-146685000D03*
D15*
X132715000Y-146685000D03*
X135255000Y-146685000D03*
X156845000Y-144780000D03*
X156845000Y-149860000D03*
X149225000Y-144780000D03*
X149225000Y-149860000D03*
D16*
X103505000Y-119380000D03*
X106045000Y-119380000D03*
X108585000Y-119380000D03*
X111125000Y-119380000D03*
X113665000Y-119380000D03*
X116205000Y-119380000D03*
X118745000Y-119380000D03*
X121285000Y-119380000D03*
X123825000Y-119380000D03*
X126365000Y-119380000D03*
X126365000Y-121920000D03*
X126365000Y-124460000D03*
X126365000Y-127000000D03*
X126365000Y-129540000D03*
X126365000Y-132080000D03*
X126365000Y-134620000D03*
X126365000Y-137160000D03*
X126365000Y-139700000D03*
X123825000Y-139700000D03*
X121285000Y-139700000D03*
X118745000Y-139700000D03*
X116205000Y-139700000D03*
X113665000Y-139700000D03*
X111125000Y-139700000D03*
X108585000Y-139700000D03*
X106045000Y-139700000D03*
X103505000Y-139700000D03*
X123825000Y-86360000D03*
X123825000Y-88900000D03*
X123825000Y-91440000D03*
X123825000Y-93980000D03*
X123825000Y-96520000D03*
X123825000Y-99060000D03*
X123825000Y-101600000D03*
X123825000Y-104140000D03*
X123825000Y-106680000D03*
X123825000Y-109220000D03*
X121285000Y-109220000D03*
X118745000Y-109220000D03*
X116205000Y-109220000D03*
X113665000Y-109220000D03*
X111125000Y-109220000D03*
X108585000Y-109220000D03*
X106045000Y-109220000D03*
X103505000Y-109220000D03*
X103505000Y-106680000D03*
X103505000Y-104140000D03*
X103505000Y-101600000D03*
X103505000Y-99060000D03*
X103505000Y-96520000D03*
X103505000Y-93980000D03*
X103505000Y-91440000D03*
X103505000Y-88900000D03*
X103505000Y-86360000D03*
X149860000Y-86360000D03*
X149860000Y-88900000D03*
X149860000Y-91440000D03*
X149860000Y-93980000D03*
X149860000Y-96520000D03*
X149860000Y-99060000D03*
X149860000Y-101600000D03*
X149860000Y-104140000D03*
X149860000Y-106680000D03*
X149860000Y-109220000D03*
X147320000Y-109220000D03*
X144780000Y-109220000D03*
X142240000Y-109220000D03*
X139700000Y-109220000D03*
X137160000Y-109220000D03*
X134620000Y-109220000D03*
X132080000Y-109220000D03*
X129540000Y-109220000D03*
X129540000Y-106680000D03*
X129540000Y-104140000D03*
X129540000Y-101600000D03*
X129540000Y-99060000D03*
X129540000Y-96520000D03*
X129540000Y-93980000D03*
X129540000Y-91440000D03*
X129540000Y-88900000D03*
X129540000Y-86360000D03*
X154940000Y-139700000D03*
X152400000Y-139700000D03*
X149860000Y-139700000D03*
X147320000Y-139700000D03*
X144780000Y-139700000D03*
X142240000Y-139700000D03*
X139700000Y-139700000D03*
X137160000Y-139700000D03*
X134620000Y-139700000D03*
X132080000Y-139700000D03*
X132080000Y-137160000D03*
X132080000Y-134620000D03*
X132080000Y-132080000D03*
X132080000Y-129540000D03*
X132080000Y-127000000D03*
X132080000Y-124460000D03*
X132080000Y-121920000D03*
X132080000Y-119380000D03*
X134620000Y-119380000D03*
X137160000Y-119380000D03*
X139700000Y-119380000D03*
X142240000Y-119380000D03*
X144780000Y-119380000D03*
X147320000Y-119380000D03*
X149860000Y-119380000D03*
X152400000Y-119380000D03*
X154940000Y-119380000D03*
D17*
X141012400Y-112732100D03*
X142738400Y-106683400D03*
X141715400Y-97322200D03*
X139024400Y-92207500D03*
X113581900Y-142238500D03*
X129936800Y-122407300D03*
X143036100Y-112856200D03*
X128324900Y-122019200D03*
X129508300Y-116931100D03*
X137817400Y-105803200D03*
X136206400Y-105973200D03*
X130262900Y-117732200D03*
X137532200Y-104191500D03*
X137616600Y-103087700D03*
X141970000Y-113346700D03*
X139749100Y-102247700D03*
X126847600Y-113334800D03*
X109880400Y-113588800D03*
X110947200Y-116890800D03*
X117144800Y-137820400D03*
X113792000Y-121869200D03*
X136144000Y-94996000D03*
X131064000Y-95504000D03*
X131572000Y-98552000D03*
X102108000Y-114300000D03*
X101600000Y-132080000D03*
X101600000Y-138176000D03*
X101600000Y-143764000D03*
X148844000Y-147828000D03*
X154432000Y-146304000D03*
X155448000Y-121920000D03*
X109220000Y-145288000D03*
X149860300Y-113512300D03*
X148531600Y-95412900D03*
X133349700Y-91922300D03*
X137219500Y-100230000D03*
X138650100Y-116039900D03*
X144812600Y-91360700D03*
X142659500Y-92375300D03*
X146329000Y-116745900D03*
X147811700Y-113809400D03*
X143711600Y-91118600D03*
D18*
X139024400Y-92207500D02*
X141715400Y-97322200D01*
X141069500Y-113719700D02*
X141012400Y-112732100D01*
X141597000Y-114247200D02*
X141069500Y-113719700D01*
X145956000Y-117646400D02*
X141597000Y-114247200D01*
X150378000Y-118129500D02*
X145956000Y-117646400D01*
X151110500Y-118862000D02*
X150378000Y-118129500D01*
X151149500Y-119898000D02*
X151110500Y-118862000D01*
X154940000Y-139700000D02*
X151149500Y-119898000D01*
X143490500Y-109738000D02*
X141012400Y-112732100D01*
X143490500Y-108702000D02*
X143490500Y-109738000D01*
X142738400Y-106683400D02*
X143490500Y-108702000D01*
X107295500Y-139182000D02*
X103505000Y-119380000D01*
X107334500Y-140218000D02*
X107295500Y-139182000D01*
X108077000Y-142807000D02*
X107334500Y-140218000D01*
X108077000Y-142938500D02*
X108077000Y-142807000D01*
X108077000Y-143138500D02*
X108077000Y-142938500D01*
X108077000Y-143510000D02*
X108077000Y-143138500D01*
X141491900Y-96897400D02*
X141837500Y-97163700D01*
X141491900Y-96897400D02*
X141515700Y-97333100D01*
X139247900Y-92632300D02*
X138902300Y-92366000D01*
X139247900Y-92632300D02*
X139224100Y-92196600D01*
X141040100Y-113211300D02*
X140835700Y-112825800D01*
X141040100Y-113211300D02*
X141198700Y-112804800D01*
X154708800Y-138491900D02*
X155377000Y-139365900D01*
X154708800Y-138491900D02*
X154410600Y-139550900D01*
X141318400Y-112362300D02*
X141205600Y-112783800D01*
X141318400Y-112362300D02*
X140925400Y-112552000D01*
X142906000Y-107133200D02*
X142597100Y-106825000D01*
X142906000Y-107133200D02*
X142937900Y-106698000D01*
X103736200Y-120588100D02*
X103068000Y-119714100D01*
X103736200Y-120588100D02*
X104034400Y-119529100D01*
X104023000Y-105390500D02*
X123825000Y-88900000D01*
X102987000Y-105429500D02*
X104023000Y-105390500D01*
X102254500Y-106162000D02*
X102987000Y-105429500D01*
X101754000Y-108600400D02*
X102254500Y-106162000D01*
X101754000Y-109839600D02*
X101754000Y-108600400D01*
X101828800Y-110020000D02*
X101754000Y-109839600D01*
X106045000Y-119380000D02*
X101828800Y-110020000D01*
X113538000Y-142807000D02*
X113581900Y-142238500D01*
X113538000Y-142938500D02*
X113538000Y-142807000D01*
X113538000Y-143138500D02*
X113538000Y-142938500D01*
X113538000Y-143510000D02*
X113538000Y-143138500D01*
X122879800Y-89687100D02*
X123321200Y-88679400D01*
X122879800Y-89687100D02*
X123950800Y-89435400D01*
X105539800Y-118258500D02*
X106392600Y-118953700D01*
X105539800Y-118258500D02*
X105495400Y-119357900D01*
X113544900Y-142717100D02*
X113394200Y-142307600D01*
X113544900Y-142717100D02*
X113756800Y-142335600D01*
D19*
X102354500Y-109696600D02*
X108585000Y-119380000D01*
X102354500Y-108743400D02*
X102354500Y-109696600D01*
X103028400Y-108069500D02*
X102354500Y-108743400D01*
X103981600Y-107830500D02*
X103028400Y-108069500D01*
X123825000Y-91440000D02*
X103981600Y-107830500D01*
X129063400Y-90289500D02*
X123825000Y-91440000D01*
X130016600Y-90289500D02*
X129063400Y-90289500D01*
X133018100Y-92722800D02*
X130016600Y-90289500D01*
X133681300Y-92722800D02*
X133018100Y-92722800D01*
X138494300Y-90906500D02*
X133681300Y-92722800D01*
X139554500Y-90906500D02*
X138494300Y-90906500D01*
X142991100Y-91574800D02*
X139554500Y-90906500D01*
X143380000Y-91919100D02*
X142991100Y-91574800D01*
X144481000Y-92161200D02*
X143380000Y-91919100D01*
X145144200Y-92161200D02*
X144481000Y-92161200D01*
X149860000Y-91440000D02*
X145144200Y-92161200D01*
X108049300Y-118547400D02*
X108766400Y-118755800D01*
X108049300Y-118547400D02*
X107941800Y-119286400D01*
X123061700Y-92070500D02*
X123183800Y-91333800D01*
X123061700Y-92070500D02*
X123808200Y-92089800D01*
X124792000Y-91227600D02*
X124347100Y-91827300D01*
X124792000Y-91227600D02*
X124136700Y-90869500D01*
X148881400Y-91589700D02*
X149364000Y-91019900D01*
X148881400Y-91589700D02*
X149512200Y-91989100D01*
X107434500Y-109696600D02*
X111125000Y-119380000D01*
X107434500Y-108743400D02*
X107434500Y-109696600D01*
X108108400Y-108069500D02*
X107434500Y-108743400D01*
X123825000Y-93980000D02*
X108108400Y-108069500D01*
X129063400Y-92829500D02*
X123825000Y-93980000D01*
X130016600Y-92829500D02*
X129063400Y-92829500D01*
X132819600Y-93223300D02*
X130016600Y-92829500D01*
X133879800Y-93223300D02*
X132819600Y-93223300D01*
X138692800Y-91407000D02*
X133879800Y-93223300D01*
X139356000Y-91407000D02*
X138692800Y-91407000D01*
X142327900Y-93175800D02*
X139356000Y-91407000D01*
X149860000Y-93980000D02*
X142327900Y-93175800D01*
X109974500Y-139223400D02*
X111125000Y-119380000D01*
X109974500Y-140176600D02*
X109974500Y-139223400D01*
X110648400Y-140850500D02*
X109974500Y-140176600D01*
X113065300Y-141351000D02*
X110648400Y-140850500D01*
X113913500Y-141438000D02*
X113065300Y-141351000D01*
X115505800Y-141851500D02*
X113913500Y-141438000D01*
X120386600Y-142852500D02*
X115505800Y-141851500D01*
X122827100Y-143353000D02*
X120386600Y-142852500D01*
X124822900Y-143353000D02*
X122827100Y-143353000D01*
X145256600Y-140850500D02*
X124822900Y-143353000D01*
X147320000Y-139700000D02*
X145256600Y-140850500D01*
X110772400Y-118454900D02*
X111431100Y-118806600D01*
X110772400Y-118454900D02*
X110514900Y-119155800D01*
X123087800Y-94640800D02*
X123180000Y-93899800D01*
X123087800Y-94640800D02*
X123834400Y-94630000D01*
X124792000Y-93767600D02*
X124347100Y-94367300D01*
X124792000Y-93767600D02*
X124136700Y-93409500D01*
X148875600Y-93874900D02*
X149487600Y-93447200D01*
X148875600Y-93874900D02*
X149383600Y-94422200D01*
X111067700Y-120368300D02*
X110610900Y-119777600D01*
X111067700Y-120368300D02*
X111589700Y-119834400D01*
X146455300Y-140182100D02*
X146708500Y-139479600D01*
X146455300Y-140182100D02*
X147185900Y-140336000D01*
X112514500Y-109696600D02*
X113665000Y-119380000D01*
X112514500Y-108743400D02*
X112514500Y-109696600D01*
X123825000Y-96520000D02*
X112514500Y-108743400D01*
X129063400Y-97670500D02*
X123825000Y-96520000D01*
X137948700Y-97928000D02*
X129063400Y-97670500D01*
X141383800Y-98122700D02*
X137948700Y-97928000D01*
X142047000Y-98122700D02*
X141383800Y-98122700D01*
X149860000Y-96520000D02*
X142047000Y-98122700D01*
X113548200Y-118396900D02*
X114101600Y-118898400D01*
X113548200Y-118396900D02*
X113127800Y-119014000D01*
X123152600Y-97246600D02*
X123175300Y-96500200D01*
X123152600Y-97246600D02*
X123894900Y-97166200D01*
X124792000Y-96732400D02*
X124136700Y-97090500D01*
X124792000Y-96732400D02*
X124347100Y-96132700D01*
X148890200Y-96718900D02*
X149343400Y-96125400D01*
X148890200Y-96718900D02*
X149540400Y-97086000D01*
X115054500Y-109696600D02*
X116205000Y-119380000D01*
X115054500Y-108743400D02*
X115054500Y-109696600D01*
X123825000Y-99060000D02*
X115054500Y-108743400D01*
X129063400Y-100210500D02*
X123825000Y-99060000D01*
X130016600Y-100210500D02*
X129063400Y-100210500D01*
X136589900Y-98428500D02*
X130016600Y-100210500D01*
X137849100Y-98428500D02*
X136589900Y-98428500D01*
X141185300Y-98623200D02*
X137849100Y-98428500D01*
X149860000Y-99060000D02*
X141185300Y-98623200D01*
X116088200Y-118396900D02*
X116641600Y-118898400D01*
X116088200Y-118396900D02*
X115667800Y-119014000D01*
X123160400Y-99793800D02*
X123175100Y-99047200D01*
X123160400Y-99793800D02*
X123901900Y-99705400D01*
X124792000Y-99272400D02*
X124136700Y-99630500D01*
X124792000Y-99272400D02*
X124347100Y-98672700D01*
X148871300Y-99010200D02*
X149458500Y-98548900D01*
X148871300Y-99010200D02*
X149409100Y-99528100D01*
X127515500Y-124936600D02*
X129936800Y-122407300D01*
X126841600Y-125610500D02*
X127515500Y-124936600D01*
X125888400Y-125610500D02*
X126841600Y-125610500D01*
X120541600Y-120971500D02*
X125888400Y-125610500D01*
X118745000Y-119380000D02*
X120541600Y-120971500D01*
X147796600Y-110370500D02*
X143036100Y-112856200D01*
X148470500Y-109696600D02*
X147796600Y-110370500D01*
X148709500Y-103663400D02*
X148470500Y-109696600D01*
X149860000Y-101600000D02*
X148709500Y-103663400D01*
X117594500Y-108743400D02*
X123825000Y-101600000D01*
X117594500Y-109696600D02*
X117594500Y-108743400D01*
X118745000Y-119380000D02*
X117594500Y-109696600D01*
X129494200Y-122869600D02*
X129648100Y-122325600D01*
X129494200Y-122869600D02*
X130030900Y-122692200D01*
X119486100Y-120036500D02*
X118739400Y-120030000D01*
X119486100Y-120036500D02*
X119389600Y-119296000D01*
X143603400Y-112560000D02*
X143283400Y-113026000D01*
X143603400Y-112560000D02*
X143038200Y-112556200D01*
X149377900Y-102464700D02*
X149224000Y-101734100D01*
X149377900Y-102464700D02*
X150080400Y-102211500D01*
X123174300Y-102346100D02*
X123175000Y-101599400D01*
X123174300Y-102346100D02*
X123914000Y-102243800D01*
X118628200Y-118396900D02*
X119181600Y-118898400D01*
X118628200Y-118396900D02*
X118207800Y-119014000D01*
X126841600Y-123070500D02*
X128324900Y-122019200D01*
X125888400Y-123070500D02*
X126841600Y-123070500D01*
X123081600Y-120971500D02*
X125888400Y-123070500D01*
X121285000Y-119380000D02*
X123081600Y-120971500D01*
X122233500Y-105936600D02*
X123825000Y-104140000D01*
X120134500Y-108743400D02*
X122233500Y-105936600D01*
X120134500Y-109696600D02*
X120134500Y-108743400D01*
X121285000Y-119380000D02*
X120134500Y-109696600D01*
X127802700Y-122389300D02*
X128057000Y-121884300D01*
X127802700Y-122389300D02*
X128363400Y-122316700D01*
X122026100Y-120036500D02*
X121279400Y-120030000D01*
X122026100Y-120036500D02*
X121929600Y-119296000D01*
X123168500Y-104881100D02*
X123175000Y-104134400D01*
X123168500Y-104881100D02*
X123909000Y-104784600D01*
X121168200Y-118396900D02*
X121721600Y-118898400D01*
X121168200Y-118396900D02*
X120747800Y-119014000D01*
X122674500Y-108743400D02*
X123825000Y-106680000D01*
X122674500Y-109696600D02*
X122674500Y-108743400D01*
X123825000Y-119380000D02*
X122674500Y-109696600D01*
X127515500Y-119856600D02*
X129508300Y-116931100D01*
X126841600Y-120530500D02*
X127515500Y-119856600D01*
X125888400Y-120530500D02*
X126841600Y-120530500D01*
X123825000Y-119380000D02*
X125888400Y-120530500D01*
X123342900Y-107544700D02*
X123189000Y-106814100D01*
X123342900Y-107544700D02*
X124045400Y-107291500D01*
X123708200Y-118396900D02*
X124261600Y-118898400D01*
X123708200Y-118396900D02*
X123287800Y-119014000D01*
X129148000Y-117460000D02*
X129210100Y-116898100D01*
X129148000Y-117460000D02*
X129648100Y-117196500D01*
X124689700Y-119862100D02*
X123959100Y-120016000D01*
X124689700Y-119862100D02*
X124436500Y-119159600D01*
X123825000Y-109220000D02*
X126365000Y-119380000D01*
X126124900Y-118419600D02*
X126737100Y-118847100D01*
X126124900Y-118419600D02*
X125785900Y-119084900D01*
X124065100Y-110180400D02*
X123452900Y-109752900D01*
X124065100Y-110180400D02*
X124404100Y-109515100D01*
X123348400Y-120530500D02*
X126365000Y-121920000D01*
X122674500Y-119856600D02*
X123348400Y-120530500D01*
X121285000Y-109220000D02*
X122674500Y-119856600D01*
X122674500Y-106203400D02*
X121285000Y-109220000D01*
X123348400Y-105529500D02*
X122674500Y-106203400D01*
X124301600Y-105290500D02*
X123348400Y-105529500D01*
X129063400Y-102989500D02*
X124301600Y-105290500D01*
X130016600Y-102750500D02*
X129063400Y-102989500D01*
X136674400Y-98935200D02*
X130016600Y-102750500D01*
X136689400Y-98929000D02*
X136674400Y-98935200D01*
X137749600Y-98929000D02*
X136689400Y-98929000D01*
X137764600Y-98935200D02*
X137749600Y-98929000D01*
X138514300Y-99684900D02*
X137764600Y-98935200D01*
X144457500Y-105854800D02*
X138514300Y-99684900D01*
X147320000Y-109220000D02*
X144457500Y-105854800D01*
X125465800Y-121505800D02*
X126182500Y-121296100D01*
X125465800Y-121505800D02*
X125772300Y-122186700D01*
X121413200Y-110201700D02*
X120854100Y-109706700D01*
X121413200Y-110201700D02*
X121826500Y-109579700D01*
X121699200Y-108320800D02*
X121908900Y-109037500D01*
X121699200Y-108320800D02*
X121018300Y-108627300D01*
X146678600Y-108465900D02*
X147417000Y-108577300D01*
X146678600Y-108465900D02*
X146670000Y-109212500D01*
X120808400Y-120530500D02*
X126365000Y-124460000D01*
X120134500Y-119856600D02*
X120808400Y-120530500D01*
X118745000Y-109220000D02*
X120134500Y-119856600D01*
X128656500Y-122819700D02*
X126365000Y-124460000D01*
X129125400Y-122350800D02*
X128656500Y-122819700D01*
X129136300Y-122075700D02*
X129125400Y-122350800D01*
X130430000Y-118780500D02*
X129136300Y-122075700D01*
X130489400Y-118637200D02*
X130430000Y-118780500D01*
X131062900Y-118063600D02*
X130489400Y-118637200D01*
X131062900Y-117400800D02*
X131062900Y-118063600D01*
X130809300Y-116401000D02*
X131062900Y-117400800D01*
X130803100Y-116386000D02*
X130809300Y-116401000D01*
X127948500Y-109963400D02*
X130803100Y-116386000D01*
X127889000Y-109819700D02*
X127948500Y-109963400D01*
X127889000Y-108620300D02*
X127889000Y-109819700D01*
X128389500Y-106203400D02*
X127889000Y-108620300D01*
X129063400Y-105529500D02*
X128389500Y-106203400D01*
X130016600Y-105290500D02*
X129063400Y-105529500D01*
X133351700Y-102437100D02*
X130016600Y-105290500D01*
X136887900Y-99429500D02*
X133351700Y-102437100D01*
X137551100Y-99429500D02*
X136887900Y-99429500D01*
X138020000Y-99898400D02*
X137551100Y-99429500D01*
X138948600Y-102579300D02*
X138020000Y-99898400D01*
X139417500Y-103048200D02*
X138948600Y-102579300D01*
X143070000Y-105882900D02*
X139417500Y-103048200D01*
X143538900Y-106351800D02*
X143070000Y-105882900D01*
X144780000Y-109220000D02*
X143538900Y-106351800D01*
X125556700Y-123888400D02*
X126299700Y-123813300D01*
X125556700Y-123888400D02*
X125733500Y-124613900D01*
X118873200Y-110201700D02*
X118314100Y-109706700D01*
X118873200Y-110201700D02*
X119286500Y-109579700D01*
X127170000Y-123883800D02*
X126997300Y-124610300D01*
X127170000Y-123883800D02*
X126426700Y-123812900D01*
X144386800Y-108311400D02*
X145060500Y-108633600D01*
X144386800Y-108311400D02*
X144160500Y-109023000D01*
X118268400Y-120530500D02*
X126365000Y-127000000D01*
X117594500Y-119856600D02*
X118268400Y-120530500D01*
X116205000Y-109220000D02*
X117594500Y-119856600D01*
X125591600Y-126382000D02*
X126337700Y-126350600D01*
X125591600Y-126382000D02*
X125725500Y-127116600D01*
X116333200Y-110201700D02*
X115774100Y-109706700D01*
X116333200Y-110201700D02*
X116746500Y-109579700D01*
X140850500Y-119856600D02*
X132080000Y-129540000D01*
X140850500Y-118903400D02*
X140850500Y-119856600D01*
X140451600Y-115410300D02*
X140850500Y-118903400D01*
X139968500Y-114016100D02*
X140451600Y-115410300D01*
X139711400Y-113262200D02*
X139968500Y-114016100D01*
X139700000Y-109220000D02*
X139711400Y-113262200D01*
X115728400Y-120530500D02*
X126365000Y-129540000D01*
X115054500Y-119856600D02*
X115728400Y-120530500D01*
X113665000Y-109220000D02*
X115054500Y-119856600D01*
X132744600Y-128806200D02*
X132729900Y-129552800D01*
X132744600Y-128806200D02*
X132003100Y-128894600D01*
X139702800Y-110210000D02*
X139210900Y-109648200D01*
X139702800Y-110210000D02*
X140191500Y-109645400D01*
X125609600Y-128900100D02*
X126356300Y-128890100D01*
X125609600Y-128900100D02*
X125722500Y-129638300D01*
X113793200Y-110201700D02*
X113234100Y-109706700D01*
X113793200Y-110201700D02*
X114206500Y-109579700D01*
X137160000Y-109220000D02*
X137817400Y-105803200D01*
X139450600Y-115708300D02*
X137160000Y-109220000D01*
X139450600Y-116371500D02*
X139450600Y-115708300D01*
X138549500Y-118903400D02*
X139450600Y-116371500D01*
X138310500Y-119856600D02*
X138549500Y-118903400D01*
X133671500Y-125203400D02*
X138310500Y-119856600D01*
X132080000Y-127000000D02*
X133671500Y-125203400D01*
X137696500Y-106431700D02*
X137530600Y-105891200D01*
X137696500Y-106431700D02*
X138051000Y-105991400D01*
X137347000Y-108247800D02*
X137722100Y-108893500D01*
X137347000Y-108247800D02*
X136759100Y-108708300D01*
X137489600Y-110153500D02*
X136839800Y-109785600D01*
X137489600Y-110153500D02*
X137764400Y-109459200D01*
X132736500Y-126258900D02*
X132730000Y-127005600D01*
X132736500Y-126258900D02*
X131996000Y-126355400D01*
X134620000Y-109220000D02*
X136206400Y-105973200D01*
X135770500Y-118903400D02*
X134620000Y-109220000D01*
X135770500Y-119856600D02*
X135770500Y-118903400D01*
X132080000Y-124460000D02*
X135770500Y-119856600D01*
X130488500Y-126256600D02*
X132080000Y-124460000D01*
X130429000Y-126400300D02*
X130488500Y-126256600D01*
X128016000Y-132679700D02*
X130429000Y-126400300D01*
X127956500Y-132823400D02*
X128016000Y-132679700D01*
X126365000Y-134620000D02*
X127956500Y-132823400D01*
X135925400Y-106548200D02*
X135906600Y-105983100D01*
X135925400Y-106548200D02*
X136382800Y-106215900D01*
X135054600Y-108330500D02*
X135247800Y-109051800D01*
X135054600Y-108330500D02*
X134366800Y-108621400D01*
X134736800Y-110203100D02*
X134183400Y-109701600D01*
X134736800Y-110203100D02*
X135157200Y-109586000D01*
X132699200Y-123687600D02*
X132729400Y-124433600D01*
X132699200Y-123687600D02*
X131964400Y-123820400D01*
X131423500Y-125201100D02*
X131430000Y-124454400D01*
X131423500Y-125201100D02*
X132164000Y-125104600D01*
X127021500Y-133878900D02*
X127015000Y-134625600D01*
X127021500Y-133878900D02*
X126281000Y-133975400D01*
X125214500Y-135096600D02*
X126365000Y-137160000D01*
X125214500Y-134143400D02*
X125214500Y-135096600D01*
X125888400Y-133469500D02*
X125214500Y-134143400D01*
X126841600Y-133230500D02*
X125888400Y-133469500D01*
X127515500Y-132556600D02*
X126841600Y-133230500D01*
X129928500Y-126300800D02*
X127515500Y-132556600D01*
X130064200Y-125973100D02*
X129928500Y-126300800D01*
X130929500Y-123983400D02*
X130064200Y-125973100D01*
X132080000Y-121920000D02*
X130929500Y-123983400D01*
X133230500Y-119856600D02*
X132080000Y-121920000D01*
X133230500Y-118903400D02*
X133230500Y-119856600D01*
X132080000Y-109220000D02*
X133230500Y-118903400D01*
X125882900Y-136295300D02*
X126585400Y-136548500D01*
X125882900Y-136295300D02*
X125729000Y-137025900D01*
X131597900Y-122784700D02*
X131444000Y-122054100D01*
X131597900Y-122784700D02*
X132300400Y-122531500D01*
X132562100Y-121055300D02*
X132716000Y-121785900D01*
X132562100Y-121055300D02*
X131859600Y-121308500D01*
X132196800Y-110203100D02*
X131643400Y-109701600D01*
X132196800Y-110203100D02*
X132617200Y-109586000D01*
X132064400Y-117102600D02*
X132080000Y-119380000D01*
X131810300Y-116201900D02*
X132064400Y-117102600D01*
X129540000Y-109220000D02*
X131810300Y-116201900D01*
X132073200Y-118390000D02*
X132567400Y-118949800D01*
X132073200Y-118390000D02*
X131586800Y-118956600D01*
X129846100Y-110161500D02*
X129205700Y-109777500D01*
X129846100Y-110161500D02*
X130138300Y-109474300D01*
X128389500Y-108743400D02*
X129540000Y-106680000D01*
X128389500Y-109696600D02*
X128389500Y-108743400D01*
X131227400Y-116102500D02*
X128389500Y-109696600D01*
X131309800Y-116301500D02*
X131227400Y-116102500D01*
X131562900Y-117202300D02*
X131309800Y-116301500D01*
X131562900Y-118262100D02*
X131562900Y-117202300D01*
X131556800Y-118276800D02*
X131562900Y-118262100D01*
X130930000Y-118903700D02*
X131556800Y-118276800D01*
X130737300Y-122738900D02*
X130930000Y-118903700D01*
X127515500Y-130016600D02*
X130737300Y-122738900D01*
X126841600Y-130690500D02*
X127515500Y-130016600D01*
X125888400Y-130929500D02*
X126841600Y-130690500D01*
X125214500Y-131603400D02*
X125888400Y-130929500D01*
X124714000Y-134020300D02*
X125214500Y-131603400D01*
X123825000Y-139700000D02*
X124714000Y-134020300D01*
X132556600Y-108069500D02*
X129540000Y-106680000D01*
X133230500Y-108743400D02*
X132556600Y-108069500D01*
X134620000Y-119380000D02*
X133230500Y-108743400D01*
X129057900Y-107544700D02*
X128904000Y-106814100D01*
X129057900Y-107544700D02*
X129760400Y-107291500D01*
X123978100Y-138721900D02*
X124375400Y-139354200D01*
X123978100Y-138721900D02*
X123406600Y-139202600D01*
X130439200Y-107094200D02*
X129722500Y-107303900D01*
X130439200Y-107094200D02*
X130132700Y-106413300D01*
X134491800Y-118398300D02*
X135050900Y-118893300D01*
X134491800Y-118398300D02*
X134078500Y-119020300D01*
X123348400Y-140850500D02*
X121285000Y-139700000D01*
X124301600Y-140850500D02*
X123348400Y-140850500D01*
X124975500Y-140176600D02*
X124301600Y-140850500D01*
X125214500Y-139223400D02*
X124975500Y-140176600D01*
X125888400Y-138549500D02*
X125214500Y-139223400D01*
X126841600Y-138310500D02*
X125888400Y-138549500D01*
X127515500Y-137636600D02*
X126841600Y-138310500D01*
X130929500Y-126523400D02*
X127515500Y-137636600D01*
X131603400Y-125849500D02*
X130929500Y-126523400D01*
X132556600Y-125610500D02*
X131603400Y-125849500D01*
X133230500Y-124936600D02*
X132556600Y-125610500D01*
X137160000Y-119380000D02*
X133230500Y-124936600D01*
X127948500Y-105936600D02*
X129540000Y-104140000D01*
X127889000Y-106080300D02*
X127948500Y-105936600D01*
X127388500Y-108520800D02*
X127889000Y-106080300D01*
X127388500Y-109919200D02*
X127388500Y-108520800D01*
X127524200Y-110246900D02*
X127388500Y-109919200D01*
X130308800Y-116599500D02*
X127524200Y-110246900D01*
X130308800Y-117262700D02*
X130308800Y-116599500D01*
X130262900Y-117732200D02*
X130308800Y-117262700D01*
X122149700Y-140182100D02*
X121419100Y-140336000D01*
X122149700Y-140182100D02*
X121896500Y-139479600D01*
X136588400Y-120188300D02*
X136513300Y-119445300D01*
X136588400Y-120188300D02*
X137313900Y-120011500D01*
X128883500Y-104881100D02*
X128890000Y-104134400D01*
X128883500Y-104881100D02*
X129624000Y-104784600D01*
X130308800Y-117262700D02*
X130511900Y-117564800D01*
X130308800Y-117262700D02*
X130051100Y-117519800D01*
X120808400Y-140850500D02*
X118745000Y-139700000D01*
X123225300Y-141351000D02*
X120808400Y-140850500D01*
X124424700Y-141351000D02*
X123225300Y-141351000D01*
X126841600Y-140850500D02*
X124424700Y-141351000D01*
X127515500Y-140176600D02*
X126841600Y-140850500D01*
X130929500Y-129063400D02*
X127515500Y-140176600D01*
X131603400Y-128389500D02*
X130929500Y-129063400D01*
X132556600Y-128150500D02*
X131603400Y-128389500D01*
X133230500Y-127476600D02*
X132556600Y-128150500D01*
X139700000Y-119380000D02*
X133230500Y-127476600D01*
X139951100Y-116570000D02*
X139700000Y-119380000D01*
X139951100Y-115509800D02*
X139951100Y-116570000D01*
X139468000Y-114115700D02*
X139951100Y-115509800D01*
X139210900Y-113361700D02*
X139468000Y-114115700D01*
X138549500Y-109696600D02*
X139210900Y-113361700D01*
X138549500Y-108743400D02*
X138549500Y-109696600D01*
X138617900Y-106134800D02*
X138549500Y-108743400D01*
X138617900Y-105471600D02*
X138617900Y-106134800D01*
X137532200Y-104191500D02*
X138617900Y-105471600D01*
X119609700Y-140182100D02*
X118879100Y-140336000D01*
X119609700Y-140182100D02*
X119356500Y-139479600D01*
X139082000Y-120153400D02*
X139050600Y-119407300D01*
X139082000Y-120153400D02*
X139816600Y-120019500D01*
X139788100Y-118393900D02*
X140226300Y-118998500D01*
X139788100Y-118393900D02*
X139249700Y-118911300D01*
X137946200Y-104679600D02*
X137421100Y-104470100D01*
X137946200Y-104679600D02*
X137825300Y-104127300D01*
X118268400Y-140850500D02*
X116205000Y-139700000D01*
X120685300Y-141351000D02*
X118268400Y-140850500D01*
X123125800Y-141851500D02*
X120685300Y-141351000D01*
X124524200Y-141851500D02*
X123125800Y-141851500D01*
X126964700Y-141351000D02*
X124524200Y-141851500D01*
X127108400Y-141291500D02*
X126964700Y-141351000D01*
X131603400Y-138549500D02*
X127108400Y-141291500D01*
X132556600Y-138310500D02*
X131603400Y-138549500D01*
X133230500Y-137636600D02*
X132556600Y-138310500D01*
X142240000Y-119380000D02*
X133230500Y-137636600D01*
X140952100Y-115310700D02*
X142240000Y-119380000D01*
X140469000Y-113916500D02*
X140952100Y-115310700D01*
X140211900Y-113063700D02*
X140469000Y-113916500D01*
X140211900Y-112400500D02*
X140211900Y-113063700D01*
X140850500Y-109696600D02*
X140211900Y-112400500D01*
X140850500Y-108743400D02*
X140850500Y-109696600D01*
X139112200Y-105258100D02*
X140850500Y-108743400D01*
X138332700Y-103859900D02*
X139112200Y-105258100D01*
X137616600Y-103087700D02*
X138332700Y-103859900D01*
X117069700Y-140182100D02*
X116339100Y-140336000D01*
X117069700Y-140182100D02*
X116816500Y-139479600D01*
X141801900Y-120267800D02*
X141611400Y-119545700D01*
X141801900Y-120267800D02*
X142490800Y-119979700D01*
X141941300Y-118436100D02*
X142578600Y-118825200D01*
X141941300Y-118436100D02*
X141643800Y-119121000D01*
X138051800Y-103557000D02*
X137517900Y-103371000D01*
X138051800Y-103557000D02*
X137906500Y-103010600D01*
X115728400Y-140850500D02*
X113665000Y-139700000D01*
X118145300Y-141351000D02*
X115728400Y-140850500D01*
X123026200Y-142352000D02*
X118145300Y-141351000D01*
X124623800Y-142352000D02*
X123026200Y-142352000D01*
X132556600Y-140850500D02*
X124623800Y-142352000D01*
X133230500Y-140176600D02*
X132556600Y-140850500D01*
X133469500Y-139223400D02*
X133230500Y-140176600D01*
X144780000Y-119380000D02*
X133469500Y-139223400D01*
X112275500Y-118903400D02*
X113665000Y-139700000D01*
X109974500Y-109696600D02*
X112275500Y-118903400D01*
X109974500Y-108743400D02*
X109974500Y-109696600D01*
X110648400Y-108069500D02*
X109974500Y-108743400D01*
X123348400Y-95369500D02*
X110648400Y-108069500D01*
X124301600Y-95369500D02*
X123348400Y-95369500D01*
X129540000Y-96520000D02*
X124301600Y-95369500D01*
X114529700Y-140182100D02*
X113799100Y-140336000D01*
X114529700Y-140182100D02*
X114276500Y-139479600D01*
X144289800Y-120240100D02*
X144142800Y-119508000D01*
X144289800Y-120240100D02*
X144994600Y-119993600D01*
X113599000Y-138712200D02*
X114125700Y-139241500D01*
X113599000Y-138712200D02*
X113147300Y-139306900D01*
X128573000Y-96307600D02*
X129228300Y-95949500D01*
X128573000Y-96307600D02*
X129017900Y-96907300D01*
X113188400Y-140850500D02*
X111125000Y-139700000D01*
X114112000Y-140937500D02*
X113188400Y-140850500D01*
X115605300Y-141351000D02*
X114112000Y-140937500D01*
X122926600Y-142852500D02*
X115605300Y-141351000D01*
X124723400Y-142852500D02*
X122926600Y-142852500D01*
X132679700Y-141351000D02*
X124723400Y-142852500D01*
X135096600Y-140850500D02*
X132679700Y-141351000D01*
X135770500Y-140176600D02*
X135096600Y-140850500D01*
X136009500Y-139223400D02*
X135770500Y-140176600D01*
X147320000Y-119380000D02*
X136009500Y-139223400D01*
X111989700Y-140182100D02*
X111259100Y-140336000D01*
X111989700Y-140182100D02*
X111736500Y-139479600D01*
X146829800Y-120240100D02*
X146682800Y-119508000D01*
X146829800Y-120240100D02*
X147534600Y-119993600D01*
X111081000Y-142772600D02*
X108585000Y-139700000D01*
X111169000Y-144247400D02*
X111081000Y-142772600D01*
X111403600Y-144482000D02*
X111169000Y-144247400D01*
X112847300Y-144982500D02*
X111403600Y-144482000D01*
X113482300Y-144982500D02*
X112847300Y-144982500D01*
X114228700Y-144982500D02*
X113482300Y-144982500D01*
X124885000Y-143853500D02*
X114228700Y-144982500D01*
X145379700Y-141351000D02*
X124885000Y-143853500D01*
X147796600Y-140850500D02*
X145379700Y-141351000D01*
X148470500Y-140176600D02*
X147796600Y-140850500D01*
X149860000Y-119380000D02*
X148470500Y-140176600D01*
X109735500Y-119856600D02*
X108585000Y-139700000D01*
X109735500Y-118903400D02*
X109735500Y-119856600D01*
X104894500Y-109696600D02*
X109735500Y-118903400D01*
X104894500Y-108743400D02*
X104894500Y-109696600D01*
X105568400Y-108069500D02*
X104894500Y-108743400D01*
X123348400Y-92829500D02*
X105568400Y-108069500D01*
X129540000Y-91440000D02*
X123348400Y-92829500D01*
X109209200Y-140468400D02*
X108473600Y-140340300D01*
X109209200Y-140468400D02*
X109234600Y-139722100D01*
X149794000Y-120367800D02*
X149342300Y-119773100D01*
X149794000Y-120367800D02*
X150320700Y-119838500D01*
X108642300Y-138711700D02*
X109099100Y-139302400D01*
X108642300Y-138711700D02*
X108120300Y-139245600D01*
X128574000Y-91656800D02*
X129016200Y-91055100D01*
X128574000Y-91656800D02*
X129231000Y-92011900D01*
X156845000Y-149860000D02*
X149225000Y-149860000D01*
X124301600Y-87749500D02*
X129540000Y-88900000D01*
X123348400Y-87749500D02*
X124301600Y-87749500D01*
X119687400Y-88460900D02*
X123348400Y-87749500D01*
X103505000Y-88900000D02*
X119687400Y-88460900D01*
X142235600Y-112524600D02*
X141970000Y-113346700D01*
X142704500Y-112055700D02*
X142235600Y-112524600D01*
X145256600Y-110370500D02*
X142704500Y-112055700D01*
X145930500Y-109696600D02*
X145256600Y-110370500D01*
X145930500Y-108743400D02*
X145930500Y-109696600D01*
X144033200Y-106138300D02*
X145930500Y-108743400D01*
X143283500Y-105388600D02*
X144033200Y-106138300D01*
X139749100Y-102247700D02*
X143283500Y-105388600D01*
X142704500Y-113656700D02*
X141970000Y-113346700D01*
X143367700Y-113656700D02*
X142704500Y-113656700D01*
X147480100Y-113008900D02*
X143367700Y-113656700D01*
X148143300Y-113008900D02*
X147480100Y-113008900D01*
X148612200Y-113477800D02*
X148143300Y-113008900D01*
X152400000Y-119380000D02*
X148612200Y-113477800D01*
X150163500Y-149860000D02*
X149606700Y-150321000D01*
X150163500Y-149860000D02*
X149606700Y-149399000D01*
X155906500Y-149860000D02*
X156463300Y-149399000D01*
X155906500Y-149860000D02*
X156463300Y-150321000D01*
X128573000Y-88687600D02*
X129228300Y-88329500D01*
X128573000Y-88687600D02*
X129017900Y-89287300D01*
X104494600Y-88873100D02*
X103944900Y-89378500D01*
X104494600Y-88873100D02*
X103918300Y-88398300D01*
X142166800Y-112737700D02*
X142265400Y-113294400D01*
X142166800Y-112737700D02*
X141761000Y-113131400D01*
X140227500Y-102672800D02*
X139678200Y-102539200D01*
X140227500Y-102672800D02*
X140030200Y-102143000D01*
X142559600Y-113595600D02*
X141996500Y-113645500D01*
X142559600Y-113595600D02*
X142202700Y-113157300D01*
X151865300Y-118546800D02*
X152582100Y-118756000D01*
X151865300Y-118546800D02*
X151756900Y-119285600D01*
X110947200Y-116890800D02*
X110947200Y-116789200D01*
X110540800Y-114249200D02*
X109880400Y-113588800D01*
X110540800Y-116382800D02*
X110540800Y-114249200D01*
X110947200Y-116789200D02*
X110540800Y-116382800D01*
X110947200Y-116890800D02*
X110998000Y-116941600D01*
X117144800Y-137820400D02*
X117144800Y-134112000D01*
X113842800Y-121869200D02*
X113792000Y-121869200D01*
X113893600Y-121818400D02*
X113842800Y-121869200D01*
X113893600Y-130860800D02*
X113893600Y-121818400D01*
X117144800Y-134112000D02*
X113893600Y-130860800D01*
X136144000Y-94996000D02*
X135636000Y-95504000D01*
X135636000Y-95504000D02*
X131064000Y-95504000D01*
X103505000Y-139700000D02*
X103124000Y-139700000D01*
X103124000Y-139700000D02*
X101600000Y-138176000D01*
X102108000Y-131572000D02*
X102108000Y-114300000D01*
X101600000Y-132080000D02*
X102108000Y-131572000D01*
X103378000Y-143510000D02*
X101854000Y-143510000D01*
X101854000Y-143510000D02*
X101600000Y-143764000D01*
X149225000Y-144780000D02*
X149225000Y-147447000D01*
X149225000Y-147447000D02*
X148844000Y-147828000D01*
X156845000Y-144780000D02*
X155956000Y-144780000D01*
X155956000Y-144780000D02*
X154432000Y-146304000D01*
X154940000Y-119380000D02*
X154940000Y-121412000D01*
X154940000Y-121412000D02*
X155448000Y-121920000D01*
X110363000Y-143510000D02*
X110363000Y-144145000D01*
X110363000Y-144145000D02*
X109220000Y-145288000D01*
D18*
X153670000Y-93980000D02*
X151061400Y-95719100D01*
X153670000Y-114300000D02*
X151100700Y-112806900D01*
X103495500Y-143881500D02*
X103378000Y-143510000D01*
X103495500Y-144081500D02*
X103495500Y-143881500D01*
X103495500Y-144164300D02*
X103495500Y-144081500D01*
X103612700Y-144281500D02*
X103495500Y-144164300D01*
X104377200Y-144582000D02*
X103612700Y-144281500D01*
X108187200Y-144582000D02*
X104377200Y-144582000D01*
X108601800Y-144582000D02*
X108187200Y-144582000D01*
X109962700Y-143881500D02*
X108601800Y-144582000D01*
X110045500Y-143881500D02*
X109962700Y-143881500D01*
X110245500Y-143881500D02*
X110045500Y-143881500D01*
X110363000Y-143510000D02*
X110245500Y-143881500D01*
X157558300Y-108639100D02*
X156210000Y-106680000D01*
X157574100Y-108677400D02*
X157558300Y-108639100D01*
X157574100Y-113757400D02*
X157574100Y-108677400D01*
X157574100Y-114842600D02*
X157574100Y-113757400D01*
X157558300Y-114880900D02*
X157574100Y-114842600D01*
X154940000Y-119380000D02*
X157558300Y-114880900D01*
X133698400Y-89734100D02*
X133349700Y-91922300D01*
X152599100Y-82455900D02*
X133698400Y-89734100D01*
X153013700Y-82455900D02*
X152599100Y-82455900D01*
X156752600Y-82455900D02*
X153013700Y-82455900D01*
X156790900Y-82471700D02*
X156752600Y-82455900D01*
X157558300Y-83239100D02*
X156790900Y-82471700D01*
X157574100Y-83277400D02*
X157558300Y-83239100D01*
X157574100Y-85817400D02*
X157574100Y-83277400D01*
X157574100Y-86902600D02*
X157574100Y-85817400D01*
X157558300Y-86940900D02*
X157574100Y-86902600D01*
X156210000Y-88900000D02*
X157558300Y-86940900D01*
X156691000Y-139080400D02*
X154940000Y-119380000D01*
X156845000Y-144780000D02*
X156691000Y-139080400D01*
X149225000Y-144780000D02*
X156845000Y-144780000D01*
X142101600Y-145486000D02*
X144145000Y-146685000D01*
X138573800Y-145486000D02*
X142101600Y-145486000D01*
X138159200Y-145486000D02*
X138573800Y-145486000D01*
X135255000Y-146685000D02*
X138159200Y-145486000D01*
X103378000Y-143138500D02*
X103378000Y-143510000D01*
X103378000Y-142938500D02*
X103378000Y-143138500D01*
X103378000Y-142807000D02*
X103378000Y-142938500D01*
X103505000Y-139700000D02*
X103378000Y-142807000D01*
X124343000Y-85109500D02*
X129540000Y-86360000D01*
X119728800Y-84159100D02*
X124343000Y-85109500D01*
X119204300Y-84159100D02*
X119728800Y-84159100D01*
X119031100Y-84159100D02*
X119204300Y-84159100D01*
X103505000Y-86360000D02*
X119031100Y-84159100D01*
X151110500Y-109738000D02*
X151100700Y-112806900D01*
X151110500Y-108702000D02*
X151110500Y-109738000D01*
X151110500Y-96002000D02*
X151110500Y-108702000D01*
X151061400Y-95719100D02*
X151110500Y-96002000D01*
X110480500Y-143881500D02*
X110363000Y-143510000D01*
X110480500Y-144081500D02*
X110480500Y-143881500D01*
X110480500Y-144164300D02*
X110480500Y-144081500D01*
X110568500Y-144496100D02*
X110480500Y-144164300D01*
X111154900Y-145082500D02*
X110568500Y-144496100D01*
X112650600Y-145583000D02*
X111154900Y-145082500D01*
X113285600Y-145583000D02*
X112650600Y-145583000D01*
X114425400Y-145583000D02*
X113285600Y-145583000D01*
X129269200Y-145486000D02*
X114425400Y-145583000D01*
X129683800Y-145486000D02*
X129269200Y-145486000D01*
X131080800Y-145486000D02*
X129683800Y-145486000D01*
X131374000Y-145779200D02*
X131080800Y-145486000D01*
X131516000Y-147181600D02*
X131374000Y-145779200D01*
X132218400Y-147884000D02*
X131516000Y-147181600D01*
X133211600Y-147884000D02*
X132218400Y-147884000D01*
X135255000Y-146685000D02*
X133211600Y-147884000D01*
X150378000Y-95269500D02*
X151061400Y-95719100D01*
X149342000Y-95269500D02*
X150378000Y-95269500D01*
X148531600Y-95412900D02*
X149342000Y-95269500D01*
X151100700Y-112806900D02*
X149860300Y-113512300D01*
X129540000Y-86360000D02*
X133698400Y-89734100D01*
X152552100Y-94725300D02*
X153077200Y-93681700D01*
X152552100Y-94725300D02*
X153717400Y-94641900D01*
X152508300Y-113624900D02*
X153676500Y-113636400D01*
X152508300Y-113624900D02*
X153096700Y-114634200D01*
X156971700Y-107786800D02*
X155920500Y-107277100D01*
X156971700Y-107786800D02*
X156871100Y-106622900D01*
X155558700Y-118316900D02*
X155488900Y-119414900D01*
X155558700Y-118316900D02*
X154638500Y-118919900D01*
X133425200Y-91448300D02*
X133542300Y-91868600D01*
X133425200Y-91448300D02*
X133183300Y-91811400D01*
X156971700Y-87793200D02*
X156871100Y-88957100D01*
X156971700Y-87793200D02*
X155920500Y-88302900D01*
X155048900Y-120605200D02*
X154471800Y-119668600D01*
X155048900Y-120605200D02*
X155451800Y-119581400D01*
X156813200Y-143601900D02*
X157290900Y-144557000D01*
X156813200Y-143601900D02*
X156387700Y-144581400D01*
X155666500Y-144780000D02*
X156634100Y-144328300D01*
X155666500Y-144780000D02*
X156634100Y-145231700D01*
X150403500Y-144780000D02*
X149435900Y-145231700D01*
X150403500Y-144780000D02*
X149435900Y-144328300D01*
X143128600Y-146088600D02*
X144191700Y-146188700D01*
X143128600Y-146088600D02*
X143734500Y-146967900D01*
X136344300Y-146235300D02*
X135622300Y-147022000D01*
X136344300Y-146235300D02*
X135277500Y-146187000D01*
X103454800Y-140929000D02*
X103003400Y-139925600D01*
X103454800Y-140929000D02*
X103986600Y-139965800D01*
X128344100Y-86072300D02*
X129416000Y-85824200D01*
X128344100Y-86072300D02*
X129185800Y-86780800D01*
X104722800Y-86187400D02*
X103817500Y-86812600D01*
X104722800Y-86187400D02*
X103679500Y-85838400D01*
X134238600Y-147281400D02*
X134844500Y-146402100D01*
X134238600Y-147281400D02*
X135301700Y-147181300D01*
X149004300Y-95329300D02*
X148645400Y-95577400D01*
X149004300Y-95329300D02*
X148582000Y-95219400D01*
X150277500Y-113275000D02*
X150022600Y-113629100D01*
X150277500Y-113275000D02*
X149842800Y-113313100D01*
X130495100Y-87135000D02*
X129421000Y-86897000D01*
X130495100Y-87135000D02*
X130041000Y-86133000D01*
D19*
X114844500Y-143681000D02*
X115062000Y-143510000D01*
X114744500Y-143681000D02*
X114844500Y-143681000D01*
X114578600Y-143681000D02*
X114744500Y-143681000D01*
X114344000Y-143915600D02*
X114578600Y-143681000D01*
X114256000Y-144247400D02*
X114344000Y-143915600D01*
X114021400Y-144482000D02*
X114256000Y-144247400D01*
X113689600Y-144482000D02*
X114021400Y-144482000D01*
X113054600Y-144482000D02*
X113689600Y-144482000D01*
X112820000Y-144247400D02*
X113054600Y-144482000D01*
X112605000Y-143915600D02*
X112820000Y-144247400D01*
X112370400Y-143681000D02*
X112605000Y-143915600D01*
X112204500Y-143681000D02*
X112370400Y-143681000D01*
X112104500Y-143681000D02*
X112204500Y-143681000D01*
X111887000Y-143510000D02*
X112104500Y-143681000D01*
X106335500Y-143510000D02*
X106553000Y-143510000D01*
X106235500Y-143510000D02*
X106335500Y-143510000D01*
X105219500Y-143510000D02*
X106235500Y-143510000D01*
X105119500Y-143510000D02*
X105219500Y-143510000D01*
X104902000Y-143510000D02*
X105119500Y-143510000D01*
X136816100Y-102756100D02*
X137219500Y-100230000D01*
X136731700Y-103859900D02*
X136816100Y-102756100D01*
X136731700Y-104523100D02*
X136731700Y-103859900D01*
X137006900Y-105641600D02*
X136731700Y-104523100D01*
X137006900Y-106304800D02*
X137006900Y-105641600D01*
X136009500Y-108743400D02*
X137006900Y-106304800D01*
X136009500Y-109696600D02*
X136009500Y-108743400D01*
X138650100Y-116039900D02*
X136009500Y-109696600D01*
X138466500Y-146983000D02*
X139065000Y-146685000D01*
X138366500Y-146983000D02*
X138466500Y-146983000D01*
X138200600Y-146983000D02*
X138366500Y-146983000D01*
X135710200Y-147784000D02*
X138200600Y-146983000D01*
X133344200Y-148484500D02*
X135710200Y-147784000D01*
X132085800Y-148484500D02*
X133344200Y-148484500D01*
X131887500Y-148402400D02*
X132085800Y-148484500D01*
X130707600Y-147784000D02*
X131887500Y-148402400D01*
X130473000Y-147549400D02*
X130707600Y-147784000D01*
X130473000Y-147383500D02*
X130473000Y-147549400D01*
X130473000Y-147283500D02*
X130473000Y-147383500D01*
X130175000Y-146685000D02*
X130473000Y-147283500D01*
X137118600Y-100862000D02*
X136935600Y-100327100D01*
X137118600Y-100862000D02*
X137459000Y-100410700D01*
X138404100Y-115449100D02*
X138840600Y-115808200D01*
X138404100Y-115449100D02*
X138351400Y-116012000D01*
X150336600Y-87510500D02*
X153670000Y-86360000D01*
X149383400Y-87749500D02*
X150336600Y-87510500D01*
X144812600Y-91360700D02*
X149383400Y-87749500D01*
X152626800Y-86720100D02*
X152990700Y-86011300D01*
X152626800Y-86720100D02*
X153350500Y-87053500D01*
X145314800Y-90963900D02*
X145087200Y-91481400D01*
X145314800Y-90963900D02*
X144758600Y-91065600D01*
X151010500Y-91916600D02*
X153670000Y-88900000D01*
X150336600Y-92590500D02*
X151010500Y-91916600D01*
X145342700Y-92661700D02*
X150336600Y-92590500D01*
X144282500Y-92661700D02*
X145342700Y-92661700D01*
X142659500Y-92375300D02*
X144282500Y-92661700D01*
X152940200Y-89727800D02*
X152907100Y-88931700D01*
X152940200Y-89727800D02*
X153734100Y-89660900D01*
X143289800Y-92486500D02*
X142752000Y-92660700D01*
X143289800Y-92486500D02*
X142844000Y-92138700D01*
X147811700Y-113809400D02*
X146329000Y-116745900D01*
X146617500Y-116174600D02*
X146629000Y-116739900D01*
X146617500Y-116174600D02*
X146155800Y-116500900D01*
X147523200Y-114380700D02*
X147511700Y-113815400D01*
X147523200Y-114380700D02*
X147984900Y-114054400D01*
X148709500Y-85883400D02*
X143711600Y-91118600D01*
X149383400Y-85209500D02*
X148709500Y-85883400D01*
X153147300Y-85095900D02*
X149383400Y-85209500D01*
X154192700Y-85095900D02*
X153147300Y-85095900D01*
X154194200Y-85096500D02*
X154192700Y-85095900D01*
X154933500Y-85835800D02*
X154194200Y-85096500D01*
X154934100Y-85837300D02*
X154933500Y-85835800D01*
X154934100Y-113777300D02*
X154934100Y-85837300D01*
X154934100Y-114822700D02*
X154934100Y-113777300D01*
X153789500Y-118903400D02*
X154934100Y-114822700D01*
X153789500Y-119856600D02*
X153789500Y-118903400D01*
X156090500Y-139223400D02*
X153789500Y-119856600D01*
X156090500Y-140176600D02*
X156090500Y-139223400D01*
X155416600Y-140850500D02*
X156090500Y-140176600D01*
X134799800Y-145586000D02*
X155416600Y-140850500D01*
X132715000Y-146685000D02*
X134799800Y-145586000D01*
X144153500Y-90655700D02*
X144000400Y-91199900D01*
X144153500Y-90655700D02*
X143617000Y-90833900D01*
X133545200Y-146247400D02*
X133267600Y-146914800D01*
X133545200Y-146247400D02*
X132837600Y-146099200D01*
D20*
G36*
X111543574Y-118243165D02*
X111213069Y-118066698D01*
X108289957Y-110396828D01*
X108345258Y-110419791D01*
X108822647Y-110420207D01*
X109263857Y-110237903D01*
X109487157Y-110014992D01*
X111543574Y-118243165D01*
X111543574Y-118243165D01*
G37*
X111543574Y-118243165D02*
X111213069Y-118066698D01*
X108289957Y-110396828D01*
X108345258Y-110419791D01*
X108822647Y-110420207D01*
X109263857Y-110237903D01*
X109487157Y-110014992D01*
X111543574Y-118243165D01*
G36*
X125597961Y-130470160D02*
X125560662Y-130487812D01*
X125533332Y-130517979D01*
X125499492Y-130540591D01*
X124825591Y-131214491D01*
X124796682Y-131257755D01*
X124759604Y-131294257D01*
X124737649Y-131346104D01*
X124706366Y-131392924D01*
X124696214Y-131443958D01*
X124675927Y-131491870D01*
X124175427Y-133908770D01*
X124175319Y-133922426D01*
X124170616Y-133935248D01*
X123466539Y-138433495D01*
X123194960Y-138661926D01*
X123146143Y-138682097D01*
X122808283Y-139019367D01*
X122625209Y-139460258D01*
X122624897Y-139817375D01*
X122597340Y-139802010D01*
X122485182Y-139490830D01*
X122485207Y-139462353D01*
X122302903Y-139021143D01*
X121965633Y-138683283D01*
X121524742Y-138500209D01*
X121047353Y-138499793D01*
X120695208Y-138645296D01*
X120695208Y-131693849D01*
X120398983Y-130976930D01*
X119850955Y-130427945D01*
X119134555Y-130130469D01*
X118358849Y-130129792D01*
X117641930Y-130426017D01*
X117092945Y-130974045D01*
X116795469Y-131690445D01*
X116794792Y-132466151D01*
X117091017Y-133183070D01*
X117639045Y-133732055D01*
X118355445Y-134029531D01*
X119131151Y-134030208D01*
X119848070Y-133733983D01*
X120397055Y-133185955D01*
X120694531Y-132469555D01*
X120695208Y-131693849D01*
X120695208Y-138645296D01*
X120606143Y-138682097D01*
X120268283Y-139019367D01*
X120085209Y-139460258D01*
X120084897Y-139817375D01*
X120057340Y-139802010D01*
X119945182Y-139490830D01*
X119945207Y-139462353D01*
X119762903Y-139021143D01*
X119425633Y-138683283D01*
X118984742Y-138500209D01*
X118507353Y-138499793D01*
X118066143Y-138682097D01*
X117728283Y-139019367D01*
X117545209Y-139460258D01*
X117544897Y-139817375D01*
X117517340Y-139802010D01*
X117405182Y-139490830D01*
X117405207Y-139462353D01*
X117222903Y-139021143D01*
X116885633Y-138683283D01*
X116444742Y-138500209D01*
X115967353Y-138499793D01*
X115526143Y-138682097D01*
X115188283Y-139019367D01*
X115005209Y-139460258D01*
X115004897Y-139817375D01*
X114977340Y-139802010D01*
X114865182Y-139490830D01*
X114865207Y-139462353D01*
X114682903Y-139021143D01*
X114503726Y-138841652D01*
X114134055Y-138470157D01*
X112922349Y-120334590D01*
X112984367Y-120396717D01*
X113425258Y-120579791D01*
X113902647Y-120580207D01*
X114343857Y-120397903D01*
X114593388Y-120148807D01*
X114625469Y-120185463D01*
X114665591Y-120245509D01*
X115339492Y-120919409D01*
X115358609Y-120932183D01*
X115372918Y-120950181D01*
X125097052Y-129186796D01*
X125164921Y-129630559D01*
X125164793Y-129777647D01*
X125347097Y-130218857D01*
X125597961Y-130470160D01*
X125597961Y-130470160D01*
G37*
X125597961Y-130470160D02*
X125560662Y-130487812D01*
X125533332Y-130517979D01*
X125499492Y-130540591D01*
X124825591Y-131214491D01*
X124796682Y-131257755D01*
X124759604Y-131294257D01*
X124737649Y-131346104D01*
X124706366Y-131392924D01*
X124696214Y-131443958D01*
X124675927Y-131491870D01*
X124175427Y-133908770D01*
X124175319Y-133922426D01*
X124170616Y-133935248D01*
X123466539Y-138433495D01*
X123194960Y-138661926D01*
X123146143Y-138682097D01*
X122808283Y-139019367D01*
X122625209Y-139460258D01*
X122624897Y-139817375D01*
X122597340Y-139802010D01*
X122485182Y-139490830D01*
X122485207Y-139462353D01*
X122302903Y-139021143D01*
X121965633Y-138683283D01*
X121524742Y-138500209D01*
X121047353Y-138499793D01*
X120695208Y-138645296D01*
X120695208Y-131693849D01*
X120398983Y-130976930D01*
X119850955Y-130427945D01*
X119134555Y-130130469D01*
X118358849Y-130129792D01*
X117641930Y-130426017D01*
X117092945Y-130974045D01*
X116795469Y-131690445D01*
X116794792Y-132466151D01*
X117091017Y-133183070D01*
X117639045Y-133732055D01*
X118355445Y-134029531D01*
X119131151Y-134030208D01*
X119848070Y-133733983D01*
X120397055Y-133185955D01*
X120694531Y-132469555D01*
X120695208Y-131693849D01*
X120695208Y-138645296D01*
X120606143Y-138682097D01*
X120268283Y-139019367D01*
X120085209Y-139460258D01*
X120084897Y-139817375D01*
X120057340Y-139802010D01*
X119945182Y-139490830D01*
X119945207Y-139462353D01*
X119762903Y-139021143D01*
X119425633Y-138683283D01*
X118984742Y-138500209D01*
X118507353Y-138499793D01*
X118066143Y-138682097D01*
X117728283Y-139019367D01*
X117545209Y-139460258D01*
X117544897Y-139817375D01*
X117517340Y-139802010D01*
X117405182Y-139490830D01*
X117405207Y-139462353D01*
X117222903Y-139021143D01*
X116885633Y-138683283D01*
X116444742Y-138500209D01*
X115967353Y-138499793D01*
X115526143Y-138682097D01*
X115188283Y-139019367D01*
X115005209Y-139460258D01*
X115004897Y-139817375D01*
X114977340Y-139802010D01*
X114865182Y-139490830D01*
X114865207Y-139462353D01*
X114682903Y-139021143D01*
X114503726Y-138841652D01*
X114134055Y-138470157D01*
X112922349Y-120334590D01*
X112984367Y-120396717D01*
X113425258Y-120579791D01*
X113902647Y-120580207D01*
X114343857Y-120397903D01*
X114593388Y-120148807D01*
X114625469Y-120185463D01*
X114665591Y-120245509D01*
X115339492Y-120919409D01*
X115358609Y-120932183D01*
X115372918Y-120950181D01*
X125097052Y-129186796D01*
X125164921Y-129630559D01*
X125164793Y-129777647D01*
X125347097Y-130218857D01*
X125597961Y-130470160D01*
G36*
X129481034Y-116081076D02*
X129339966Y-116080953D01*
X129027443Y-116210085D01*
X128788126Y-116448985D01*
X128658448Y-116761283D01*
X128658341Y-116883709D01*
X128616362Y-117263549D01*
X127478876Y-118933417D01*
X127382903Y-118701143D01*
X127045633Y-118363283D01*
X126945158Y-118321562D01*
X126608554Y-118086511D01*
X124648601Y-110246699D01*
X124807568Y-109934721D01*
X124841717Y-109900633D01*
X125024791Y-109459742D01*
X125025207Y-108982353D01*
X124842903Y-108541143D01*
X124505633Y-108203283D01*
X124064742Y-108020209D01*
X123707624Y-108019897D01*
X123722990Y-107992339D01*
X124034169Y-107880182D01*
X124062647Y-107880207D01*
X124503857Y-107697903D01*
X124841717Y-107360633D01*
X125024791Y-106919742D01*
X125025207Y-106442353D01*
X124842903Y-106001143D01*
X124599555Y-105757369D01*
X128340165Y-103949829D01*
X128340007Y-104131127D01*
X128335312Y-104670485D01*
X127536802Y-105571902D01*
X127490899Y-105650499D01*
X127440338Y-105726192D01*
X127380838Y-105869892D01*
X127370598Y-105921405D01*
X127350214Y-105969805D01*
X126849714Y-108410305D01*
X126849383Y-108466086D01*
X126838500Y-108520800D01*
X126838500Y-109919146D01*
X126838500Y-109919200D01*
X126860113Y-110027861D01*
X126880346Y-110129626D01*
X126880365Y-110129672D01*
X126880366Y-110129676D01*
X126880367Y-110129678D01*
X127016045Y-110457325D01*
X127019234Y-110462098D01*
X127020469Y-110467706D01*
X129481034Y-116081076D01*
X129481034Y-116081076D01*
G37*
X129481034Y-116081076D02*
X129339966Y-116080953D01*
X129027443Y-116210085D01*
X128788126Y-116448985D01*
X128658448Y-116761283D01*
X128658341Y-116883709D01*
X128616362Y-117263549D01*
X127478876Y-118933417D01*
X127382903Y-118701143D01*
X127045633Y-118363283D01*
X126945158Y-118321562D01*
X126608554Y-118086511D01*
X124648601Y-110246699D01*
X124807568Y-109934721D01*
X124841717Y-109900633D01*
X125024791Y-109459742D01*
X125025207Y-108982353D01*
X124842903Y-108541143D01*
X124505633Y-108203283D01*
X124064742Y-108020209D01*
X123707624Y-108019897D01*
X123722990Y-107992339D01*
X124034169Y-107880182D01*
X124062647Y-107880207D01*
X124503857Y-107697903D01*
X124841717Y-107360633D01*
X125024791Y-106919742D01*
X125025207Y-106442353D01*
X124842903Y-106001143D01*
X124599555Y-105757369D01*
X128340165Y-103949829D01*
X128340007Y-104131127D01*
X128335312Y-104670485D01*
X127536802Y-105571902D01*
X127490899Y-105650499D01*
X127440338Y-105726192D01*
X127380838Y-105869892D01*
X127370598Y-105921405D01*
X127350214Y-105969805D01*
X126849714Y-108410305D01*
X126849383Y-108466086D01*
X126838500Y-108520800D01*
X126838500Y-109919146D01*
X126838500Y-109919200D01*
X126860113Y-110027861D01*
X126880346Y-110129626D01*
X126880365Y-110129672D01*
X126880366Y-110129676D01*
X126880367Y-110129678D01*
X127016045Y-110457325D01*
X127019234Y-110462098D01*
X127020469Y-110467706D01*
X129481034Y-116081076D01*
G36*
X134656382Y-98382817D02*
X130672013Y-99462967D01*
X130739791Y-99299742D01*
X130740207Y-98822353D01*
X130557903Y-98381143D01*
X130437524Y-98260553D01*
X134656382Y-98382817D01*
X134656382Y-98382817D01*
G37*
X134656382Y-98382817D02*
X130672013Y-99462967D01*
X130739791Y-99299742D01*
X130740207Y-98822353D01*
X130557903Y-98381143D01*
X130437524Y-98260553D01*
X134656382Y-98382817D01*
G36*
X140887208Y-97543670D02*
X137979824Y-97378881D01*
X137972166Y-97379958D01*
X137964632Y-97378231D01*
X130571933Y-97163987D01*
X130739791Y-96759742D01*
X130740207Y-96282353D01*
X130557903Y-95841143D01*
X130220633Y-95503283D01*
X129779742Y-95320209D01*
X129302353Y-95319793D01*
X128861143Y-95502097D01*
X128814047Y-95549110D01*
X128489882Y-95726256D01*
X124624632Y-94877338D01*
X124841717Y-94660633D01*
X124876556Y-94576730D01*
X125111041Y-94260657D01*
X128426480Y-93532493D01*
X128340209Y-93740258D01*
X128339793Y-94217647D01*
X128522097Y-94658857D01*
X128859367Y-94996717D01*
X129300258Y-95179791D01*
X129777647Y-95180207D01*
X130218857Y-94997903D01*
X130556717Y-94660633D01*
X130739791Y-94219742D01*
X130740207Y-93742353D01*
X130628003Y-93470798D01*
X132743081Y-93767951D01*
X132781680Y-93765757D01*
X132819600Y-93773300D01*
X133879800Y-93773300D01*
X133976623Y-93754040D01*
X134073988Y-93737878D01*
X138174414Y-92190484D01*
X138174253Y-92375834D01*
X138303385Y-92688357D01*
X138542285Y-92927674D01*
X138594350Y-92949293D01*
X138738742Y-93060553D01*
X140850605Y-97074507D01*
X140865379Y-97344974D01*
X140865253Y-97490534D01*
X140887208Y-97543670D01*
X140887208Y-97543670D01*
G37*
X140887208Y-97543670D02*
X137979824Y-97378881D01*
X137972166Y-97379958D01*
X137964632Y-97378231D01*
X130571933Y-97163987D01*
X130739791Y-96759742D01*
X130740207Y-96282353D01*
X130557903Y-95841143D01*
X130220633Y-95503283D01*
X129779742Y-95320209D01*
X129302353Y-95319793D01*
X128861143Y-95502097D01*
X128814047Y-95549110D01*
X128489882Y-95726256D01*
X124624632Y-94877338D01*
X124841717Y-94660633D01*
X124876556Y-94576730D01*
X125111041Y-94260657D01*
X128426480Y-93532493D01*
X128340209Y-93740258D01*
X128339793Y-94217647D01*
X128522097Y-94658857D01*
X128859367Y-94996717D01*
X129300258Y-95179791D01*
X129777647Y-95180207D01*
X130218857Y-94997903D01*
X130556717Y-94660633D01*
X130739791Y-94219742D01*
X130740207Y-93742353D01*
X130628003Y-93470798D01*
X132743081Y-93767951D01*
X132781680Y-93765757D01*
X132819600Y-93773300D01*
X133879800Y-93773300D01*
X133976623Y-93754040D01*
X134073988Y-93737878D01*
X138174414Y-92190484D01*
X138174253Y-92375834D01*
X138303385Y-92688357D01*
X138542285Y-92927674D01*
X138594350Y-92949293D01*
X138738742Y-93060553D01*
X140850605Y-97074507D01*
X140865379Y-97344974D01*
X140865253Y-97490534D01*
X140887208Y-97543670D01*
G36*
X152426404Y-82700000D02*
X152424908Y-82701496D01*
X152356400Y-82866890D01*
X152356400Y-83045911D01*
X152356400Y-84569519D01*
X149366808Y-84659750D01*
X149270194Y-84682017D01*
X149172924Y-84701366D01*
X149165909Y-84706052D01*
X149157691Y-84707947D01*
X149076946Y-84765496D01*
X148994492Y-84820591D01*
X148320591Y-85494491D01*
X148316986Y-85499885D01*
X148311680Y-85503612D01*
X143850236Y-90176884D01*
X143574471Y-90268480D01*
X143543266Y-90268453D01*
X143230743Y-90397585D01*
X142991426Y-90636485D01*
X142861748Y-90948783D01*
X142861712Y-90989335D01*
X139659489Y-90366614D01*
X139606486Y-90366840D01*
X139554500Y-90356500D01*
X138494300Y-90356500D01*
X138397476Y-90375759D01*
X138300112Y-90391922D01*
X133580976Y-92172800D01*
X133213035Y-92172800D01*
X130840397Y-90249314D01*
X130840397Y-86103414D01*
X130643219Y-85625305D01*
X130640953Y-85621914D01*
X130414632Y-85556079D01*
X130343921Y-85626790D01*
X130343921Y-85485368D01*
X130278086Y-85259047D01*
X129800586Y-85060399D01*
X129283414Y-85059603D01*
X128805305Y-85256781D01*
X128801914Y-85259047D01*
X128736079Y-85485368D01*
X129540000Y-86289289D01*
X130343921Y-85485368D01*
X130343921Y-85626790D01*
X129610711Y-86360000D01*
X130414632Y-87163921D01*
X130640953Y-87098086D01*
X130839601Y-86620586D01*
X130840397Y-86103414D01*
X130840397Y-90249314D01*
X130362961Y-89862260D01*
X130305121Y-89831788D01*
X130556717Y-89580633D01*
X130739791Y-89139742D01*
X130740207Y-88662353D01*
X130557903Y-88221143D01*
X130343921Y-88006786D01*
X130343921Y-87234632D01*
X129540000Y-86430711D01*
X129469289Y-86501422D01*
X129469289Y-86360000D01*
X128665368Y-85556079D01*
X128439047Y-85621914D01*
X128240399Y-86099414D01*
X128239603Y-86616586D01*
X128436781Y-87094695D01*
X128439047Y-87098086D01*
X128665368Y-87163921D01*
X129469289Y-86360000D01*
X129469289Y-86501422D01*
X128736079Y-87234632D01*
X128801914Y-87460953D01*
X129279414Y-87659601D01*
X129796586Y-87660397D01*
X130274695Y-87463219D01*
X130278086Y-87460953D01*
X130343921Y-87234632D01*
X130343921Y-88006786D01*
X130220633Y-87883283D01*
X129779742Y-87700209D01*
X129302353Y-87699793D01*
X128861143Y-87882097D01*
X128814047Y-87929110D01*
X128489882Y-88106256D01*
X124624632Y-87257338D01*
X124841717Y-87040633D01*
X125024791Y-86599742D01*
X125025207Y-86122353D01*
X124842903Y-85681143D01*
X124505633Y-85343283D01*
X124064742Y-85160209D01*
X123587353Y-85159793D01*
X123146143Y-85342097D01*
X122808283Y-85679367D01*
X122625209Y-86120258D01*
X122624793Y-86597647D01*
X122807097Y-87038857D01*
X123020747Y-87252881D01*
X120816408Y-87681225D01*
X121032055Y-87465955D01*
X121329531Y-86749555D01*
X121330208Y-85973849D01*
X121033983Y-85256930D01*
X120485955Y-84707945D01*
X119769555Y-84410469D01*
X118993849Y-84409792D01*
X118276930Y-84706017D01*
X117727945Y-85254045D01*
X117430469Y-85970445D01*
X117429792Y-86746151D01*
X117726017Y-87463070D01*
X118212806Y-87950709D01*
X104805397Y-88314510D01*
X104805397Y-86103414D01*
X104608219Y-85625305D01*
X104605953Y-85621914D01*
X104379632Y-85556079D01*
X104308921Y-85626790D01*
X104308921Y-85485368D01*
X104243086Y-85259047D01*
X103765586Y-85060399D01*
X103248414Y-85059603D01*
X102770305Y-85256781D01*
X102766914Y-85259047D01*
X102701079Y-85485368D01*
X103505000Y-86289289D01*
X104308921Y-85485368D01*
X104308921Y-85626790D01*
X103575711Y-86360000D01*
X104379632Y-87163921D01*
X104605953Y-87098086D01*
X104804601Y-86620586D01*
X104805397Y-86103414D01*
X104805397Y-88314510D01*
X104685509Y-88317764D01*
X104312945Y-88010818D01*
X104308921Y-88006786D01*
X104308921Y-87234632D01*
X103505000Y-86430711D01*
X103434289Y-86501422D01*
X103434289Y-86360000D01*
X102630368Y-85556079D01*
X102404047Y-85621914D01*
X102205399Y-86099414D01*
X102204603Y-86616586D01*
X102401781Y-87094695D01*
X102404047Y-87098086D01*
X102630368Y-87163921D01*
X103434289Y-86360000D01*
X103434289Y-86501422D01*
X102701079Y-87234632D01*
X102766914Y-87460953D01*
X103244414Y-87659601D01*
X103761586Y-87660397D01*
X104239695Y-87463219D01*
X104243086Y-87460953D01*
X104308921Y-87234632D01*
X104308921Y-88006786D01*
X104185633Y-87883283D01*
X103744742Y-87700209D01*
X103267353Y-87699793D01*
X102826143Y-87882097D01*
X102488283Y-88219367D01*
X102305209Y-88660258D01*
X102304793Y-89137647D01*
X102487097Y-89578857D01*
X102824367Y-89916717D01*
X103265258Y-90099791D01*
X103742647Y-90100207D01*
X104183857Y-89917903D01*
X104335666Y-89766358D01*
X104715252Y-89417363D01*
X119702318Y-89010698D01*
X119746751Y-89000599D01*
X119792313Y-89000801D01*
X122719989Y-88431899D01*
X122345940Y-89285840D01*
X104705142Y-103976556D01*
X104705207Y-103902353D01*
X104705207Y-101362353D01*
X104705207Y-98822353D01*
X104705207Y-96282353D01*
X104705207Y-93742353D01*
X104705207Y-91202353D01*
X104522903Y-90761143D01*
X104185633Y-90423283D01*
X103744742Y-90240209D01*
X103267353Y-90239793D01*
X102826143Y-90422097D01*
X102488283Y-90759367D01*
X102305209Y-91200258D01*
X102304793Y-91677647D01*
X102487097Y-92118857D01*
X102824367Y-92456717D01*
X103265258Y-92639791D01*
X103742647Y-92640207D01*
X104183857Y-92457903D01*
X104521717Y-92120633D01*
X104704791Y-91679742D01*
X104705207Y-91202353D01*
X104705207Y-93742353D01*
X104522903Y-93301143D01*
X104185633Y-92963283D01*
X103744742Y-92780209D01*
X103267353Y-92779793D01*
X102826143Y-92962097D01*
X102488283Y-93299367D01*
X102305209Y-93740258D01*
X102304793Y-94217647D01*
X102487097Y-94658857D01*
X102824367Y-94996717D01*
X103265258Y-95179791D01*
X103742647Y-95180207D01*
X104183857Y-94997903D01*
X104521717Y-94660633D01*
X104704791Y-94219742D01*
X104705207Y-93742353D01*
X104705207Y-96282353D01*
X104522903Y-95841143D01*
X104185633Y-95503283D01*
X103744742Y-95320209D01*
X103267353Y-95319793D01*
X102826143Y-95502097D01*
X102488283Y-95839367D01*
X102305209Y-96280258D01*
X102304793Y-96757647D01*
X102487097Y-97198857D01*
X102824367Y-97536717D01*
X103265258Y-97719791D01*
X103742647Y-97720207D01*
X104183857Y-97537903D01*
X104521717Y-97200633D01*
X104704791Y-96759742D01*
X104705207Y-96282353D01*
X104705207Y-98822353D01*
X104522903Y-98381143D01*
X104185633Y-98043283D01*
X103744742Y-97860209D01*
X103267353Y-97859793D01*
X102826143Y-98042097D01*
X102488283Y-98379367D01*
X102305209Y-98820258D01*
X102304793Y-99297647D01*
X102487097Y-99738857D01*
X102824367Y-100076717D01*
X103265258Y-100259791D01*
X103742647Y-100260207D01*
X104183857Y-100077903D01*
X104521717Y-99740633D01*
X104704791Y-99299742D01*
X104705207Y-98822353D01*
X104705207Y-101362353D01*
X104522903Y-100921143D01*
X104185633Y-100583283D01*
X103744742Y-100400209D01*
X103267353Y-100399793D01*
X102826143Y-100582097D01*
X102488283Y-100919367D01*
X102305209Y-101360258D01*
X102304793Y-101837647D01*
X102487097Y-102278857D01*
X102824367Y-102616717D01*
X103265258Y-102799791D01*
X103742647Y-102800207D01*
X104183857Y-102617903D01*
X104521717Y-102280633D01*
X104704791Y-101839742D01*
X104705207Y-101362353D01*
X104705207Y-103902353D01*
X104522903Y-103461143D01*
X104185633Y-103123283D01*
X103744742Y-102940209D01*
X103267353Y-102939793D01*
X102826143Y-103122097D01*
X102488283Y-103459367D01*
X102305209Y-103900258D01*
X102304793Y-104377647D01*
X102487097Y-104818857D01*
X102593652Y-104925599D01*
X102527380Y-104969881D01*
X101794881Y-105702381D01*
X101760405Y-105753977D01*
X101716256Y-105797591D01*
X101690635Y-105858393D01*
X101653978Y-105913255D01*
X101641871Y-105974121D01*
X101617775Y-106031307D01*
X101117274Y-108469707D01*
X101116871Y-108535688D01*
X101115000Y-108545098D01*
X101115000Y-85725000D01*
X101115000Y-82700000D01*
X152426404Y-82700000D01*
X152426404Y-82700000D01*
G37*
X152426404Y-82700000D02*
X152424908Y-82701496D01*
X152356400Y-82866890D01*
X152356400Y-83045911D01*
X152356400Y-84569519D01*
X149366808Y-84659750D01*
X149270194Y-84682017D01*
X149172924Y-84701366D01*
X149165909Y-84706052D01*
X149157691Y-84707947D01*
X149076946Y-84765496D01*
X148994492Y-84820591D01*
X148320591Y-85494491D01*
X148316986Y-85499885D01*
X148311680Y-85503612D01*
X143850236Y-90176884D01*
X143574471Y-90268480D01*
X143543266Y-90268453D01*
X143230743Y-90397585D01*
X142991426Y-90636485D01*
X142861748Y-90948783D01*
X142861712Y-90989335D01*
X139659489Y-90366614D01*
X139606486Y-90366840D01*
X139554500Y-90356500D01*
X138494300Y-90356500D01*
X138397476Y-90375759D01*
X138300112Y-90391922D01*
X133580976Y-92172800D01*
X133213035Y-92172800D01*
X130840397Y-90249314D01*
X130840397Y-86103414D01*
X130643219Y-85625305D01*
X130640953Y-85621914D01*
X130414632Y-85556079D01*
X130343921Y-85626790D01*
X130343921Y-85485368D01*
X130278086Y-85259047D01*
X129800586Y-85060399D01*
X129283414Y-85059603D01*
X128805305Y-85256781D01*
X128801914Y-85259047D01*
X128736079Y-85485368D01*
X129540000Y-86289289D01*
X130343921Y-85485368D01*
X130343921Y-85626790D01*
X129610711Y-86360000D01*
X130414632Y-87163921D01*
X130640953Y-87098086D01*
X130839601Y-86620586D01*
X130840397Y-86103414D01*
X130840397Y-90249314D01*
X130362961Y-89862260D01*
X130305121Y-89831788D01*
X130556717Y-89580633D01*
X130739791Y-89139742D01*
X130740207Y-88662353D01*
X130557903Y-88221143D01*
X130343921Y-88006786D01*
X130343921Y-87234632D01*
X129540000Y-86430711D01*
X129469289Y-86501422D01*
X129469289Y-86360000D01*
X128665368Y-85556079D01*
X128439047Y-85621914D01*
X128240399Y-86099414D01*
X128239603Y-86616586D01*
X128436781Y-87094695D01*
X128439047Y-87098086D01*
X128665368Y-87163921D01*
X129469289Y-86360000D01*
X129469289Y-86501422D01*
X128736079Y-87234632D01*
X128801914Y-87460953D01*
X129279414Y-87659601D01*
X129796586Y-87660397D01*
X130274695Y-87463219D01*
X130278086Y-87460953D01*
X130343921Y-87234632D01*
X130343921Y-88006786D01*
X130220633Y-87883283D01*
X129779742Y-87700209D01*
X129302353Y-87699793D01*
X128861143Y-87882097D01*
X128814047Y-87929110D01*
X128489882Y-88106256D01*
X124624632Y-87257338D01*
X124841717Y-87040633D01*
X125024791Y-86599742D01*
X125025207Y-86122353D01*
X124842903Y-85681143D01*
X124505633Y-85343283D01*
X124064742Y-85160209D01*
X123587353Y-85159793D01*
X123146143Y-85342097D01*
X122808283Y-85679367D01*
X122625209Y-86120258D01*
X122624793Y-86597647D01*
X122807097Y-87038857D01*
X123020747Y-87252881D01*
X120816408Y-87681225D01*
X121032055Y-87465955D01*
X121329531Y-86749555D01*
X121330208Y-85973849D01*
X121033983Y-85256930D01*
X120485955Y-84707945D01*
X119769555Y-84410469D01*
X118993849Y-84409792D01*
X118276930Y-84706017D01*
X117727945Y-85254045D01*
X117430469Y-85970445D01*
X117429792Y-86746151D01*
X117726017Y-87463070D01*
X118212806Y-87950709D01*
X104805397Y-88314510D01*
X104805397Y-86103414D01*
X104608219Y-85625305D01*
X104605953Y-85621914D01*
X104379632Y-85556079D01*
X104308921Y-85626790D01*
X104308921Y-85485368D01*
X104243086Y-85259047D01*
X103765586Y-85060399D01*
X103248414Y-85059603D01*
X102770305Y-85256781D01*
X102766914Y-85259047D01*
X102701079Y-85485368D01*
X103505000Y-86289289D01*
X104308921Y-85485368D01*
X104308921Y-85626790D01*
X103575711Y-86360000D01*
X104379632Y-87163921D01*
X104605953Y-87098086D01*
X104804601Y-86620586D01*
X104805397Y-86103414D01*
X104805397Y-88314510D01*
X104685509Y-88317764D01*
X104312945Y-88010818D01*
X104308921Y-88006786D01*
X104308921Y-87234632D01*
X103505000Y-86430711D01*
X103434289Y-86501422D01*
X103434289Y-86360000D01*
X102630368Y-85556079D01*
X102404047Y-85621914D01*
X102205399Y-86099414D01*
X102204603Y-86616586D01*
X102401781Y-87094695D01*
X102404047Y-87098086D01*
X102630368Y-87163921D01*
X103434289Y-86360000D01*
X103434289Y-86501422D01*
X102701079Y-87234632D01*
X102766914Y-87460953D01*
X103244414Y-87659601D01*
X103761586Y-87660397D01*
X104239695Y-87463219D01*
X104243086Y-87460953D01*
X104308921Y-87234632D01*
X104308921Y-88006786D01*
X104185633Y-87883283D01*
X103744742Y-87700209D01*
X103267353Y-87699793D01*
X102826143Y-87882097D01*
X102488283Y-88219367D01*
X102305209Y-88660258D01*
X102304793Y-89137647D01*
X102487097Y-89578857D01*
X102824367Y-89916717D01*
X103265258Y-90099791D01*
X103742647Y-90100207D01*
X104183857Y-89917903D01*
X104335666Y-89766358D01*
X104715252Y-89417363D01*
X119702318Y-89010698D01*
X119746751Y-89000599D01*
X119792313Y-89000801D01*
X122719989Y-88431899D01*
X122345940Y-89285840D01*
X104705142Y-103976556D01*
X104705207Y-103902353D01*
X104705207Y-101362353D01*
X104705207Y-98822353D01*
X104705207Y-96282353D01*
X104705207Y-93742353D01*
X104705207Y-91202353D01*
X104522903Y-90761143D01*
X104185633Y-90423283D01*
X103744742Y-90240209D01*
X103267353Y-90239793D01*
X102826143Y-90422097D01*
X102488283Y-90759367D01*
X102305209Y-91200258D01*
X102304793Y-91677647D01*
X102487097Y-92118857D01*
X102824367Y-92456717D01*
X103265258Y-92639791D01*
X103742647Y-92640207D01*
X104183857Y-92457903D01*
X104521717Y-92120633D01*
X104704791Y-91679742D01*
X104705207Y-91202353D01*
X104705207Y-93742353D01*
X104522903Y-93301143D01*
X104185633Y-92963283D01*
X103744742Y-92780209D01*
X103267353Y-92779793D01*
X102826143Y-92962097D01*
X102488283Y-93299367D01*
X102305209Y-93740258D01*
X102304793Y-94217647D01*
X102487097Y-94658857D01*
X102824367Y-94996717D01*
X103265258Y-95179791D01*
X103742647Y-95180207D01*
X104183857Y-94997903D01*
X104521717Y-94660633D01*
X104704791Y-94219742D01*
X104705207Y-93742353D01*
X104705207Y-96282353D01*
X104522903Y-95841143D01*
X104185633Y-95503283D01*
X103744742Y-95320209D01*
X103267353Y-95319793D01*
X102826143Y-95502097D01*
X102488283Y-95839367D01*
X102305209Y-96280258D01*
X102304793Y-96757647D01*
X102487097Y-97198857D01*
X102824367Y-97536717D01*
X103265258Y-97719791D01*
X103742647Y-97720207D01*
X104183857Y-97537903D01*
X104521717Y-97200633D01*
X104704791Y-96759742D01*
X104705207Y-96282353D01*
X104705207Y-98822353D01*
X104522903Y-98381143D01*
X104185633Y-98043283D01*
X103744742Y-97860209D01*
X103267353Y-97859793D01*
X102826143Y-98042097D01*
X102488283Y-98379367D01*
X102305209Y-98820258D01*
X102304793Y-99297647D01*
X102487097Y-99738857D01*
X102824367Y-100076717D01*
X103265258Y-100259791D01*
X103742647Y-100260207D01*
X104183857Y-100077903D01*
X104521717Y-99740633D01*
X104704791Y-99299742D01*
X104705207Y-98822353D01*
X104705207Y-101362353D01*
X104522903Y-100921143D01*
X104185633Y-100583283D01*
X103744742Y-100400209D01*
X103267353Y-100399793D01*
X102826143Y-100582097D01*
X102488283Y-100919367D01*
X102305209Y-101360258D01*
X102304793Y-101837647D01*
X102487097Y-102278857D01*
X102824367Y-102616717D01*
X103265258Y-102799791D01*
X103742647Y-102800207D01*
X104183857Y-102617903D01*
X104521717Y-102280633D01*
X104704791Y-101839742D01*
X104705207Y-101362353D01*
X104705207Y-103902353D01*
X104522903Y-103461143D01*
X104185633Y-103123283D01*
X103744742Y-102940209D01*
X103267353Y-102939793D01*
X102826143Y-103122097D01*
X102488283Y-103459367D01*
X102305209Y-103900258D01*
X102304793Y-104377647D01*
X102487097Y-104818857D01*
X102593652Y-104925599D01*
X102527380Y-104969881D01*
X101794881Y-105702381D01*
X101760405Y-105753977D01*
X101716256Y-105797591D01*
X101690635Y-105858393D01*
X101653978Y-105913255D01*
X101641871Y-105974121D01*
X101617775Y-106031307D01*
X101117274Y-108469707D01*
X101116871Y-108535688D01*
X101115000Y-108545098D01*
X101115000Y-85725000D01*
X101115000Y-82700000D01*
X152426404Y-82700000D01*
G36*
X154143497Y-115604816D02*
X153620000Y-117471173D01*
X153620000Y-115575120D01*
X153620000Y-114350000D01*
X152394781Y-114350000D01*
X152282496Y-114570382D01*
X152491584Y-115080775D01*
X152880075Y-115472302D01*
X153388825Y-115685357D01*
X153399618Y-115687500D01*
X153620000Y-115575120D01*
X153620000Y-117471173D01*
X153306349Y-118589394D01*
X153080633Y-118363283D01*
X152639742Y-118180209D01*
X152572148Y-118180150D01*
X152216979Y-118076492D01*
X149075079Y-113180743D01*
X149033999Y-113138115D01*
X149001109Y-113088891D01*
X148532209Y-112619991D01*
X148353776Y-112500766D01*
X148143300Y-112458900D01*
X147480100Y-112458900D01*
X147437707Y-112467332D01*
X147394517Y-112465599D01*
X143964374Y-113005927D01*
X143979324Y-112984156D01*
X148051169Y-110858039D01*
X148116151Y-110805752D01*
X148185509Y-110759409D01*
X148859409Y-110085508D01*
X148913085Y-110005175D01*
X148927895Y-109984805D01*
X149179367Y-110236717D01*
X149620258Y-110419791D01*
X150097647Y-110420207D01*
X150538857Y-110237903D01*
X150876717Y-109900633D01*
X151059791Y-109459742D01*
X151060207Y-108982353D01*
X150877903Y-108541143D01*
X150540633Y-108203283D01*
X150099742Y-108020209D01*
X149622353Y-108019793D01*
X149181143Y-108202097D01*
X149075976Y-108307080D01*
X149103178Y-107620395D01*
X149179367Y-107696717D01*
X149620258Y-107879791D01*
X150097647Y-107880207D01*
X150538857Y-107697903D01*
X150876717Y-107360633D01*
X151059791Y-106919742D01*
X151060207Y-106442353D01*
X150877903Y-106001143D01*
X150540633Y-105663283D01*
X150099742Y-105480209D01*
X149622353Y-105479793D01*
X149181143Y-105662097D01*
X149180738Y-105662500D01*
X149200428Y-105165462D01*
X149620258Y-105339791D01*
X150097647Y-105340207D01*
X150538857Y-105157903D01*
X150876717Y-104820633D01*
X151059791Y-104379742D01*
X151060207Y-103902353D01*
X150877903Y-103461143D01*
X150540633Y-103123283D01*
X150099742Y-102940209D01*
X149742624Y-102939897D01*
X149757990Y-102912339D01*
X150069169Y-102800182D01*
X150097647Y-102800207D01*
X150538857Y-102617903D01*
X150876717Y-102280633D01*
X151059791Y-101839742D01*
X151060207Y-101362353D01*
X150877903Y-100921143D01*
X150540633Y-100583283D01*
X150099742Y-100400209D01*
X149622353Y-100399793D01*
X149181143Y-100582097D01*
X148843283Y-100919367D01*
X148660209Y-101360258D01*
X148659793Y-101837647D01*
X148708649Y-101955889D01*
X148797271Y-102376597D01*
X148229126Y-103395555D01*
X148222595Y-103415782D01*
X148210096Y-103432975D01*
X148189830Y-103517266D01*
X148163192Y-103599775D01*
X148164899Y-103620963D01*
X148159931Y-103641629D01*
X147979571Y-108194537D01*
X147559742Y-108020209D01*
X147410392Y-108020078D01*
X146964117Y-107952750D01*
X144876439Y-105498443D01*
X144862923Y-105487744D01*
X144853618Y-105473237D01*
X138910418Y-99303337D01*
X138906119Y-99300347D01*
X138903209Y-99295991D01*
X138632365Y-99025147D01*
X141153256Y-99172266D01*
X141155472Y-99171958D01*
X141157641Y-99172504D01*
X148638076Y-99549168D01*
X149017126Y-99914192D01*
X149179367Y-100076717D01*
X149620258Y-100259791D01*
X150097647Y-100260207D01*
X150538857Y-100077903D01*
X150876717Y-99740633D01*
X151059791Y-99299742D01*
X151060207Y-98822353D01*
X150877903Y-98381143D01*
X150540633Y-98043283D01*
X150099742Y-97860209D01*
X149622353Y-97859793D01*
X149181143Y-98042097D01*
X149062307Y-98160724D01*
X148693369Y-98450559D01*
X144271232Y-98227890D01*
X148799106Y-97299076D01*
X149126873Y-97484131D01*
X149179367Y-97536717D01*
X149620258Y-97719791D01*
X150097647Y-97720207D01*
X150538857Y-97537903D01*
X150876717Y-97200633D01*
X151059791Y-96759742D01*
X151060207Y-96282353D01*
X150877903Y-95841143D01*
X150540633Y-95503283D01*
X150099742Y-95320209D01*
X149622353Y-95319793D01*
X149181143Y-95502097D01*
X148843283Y-95839367D01*
X148811675Y-95915485D01*
X148577977Y-96221531D01*
X142565284Y-97454930D01*
X142565547Y-97153866D01*
X142436415Y-96841343D01*
X142197515Y-96602026D01*
X142145449Y-96580406D01*
X142001057Y-96469146D01*
X139889194Y-92455192D01*
X139884067Y-92361335D01*
X142046606Y-93648424D01*
X142056558Y-93651950D01*
X142064667Y-93658717D01*
X142157356Y-93687665D01*
X142248883Y-93720095D01*
X142259429Y-93719544D01*
X142269509Y-93722692D01*
X148612522Y-94399933D01*
X148833467Y-94637972D01*
X148842097Y-94658857D01*
X149179367Y-94996717D01*
X149620258Y-95179791D01*
X150097647Y-95180207D01*
X150538857Y-94997903D01*
X150876717Y-94660633D01*
X151059791Y-94219742D01*
X151060207Y-93742353D01*
X150877903Y-93301143D01*
X150624450Y-93047247D01*
X150639500Y-93036877D01*
X150725509Y-92979409D01*
X151399409Y-92305508D01*
X151409138Y-92290946D01*
X151423060Y-92280322D01*
X152405874Y-91165542D01*
X152356400Y-91414265D01*
X152356400Y-91465735D01*
X152456392Y-91968428D01*
X152741145Y-92394590D01*
X153167307Y-92679343D01*
X153180367Y-92681940D01*
X152880075Y-92807698D01*
X152491584Y-93199225D01*
X152282496Y-93709618D01*
X152394781Y-93930000D01*
X153620000Y-93930000D01*
X153620000Y-93910000D01*
X153720000Y-93910000D01*
X153720000Y-93930000D01*
X153740000Y-93930000D01*
X153740000Y-94030000D01*
X153720000Y-94030000D01*
X153720000Y-94050000D01*
X153620000Y-94050000D01*
X153620000Y-94030000D01*
X152394781Y-94030000D01*
X152282496Y-94250382D01*
X152491584Y-94760775D01*
X152880075Y-95152302D01*
X153180367Y-95278059D01*
X153167307Y-95280657D01*
X152741145Y-95565410D01*
X152456392Y-95991572D01*
X152356400Y-96494265D01*
X152356400Y-96545735D01*
X152456392Y-97048428D01*
X152741145Y-97474590D01*
X153167307Y-97759343D01*
X153321429Y-97790000D01*
X153167307Y-97820657D01*
X152741145Y-98105410D01*
X152456392Y-98531572D01*
X152356400Y-99034265D01*
X152356400Y-99085735D01*
X152456392Y-99588428D01*
X152741145Y-100014590D01*
X153167307Y-100299343D01*
X153321429Y-100330000D01*
X153167307Y-100360657D01*
X152741145Y-100645410D01*
X152456392Y-101071572D01*
X152356400Y-101574265D01*
X152356400Y-101625735D01*
X152456392Y-102128428D01*
X152741145Y-102554590D01*
X153167307Y-102839343D01*
X153321429Y-102870000D01*
X153167307Y-102900657D01*
X152741145Y-103185410D01*
X152456392Y-103611572D01*
X152356400Y-104114265D01*
X152356400Y-104165735D01*
X152456392Y-104668428D01*
X152741145Y-105094590D01*
X153167307Y-105379343D01*
X153321429Y-105410000D01*
X153167307Y-105440657D01*
X152741145Y-105725410D01*
X152456392Y-106151572D01*
X152356400Y-106654265D01*
X152356400Y-106705735D01*
X152456392Y-107208428D01*
X152741145Y-107634590D01*
X153167307Y-107919343D01*
X153321429Y-107950000D01*
X153167307Y-107980657D01*
X152741145Y-108265410D01*
X152456392Y-108691572D01*
X152356400Y-109194265D01*
X152356400Y-109245735D01*
X152456392Y-109748428D01*
X152741145Y-110174590D01*
X153167307Y-110459343D01*
X153321429Y-110490000D01*
X153167307Y-110520657D01*
X152741145Y-110805410D01*
X152456392Y-111231572D01*
X152356400Y-111734265D01*
X152356400Y-111785735D01*
X152456392Y-112288428D01*
X152741145Y-112714590D01*
X153167307Y-112999343D01*
X153180367Y-113001940D01*
X152880075Y-113127698D01*
X152491584Y-113519225D01*
X152282496Y-114029618D01*
X152394781Y-114250000D01*
X153620000Y-114250000D01*
X153620000Y-114230000D01*
X153720000Y-114230000D01*
X153720000Y-114250000D01*
X153740000Y-114250000D01*
X153740000Y-114350000D01*
X153720000Y-114350000D01*
X153720000Y-115575120D01*
X153940382Y-115687500D01*
X153951175Y-115685357D01*
X154143497Y-115604816D01*
X154143497Y-115604816D01*
G37*
X154143497Y-115604816D02*
X153620000Y-117471173D01*
X153620000Y-115575120D01*
X153620000Y-114350000D01*
X152394781Y-114350000D01*
X152282496Y-114570382D01*
X152491584Y-115080775D01*
X152880075Y-115472302D01*
X153388825Y-115685357D01*
X153399618Y-115687500D01*
X153620000Y-115575120D01*
X153620000Y-117471173D01*
X153306349Y-118589394D01*
X153080633Y-118363283D01*
X152639742Y-118180209D01*
X152572148Y-118180150D01*
X152216979Y-118076492D01*
X149075079Y-113180743D01*
X149033999Y-113138115D01*
X149001109Y-113088891D01*
X148532209Y-112619991D01*
X148353776Y-112500766D01*
X148143300Y-112458900D01*
X147480100Y-112458900D01*
X147437707Y-112467332D01*
X147394517Y-112465599D01*
X143964374Y-113005927D01*
X143979324Y-112984156D01*
X148051169Y-110858039D01*
X148116151Y-110805752D01*
X148185509Y-110759409D01*
X148859409Y-110085508D01*
X148913085Y-110005175D01*
X148927895Y-109984805D01*
X149179367Y-110236717D01*
X149620258Y-110419791D01*
X150097647Y-110420207D01*
X150538857Y-110237903D01*
X150876717Y-109900633D01*
X151059791Y-109459742D01*
X151060207Y-108982353D01*
X150877903Y-108541143D01*
X150540633Y-108203283D01*
X150099742Y-108020209D01*
X149622353Y-108019793D01*
X149181143Y-108202097D01*
X149075976Y-108307080D01*
X149103178Y-107620395D01*
X149179367Y-107696717D01*
X149620258Y-107879791D01*
X150097647Y-107880207D01*
X150538857Y-107697903D01*
X150876717Y-107360633D01*
X151059791Y-106919742D01*
X151060207Y-106442353D01*
X150877903Y-106001143D01*
X150540633Y-105663283D01*
X150099742Y-105480209D01*
X149622353Y-105479793D01*
X149181143Y-105662097D01*
X149180738Y-105662500D01*
X149200428Y-105165462D01*
X149620258Y-105339791D01*
X150097647Y-105340207D01*
X150538857Y-105157903D01*
X150876717Y-104820633D01*
X151059791Y-104379742D01*
X151060207Y-103902353D01*
X150877903Y-103461143D01*
X150540633Y-103123283D01*
X150099742Y-102940209D01*
X149742624Y-102939897D01*
X149757990Y-102912339D01*
X150069169Y-102800182D01*
X150097647Y-102800207D01*
X150538857Y-102617903D01*
X150876717Y-102280633D01*
X151059791Y-101839742D01*
X151060207Y-101362353D01*
X150877903Y-100921143D01*
X150540633Y-100583283D01*
X150099742Y-100400209D01*
X149622353Y-100399793D01*
X149181143Y-100582097D01*
X148843283Y-100919367D01*
X148660209Y-101360258D01*
X148659793Y-101837647D01*
X148708649Y-101955889D01*
X148797271Y-102376597D01*
X148229126Y-103395555D01*
X148222595Y-103415782D01*
X148210096Y-103432975D01*
X148189830Y-103517266D01*
X148163192Y-103599775D01*
X148164899Y-103620963D01*
X148159931Y-103641629D01*
X147979571Y-108194537D01*
X147559742Y-108020209D01*
X147410392Y-108020078D01*
X146964117Y-107952750D01*
X144876439Y-105498443D01*
X144862923Y-105487744D01*
X144853618Y-105473237D01*
X138910418Y-99303337D01*
X138906119Y-99300347D01*
X138903209Y-99295991D01*
X138632365Y-99025147D01*
X141153256Y-99172266D01*
X141155472Y-99171958D01*
X141157641Y-99172504D01*
X148638076Y-99549168D01*
X149017126Y-99914192D01*
X149179367Y-100076717D01*
X149620258Y-100259791D01*
X150097647Y-100260207D01*
X150538857Y-100077903D01*
X150876717Y-99740633D01*
X151059791Y-99299742D01*
X151060207Y-98822353D01*
X150877903Y-98381143D01*
X150540633Y-98043283D01*
X150099742Y-97860209D01*
X149622353Y-97859793D01*
X149181143Y-98042097D01*
X149062307Y-98160724D01*
X148693369Y-98450559D01*
X144271232Y-98227890D01*
X148799106Y-97299076D01*
X149126873Y-97484131D01*
X149179367Y-97536717D01*
X149620258Y-97719791D01*
X150097647Y-97720207D01*
X150538857Y-97537903D01*
X150876717Y-97200633D01*
X151059791Y-96759742D01*
X151060207Y-96282353D01*
X150877903Y-95841143D01*
X150540633Y-95503283D01*
X150099742Y-95320209D01*
X149622353Y-95319793D01*
X149181143Y-95502097D01*
X148843283Y-95839367D01*
X148811675Y-95915485D01*
X148577977Y-96221531D01*
X142565284Y-97454930D01*
X142565547Y-97153866D01*
X142436415Y-96841343D01*
X142197515Y-96602026D01*
X142145449Y-96580406D01*
X142001057Y-96469146D01*
X139889194Y-92455192D01*
X139884067Y-92361335D01*
X142046606Y-93648424D01*
X142056558Y-93651950D01*
X142064667Y-93658717D01*
X142157356Y-93687665D01*
X142248883Y-93720095D01*
X142259429Y-93719544D01*
X142269509Y-93722692D01*
X148612522Y-94399933D01*
X148833467Y-94637972D01*
X148842097Y-94658857D01*
X149179367Y-94996717D01*
X149620258Y-95179791D01*
X150097647Y-95180207D01*
X150538857Y-94997903D01*
X150876717Y-94660633D01*
X151059791Y-94219742D01*
X151060207Y-93742353D01*
X150877903Y-93301143D01*
X150624450Y-93047247D01*
X150639500Y-93036877D01*
X150725509Y-92979409D01*
X151399409Y-92305508D01*
X151409138Y-92290946D01*
X151423060Y-92280322D01*
X152405874Y-91165542D01*
X152356400Y-91414265D01*
X152356400Y-91465735D01*
X152456392Y-91968428D01*
X152741145Y-92394590D01*
X153167307Y-92679343D01*
X153180367Y-92681940D01*
X152880075Y-92807698D01*
X152491584Y-93199225D01*
X152282496Y-93709618D01*
X152394781Y-93930000D01*
X153620000Y-93930000D01*
X153620000Y-93910000D01*
X153720000Y-93910000D01*
X153720000Y-93930000D01*
X153740000Y-93930000D01*
X153740000Y-94030000D01*
X153720000Y-94030000D01*
X153720000Y-94050000D01*
X153620000Y-94050000D01*
X153620000Y-94030000D01*
X152394781Y-94030000D01*
X152282496Y-94250382D01*
X152491584Y-94760775D01*
X152880075Y-95152302D01*
X153180367Y-95278059D01*
X153167307Y-95280657D01*
X152741145Y-95565410D01*
X152456392Y-95991572D01*
X152356400Y-96494265D01*
X152356400Y-96545735D01*
X152456392Y-97048428D01*
X152741145Y-97474590D01*
X153167307Y-97759343D01*
X153321429Y-97790000D01*
X153167307Y-97820657D01*
X152741145Y-98105410D01*
X152456392Y-98531572D01*
X152356400Y-99034265D01*
X152356400Y-99085735D01*
X152456392Y-99588428D01*
X152741145Y-100014590D01*
X153167307Y-100299343D01*
X153321429Y-100330000D01*
X153167307Y-100360657D01*
X152741145Y-100645410D01*
X152456392Y-101071572D01*
X152356400Y-101574265D01*
X152356400Y-101625735D01*
X152456392Y-102128428D01*
X152741145Y-102554590D01*
X153167307Y-102839343D01*
X153321429Y-102870000D01*
X153167307Y-102900657D01*
X152741145Y-103185410D01*
X152456392Y-103611572D01*
X152356400Y-104114265D01*
X152356400Y-104165735D01*
X152456392Y-104668428D01*
X152741145Y-105094590D01*
X153167307Y-105379343D01*
X153321429Y-105410000D01*
X153167307Y-105440657D01*
X152741145Y-105725410D01*
X152456392Y-106151572D01*
X152356400Y-106654265D01*
X152356400Y-106705735D01*
X152456392Y-107208428D01*
X152741145Y-107634590D01*
X153167307Y-107919343D01*
X153321429Y-107950000D01*
X153167307Y-107980657D01*
X152741145Y-108265410D01*
X152456392Y-108691572D01*
X152356400Y-109194265D01*
X152356400Y-109245735D01*
X152456392Y-109748428D01*
X152741145Y-110174590D01*
X153167307Y-110459343D01*
X153321429Y-110490000D01*
X153167307Y-110520657D01*
X152741145Y-110805410D01*
X152456392Y-111231572D01*
X152356400Y-111734265D01*
X152356400Y-111785735D01*
X152456392Y-112288428D01*
X152741145Y-112714590D01*
X153167307Y-112999343D01*
X153180367Y-113001940D01*
X152880075Y-113127698D01*
X152491584Y-113519225D01*
X152282496Y-114029618D01*
X152394781Y-114250000D01*
X153620000Y-114250000D01*
X153620000Y-114230000D01*
X153720000Y-114230000D01*
X153720000Y-114250000D01*
X153740000Y-114250000D01*
X153740000Y-114350000D01*
X153720000Y-114350000D01*
X153720000Y-115575120D01*
X153940382Y-115687500D01*
X153951175Y-115685357D01*
X154143497Y-115604816D01*
G36*
X156280000Y-88950000D02*
X156260000Y-88950000D01*
X156260000Y-88970000D01*
X156160000Y-88970000D01*
X156160000Y-88950000D01*
X156140000Y-88950000D01*
X156140000Y-88850000D01*
X156160000Y-88850000D01*
X156160000Y-88830000D01*
X156260000Y-88830000D01*
X156260000Y-88850000D01*
X156280000Y-88850000D01*
X156280000Y-88950000D01*
X156280000Y-88950000D01*
G37*
X156280000Y-88950000D02*
X156260000Y-88950000D01*
X156260000Y-88970000D01*
X156160000Y-88970000D01*
X156160000Y-88950000D01*
X156140000Y-88950000D01*
X156140000Y-88850000D01*
X156160000Y-88850000D01*
X156160000Y-88830000D01*
X156260000Y-88830000D01*
X156260000Y-88850000D01*
X156280000Y-88850000D01*
X156280000Y-88950000D01*
G36*
X156280000Y-99110000D02*
X156260000Y-99110000D01*
X156260000Y-99130000D01*
X156160000Y-99130000D01*
X156160000Y-99110000D01*
X156140000Y-99110000D01*
X156140000Y-99010000D01*
X156160000Y-99010000D01*
X156160000Y-98990000D01*
X156260000Y-98990000D01*
X156260000Y-99010000D01*
X156280000Y-99010000D01*
X156280000Y-99110000D01*
X156280000Y-99110000D01*
G37*
X156280000Y-99110000D02*
X156260000Y-99110000D01*
X156260000Y-99130000D01*
X156160000Y-99130000D01*
X156160000Y-99110000D01*
X156140000Y-99110000D01*
X156140000Y-99010000D01*
X156160000Y-99010000D01*
X156160000Y-98990000D01*
X156260000Y-98990000D01*
X156260000Y-99010000D01*
X156280000Y-99010000D01*
X156280000Y-99110000D01*
G36*
X156280000Y-106730000D02*
X156260000Y-106730000D01*
X156260000Y-106750000D01*
X156160000Y-106750000D01*
X156160000Y-106730000D01*
X156140000Y-106730000D01*
X156140000Y-106630000D01*
X156160000Y-106630000D01*
X156160000Y-106610000D01*
X156260000Y-106610000D01*
X156260000Y-106630000D01*
X156280000Y-106630000D01*
X156280000Y-106730000D01*
X156280000Y-106730000D01*
G37*
X156280000Y-106730000D02*
X156260000Y-106730000D01*
X156260000Y-106750000D01*
X156160000Y-106750000D01*
X156160000Y-106730000D01*
X156140000Y-106730000D01*
X156140000Y-106630000D01*
X156160000Y-106630000D01*
X156160000Y-106610000D01*
X156260000Y-106610000D01*
X156260000Y-106630000D01*
X156280000Y-106630000D01*
X156280000Y-106730000D01*
G36*
X157330000Y-148817812D02*
X157074453Y-148711700D01*
X156617552Y-148711302D01*
X156195277Y-148885782D01*
X156071502Y-149009340D01*
X155708363Y-149310000D01*
X150473505Y-149310000D01*
X150473505Y-145028318D01*
X150473495Y-144531634D01*
X150283441Y-144072801D01*
X150062468Y-144013242D01*
X149991758Y-144083952D01*
X149991758Y-143942532D01*
X149932199Y-143721559D01*
X149473318Y-143531495D01*
X148976634Y-143531505D01*
X148517801Y-143721559D01*
X148458242Y-143942532D01*
X149225000Y-144709289D01*
X149991758Y-143942532D01*
X149991758Y-144083952D01*
X149295711Y-144780000D01*
X150062468Y-145546758D01*
X150283441Y-145487199D01*
X150473505Y-145028318D01*
X150473505Y-149310000D01*
X150361635Y-149310000D01*
X149999273Y-149009983D01*
X149991758Y-149002454D01*
X149991758Y-145617468D01*
X149225000Y-144850711D01*
X149154289Y-144921421D01*
X149154289Y-144780000D01*
X148387532Y-144013242D01*
X148166559Y-144072801D01*
X147976495Y-144531682D01*
X147976505Y-145028366D01*
X148166559Y-145487199D01*
X148387532Y-145546758D01*
X149154289Y-144780000D01*
X149154289Y-144921421D01*
X148458242Y-145617468D01*
X148517801Y-145838441D01*
X148976682Y-146028505D01*
X149473366Y-146028495D01*
X149932199Y-145838441D01*
X149991758Y-145617468D01*
X149991758Y-149002454D01*
X149876422Y-148886917D01*
X149454453Y-148711700D01*
X148997552Y-148711302D01*
X148575277Y-148885782D01*
X148251917Y-149208578D01*
X148076700Y-149630547D01*
X148076302Y-150087448D01*
X148250782Y-150509723D01*
X148573578Y-150833083D01*
X148927393Y-150980000D01*
X145393505Y-150980000D01*
X145393505Y-146933318D01*
X145393495Y-146436634D01*
X145203441Y-145977801D01*
X144982468Y-145918242D01*
X144911758Y-145988952D01*
X144911758Y-145847532D01*
X144852199Y-145626559D01*
X144393318Y-145436495D01*
X143896634Y-145436505D01*
X143437801Y-145626559D01*
X143378242Y-145847532D01*
X144145000Y-146614289D01*
X144911758Y-145847532D01*
X144911758Y-145988952D01*
X144215711Y-146685000D01*
X144982468Y-147451758D01*
X145203441Y-147392199D01*
X145393505Y-146933318D01*
X145393505Y-150980000D01*
X144911758Y-150980000D01*
X144911758Y-147522468D01*
X144145000Y-146755711D01*
X144074289Y-146826421D01*
X144074289Y-146685000D01*
X143307532Y-145918242D01*
X143086559Y-145977801D01*
X142896495Y-146436682D01*
X142896505Y-146933366D01*
X143086559Y-147392199D01*
X143307532Y-147451758D01*
X144074289Y-146685000D01*
X144074289Y-146826421D01*
X143378242Y-147522468D01*
X143437801Y-147743441D01*
X143896682Y-147933505D01*
X144393366Y-147933495D01*
X144852199Y-147743441D01*
X144911758Y-147522468D01*
X144911758Y-150980000D01*
X142753698Y-150980000D01*
X142753698Y-146457552D01*
X142579218Y-146035277D01*
X142256422Y-145711917D01*
X141834453Y-145536700D01*
X141377552Y-145536302D01*
X140955277Y-145710782D01*
X140631917Y-146033578D01*
X140456700Y-146455547D01*
X140456302Y-146912448D01*
X140630782Y-147334723D01*
X140953578Y-147658083D01*
X141375547Y-147833300D01*
X141832448Y-147833698D01*
X142254723Y-147659218D01*
X142578083Y-147336422D01*
X142753300Y-146914453D01*
X142753698Y-146457552D01*
X142753698Y-150980000D01*
X140213500Y-150980000D01*
X123340000Y-150980000D01*
X123340000Y-146535000D01*
X110313000Y-146535000D01*
X110313000Y-144494000D01*
X110313000Y-143560000D01*
X109633000Y-143560000D01*
X109495500Y-143697500D01*
X109495500Y-143972098D01*
X109495500Y-144190902D01*
X109579232Y-144393050D01*
X109733950Y-144547767D01*
X109936098Y-144631500D01*
X110175500Y-144631500D01*
X110313000Y-144494000D01*
X110313000Y-146535000D01*
X103328000Y-146535000D01*
X103328000Y-144494000D01*
X103328000Y-143560000D01*
X103328000Y-143460000D01*
X103328000Y-142526000D01*
X103190500Y-142388500D01*
X102951098Y-142388500D01*
X102748950Y-142472233D01*
X102594232Y-142626950D01*
X102510500Y-142829098D01*
X102510500Y-143047902D01*
X102510500Y-143322500D01*
X102648000Y-143460000D01*
X103328000Y-143460000D01*
X103328000Y-143560000D01*
X102648000Y-143560000D01*
X102510500Y-143697500D01*
X102510500Y-143972098D01*
X102510500Y-144190902D01*
X102594232Y-144393050D01*
X102748950Y-144547767D01*
X102951098Y-144631500D01*
X103190500Y-144631500D01*
X103328000Y-144494000D01*
X103328000Y-146535000D01*
X101115000Y-146535000D01*
X101115000Y-109895030D01*
X101128654Y-109963545D01*
X101153478Y-110088344D01*
X101153544Y-110088444D01*
X101153568Y-110088560D01*
X101228368Y-110268960D01*
X101233909Y-110277246D01*
X101236151Y-110286958D01*
X104884139Y-118385525D01*
X104854569Y-119117714D01*
X104845209Y-119140258D01*
X104844793Y-119617647D01*
X105027097Y-120058857D01*
X105364367Y-120396717D01*
X105805258Y-120579791D01*
X106282647Y-120580207D01*
X106723857Y-120397903D01*
X107061717Y-120060633D01*
X107244791Y-119619742D01*
X107245207Y-119142353D01*
X107062903Y-118701143D01*
X106725633Y-118363283D01*
X106667397Y-118339101D01*
X106069466Y-117851670D01*
X104019597Y-113300944D01*
X107475396Y-118671923D01*
X107419165Y-119058481D01*
X107385209Y-119140258D01*
X107384793Y-119617647D01*
X107567097Y-120058857D01*
X107904367Y-120396717D01*
X108345258Y-120579791D01*
X108822647Y-120580207D01*
X109150475Y-120444751D01*
X108105136Y-138474375D01*
X107868230Y-138716682D01*
X104403487Y-120616475D01*
X104640674Y-119774152D01*
X104704791Y-119619742D01*
X104705207Y-119142353D01*
X104522903Y-118701143D01*
X104185633Y-118363283D01*
X103744742Y-118180209D01*
X103267353Y-118179793D01*
X102826143Y-118362097D01*
X102488283Y-118699367D01*
X102305209Y-119140258D01*
X102304793Y-119617647D01*
X102487097Y-120058857D01*
X102599334Y-120171290D01*
X103126709Y-120861093D01*
X106522052Y-138598749D01*
X106284742Y-138500209D01*
X105807353Y-138499793D01*
X105366143Y-138682097D01*
X105028283Y-139019367D01*
X104845209Y-139460258D01*
X104844793Y-139937647D01*
X105027097Y-140378857D01*
X105364367Y-140716717D01*
X105805258Y-140899791D01*
X106282647Y-140900207D01*
X106723857Y-140717903D01*
X106784346Y-140657518D01*
X107370561Y-142701573D01*
X107315000Y-142835711D01*
X107251991Y-142683595D01*
X107125404Y-142557008D01*
X106960010Y-142488500D01*
X106780989Y-142488500D01*
X106145989Y-142488500D01*
X105980595Y-142557009D01*
X105854008Y-142683596D01*
X105785500Y-142848990D01*
X105785500Y-142960000D01*
X105669500Y-142960000D01*
X105669500Y-142848989D01*
X105600991Y-142683595D01*
X105474404Y-142557008D01*
X105309010Y-142488500D01*
X105129989Y-142488500D01*
X104805397Y-142488500D01*
X104805397Y-139443414D01*
X104608219Y-138965305D01*
X104605953Y-138961914D01*
X104379632Y-138896079D01*
X104308921Y-138966790D01*
X104308921Y-138825368D01*
X104243086Y-138599047D01*
X103765586Y-138400399D01*
X103248414Y-138399603D01*
X102770305Y-138596781D01*
X102766914Y-138599047D01*
X102701079Y-138825368D01*
X103505000Y-139629289D01*
X104308921Y-138825368D01*
X104308921Y-138966790D01*
X103575711Y-139700000D01*
X104379632Y-140503921D01*
X104605953Y-140438086D01*
X104804601Y-139960586D01*
X104805397Y-139443414D01*
X104805397Y-142488500D01*
X104494989Y-142488500D01*
X104329595Y-142557009D01*
X104308921Y-142577683D01*
X104308921Y-140574632D01*
X103505000Y-139770711D01*
X103434289Y-139841422D01*
X103434289Y-139700000D01*
X102630368Y-138896079D01*
X102404047Y-138961914D01*
X102205399Y-139439414D01*
X102204603Y-139956586D01*
X102401781Y-140434695D01*
X102404047Y-140438086D01*
X102630368Y-140503921D01*
X103434289Y-139700000D01*
X103434289Y-139841422D01*
X102701079Y-140574632D01*
X102766914Y-140800953D01*
X103244414Y-140999601D01*
X103761586Y-141000397D01*
X104239695Y-140803219D01*
X104243086Y-140800953D01*
X104308921Y-140574632D01*
X104308921Y-142577683D01*
X104203008Y-142683596D01*
X104194119Y-142705054D01*
X104161768Y-142626950D01*
X104007050Y-142472233D01*
X103804902Y-142388500D01*
X103565500Y-142388500D01*
X103428000Y-142526000D01*
X103428000Y-143460000D01*
X103448000Y-143460000D01*
X103448000Y-143560000D01*
X103428000Y-143560000D01*
X103428000Y-144494000D01*
X103565500Y-144631500D01*
X103804902Y-144631500D01*
X104007050Y-144547767D01*
X104161768Y-144393050D01*
X104194119Y-144314945D01*
X104203009Y-144336405D01*
X104329596Y-144462992D01*
X104494990Y-144531500D01*
X104674011Y-144531500D01*
X105309011Y-144531500D01*
X105474405Y-144462991D01*
X105600992Y-144336404D01*
X105669500Y-144171010D01*
X105669500Y-144060000D01*
X105785500Y-144060000D01*
X105785500Y-144171011D01*
X105854009Y-144336405D01*
X105980596Y-144462992D01*
X106145990Y-144531500D01*
X106325011Y-144531500D01*
X106960011Y-144531500D01*
X107125405Y-144462991D01*
X107251992Y-144336404D01*
X107314999Y-144184288D01*
X107378009Y-144336405D01*
X107504596Y-144462992D01*
X107669990Y-144531500D01*
X107849011Y-144531500D01*
X108484011Y-144531500D01*
X108649405Y-144462991D01*
X108775992Y-144336404D01*
X108844500Y-144171010D01*
X108844500Y-143991989D01*
X108844500Y-142848989D01*
X108775991Y-142683595D01*
X108694416Y-142602020D01*
X108187440Y-140834259D01*
X108345258Y-140899791D01*
X108481251Y-140899909D01*
X108912078Y-140974935D01*
X110060375Y-142388500D01*
X109936098Y-142388500D01*
X109733950Y-142472233D01*
X109579232Y-142626950D01*
X109495500Y-142829098D01*
X109495500Y-143047902D01*
X109495500Y-143322500D01*
X109633000Y-143460000D01*
X110313000Y-143460000D01*
X110313000Y-143440000D01*
X110413000Y-143440000D01*
X110413000Y-143460000D01*
X110433000Y-143460000D01*
X110433000Y-143560000D01*
X110413000Y-143560000D01*
X110413000Y-144494000D01*
X110550500Y-144631500D01*
X110776877Y-144631500D01*
X110780091Y-144636309D01*
X111014692Y-144870909D01*
X111028365Y-144880045D01*
X111038294Y-144893159D01*
X111117138Y-144939361D01*
X111193124Y-144990134D01*
X111209256Y-144993343D01*
X111223446Y-145001658D01*
X112667145Y-145502158D01*
X112757673Y-145514672D01*
X112847300Y-145532500D01*
X113482300Y-145532500D01*
X114228700Y-145532500D01*
X114257451Y-145526780D01*
X114286646Y-145529439D01*
X124942946Y-144400439D01*
X124947209Y-144399111D01*
X124951662Y-144399445D01*
X145446362Y-141896945D01*
X145468219Y-141889753D01*
X145491230Y-141889573D01*
X147908130Y-141389073D01*
X147956041Y-141368785D01*
X148007076Y-141358634D01*
X148053895Y-141327350D01*
X148105743Y-141305396D01*
X148142244Y-141268317D01*
X148185509Y-141239409D01*
X148859409Y-140565508D01*
X148909017Y-140491264D01*
X148928729Y-140465641D01*
X149179367Y-140716717D01*
X149620258Y-140899791D01*
X150097647Y-140900207D01*
X150538857Y-140717903D01*
X150876717Y-140380633D01*
X151059791Y-139939742D01*
X151060207Y-139462353D01*
X150877903Y-139021143D01*
X150540633Y-138683283D01*
X150099742Y-138500209D01*
X149622353Y-138499793D01*
X149181143Y-138682097D01*
X149117322Y-138745805D01*
X150329055Y-120609842D01*
X150576382Y-120361294D01*
X154041512Y-138463524D01*
X153804324Y-139305849D01*
X153740209Y-139460258D01*
X153739793Y-139937647D01*
X153922097Y-140378857D01*
X154125594Y-140582710D01*
X153600207Y-140703386D01*
X153600207Y-139462353D01*
X153417903Y-139021143D01*
X153080633Y-138683283D01*
X152639742Y-138500209D01*
X152162353Y-138499793D01*
X151721143Y-138682097D01*
X151383283Y-139019367D01*
X151200209Y-139460258D01*
X151199793Y-139937647D01*
X151382097Y-140378857D01*
X151719367Y-140716717D01*
X152160258Y-140899791D01*
X152637647Y-140900207D01*
X153078857Y-140717903D01*
X153416717Y-140380633D01*
X153599791Y-139939742D01*
X153600207Y-139462353D01*
X153600207Y-140703386D01*
X134676676Y-145049959D01*
X134611654Y-145079161D01*
X134543322Y-145099462D01*
X133463953Y-145668450D01*
X133055950Y-145582997D01*
X132944453Y-145536700D01*
X132487552Y-145536302D01*
X132065277Y-145710782D01*
X131741917Y-146033578D01*
X131566700Y-146455547D01*
X131566302Y-146912448D01*
X131740782Y-147334723D01*
X132063578Y-147658083D01*
X132485547Y-147833300D01*
X132942448Y-147833698D01*
X133364723Y-147659218D01*
X133688083Y-147336422D01*
X133789889Y-147091243D01*
X133976957Y-146641500D01*
X134006498Y-146625927D01*
X134006505Y-146933366D01*
X134196559Y-147392199D01*
X134417532Y-147451758D01*
X135184289Y-146685000D01*
X135170147Y-146670858D01*
X135240858Y-146600147D01*
X135255000Y-146614289D01*
X135269142Y-146600147D01*
X135339852Y-146670857D01*
X135325711Y-146685000D01*
X135339852Y-146699142D01*
X135269142Y-146769852D01*
X135255000Y-146755711D01*
X134488242Y-147522468D01*
X134500651Y-147568510D01*
X133264489Y-147934500D01*
X132195155Y-147934500D01*
X132120829Y-147903727D01*
X131319134Y-147483549D01*
X131323500Y-147473010D01*
X131323500Y-147293989D01*
X131323500Y-145896989D01*
X131254991Y-145731595D01*
X131128404Y-145605008D01*
X130963010Y-145536500D01*
X130783989Y-145536500D01*
X129386989Y-145536500D01*
X129221595Y-145605009D01*
X129095008Y-145731596D01*
X129026500Y-145896990D01*
X129026500Y-146076011D01*
X129026500Y-147473011D01*
X129095009Y-147638405D01*
X129221596Y-147764992D01*
X129386990Y-147833500D01*
X129566011Y-147833500D01*
X130014059Y-147833500D01*
X130084091Y-147938309D01*
X130318692Y-148172909D01*
X130387693Y-148219014D01*
X130452280Y-148271147D01*
X131632181Y-148889547D01*
X131656245Y-148896633D01*
X131677108Y-148910569D01*
X131875323Y-148992633D01*
X131875324Y-148992634D01*
X131875409Y-148992669D01*
X131980051Y-149013465D01*
X132085800Y-149034500D01*
X132085892Y-149034500D01*
X133344200Y-149034500D01*
X133421671Y-149019090D01*
X133500339Y-149011872D01*
X135866338Y-148311372D01*
X135872117Y-148308332D01*
X135878603Y-148307584D01*
X137981969Y-147631067D01*
X137985009Y-147638405D01*
X138111596Y-147764992D01*
X138276990Y-147833500D01*
X138456011Y-147833500D01*
X139853011Y-147833500D01*
X140018405Y-147764991D01*
X140144992Y-147638404D01*
X140213500Y-147473010D01*
X140213500Y-147293989D01*
X140213500Y-145896989D01*
X140144991Y-145731595D01*
X140018404Y-145605008D01*
X139853010Y-145536500D01*
X139673989Y-145536500D01*
X138276989Y-145536500D01*
X138111595Y-145605009D01*
X137985008Y-145731596D01*
X137916500Y-145896990D01*
X137916500Y-146076011D01*
X137916500Y-146496628D01*
X136495009Y-146953829D01*
X136503505Y-146933318D01*
X136503495Y-146436634D01*
X136313441Y-145977801D01*
X136092470Y-145918242D01*
X136176639Y-145834073D01*
X155539724Y-141386541D01*
X155581815Y-141367636D01*
X155627076Y-141358634D01*
X155678773Y-141324090D01*
X155735486Y-141298620D01*
X155767139Y-141265046D01*
X155805509Y-141239409D01*
X156479405Y-140565511D01*
X156479409Y-140565509D01*
X156479409Y-140565508D01*
X156598634Y-140387076D01*
X156640500Y-140176600D01*
X156640501Y-140176600D01*
X156640500Y-140176594D01*
X156640500Y-139223400D01*
X156634099Y-139191221D01*
X156636659Y-139158510D01*
X156240397Y-135823297D01*
X156240397Y-119123414D01*
X156043219Y-118645305D01*
X156040953Y-118641914D01*
X155814632Y-118576079D01*
X155010711Y-119380000D01*
X155814632Y-120183921D01*
X156040953Y-120118086D01*
X156239601Y-119640586D01*
X156240397Y-119123414D01*
X156240397Y-135823297D01*
X154428761Y-120575325D01*
X154679414Y-120679601D01*
X155196586Y-120680397D01*
X155674695Y-120483219D01*
X155678086Y-120480953D01*
X155743921Y-120254632D01*
X154940000Y-119450711D01*
X154925857Y-119464852D01*
X154855146Y-119394141D01*
X154869289Y-119380000D01*
X154855147Y-119365858D01*
X154925858Y-119295147D01*
X154940000Y-119309289D01*
X155743921Y-118505368D01*
X155678086Y-118279047D01*
X155200586Y-118080399D01*
X154683414Y-118079603D01*
X154579809Y-118122330D01*
X155367921Y-115312572D01*
X155707307Y-115539343D01*
X156210000Y-115639335D01*
X156712693Y-115539343D01*
X157138855Y-115254590D01*
X157330000Y-114968521D01*
X157330000Y-143629526D01*
X157093318Y-143531495D01*
X156596634Y-143531505D01*
X156137801Y-143721559D01*
X156078242Y-143942532D01*
X156845000Y-144709289D01*
X156859142Y-144695147D01*
X156929852Y-144765857D01*
X156915711Y-144780000D01*
X156929853Y-144794142D01*
X156859142Y-144864852D01*
X156845000Y-144850711D01*
X156774289Y-144921421D01*
X156774289Y-144780000D01*
X156007532Y-144013242D01*
X155786559Y-144072801D01*
X155596495Y-144531682D01*
X155596505Y-145028366D01*
X155786559Y-145487199D01*
X156007532Y-145546758D01*
X156774289Y-144780000D01*
X156774289Y-144921421D01*
X156078242Y-145617468D01*
X156137801Y-145838441D01*
X156596682Y-146028505D01*
X157093366Y-146028495D01*
X157330000Y-145930478D01*
X157330000Y-148817812D01*
X157330000Y-148817812D01*
G37*
X157330000Y-148817812D02*
X157074453Y-148711700D01*
X156617552Y-148711302D01*
X156195277Y-148885782D01*
X156071502Y-149009340D01*
X155708363Y-149310000D01*
X150473505Y-149310000D01*
X150473505Y-145028318D01*
X150473495Y-144531634D01*
X150283441Y-144072801D01*
X150062468Y-144013242D01*
X149991758Y-144083952D01*
X149991758Y-143942532D01*
X149932199Y-143721559D01*
X149473318Y-143531495D01*
X148976634Y-143531505D01*
X148517801Y-143721559D01*
X148458242Y-143942532D01*
X149225000Y-144709289D01*
X149991758Y-143942532D01*
X149991758Y-144083952D01*
X149295711Y-144780000D01*
X150062468Y-145546758D01*
X150283441Y-145487199D01*
X150473505Y-145028318D01*
X150473505Y-149310000D01*
X150361635Y-149310000D01*
X149999273Y-149009983D01*
X149991758Y-149002454D01*
X149991758Y-145617468D01*
X149225000Y-144850711D01*
X149154289Y-144921421D01*
X149154289Y-144780000D01*
X148387532Y-144013242D01*
X148166559Y-144072801D01*
X147976495Y-144531682D01*
X147976505Y-145028366D01*
X148166559Y-145487199D01*
X148387532Y-145546758D01*
X149154289Y-144780000D01*
X149154289Y-144921421D01*
X148458242Y-145617468D01*
X148517801Y-145838441D01*
X148976682Y-146028505D01*
X149473366Y-146028495D01*
X149932199Y-145838441D01*
X149991758Y-145617468D01*
X149991758Y-149002454D01*
X149876422Y-148886917D01*
X149454453Y-148711700D01*
X148997552Y-148711302D01*
X148575277Y-148885782D01*
X148251917Y-149208578D01*
X148076700Y-149630547D01*
X148076302Y-150087448D01*
X148250782Y-150509723D01*
X148573578Y-150833083D01*
X148927393Y-150980000D01*
X145393505Y-150980000D01*
X145393505Y-146933318D01*
X145393495Y-146436634D01*
X145203441Y-145977801D01*
X144982468Y-145918242D01*
X144911758Y-145988952D01*
X144911758Y-145847532D01*
X144852199Y-145626559D01*
X144393318Y-145436495D01*
X143896634Y-145436505D01*
X143437801Y-145626559D01*
X143378242Y-145847532D01*
X144145000Y-146614289D01*
X144911758Y-145847532D01*
X144911758Y-145988952D01*
X144215711Y-146685000D01*
X144982468Y-147451758D01*
X145203441Y-147392199D01*
X145393505Y-146933318D01*
X145393505Y-150980000D01*
X144911758Y-150980000D01*
X144911758Y-147522468D01*
X144145000Y-146755711D01*
X144074289Y-146826421D01*
X144074289Y-146685000D01*
X143307532Y-145918242D01*
X143086559Y-145977801D01*
X142896495Y-146436682D01*
X142896505Y-146933366D01*
X143086559Y-147392199D01*
X143307532Y-147451758D01*
X144074289Y-146685000D01*
X144074289Y-146826421D01*
X143378242Y-147522468D01*
X143437801Y-147743441D01*
X143896682Y-147933505D01*
X144393366Y-147933495D01*
X144852199Y-147743441D01*
X144911758Y-147522468D01*
X144911758Y-150980000D01*
X142753698Y-150980000D01*
X142753698Y-146457552D01*
X142579218Y-146035277D01*
X142256422Y-145711917D01*
X141834453Y-145536700D01*
X141377552Y-145536302D01*
X140955277Y-145710782D01*
X140631917Y-146033578D01*
X140456700Y-146455547D01*
X140456302Y-146912448D01*
X140630782Y-147334723D01*
X140953578Y-147658083D01*
X141375547Y-147833300D01*
X141832448Y-147833698D01*
X142254723Y-147659218D01*
X142578083Y-147336422D01*
X142753300Y-146914453D01*
X142753698Y-146457552D01*
X142753698Y-150980000D01*
X140213500Y-150980000D01*
X123340000Y-150980000D01*
X123340000Y-146535000D01*
X110313000Y-146535000D01*
X110313000Y-144494000D01*
X110313000Y-143560000D01*
X109633000Y-143560000D01*
X109495500Y-143697500D01*
X109495500Y-143972098D01*
X109495500Y-144190902D01*
X109579232Y-144393050D01*
X109733950Y-144547767D01*
X109936098Y-144631500D01*
X110175500Y-144631500D01*
X110313000Y-144494000D01*
X110313000Y-146535000D01*
X103328000Y-146535000D01*
X103328000Y-144494000D01*
X103328000Y-143560000D01*
X103328000Y-143460000D01*
X103328000Y-142526000D01*
X103190500Y-142388500D01*
X102951098Y-142388500D01*
X102748950Y-142472233D01*
X102594232Y-142626950D01*
X102510500Y-142829098D01*
X102510500Y-143047902D01*
X102510500Y-143322500D01*
X102648000Y-143460000D01*
X103328000Y-143460000D01*
X103328000Y-143560000D01*
X102648000Y-143560000D01*
X102510500Y-143697500D01*
X102510500Y-143972098D01*
X102510500Y-144190902D01*
X102594232Y-144393050D01*
X102748950Y-144547767D01*
X102951098Y-144631500D01*
X103190500Y-144631500D01*
X103328000Y-144494000D01*
X103328000Y-146535000D01*
X101115000Y-146535000D01*
X101115000Y-109895030D01*
X101128654Y-109963545D01*
X101153478Y-110088344D01*
X101153544Y-110088444D01*
X101153568Y-110088560D01*
X101228368Y-110268960D01*
X101233909Y-110277246D01*
X101236151Y-110286958D01*
X104884139Y-118385525D01*
X104854569Y-119117714D01*
X104845209Y-119140258D01*
X104844793Y-119617647D01*
X105027097Y-120058857D01*
X105364367Y-120396717D01*
X105805258Y-120579791D01*
X106282647Y-120580207D01*
X106723857Y-120397903D01*
X107061717Y-120060633D01*
X107244791Y-119619742D01*
X107245207Y-119142353D01*
X107062903Y-118701143D01*
X106725633Y-118363283D01*
X106667397Y-118339101D01*
X106069466Y-117851670D01*
X104019597Y-113300944D01*
X107475396Y-118671923D01*
X107419165Y-119058481D01*
X107385209Y-119140258D01*
X107384793Y-119617647D01*
X107567097Y-120058857D01*
X107904367Y-120396717D01*
X108345258Y-120579791D01*
X108822647Y-120580207D01*
X109150475Y-120444751D01*
X108105136Y-138474375D01*
X107868230Y-138716682D01*
X104403487Y-120616475D01*
X104640674Y-119774152D01*
X104704791Y-119619742D01*
X104705207Y-119142353D01*
X104522903Y-118701143D01*
X104185633Y-118363283D01*
X103744742Y-118180209D01*
X103267353Y-118179793D01*
X102826143Y-118362097D01*
X102488283Y-118699367D01*
X102305209Y-119140258D01*
X102304793Y-119617647D01*
X102487097Y-120058857D01*
X102599334Y-120171290D01*
X103126709Y-120861093D01*
X106522052Y-138598749D01*
X106284742Y-138500209D01*
X105807353Y-138499793D01*
X105366143Y-138682097D01*
X105028283Y-139019367D01*
X104845209Y-139460258D01*
X104844793Y-139937647D01*
X105027097Y-140378857D01*
X105364367Y-140716717D01*
X105805258Y-140899791D01*
X106282647Y-140900207D01*
X106723857Y-140717903D01*
X106784346Y-140657518D01*
X107370561Y-142701573D01*
X107315000Y-142835711D01*
X107251991Y-142683595D01*
X107125404Y-142557008D01*
X106960010Y-142488500D01*
X106780989Y-142488500D01*
X106145989Y-142488500D01*
X105980595Y-142557009D01*
X105854008Y-142683596D01*
X105785500Y-142848990D01*
X105785500Y-142960000D01*
X105669500Y-142960000D01*
X105669500Y-142848989D01*
X105600991Y-142683595D01*
X105474404Y-142557008D01*
X105309010Y-142488500D01*
X105129989Y-142488500D01*
X104805397Y-142488500D01*
X104805397Y-139443414D01*
X104608219Y-138965305D01*
X104605953Y-138961914D01*
X104379632Y-138896079D01*
X104308921Y-138966790D01*
X104308921Y-138825368D01*
X104243086Y-138599047D01*
X103765586Y-138400399D01*
X103248414Y-138399603D01*
X102770305Y-138596781D01*
X102766914Y-138599047D01*
X102701079Y-138825368D01*
X103505000Y-139629289D01*
X104308921Y-138825368D01*
X104308921Y-138966790D01*
X103575711Y-139700000D01*
X104379632Y-140503921D01*
X104605953Y-140438086D01*
X104804601Y-139960586D01*
X104805397Y-139443414D01*
X104805397Y-142488500D01*
X104494989Y-142488500D01*
X104329595Y-142557009D01*
X104308921Y-142577683D01*
X104308921Y-140574632D01*
X103505000Y-139770711D01*
X103434289Y-139841422D01*
X103434289Y-139700000D01*
X102630368Y-138896079D01*
X102404047Y-138961914D01*
X102205399Y-139439414D01*
X102204603Y-139956586D01*
X102401781Y-140434695D01*
X102404047Y-140438086D01*
X102630368Y-140503921D01*
X103434289Y-139700000D01*
X103434289Y-139841422D01*
X102701079Y-140574632D01*
X102766914Y-140800953D01*
X103244414Y-140999601D01*
X103761586Y-141000397D01*
X104239695Y-140803219D01*
X104243086Y-140800953D01*
X104308921Y-140574632D01*
X104308921Y-142577683D01*
X104203008Y-142683596D01*
X104194119Y-142705054D01*
X104161768Y-142626950D01*
X104007050Y-142472233D01*
X103804902Y-142388500D01*
X103565500Y-142388500D01*
X103428000Y-142526000D01*
X103428000Y-143460000D01*
X103448000Y-143460000D01*
X103448000Y-143560000D01*
X103428000Y-143560000D01*
X103428000Y-144494000D01*
X103565500Y-144631500D01*
X103804902Y-144631500D01*
X104007050Y-144547767D01*
X104161768Y-144393050D01*
X104194119Y-144314945D01*
X104203009Y-144336405D01*
X104329596Y-144462992D01*
X104494990Y-144531500D01*
X104674011Y-144531500D01*
X105309011Y-144531500D01*
X105474405Y-144462991D01*
X105600992Y-144336404D01*
X105669500Y-144171010D01*
X105669500Y-144060000D01*
X105785500Y-144060000D01*
X105785500Y-144171011D01*
X105854009Y-144336405D01*
X105980596Y-144462992D01*
X106145990Y-144531500D01*
X106325011Y-144531500D01*
X106960011Y-144531500D01*
X107125405Y-144462991D01*
X107251992Y-144336404D01*
X107314999Y-144184288D01*
X107378009Y-144336405D01*
X107504596Y-144462992D01*
X107669990Y-144531500D01*
X107849011Y-144531500D01*
X108484011Y-144531500D01*
X108649405Y-144462991D01*
X108775992Y-144336404D01*
X108844500Y-144171010D01*
X108844500Y-143991989D01*
X108844500Y-142848989D01*
X108775991Y-142683595D01*
X108694416Y-142602020D01*
X108187440Y-140834259D01*
X108345258Y-140899791D01*
X108481251Y-140899909D01*
X108912078Y-140974935D01*
X110060375Y-142388500D01*
X109936098Y-142388500D01*
X109733950Y-142472233D01*
X109579232Y-142626950D01*
X109495500Y-142829098D01*
X109495500Y-143047902D01*
X109495500Y-143322500D01*
X109633000Y-143460000D01*
X110313000Y-143460000D01*
X110313000Y-143440000D01*
X110413000Y-143440000D01*
X110413000Y-143460000D01*
X110433000Y-143460000D01*
X110433000Y-143560000D01*
X110413000Y-143560000D01*
X110413000Y-144494000D01*
X110550500Y-144631500D01*
X110776877Y-144631500D01*
X110780091Y-144636309D01*
X111014692Y-144870909D01*
X111028365Y-144880045D01*
X111038294Y-144893159D01*
X111117138Y-144939361D01*
X111193124Y-144990134D01*
X111209256Y-144993343D01*
X111223446Y-145001658D01*
X112667145Y-145502158D01*
X112757673Y-145514672D01*
X112847300Y-145532500D01*
X113482300Y-145532500D01*
X114228700Y-145532500D01*
X114257451Y-145526780D01*
X114286646Y-145529439D01*
X124942946Y-144400439D01*
X124947209Y-144399111D01*
X124951662Y-144399445D01*
X145446362Y-141896945D01*
X145468219Y-141889753D01*
X145491230Y-141889573D01*
X147908130Y-141389073D01*
X147956041Y-141368785D01*
X148007076Y-141358634D01*
X148053895Y-141327350D01*
X148105743Y-141305396D01*
X148142244Y-141268317D01*
X148185509Y-141239409D01*
X148859409Y-140565508D01*
X148909017Y-140491264D01*
X148928729Y-140465641D01*
X149179367Y-140716717D01*
X149620258Y-140899791D01*
X150097647Y-140900207D01*
X150538857Y-140717903D01*
X150876717Y-140380633D01*
X151059791Y-139939742D01*
X151060207Y-139462353D01*
X150877903Y-139021143D01*
X150540633Y-138683283D01*
X150099742Y-138500209D01*
X149622353Y-138499793D01*
X149181143Y-138682097D01*
X149117322Y-138745805D01*
X150329055Y-120609842D01*
X150576382Y-120361294D01*
X154041512Y-138463524D01*
X153804324Y-139305849D01*
X153740209Y-139460258D01*
X153739793Y-139937647D01*
X153922097Y-140378857D01*
X154125594Y-140582710D01*
X153600207Y-140703386D01*
X153600207Y-139462353D01*
X153417903Y-139021143D01*
X153080633Y-138683283D01*
X152639742Y-138500209D01*
X152162353Y-138499793D01*
X151721143Y-138682097D01*
X151383283Y-139019367D01*
X151200209Y-139460258D01*
X151199793Y-139937647D01*
X151382097Y-140378857D01*
X151719367Y-140716717D01*
X152160258Y-140899791D01*
X152637647Y-140900207D01*
X153078857Y-140717903D01*
X153416717Y-140380633D01*
X153599791Y-139939742D01*
X153600207Y-139462353D01*
X153600207Y-140703386D01*
X134676676Y-145049959D01*
X134611654Y-145079161D01*
X134543322Y-145099462D01*
X133463953Y-145668450D01*
X133055950Y-145582997D01*
X132944453Y-145536700D01*
X132487552Y-145536302D01*
X132065277Y-145710782D01*
X131741917Y-146033578D01*
X131566700Y-146455547D01*
X131566302Y-146912448D01*
X131740782Y-147334723D01*
X132063578Y-147658083D01*
X132485547Y-147833300D01*
X132942448Y-147833698D01*
X133364723Y-147659218D01*
X133688083Y-147336422D01*
X133789889Y-147091243D01*
X133976957Y-146641500D01*
X134006498Y-146625927D01*
X134006505Y-146933366D01*
X134196559Y-147392199D01*
X134417532Y-147451758D01*
X135184289Y-146685000D01*
X135170147Y-146670858D01*
X135240858Y-146600147D01*
X135255000Y-146614289D01*
X135269142Y-146600147D01*
X135339852Y-146670857D01*
X135325711Y-146685000D01*
X135339852Y-146699142D01*
X135269142Y-146769852D01*
X135255000Y-146755711D01*
X134488242Y-147522468D01*
X134500651Y-147568510D01*
X133264489Y-147934500D01*
X132195155Y-147934500D01*
X132120829Y-147903727D01*
X131319134Y-147483549D01*
X131323500Y-147473010D01*
X131323500Y-147293989D01*
X131323500Y-145896989D01*
X131254991Y-145731595D01*
X131128404Y-145605008D01*
X130963010Y-145536500D01*
X130783989Y-145536500D01*
X129386989Y-145536500D01*
X129221595Y-145605009D01*
X129095008Y-145731596D01*
X129026500Y-145896990D01*
X129026500Y-146076011D01*
X129026500Y-147473011D01*
X129095009Y-147638405D01*
X129221596Y-147764992D01*
X129386990Y-147833500D01*
X129566011Y-147833500D01*
X130014059Y-147833500D01*
X130084091Y-147938309D01*
X130318692Y-148172909D01*
X130387693Y-148219014D01*
X130452280Y-148271147D01*
X131632181Y-148889547D01*
X131656245Y-148896633D01*
X131677108Y-148910569D01*
X131875323Y-148992633D01*
X131875324Y-148992634D01*
X131875409Y-148992669D01*
X131980051Y-149013465D01*
X132085800Y-149034500D01*
X132085892Y-149034500D01*
X133344200Y-149034500D01*
X133421671Y-149019090D01*
X133500339Y-149011872D01*
X135866338Y-148311372D01*
X135872117Y-148308332D01*
X135878603Y-148307584D01*
X137981969Y-147631067D01*
X137985009Y-147638405D01*
X138111596Y-147764992D01*
X138276990Y-147833500D01*
X138456011Y-147833500D01*
X139853011Y-147833500D01*
X140018405Y-147764991D01*
X140144992Y-147638404D01*
X140213500Y-147473010D01*
X140213500Y-147293989D01*
X140213500Y-145896989D01*
X140144991Y-145731595D01*
X140018404Y-145605008D01*
X139853010Y-145536500D01*
X139673989Y-145536500D01*
X138276989Y-145536500D01*
X138111595Y-145605009D01*
X137985008Y-145731596D01*
X137916500Y-145896990D01*
X137916500Y-146076011D01*
X137916500Y-146496628D01*
X136495009Y-146953829D01*
X136503505Y-146933318D01*
X136503495Y-146436634D01*
X136313441Y-145977801D01*
X136092470Y-145918242D01*
X136176639Y-145834073D01*
X155539724Y-141386541D01*
X155581815Y-141367636D01*
X155627076Y-141358634D01*
X155678773Y-141324090D01*
X155735486Y-141298620D01*
X155767139Y-141265046D01*
X155805509Y-141239409D01*
X156479405Y-140565511D01*
X156479409Y-140565509D01*
X156479409Y-140565508D01*
X156598634Y-140387076D01*
X156640500Y-140176600D01*
X156640501Y-140176600D01*
X156640500Y-140176594D01*
X156640500Y-139223400D01*
X156634099Y-139191221D01*
X156636659Y-139158510D01*
X156240397Y-135823297D01*
X156240397Y-119123414D01*
X156043219Y-118645305D01*
X156040953Y-118641914D01*
X155814632Y-118576079D01*
X155010711Y-119380000D01*
X155814632Y-120183921D01*
X156040953Y-120118086D01*
X156239601Y-119640586D01*
X156240397Y-119123414D01*
X156240397Y-135823297D01*
X154428761Y-120575325D01*
X154679414Y-120679601D01*
X155196586Y-120680397D01*
X155674695Y-120483219D01*
X155678086Y-120480953D01*
X155743921Y-120254632D01*
X154940000Y-119450711D01*
X154925857Y-119464852D01*
X154855146Y-119394141D01*
X154869289Y-119380000D01*
X154855147Y-119365858D01*
X154925858Y-119295147D01*
X154940000Y-119309289D01*
X155743921Y-118505368D01*
X155678086Y-118279047D01*
X155200586Y-118080399D01*
X154683414Y-118079603D01*
X154579809Y-118122330D01*
X155367921Y-115312572D01*
X155707307Y-115539343D01*
X156210000Y-115639335D01*
X156712693Y-115539343D01*
X157138855Y-115254590D01*
X157330000Y-114968521D01*
X157330000Y-143629526D01*
X157093318Y-143531495D01*
X156596634Y-143531505D01*
X156137801Y-143721559D01*
X156078242Y-143942532D01*
X156845000Y-144709289D01*
X156859142Y-144695147D01*
X156929852Y-144765857D01*
X156915711Y-144780000D01*
X156929853Y-144794142D01*
X156859142Y-144864852D01*
X156845000Y-144850711D01*
X156774289Y-144921421D01*
X156774289Y-144780000D01*
X156007532Y-144013242D01*
X155786559Y-144072801D01*
X155596495Y-144531682D01*
X155596505Y-145028366D01*
X155786559Y-145487199D01*
X156007532Y-145546758D01*
X156774289Y-144780000D01*
X156774289Y-144921421D01*
X156078242Y-145617468D01*
X156137801Y-145838441D01*
X156596682Y-146028505D01*
X157093366Y-146028495D01*
X157330000Y-145930478D01*
X157330000Y-148817812D01*
M02*
