%FSLAX46Y46*%
G04 Gerber Fmt 4.6, Leading zero omitted, Abs format (unit mm)*
G04 Created by KiCad (PCBNEW (2014-08-05 BZR 5054)-product) date mar 16 sep 2014 17:31:46 COT*
%MOMM*%
G01*
G04 APERTURE LIST*
%ADD10C,0.100000*%
%ADD11C,0.127000*%
%ADD12C,0.203200*%
%ADD13C,0.114300*%
%ADD14C,0.158750*%
%ADD15C,0.160020*%
G04 APERTURE END LIST*
D10*
D11*
X120015000Y-91567000D02*
X120015000Y-93853000D01*
X120015000Y-93853000D02*
X118364000Y-93853000D01*
X116586000Y-91567000D02*
X114935000Y-91567000D01*
X114935000Y-91567000D02*
X114935000Y-93853000D01*
X114935000Y-93853000D02*
X116586000Y-93853000D01*
X118364000Y-91567000D02*
X120015000Y-91567000D01*
X117348000Y-94615000D02*
X115062000Y-94615000D01*
X115062000Y-94615000D02*
X115062000Y-95885000D01*
X115062000Y-95885000D02*
X117348000Y-95885000D01*
X117348000Y-95885000D02*
X117348000Y-94615000D01*
X106680000Y-104648000D02*
X106680000Y-102362000D01*
X106680000Y-102362000D02*
X108331000Y-102362000D01*
X110109000Y-104648000D02*
X111760000Y-104648000D01*
X111760000Y-104648000D02*
X111760000Y-102362000D01*
X111760000Y-102362000D02*
X110109000Y-102362000D01*
X108331000Y-104648000D02*
X106680000Y-104648000D01*
X146685000Y-85217000D02*
X146685000Y-87503000D01*
X146685000Y-87503000D02*
X147955000Y-87503000D01*
X147955000Y-87503000D02*
X147955000Y-85217000D01*
X147955000Y-85217000D02*
X146685000Y-85217000D01*
X103505000Y-142367000D02*
X103505000Y-144653000D01*
X103505000Y-144653000D02*
X104775000Y-144653000D01*
X104775000Y-144653000D02*
X104775000Y-142367000D01*
X104775000Y-142367000D02*
X103505000Y-142367000D01*
X101600000Y-142367000D02*
X101600000Y-144653000D01*
X101600000Y-144653000D02*
X102870000Y-144653000D01*
X102870000Y-144653000D02*
X102870000Y-142367000D01*
X102870000Y-142367000D02*
X101600000Y-142367000D01*
D12*
X113411000Y-97409000D02*
X113411000Y-100457000D01*
X113411000Y-100457000D02*
X106299000Y-100457000D01*
X106299000Y-100457000D02*
X106299000Y-97409000D01*
X113411000Y-94361000D02*
X113411000Y-93599000D01*
X113411000Y-93599000D02*
X111887000Y-91313000D01*
X111887000Y-91313000D02*
X107823000Y-91313000D01*
X107823000Y-91313000D02*
X106299000Y-93599000D01*
X106299000Y-93599000D02*
X106299000Y-94361000D01*
D11*
X140843000Y-100213000D02*
X138557000Y-100213000D01*
X138557000Y-100213000D02*
X138557000Y-101483000D01*
X138557000Y-101483000D02*
X140843000Y-101483000D01*
X140843000Y-101483000D02*
X140843000Y-100213000D01*
X143002000Y-86360000D02*
X145288000Y-86360000D01*
X145288000Y-86360000D02*
X145288000Y-85090000D01*
X145288000Y-85090000D02*
X143002000Y-85090000D01*
X143002000Y-85090000D02*
X143002000Y-86360000D01*
D12*
X142113000Y-88392000D02*
X137287000Y-88392000D01*
X137287000Y-88392000D02*
X137287000Y-91948000D01*
X137287000Y-91948000D02*
X142113000Y-91948000D01*
X142113000Y-91948000D02*
X142113000Y-88392000D01*
X141859000Y-91313000D02*
G75*
G03X141859000Y-91313000I-381000J0D01*
G74*
G01*
D11*
X147955000Y-104648000D02*
X147955000Y-102362000D01*
X147955000Y-102362000D02*
X146685000Y-102362000D01*
X146685000Y-102362000D02*
X146685000Y-104648000D01*
X146685000Y-104648000D02*
X147955000Y-104648000D01*
X135255000Y-87122000D02*
X135255000Y-89408000D01*
X135255000Y-89408000D02*
X136525000Y-89408000D01*
X136525000Y-89408000D02*
X136525000Y-87122000D01*
X136525000Y-87122000D02*
X135255000Y-87122000D01*
X144780000Y-87122000D02*
X144780000Y-89408000D01*
X144780000Y-89408000D02*
X146050000Y-89408000D01*
X146050000Y-89408000D02*
X146050000Y-87122000D01*
X146050000Y-87122000D02*
X144780000Y-87122000D01*
X142875000Y-87122000D02*
X142875000Y-89408000D01*
X142875000Y-89408000D02*
X144145000Y-89408000D01*
X144145000Y-89408000D02*
X144145000Y-87122000D01*
X144145000Y-87122000D02*
X142875000Y-87122000D01*
D12*
X141097000Y-103378000D02*
X145923000Y-103378000D01*
X145923000Y-103378000D02*
X145923000Y-99822000D01*
X145923000Y-99822000D02*
X141097000Y-99822000D01*
X141097000Y-99822000D02*
X141097000Y-103378000D01*
X142113000Y-100457000D02*
G75*
G03X142113000Y-100457000I-381000J0D01*
G74*
G01*
D11*
X153543000Y-142240000D02*
X151257000Y-142240000D01*
X151257000Y-142240000D02*
X151257000Y-143510000D01*
X151257000Y-143510000D02*
X153543000Y-143510000D01*
X153543000Y-143510000D02*
X153543000Y-142240000D01*
X114572143Y-92583000D02*
X114608429Y-92546714D01*
X114644714Y-92437857D01*
X114644714Y-92365286D01*
X114608429Y-92256429D01*
X114535857Y-92183857D01*
X114463286Y-92147572D01*
X114318143Y-92111286D01*
X114209286Y-92111286D01*
X114064143Y-92147572D01*
X113991571Y-92183857D01*
X113919000Y-92256429D01*
X113882714Y-92365286D01*
X113882714Y-92437857D01*
X113919000Y-92546714D01*
X113955286Y-92583000D01*
X114644714Y-93308714D02*
X114644714Y-92873286D01*
X114644714Y-93091000D02*
X113882714Y-93091000D01*
X113991571Y-93018429D01*
X114064143Y-92945857D01*
X114100429Y-92873286D01*
D13*
X116281200Y-96701429D02*
X116302971Y-96725619D01*
X116368285Y-96749810D01*
X116411828Y-96749810D01*
X116477143Y-96725619D01*
X116520685Y-96677238D01*
X116542457Y-96628857D01*
X116564228Y-96532095D01*
X116564228Y-96459524D01*
X116542457Y-96362762D01*
X116520685Y-96314381D01*
X116477143Y-96266000D01*
X116411828Y-96241810D01*
X116368285Y-96241810D01*
X116302971Y-96266000D01*
X116281200Y-96290190D01*
X116107028Y-96290190D02*
X116085257Y-96266000D01*
X116041714Y-96241810D01*
X115932857Y-96241810D01*
X115889314Y-96266000D01*
X115867543Y-96290190D01*
X115845771Y-96338571D01*
X115845771Y-96386952D01*
X115867543Y-96459524D01*
X116128800Y-96749810D01*
X115845771Y-96749810D01*
D11*
X106385543Y-103460000D02*
X106421829Y-103423714D01*
X106458114Y-103314857D01*
X106458114Y-103242286D01*
X106421829Y-103133429D01*
X106349257Y-103060857D01*
X106276686Y-103024572D01*
X106131543Y-102988286D01*
X106022686Y-102988286D01*
X105877543Y-103024572D01*
X105804971Y-103060857D01*
X105732400Y-103133429D01*
X105696114Y-103242286D01*
X105696114Y-103314857D01*
X105732400Y-103423714D01*
X105768686Y-103460000D01*
X105696114Y-103714000D02*
X105696114Y-104185714D01*
X105986400Y-103931714D01*
X105986400Y-104040572D01*
X106022686Y-104113143D01*
X106058971Y-104149429D01*
X106131543Y-104185714D01*
X106312971Y-104185714D01*
X106385543Y-104149429D01*
X106421829Y-104113143D01*
X106458114Y-104040572D01*
X106458114Y-103822857D01*
X106421829Y-103750286D01*
X106385543Y-103714000D01*
D13*
X147396200Y-88446429D02*
X147417971Y-88470619D01*
X147483285Y-88494810D01*
X147526828Y-88494810D01*
X147592143Y-88470619D01*
X147635685Y-88422238D01*
X147657457Y-88373857D01*
X147679228Y-88277095D01*
X147679228Y-88204524D01*
X147657457Y-88107762D01*
X147635685Y-88059381D01*
X147592143Y-88011000D01*
X147526828Y-87986810D01*
X147483285Y-87986810D01*
X147417971Y-88011000D01*
X147396200Y-88035190D01*
X147004314Y-88156143D02*
X147004314Y-88494810D01*
X147113171Y-87962619D02*
X147222028Y-88325476D01*
X146939000Y-88325476D01*
X104216200Y-142088810D02*
X104368600Y-141846905D01*
X104477457Y-142088810D02*
X104477457Y-141580810D01*
X104303285Y-141580810D01*
X104259743Y-141605000D01*
X104237971Y-141629190D01*
X104216200Y-141677571D01*
X104216200Y-141750143D01*
X104237971Y-141798524D01*
X104259743Y-141822714D01*
X104303285Y-141846905D01*
X104477457Y-141846905D01*
X103780771Y-142088810D02*
X104042028Y-142088810D01*
X103911400Y-142088810D02*
X103911400Y-141580810D01*
X103954943Y-141653381D01*
X103998485Y-141701762D01*
X104042028Y-141725952D01*
X101803200Y-142088810D02*
X101955600Y-141846905D01*
X102064457Y-142088810D02*
X102064457Y-141580810D01*
X101890285Y-141580810D01*
X101846743Y-141605000D01*
X101824971Y-141629190D01*
X101803200Y-141677571D01*
X101803200Y-141750143D01*
X101824971Y-141798524D01*
X101846743Y-141822714D01*
X101890285Y-141846905D01*
X102064457Y-141846905D01*
X101629028Y-141629190D02*
X101607257Y-141605000D01*
X101563714Y-141580810D01*
X101454857Y-141580810D01*
X101411314Y-141605000D01*
X101389543Y-141629190D01*
X101367771Y-141677571D01*
X101367771Y-141725952D01*
X101389543Y-141798524D01*
X101650800Y-142088810D01*
X101367771Y-142088810D01*
D12*
X110629095Y-94566619D02*
X110629095Y-95389095D01*
X110580714Y-95485857D01*
X110532333Y-95534238D01*
X110435571Y-95582619D01*
X110242048Y-95582619D01*
X110145286Y-95534238D01*
X110096905Y-95485857D01*
X110048524Y-95389095D01*
X110048524Y-94566619D01*
X109032524Y-95582619D02*
X109613095Y-95582619D01*
X109322809Y-95582619D02*
X109322809Y-94566619D01*
X109419571Y-94711762D01*
X109516333Y-94808524D01*
X109613095Y-94856905D01*
D13*
X139776200Y-102299429D02*
X139797971Y-102323619D01*
X139863285Y-102347810D01*
X139906828Y-102347810D01*
X139972143Y-102323619D01*
X140015685Y-102275238D01*
X140037457Y-102226857D01*
X140059228Y-102130095D01*
X140059228Y-102057524D01*
X140037457Y-101960762D01*
X140015685Y-101912381D01*
X139972143Y-101864000D01*
X139906828Y-101839810D01*
X139863285Y-101839810D01*
X139797971Y-101864000D01*
X139776200Y-101888190D01*
X139362543Y-101839810D02*
X139580257Y-101839810D01*
X139602028Y-102081714D01*
X139580257Y-102057524D01*
X139536714Y-102033333D01*
X139427857Y-102033333D01*
X139384314Y-102057524D01*
X139362543Y-102081714D01*
X139340771Y-102130095D01*
X139340771Y-102251048D01*
X139362543Y-102299429D01*
X139384314Y-102323619D01*
X139427857Y-102347810D01*
X139536714Y-102347810D01*
X139580257Y-102323619D01*
X139602028Y-102299429D01*
X144221200Y-84636429D02*
X144242971Y-84660619D01*
X144308285Y-84684810D01*
X144351828Y-84684810D01*
X144417143Y-84660619D01*
X144460685Y-84612238D01*
X144482457Y-84563857D01*
X144504228Y-84467095D01*
X144504228Y-84394524D01*
X144482457Y-84297762D01*
X144460685Y-84249381D01*
X144417143Y-84201000D01*
X144351828Y-84176810D01*
X144308285Y-84176810D01*
X144242971Y-84201000D01*
X144221200Y-84225190D01*
X143829314Y-84176810D02*
X143916400Y-84176810D01*
X143959943Y-84201000D01*
X143981714Y-84225190D01*
X144025257Y-84297762D01*
X144047028Y-84394524D01*
X144047028Y-84588048D01*
X144025257Y-84636429D01*
X144003485Y-84660619D01*
X143959943Y-84684810D01*
X143872857Y-84684810D01*
X143829314Y-84660619D01*
X143807543Y-84636429D01*
X143785771Y-84588048D01*
X143785771Y-84467095D01*
X143807543Y-84418714D01*
X143829314Y-84394524D01*
X143872857Y-84370333D01*
X143959943Y-84370333D01*
X144003485Y-84394524D01*
X144025257Y-84418714D01*
X144047028Y-84467095D01*
D14*
X137008810Y-92927714D02*
X137008810Y-93544571D01*
X136978571Y-93617143D01*
X136948333Y-93653429D01*
X136887857Y-93689714D01*
X136766905Y-93689714D01*
X136706429Y-93653429D01*
X136676190Y-93617143D01*
X136645952Y-93544571D01*
X136645952Y-92927714D01*
X136373810Y-93000286D02*
X136343572Y-92964000D01*
X136283095Y-92927714D01*
X136131905Y-92927714D01*
X136071429Y-92964000D01*
X136041191Y-93000286D01*
X136010952Y-93072857D01*
X136010952Y-93145429D01*
X136041191Y-93254286D01*
X136404048Y-93689714D01*
X136010952Y-93689714D01*
D15*
D13*
X148692810Y-102666800D02*
X148450905Y-102514400D01*
X148692810Y-102405543D02*
X148184810Y-102405543D01*
X148184810Y-102579715D01*
X148209000Y-102623257D01*
X148233190Y-102645029D01*
X148281571Y-102666800D01*
X148354143Y-102666800D01*
X148402524Y-102645029D01*
X148426714Y-102623257D01*
X148450905Y-102579715D01*
X148450905Y-102405543D01*
X148184810Y-102819200D02*
X148184810Y-103102229D01*
X148378333Y-102949829D01*
X148378333Y-103015143D01*
X148402524Y-103058686D01*
X148426714Y-103080457D01*
X148475095Y-103102229D01*
X148596048Y-103102229D01*
X148644429Y-103080457D01*
X148668619Y-103058686D01*
X148692810Y-103015143D01*
X148692810Y-102884515D01*
X148668619Y-102840972D01*
X148644429Y-102819200D01*
X135966200Y-90399810D02*
X136118600Y-90157905D01*
X136227457Y-90399810D02*
X136227457Y-89891810D01*
X136053285Y-89891810D01*
X136009743Y-89916000D01*
X135987971Y-89940190D01*
X135966200Y-89988571D01*
X135966200Y-90061143D01*
X135987971Y-90109524D01*
X136009743Y-90133714D01*
X136053285Y-90157905D01*
X136227457Y-90157905D01*
X135574314Y-90061143D02*
X135574314Y-90399810D01*
X135683171Y-89867619D02*
X135792028Y-90230476D01*
X135509000Y-90230476D01*
X145491200Y-90399810D02*
X145643600Y-90157905D01*
X145752457Y-90399810D02*
X145752457Y-89891810D01*
X145578285Y-89891810D01*
X145534743Y-89916000D01*
X145512971Y-89940190D01*
X145491200Y-89988571D01*
X145491200Y-90061143D01*
X145512971Y-90109524D01*
X145534743Y-90133714D01*
X145578285Y-90157905D01*
X145752457Y-90157905D01*
X145077543Y-89891810D02*
X145295257Y-89891810D01*
X145317028Y-90133714D01*
X145295257Y-90109524D01*
X145251714Y-90085333D01*
X145142857Y-90085333D01*
X145099314Y-90109524D01*
X145077543Y-90133714D01*
X145055771Y-90182095D01*
X145055771Y-90303048D01*
X145077543Y-90351429D01*
X145099314Y-90375619D01*
X145142857Y-90399810D01*
X145251714Y-90399810D01*
X145295257Y-90375619D01*
X145317028Y-90351429D01*
X143586200Y-90399810D02*
X143738600Y-90157905D01*
X143847457Y-90399810D02*
X143847457Y-89891810D01*
X143673285Y-89891810D01*
X143629743Y-89916000D01*
X143607971Y-89940190D01*
X143586200Y-89988571D01*
X143586200Y-90061143D01*
X143607971Y-90109524D01*
X143629743Y-90133714D01*
X143673285Y-90157905D01*
X143847457Y-90157905D01*
X143194314Y-89891810D02*
X143281400Y-89891810D01*
X143324943Y-89916000D01*
X143346714Y-89940190D01*
X143390257Y-90012762D01*
X143412028Y-90109524D01*
X143412028Y-90303048D01*
X143390257Y-90351429D01*
X143368485Y-90375619D01*
X143324943Y-90399810D01*
X143237857Y-90399810D01*
X143194314Y-90375619D01*
X143172543Y-90351429D01*
X143150771Y-90303048D01*
X143150771Y-90182095D01*
X143172543Y-90133714D01*
X143194314Y-90109524D01*
X143237857Y-90085333D01*
X143324943Y-90085333D01*
X143368485Y-90109524D01*
X143390257Y-90133714D01*
X143412028Y-90182095D01*
D14*
X140691810Y-101436714D02*
X140691810Y-102053571D01*
X140661571Y-102126143D01*
X140631333Y-102162429D01*
X140570857Y-102198714D01*
X140449905Y-102198714D01*
X140389429Y-102162429D01*
X140359190Y-102126143D01*
X140328952Y-102053571D01*
X140328952Y-101436714D01*
X140087048Y-101436714D02*
X139693952Y-101436714D01*
X139905619Y-101727000D01*
X139814905Y-101727000D01*
X139754429Y-101763286D01*
X139724191Y-101799571D01*
X139693952Y-101872143D01*
X139693952Y-102053571D01*
X139724191Y-102126143D01*
X139754429Y-102162429D01*
X139814905Y-102198714D01*
X139996333Y-102198714D01*
X140056810Y-102162429D01*
X140087048Y-102126143D01*
D15*
D13*
X152476200Y-144374810D02*
X152628600Y-144132905D01*
X152737457Y-144374810D02*
X152737457Y-143866810D01*
X152563285Y-143866810D01*
X152519743Y-143891000D01*
X152497971Y-143915190D01*
X152476200Y-143963571D01*
X152476200Y-144036143D01*
X152497971Y-144084524D01*
X152519743Y-144108714D01*
X152563285Y-144132905D01*
X152737457Y-144132905D01*
X152323800Y-143866810D02*
X152019000Y-143866810D01*
X152214943Y-144374810D01*
M02*
