%FSLAX34Y34*%
G04 Gerber Fmt 3.4, Leading zero omitted, Abs format*
G04 (created by PCBNEW (2014-04-12 BZR 4800)-product) date dom 07 sep 2014 17:20:25 COT*
%MOIN*%
G01*
G70*
G90*
G04 APERTURE LIST*
%ADD10C,0.003937*%
%ADD11R,0.068000X0.068000*%
%ADD12O,0.068000X0.068000*%
%ADD13R,0.080000X0.060000*%
%ADD14R,0.025000X0.045000*%
%ADD15R,0.045000X0.025000*%
%ADD16R,0.080000X0.144000*%
%ADD17R,0.080000X0.040000*%
%ADD18R,0.011800X0.051200*%
%ADD19R,0.055000X0.055000*%
%ADD20C,0.055000*%
%ADD21C,0.059055*%
G04 APERTURE END LIST*
G54D10*
G54D11*
X60500Y-33000D03*
G54D12*
X61500Y-33000D03*
X60500Y-34000D03*
X61500Y-34000D03*
X60500Y-35000D03*
X61500Y-35000D03*
X60500Y-36000D03*
X61500Y-36000D03*
X60500Y-37000D03*
X61500Y-37000D03*
X60500Y-38000D03*
X61500Y-38000D03*
X60500Y-39000D03*
X61500Y-39000D03*
X60500Y-40000D03*
X61500Y-40000D03*
X60500Y-41000D03*
X61500Y-41000D03*
X60500Y-42000D03*
X61500Y-42000D03*
X60500Y-43000D03*
X61500Y-43000D03*
X60500Y-44000D03*
X61500Y-44000D03*
X60500Y-45000D03*
X61500Y-45000D03*
G54D13*
X52250Y-34650D03*
X52250Y-33350D03*
G54D14*
X52800Y-35750D03*
X52200Y-35750D03*
G54D13*
X57967Y-35426D03*
X57967Y-34126D03*
G54D15*
X57948Y-32728D03*
X57948Y-33328D03*
G54D16*
X53700Y-34250D03*
G54D17*
X56300Y-34250D03*
X56300Y-35150D03*
X56300Y-33350D03*
G54D14*
X55300Y-39250D03*
X54700Y-39250D03*
G54D15*
X58000Y-36700D03*
X58000Y-37300D03*
G54D18*
X57260Y-39100D03*
X57010Y-39100D03*
X56750Y-39100D03*
X56500Y-39100D03*
X56240Y-39100D03*
X55985Y-39100D03*
X55730Y-39100D03*
X55730Y-36900D03*
X55985Y-36900D03*
X56240Y-36900D03*
X56500Y-36900D03*
X56755Y-36900D03*
X57010Y-36900D03*
X57265Y-36900D03*
G54D14*
X58700Y-44250D03*
X59300Y-44250D03*
X54800Y-37000D03*
X54200Y-37000D03*
X54200Y-38500D03*
X54800Y-38500D03*
X54200Y-37750D03*
X54800Y-37750D03*
G54D18*
X55740Y-43900D03*
X55990Y-43900D03*
X56250Y-43900D03*
X56500Y-43900D03*
X56760Y-43900D03*
X57015Y-43900D03*
X57270Y-43900D03*
X57270Y-46100D03*
X57015Y-46100D03*
X56760Y-46100D03*
X56500Y-46100D03*
X56245Y-46100D03*
X55990Y-46100D03*
X55735Y-46100D03*
G54D19*
X54750Y-57750D03*
G54D20*
X55750Y-57750D03*
X56750Y-57750D03*
G54D19*
X51250Y-57750D03*
G54D20*
X52250Y-57750D03*
X53250Y-57750D03*
G54D14*
X60300Y-56250D03*
X59700Y-56250D03*
G54D20*
X61750Y-57000D03*
X61750Y-59000D03*
X58750Y-57000D03*
X58750Y-59000D03*
G54D21*
X41000Y-47000D03*
X42000Y-47000D03*
X43000Y-47000D03*
X44000Y-47000D03*
X45000Y-47000D03*
X46000Y-47000D03*
X47000Y-47000D03*
X48000Y-47000D03*
X49000Y-47000D03*
X50000Y-47000D03*
X50000Y-48000D03*
X50000Y-49000D03*
X50000Y-50000D03*
X50000Y-51000D03*
X50000Y-52000D03*
X50000Y-53000D03*
X50000Y-54000D03*
X50000Y-55000D03*
X49000Y-55000D03*
X48000Y-55000D03*
X47000Y-55000D03*
X46000Y-55000D03*
X45000Y-55000D03*
X44000Y-55000D03*
X43000Y-55000D03*
X42000Y-55000D03*
X41000Y-55000D03*
X49000Y-34000D03*
X49000Y-35000D03*
X49000Y-36000D03*
X49000Y-37000D03*
X49000Y-38000D03*
X49000Y-39000D03*
X49000Y-40000D03*
X49000Y-41000D03*
X49000Y-42000D03*
X49000Y-43000D03*
X48000Y-43000D03*
X47000Y-43000D03*
X46000Y-43000D03*
X45000Y-43000D03*
X44000Y-43000D03*
X43000Y-43000D03*
X42000Y-43000D03*
X41000Y-43000D03*
X41000Y-42000D03*
X41000Y-41000D03*
X41000Y-40000D03*
X41000Y-39000D03*
X41000Y-38000D03*
X41000Y-37000D03*
X41000Y-36000D03*
X41000Y-35000D03*
X41000Y-34000D03*
X59000Y-34000D03*
X59000Y-35000D03*
X59000Y-36000D03*
X59000Y-37000D03*
X59000Y-38000D03*
X59000Y-39000D03*
X59000Y-40000D03*
X59000Y-41000D03*
X59000Y-42000D03*
X59000Y-43000D03*
X58000Y-43000D03*
X57000Y-43000D03*
X56000Y-43000D03*
X55000Y-43000D03*
X54000Y-43000D03*
X53000Y-43000D03*
X52000Y-43000D03*
X51000Y-43000D03*
X51000Y-42000D03*
X51000Y-41000D03*
X51000Y-40000D03*
X51000Y-39000D03*
X51000Y-38000D03*
X51000Y-37000D03*
X51000Y-36000D03*
X51000Y-35000D03*
X51000Y-34000D03*
X61000Y-55000D03*
X60000Y-55000D03*
X59000Y-55000D03*
X58000Y-55000D03*
X57000Y-55000D03*
X56000Y-55000D03*
X55000Y-55000D03*
X54000Y-55000D03*
X53000Y-55000D03*
X52000Y-55000D03*
X52000Y-54000D03*
X52000Y-53000D03*
X52000Y-52000D03*
X52000Y-51000D03*
X52000Y-50000D03*
X52000Y-49000D03*
X52000Y-48000D03*
X52000Y-47000D03*
X53000Y-47000D03*
X54000Y-47000D03*
X55000Y-47000D03*
X56000Y-47000D03*
X57000Y-47000D03*
X58000Y-47000D03*
X59000Y-47000D03*
X60000Y-47000D03*
X61000Y-47000D03*
M02*
