M48
;DRILL file {kicad (2014-08-05 BZR 5054)-product} date mar 16 sep 2014 17:31:49 COT
;FORMAT={-:-/ absolute / inch / decimal}
FMAT,2
INCH,TZ
T1C0.016
T2C0.024
T3C0.032
T4C0.040
T5C0.118
%
G90
G05
M72
T1
X4.0324Y-5.7173
X4.1439Y-5.7062
X4.185Y-4.5978
X4.3391Y-4.2447
X4.4198Y-4.1057
X4.5249Y-4.2308
X4.6111Y-4.245
X4.6552Y-4.1438
X4.713Y-4.2395
X4.7365Y-4.2741
X4.845Y-4.9036
X5.0911Y-4.8064
X5.092Y-5.592
X5.1293Y-5.1379
X5.1719Y-3.664
X5.2065Y-3.3307
X5.2545Y-4.3034
X5.3165Y-4.3185
X5.3316Y-4.6296
X5.3587Y-4.5583
X5.3601Y-4.3058
X5.4115Y-3.9174
X5.4525Y-3.9231
X5.4645Y-3.8095
X5.4654Y-4.4516
X5.4804Y-3.8684
X5.5433Y-4.0205
X5.6044Y-3.3502
X5.6067Y-3.6754
X5.6426Y-3.9408
X5.686Y-3.9445
X5.7111Y-3.9788
X5.7564Y-4.2521
X5.792Y-4.0078
X5.9533Y-3.8488
T2
X4.075Y-3.3
X4.075Y-3.4
X4.075Y-3.5
X4.075Y-3.6
X4.075Y-3.7
X4.075Y-3.8
X4.075Y-3.9
X4.075Y-4.
X4.075Y-4.1
X4.075Y-4.2
X4.075Y-4.7
X4.075Y-5.5
X4.175Y-4.2
X4.175Y-4.7
X4.175Y-5.5
X4.275Y-4.2
X4.275Y-4.7
X4.275Y-5.5
X4.375Y-4.2
X4.375Y-4.7
X4.375Y-5.5
X4.475Y-4.2
X4.475Y-4.7
X4.475Y-5.5
X4.575Y-4.2
X4.575Y-4.7
X4.575Y-5.5
X4.675Y-4.2
X4.675Y-4.7
X4.675Y-5.5
X4.775Y-4.2
X4.775Y-4.7
X4.775Y-5.5
X4.875Y-3.3
X4.875Y-3.4
X4.875Y-3.5
X4.875Y-3.6
X4.875Y-3.7
X4.875Y-3.8
X4.875Y-3.9
X4.875Y-4.
X4.875Y-4.1
X4.875Y-4.2
X4.875Y-4.7
X4.875Y-5.5
X4.975Y-4.7
X4.975Y-4.8
X4.975Y-4.9
X4.975Y-5.
X4.975Y-5.1
X4.975Y-5.2
X4.975Y-5.3
X4.975Y-5.4
X4.975Y-5.5
X5.1Y-3.3
X5.1Y-3.4
X5.1Y-3.5
X5.1Y-3.6
X5.1Y-3.7
X5.1Y-3.8
X5.1Y-3.9
X5.1Y-4.
X5.1Y-4.1
X5.1Y-4.2
X5.2Y-4.2
X5.2Y-4.7
X5.2Y-4.8
X5.2Y-4.9
X5.2Y-5.
X5.2Y-5.1
X5.2Y-5.2
X5.2Y-5.3
X5.2Y-5.4
X5.2Y-5.5
X5.3Y-4.2
X5.3Y-4.7
X5.3Y-5.5
X5.4Y-4.2
X5.4Y-4.7
X5.4Y-5.5
X5.5Y-4.2
X5.5Y-4.7
X5.5Y-5.5
X5.6Y-4.2
X5.6Y-4.7
X5.6Y-5.5
X5.7Y-4.2
X5.7Y-4.7
X5.7Y-5.5
X5.8Y-4.2
X5.8Y-4.7
X5.8Y-5.5
X5.9Y-3.3
X5.9Y-3.4
X5.9Y-3.5
X5.9Y-3.6
X5.9Y-3.7
X5.9Y-3.8
X5.9Y-3.9
X5.9Y-4.
X5.9Y-4.1
X5.9Y-4.2
X5.9Y-4.7
X5.9Y-5.5
X6.Y-4.7
X6.Y-5.5
X6.1Y-4.7
X6.1Y-5.5
T3
X4.05Y-4.45
X4.15Y-4.45
X4.25Y-4.45
X4.3Y-5.7
X4.35Y-4.45
X4.4Y-5.7
X4.5Y-5.7
X4.65Y-5.7
X4.7Y-4.45
X4.75Y-5.7
X4.8Y-4.45
X4.85Y-5.7
X4.9Y-4.45
X5.Y-4.45
X5.05Y-5.7
X5.05Y-5.8
X5.05Y-5.9
X5.1Y-4.45
X5.15Y-5.7
X5.15Y-5.8
X5.15Y-5.9
X5.2Y-4.45
X5.25Y-5.7
X5.25Y-5.8
X5.25Y-5.9
X5.3Y-4.45
X5.35Y-5.7
X5.35Y-5.8
X5.35Y-5.9
X5.4Y-4.45
X5.45Y-5.7
X5.45Y-5.8
X5.45Y-5.9
X5.55Y-5.7
X5.55Y-5.8
X5.55Y-5.9
X5.6Y-4.45
X5.65Y-5.7
X5.65Y-5.8
X5.65Y-5.9
X5.7Y-4.45
X5.8Y-4.45
X5.875Y-5.7
X5.875Y-5.9
X5.9Y-4.45
X6.175Y-5.7
X6.175Y-5.9
T4
X6.05Y-3.3
X6.05Y-3.4
X6.05Y-3.5
X6.05Y-3.6
X6.05Y-3.7
X6.05Y-3.8
X6.05Y-3.9
X6.05Y-4.
X6.05Y-4.1
X6.05Y-4.2
X6.05Y-4.3
X6.05Y-4.4
X6.05Y-4.5
X6.15Y-3.3
X6.15Y-3.4
X6.15Y-3.5
X6.15Y-3.6
X6.15Y-3.7
X6.15Y-3.8
X6.15Y-3.9
X6.15Y-4.
X6.15Y-4.1
X6.15Y-4.2
X6.15Y-4.3
X6.15Y-4.4
X6.15Y-4.5
T5
X4.65Y-3.4
X4.675Y-5.2
X5.3Y-4.
T0
M30
