<?xml version="1.0" encoding="UTF-8" standalone="no"?>
<!-- Created with Inkscape (http://www.inkscape.org/) -->

<svg
   xmlns:dc="http://purl.org/dc/elements/1.1/"
   xmlns:cc="http://creativecommons.org/ns#"
   xmlns:rdf="http://www.w3.org/1999/02/22-rdf-syntax-ns#"
   xmlns:svg="http://www.w3.org/2000/svg"
   xmlns="http://www.w3.org/2000/svg"
   xmlns:sodipodi="http://sodipodi.sourceforge.net/DTD/sodipodi-0.dtd"
   xmlns:inkscape="http://www.inkscape.org/namespaces/inkscape"
   id="svg2"
   version="1.1"
   inkscape:version="0.48.4 r9939"
   width="53.149605"
   height="53.149605"
   sodipodi:docname="hackbo.svg"
   inkscape:export-filename="/home/afc/devel/hackbo/pi2micro4/logos/hackbo.png"
   inkscape:export-xdpi="599.44"
   inkscape:export-ydpi="599.44">
  <metadata
     id="metadata8">
    <rdf:RDF>
      <cc:Work
         rdf:about="">
        <dc:format>image/svg+xml</dc:format>
        <dc:type
           rdf:resource="http://purl.org/dc/dcmitype/StillImage" />
        <dc:title></dc:title>
      </cc:Work>
    </rdf:RDF>
  </metadata>
  <defs
     id="defs6">
    <inkscape:path-effect
       effect="skeletal"
       id="path-effect3417"
       is_visible="true"
       pattern="M 0,5 C 0,2.24 2.24,0 5,0 7.76,0 10,2.24 10,5 10,7.76 7.76,10 5,10 2.24,10 0,7.76 0,5 z"
       copytype="single_stretched"
       prop_scale="1"
       scale_y_rel="false"
       spacing="0"
       normal_offset="0"
       tang_offset="0"
       prop_units="false"
       vertical_pattern="false"
       fuse_tolerance="0" />
    <inkscape:path-effect
       effect="spiro"
       id="path-effect3415"
       is_visible="true" />
  </defs>
  <sodipodi:namedview
     pagecolor="#ffffff"
     bordercolor="#666666"
     borderopacity="1"
     objecttolerance="10"
     gridtolerance="10"
     guidetolerance="10"
     inkscape:pageopacity="0"
     inkscape:pageshadow="2"
     inkscape:window-width="1366"
     inkscape:window-height="713"
     id="namedview4"
     showgrid="false"
     inkscape:zoom="16.168919"
     inkscape:cx="26.86356"
     inkscape:cy="33.695901"
     inkscape:window-x="0"
     inkscape:window-y="27"
     inkscape:window-maximized="1"
     inkscape:current-layer="svg2"
     units="cm" />
  <path
     inkscape:connector-curvature="0"
     id="path3136"
     d="m 132.06989,35.78408 0,-169.99999 170,0 170,0 0,169.99999 0,170 -170,0 -170,0 0,-170 z"
     style="fill:#fafafa" />
  <path
     style="fill:#000000"
     d="m 18.827741,28.015903 c -0.943062,-0.691682 -0.962303,-0.918701 -0.440101,-5.19329 0.126308,-1.033902 0.08384,-1.0793 -1.009591,-1.0793 -0.627796,0 -1.141443,0.124207 -1.141443,0.275972 0,0.15179 -0.373604,0.475919 -0.830231,0.720306 -0.755513,0.404355 -0.830689,0.641039 -0.835318,2.629833 -0.0026,1.202046 -0.14995,2.409663 -0.327005,2.683639 -0.198532,0.30722 -0.323873,0.344811 -0.327008,0.09806 -0.0096,-0.755111 -2.389726,-0.886089 -5.2603311,-0.289451 C 7.1316556,28.178657 5.7996195,28.353736 5.6966323,28.250754 5.5936429,28.147744 5.5423219,25.945569 5.5825784,23.357016 L 5.6557704,18.6505 4.0119235,20.445988 c -1.3771759,1.504178 -3.71574222,3.009287 -3.71574222,2.391427 0,-0.0971 1.19553202,-1.486112 2.65673832,-3.086659 1.4612073,-1.600555 2.6567393,-3.162815 2.6567393,-3.471689 0,-0.494426 -0.1054127,-0.478717 -0.8809308,0.131302 -0.4845101,0.381147 -0.9556485,0.618222 -1.046974,0.526896 -0.091328,-0.09132 0.2303721,-0.477844 0.7148823,-0.858989 0.6018805,-0.473425 0.8914148,-1.027153 0.9140334,-1.748131 0.027695,-0.883228 0.068297,-0.934811 0.2490696,-0.316582 0.1983719,0.67843 0.4081974,0.543165 2.5756543,-1.660464 1.2978287,-1.319472 2.7747433,-3.0341967 3.2820313,-3.8104605 0.507287,-0.7762638 1.006385,-1.4113944 1.109104,-1.4113944 0.102728,0 0.606833,0.4024711 1.120247,0.8943245 l 0.933478,0.8943559 1.243291,-0.7426174 c 0.683811,-0.4084432 2.027861,-1.1409049 2.986777,-1.627717 1.233401,-0.6261255 1.746437,-1.0834225 1.753583,-1.5630912 0.0088,-0.5923535 0.05042,-0.6089623 0.3292,-0.1315109 0.267548,0.458186 0.547617,0.4944472 1.733385,0.224261 3.82299,-0.8710429 6.646877,0.8703107 11.301262,6.969055 l 1.58467,2.076406 1.570207,-0.908465 c 0.863611,-0.499677 3.556263,-2.073185 5.983667,-3.4967332 2.4274,-1.4235478 4.669027,-2.586406 4.98138,-2.5841469 0.312361,0.00314 0.913316,0.5371616 1.335461,1.1886919 0.422145,0.6514989 1.505597,1.6433636 2.407664,2.2041312 0.902082,0.560736 1.640138,1.149868 1.640138,1.309106 0,0.159269 -0.366871,0.456732 -0.815265,0.661027 -1.145213,0.521818 -2.544812,-0.124367 -4.496366,-2.075905 l -1.57504,-1.5750558 -5.201783,3.0190518 -5.201776,3.019051 1.255231,1.285469 c 1.620774,1.659833 4.605688,3.141192 6.909429,3.429024 1.000747,0.12503 1.819543,0.342384 1.819543,0.482961 0,0.140605 -0.381893,0.505876 -0.848651,0.811695 -0.719429,0.471409 -1.111294,0.50146 -2.573712,0.197532 -4.185863,-0.869985 -6.506156,-2.597662 -10.593314,-7.88776 -4.006664,-5.1858857 -6.076771,-6.7399717 -8.971047,-6.7347631 -1.305016,0.00314 -1.483144,0.1095576 -2.164225,1.3024016 -0.539325,0.944538 -0.630085,1.3451475 -0.332092,1.4656242 0.225541,0.091202 0.0701,0.1776349 -0.345436,0.1920474 C 19.713879,9.4499841 19.49531,9.2278466 19.34167,8.4596153 19.23208,7.9116705 19.040911,7.4633369 18.916851,7.4633369 c -0.12406,0 -0.963692,0.468122 -1.865847,1.0402583 l -1.640283,1.0402375 0.825076,0.5371933 c 0.453792,0.295465 1.386824,1.040279 2.073405,1.655151 1.140441,1.021317 1.248328,1.057181 1.248328,0.415116 0,-0.417909 -0.211821,-0.702842 -0.522491,-0.702842 -0.318848,0 -0.478866,-0.226489 -0.410565,-0.581163 0.08676,-0.450488 0.446899,-0.581162 1.601787,-0.581162 1.29221,0 1.503946,0.09915 1.595989,0.747209 0.05837,0.410964 -0.05372,0.747209 -0.24907,0.747209 -0.198644,0 -0.355189,0.647242 -0.355189,1.468542 0,1.312296 0.150149,1.600095 1.411392,2.705199 0.776266,0.680187 1.149869,1.144851 0.83023,1.032602 -0.537238,-0.188694 -0.581161,0.184145 -0.581161,4.932897 0,3.875749 0.101922,5.142744 0.415116,5.160345 0.897448,0.05049 -0.98656,0.595574 -2.134251,0.617492 -0.774187,0.01495 -1.260286,0.197529 -1.328369,0.499333 -0.08652,0.383501 -0.281405,0.348333 -1.003204,-0.181056 z m 1.172599,-3.995166 c 0.175189,-1.358193 0.118735,-1.562591 -0.474388,-1.717711 -0.805217,-0.210584 -0.868331,-0.04199 -1.066829,2.848915 -0.126414,1.841117 -0.05623,2.301497 0.389063,2.55226 0.576451,0.324587 0.676355,0.0053 1.152154,-3.683464 z m -8.163953,3.227932 2.407665,-0.01362 0.002,-2.164738 c 0.002,-2.084447 0.04204,-2.18902 1.079301,-2.819863 1.42075,-0.864072 3.572681,-1.213234 3.801546,-0.616795 0.09323,0.242921 0.465534,0.441683 0.827348,0.441683 0.704853,0 0.70007,-0.280122 0.06842,4.007124 l -0.198954,1.350383 1.278254,-0.10504 1.278255,-0.105042 0.09118,-5.381185 0.09117,-5.381191 -2.767301,-2.656701 C 18.273246,12.342476 16.006761,10.35859 14.758626,9.3950582 L 12.489289,7.643141 11.956992,8.4664597 C 11.664226,8.9193011 10.173099,10.634758 8.6433725,12.278614 l -2.7813161,2.988835 -0.043227,6.264652 -0.043227,6.264618 1.8265073,-0.267268 c 1.004579,-0.147017 2.9099583,-0.273378 4.2341763,-0.28085 z M 44.464443,20.442974 C 44.190469,20.286821 43.443262,20.048814 42.803984,19.914016 39.505442,19.21852 37.37241,17.435678 32.674337,11.447399 29.448546,7.3357209 27.412157,5.7930247 24.942353,5.5898803 l -1.565765,-0.1287497 1.362807,0.4535736 c 2.325582,0.7740779 4.364097,2.4619339 6.80623,5.6354648 4.666096,6.063543 6.76639,7.821607 10.428129,8.728948 2.04232,0.506045 3.228064,0.58405 2.490689,0.163857 z M 21.236184,11.448455 c 0.172642,0 0.313897,-0.224156 0.313897,-0.498139 0,-0.347897 -0.350543,-0.49814 -1.162322,-0.49814 -0.639278,0 -1.162323,0.149448 -1.162323,0.332093 0,0.182645 0.149441,0.332093 0.332092,0.332093 0.182651,0 0.332093,0.450353 0.332093,1.000797 0,0.550434 0.186801,1.302496 0.415115,1.671247 0.37423,0.604444 0.425081,0.522247 0.516333,-0.83474 0.05566,-0.827847 0.24247,-1.505211 0.415115,-1.505211 z m 30.866382,0.403695 c 0,-0.143267 -0.43157,-0.515407 -0.95905,-0.827011 C 50.616035,10.713535 49.723953,9.9341128 49.161108,9.2930729 48.196597,8.1945477 47.453275,7.8017197 47.453275,8.3904858 c 0,0.1446264 0.635124,0.8726326 1.411393,1.6177912 1.813939,1.74125 3.237898,2.552154 3.237898,1.843873 z M 20.65233,7.6189703 c 0.328166,-0.4508856 0.450921,-0.8198044 0.27279,-0.8198044 -0.411645,0 -1.367592,0.9451341 -1.367592,1.3521131 0,0.5444933 0.481443,0.3104009 1.094802,-0.5323087 z M 14.908237,28.062129 c 0.273975,-0.172089 0.669012,-1.253249 0.877859,-2.402583 l 0.379724,-2.089722 -0.09706,2.052926 c -0.109189,2.309498 -0.290286,2.764631 -1.097101,2.757324 -0.482712,-0.0043 -0.491616,-0.04901 -0.06342,-0.317945 z"
     inkscape:connector-curvature="0"
     sodipodi:nodetypes="ssssscssscscssssssscssssscsscssscsscssssscccsssssscsscssscssssssssssssssssssssscccscsscccccsscsscccsccsssscssssssssssssssssssssssssscsss"
     id="path3226" />
  <text
     xml:space="preserve"
     style="font-size:12.70077801px;font-style:normal;font-variant:normal;font-weight:normal;font-stretch:normal;line-height:125%;letter-spacing:0px;word-spacing:0px;fill:#000000;fill-opacity:1;stroke:none;font-family:Ubuntu;-inkscape-font-specification:Ubuntu"
     x="4.8299894"
     y="39.159721"
     id="text3230"
     sodipodi:linespacing="125%"><tspan
       sodipodi:role="line"
       id="tspan3232"
       x="4.8299894"
       y="39.159721"
       style="font-weight:500;-inkscape-font-specification:Ubuntu Medium">HackBo</tspan></text>
  <path
     style="fill:#000000;fill-opacity:1;stroke:none"
     id="path3395"
     d="m 7.2938946,17.209735 c 0.3774965,0.0093 0.7551753,0.01219 1.1327713,0.01614 0.8186329,0.0075 1.6373211,0.0066 2.4559791,0.0044 0.661024,0 1.322036,-0.0036 1.983041,-0.0086 0.269755,-0.0036 0.540352,0.01402 0.800214,0.08972 0.05172,0.01651 0.02807,0.0086 0.07104,0.02373 0,0 -0.285688,0.19221 -0.285688,0.19221 l 0,0 c -0.03928,-0.01577 -0.01753,-0.0075 -0.06533,-0.02511 -0.245749,-0.08291 -0.505579,-0.101162 -0.763592,-0.10364 -0.653211,-0.0044 -1.30643,-0.0075 -1.959659,-0.0086 -0.8228536,-0.0036 -1.6457356,-0.0036 -2.4685644,0.0044 -0.3925901,0.0036 -0.7852514,0.0065 -1.1777509,0.01615 0,0 0.2775404,-0.201625 0.2775404,-0.201625 z"
     inkscape:connector-curvature="0" />
  <path
     style="fill:#000000;fill-opacity:1;stroke:none"
     id="path3397"
     d="m 13.527402,17.134803 c -0.02958,0.191524 -0.03968,0.385062 -0.05208,0.578281 -0.0305,0.564626 -0.03775,1.130119 -0.0441,1.695394 -0.002,0.643552 -5.39e-4,1.287058 0.0026,1.930572 0.0024,0.379996 0.006,0.759962 0.01564,1.139854 0.0038,0.109881 0.006,0.219791 0.0059,0.329746 -10e-4,0.0987 -8.76e-4,0.197453 -1.1e-4,0.296162 5.03e-4,0.05097 1.43e-4,0.02658 9.49e-4,0.07288 0,0 -0.306208,0.156004 -0.306208,0.156004 l 0,0 c 8.77e-4,-0.04688 5.38e-4,-0.02228 9.49e-4,-0.07388 7.31e-4,-0.09867 9.49e-4,-0.197343 -1.07e-4,-0.296015 -1.93e-4,-0.11194 0.0021,-0.223787 0.0057,-0.33564 0.0092,-0.385099 0.01286,-0.770308 0.01512,-1.155517 0.0031,-0.64545 0.0046,-1.290899 0.0084,-1.936386 5.2e-5,-0.560323 -0.0034,-1.120859 0.01317,-1.681029 0.0045,-0.187829 0.0045,-0.376264 0.02556,-0.563194 0,0 0.308543,-0.157223 0.308543,-0.157223 z"
     inkscape:connector-curvature="0" />
  <path
     style="fill:#000000;fill-opacity:1;stroke:none"
     id="path3399"
     d="m 13.701014,23.176399 c -0.390863,-0.0122 -0.781968,-0.01402 -1.172948,-0.02118 -0.826518,-0.0187 -1.652498,-0.05324 -2.479001,-0.07273 -0.7703426,-0.01614 -1.5408997,-0.01978 -2.3113833,-0.01577 -0.3654146,-7.2e-5 -0.7307849,-0.0059 -1.0961904,-0.0075 -0.0879,0 -0.1758115,-2.86e-4 -0.2637161,7.2e-5 0,0 0.2783267,-0.201908 0.2783267,-0.201908 l 0,0 c 0.084551,0.0036 0.1690691,0.0044 0.2535821,0.0079 0.3540825,0.01365 0.7082713,0.02511 1.0625699,0.03126 0.7646055,0.0086 1.5292819,0.01292 2.2937811,0.02906 0.830503,0.01979 1.660647,0.0555 2.491379,0.06324 0.407801,0 0.815682,-0.0036 1.223317,-0.01577 0,0 -0.279717,0.203235 -0.279717,0.203235 z"
     inkscape:connector-curvature="0" />
  <path
     style="fill:#000000;fill-opacity:1;stroke:none"
     id="path3401"
     d="m 7.2964445,16.948128 c -0.00645,0.173202 -0.00747,0.346629 -0.010069,0.519941 -0.00735,0.384422 -0.00588,0.768907 -0.00464,1.153364 0.00159,0.355895 0.0017,0.711793 7.184e-4,1.067689 -0.00181,0.353997 6.459e-4,0.707988 0.00204,1.061985 3.586e-4,0.233047 0.0026,0.466028 0.00713,0.699045 0.00237,0.09968 0.00272,0.199388 0.0026,0.299104 1.651e-4,0.08839 2.907e-4,0.176837 1.934e-4,0.265236 9.491e-4,0.103839 9.491e-4,0.207398 -0.010069,0.310744 -0.014187,0.123136 -0.028214,0.246235 -0.04283,0.369297 -6.11e-4,0.07018 -0.023395,0.131643 -0.053351,0.193466 -0.01655,0.03272 -0.024119,0.06835 -0.028531,0.104532 0,0 -0.3102433,0.153666 -0.3102433,0.153666 l 0,0 c 0.00419,-0.0392 0.00871,-0.0787 0.024707,-0.11527 0.028033,-0.06076 0.063702,-0.115629 0.062639,-0.185923 0.016675,-0.122953 0.032581,-0.245913 0.044505,-0.369472 0.011584,-0.101833 0.00984,-0.20364 0.00882,-0.305969 -8.37e-5,-0.08848 1.7e-5,-0.176984 1.924e-4,-0.265454 -1.652e-4,-0.100584 1.663e-4,-0.201149 0.0026,-0.301727 0.00441,-0.235419 0.00678,-0.470846 0.00713,-0.706301 0.00135,-0.354678 0.00384,-0.709354 0.00204,-1.063995 -0.00102,-0.356145 -8.767e-4,-0.712297 7.183e-4,-1.068442 0.00125,-0.382908 0.00282,-0.76578 -0.00464,-1.148623 -0.0026,-0.169901 -0.00362,-0.339875 -0.010069,-0.50971 0,0 0.3085452,-0.157181 0.3085452,-0.157181 z"
     inkscape:connector-curvature="0" />
  <path
     style="fill:#000000;fill-opacity:1;stroke:none"
     id="path3405"
     d="m 9.2312982,17.26771 c -0.00362,0.162824 -0.00328,0.325722 -0.00384,0.488583 -8.768e-4,0.262826 -0.00125,0.525695 -0.00192,0.788521 0.00486,0.323788 -0.020793,0.646889 -0.045048,0.969485 -0.026562,0.35475 -0.05343,0.709499 -0.072888,1.06471 -0.015962,0.293686 -0.019141,0.58784 -0.02068,0.881913 0.0026,0.203529 -0.00113,0.406759 -0.00939,0.610069 -0.00543,0.1277 -0.00871,0.255428 -0.00984,0.383238 -3.597e-4,0.05982 -1.662e-4,0.119644 -2.2e-6,0.179452 -8.767e-4,0.05236 0.00215,0.104784 -0.00226,0.156901 -0.0077,0.04828 -0.014412,0.0966 -0.017953,0.145373 0,0 -0.1647465,0.08254 -0.1647465,0.08254 l 0,0 c 0.00317,-0.04907 0.00893,-0.09778 0.017852,-0.146124 0.00668,-0.05134 0.0017,-0.103345 0.00294,-0.155033 8.25e-5,-0.06026 4.31e-4,-0.120506 0.0017,-0.180745 0.00294,-0.128597 0.00735,-0.257158 0.013576,-0.385676 0.00928,-0.203668 0.014661,-0.407262 0.012942,-0.611186 0.00317,-0.295045 0.00894,-0.59017 0.024639,-0.884819 0.021416,-0.355181 0.046462,-0.710106 0.072605,-1.06493 0.025442,-0.321771 0.047604,-0.644331 0.04361,-0.96733 -5.746e-4,-0.262183 -9.503e-4,-0.524397 -0.00192,-0.786615 -6.097e-4,-0.161533 -3.18e-4,-0.323101 -0.00384,-0.484634 0,0 0.1643008,-0.08369 0.1643008,-0.08369 z"
     inkscape:connector-curvature="0" />
  <path
     style="fill:#000000;fill-opacity:1;stroke:none"
     id="path3407"
     d="m 11.260587,17.453916 c -0.005,0.276658 -0.0061,0.553387 -0.006,0.830081 10e-4,0.345483 8.77e-4,0.690857 -0.0061,1.036266 -0.01346,0.298886 -0.02711,0.597705 -0.03328,0.89689 -0.0062,0.243971 -0.0014,0.488116 -0.0073,0.732088 -0.0077,0.194795 -0.01354,0.389663 -0.01676,0.584604 -0.0024,0.159013 -0.0025,0.318069 -0.0018,0.477126 -5.74e-4,0.08786 0.0053,0.175759 -0.0044,0.263256 -0.01018,0.07069 -0.01376,0.141963 -0.01588,0.213228 -0.0016,0.09698 -0.0014,0.193788 -0.0085,0.290553 -0.0059,0.06645 -0.01144,0.13298 -0.01406,0.199645 -1.65e-4,0.0059 -3.47e-4,0.01219 -5.38e-4,0.01832 0,0 -0.164977,0.08326 -0.164977,0.08326 l 0,0 c 3.2e-4,-0.0059 6.47e-4,-0.01256 9.49e-4,-0.0187 0.0036,-0.06726 0.0089,-0.134374 0.01605,-0.201367 0.0083,-0.09634 0.0079,-0.192604 0.0082,-0.289269 0.0019,-0.07163 0.0041,-0.143392 0.0144,-0.214402 0.01178,-0.08725 0.0073,-0.175078 0.0087,-0.262935 8.76e-4,-0.159451 0.0013,-0.318902 0.0035,-0.478352 0.0039,-0.195337 0.01052,-0.390599 0.01878,-0.585789 0.0071,-0.244438 0.0029,-0.489087 0.01029,-0.733524 0.0078,-0.299471 0.01915,-0.598758 0.0353,-0.897899 0.0092,-0.345447 0.0077,-0.690886 0.0072,-1.036406 8.3e-5,-0.274677 -8.04e-4,-0.549399 -0.006,-0.824048 0,0 0.162256,-0.08265 0.162256,-0.08265 z"
     inkscape:connector-curvature="0" />
  <path
     style="fill:#000000;fill-opacity:1;stroke:none"
     id="path3409"
     d="m 7.3111715,19.329816 c 0.253555,-0.01039 0.5074913,-0.01086 0.7612355,-0.01256 0.3838678,0.0044 0.7676835,0.01256 1.1515616,0.01687 0.4214286,0.0044 0.8428884,0.0044 1.2643354,0.005 0.426438,3.22e-4 0.852876,-2.84e-4 1.279312,-2.84e-4 0.318208,-1.09e-4 0.636417,0 0.954617,-0.0036 0.120585,0 0.241172,-0.0036 0.36176,-0.0036 0.05912,-1.46e-4 0.118251,-2.83e-4 0.177374,0 0.01925,-1.1e-4 0.03848,-3.6e-5 0.05771,7.4e-5 0,0 -0.149258,0.108444 -0.149258,0.108444 l 0,0 c -0.01929,7.2e-5 -0.03856,1.75e-4 -0.05785,7.2e-5 -0.05846,-3.27e-4 -0.116934,0 -0.175402,0 -0.118756,-2.18e-4 -0.237509,0 -0.356262,-0.0036 -0.315585,-0.0036 -0.631175,-0.0036 -0.946765,-0.0036 -0.42598,0 -0.851961,0 -1.277941,0 -0.4222336,1.1e-4 -0.8444676,0 -1.2666928,-0.0036 -0.38418,-0.0044 -0.7682923,-0.01293 -1.1524848,-0.01577 -0.2576696,0.0036 -0.5160133,0.0036 -0.7729917,0.02337 0,0 0.147731,-0.109881 0.147731,-0.109881 z"
     inkscape:connector-curvature="0" />
  <path
     style="fill:#000000;fill-opacity:1;stroke:none"
     id="path3411"
     d="m 7.1383522,21.13685 c 0.018168,-0.01796 0.026551,-0.02841 0.049742,-0.04177 0.1828775,-0.105323 0.1802756,-0.11552 0.3507701,-0.138333 0.1548457,-0.01329 0.3105827,-0.01183 0.4658809,-0.01183 0.2544239,0 0.5088479,0 0.7632751,0.0036 0.3448773,0 0.6897571,0 1.0346363,0.0036 0.4172274,0 0.8344544,0 1.2516814,0 0.403897,2.86e-4 0.807796,0 1.211693,0 0.247466,2.12e-4 0.494924,-0.0036 0.742382,-0.0036 0.08255,-2.92e-4 0.165099,0 0.24765,0 0.05429,-0.0036 0.08779,0 0.137888,0.01978 0.0063,0.0036 0.0126,0.005 0.0189,0.0074 0,0 -0.153278,0.102883 -0.153278,0.102883 l 0,0 c -0.0063,-0.0036 -0.0127,-0.005 -0.01907,-0.0075 -0.04326,-0.01686 -0.08718,-0.01585 -0.133193,-0.01439 -0.08135,-2.84e-4 -0.1627,0 -0.244049,0 -0.244322,-0.0036 -0.488644,-0.0036 -0.732974,-0.0036 -0.403008,-1.75e-4 -0.806017,0 -1.209026,0 -0.418024,2.18e-4 -0.836049,0 -1.2540724,0 -0.3462078,2.92e-4 -0.6924155,2.18e-4 -1.038622,0 -0.2556977,-1.09e-4 -0.5113943,-2.84e-4 -0.7670887,0 -0.1558479,0 -0.3122875,0 -0.4674453,0.01615 -0.04205,0.0065 -0.067628,0.0089 -0.108546,0.02044 -0.015498,0.0044 -0.058351,0.02549 -0.045704,0.01549 0.036518,-0.02877 0.079099,-0.04857 0.1187511,-0.07273 0.00984,-0.0059 -0.019854,0.01146 -0.029176,0.01833 -0.00747,0.005 -0.014028,0.01183 -0.021042,0.0176 0,0 -0.1699924,0.07267 -0.1699924,0.07267 z"
     inkscape:connector-curvature="0" />
  <path
     sodipodi:type="arc"
     style="fill:#000000;fill-opacity:1;stroke:none"
     id="path3419"
     sodipodi:cx="-347.88861"
     sodipodi:cy="-100.42379"
     sodipodi:rx="35.084759"
     sodipodi:ry="32.548512"
     d="m -312.80385,-100.42379 a 35.084759,32.548512 0 1 1 -70.16952,0 35.084759,32.548512 0 1 1 70.16952,0 z"
     transform="matrix(0.02270762,0,0,0.02270762,17.9904,20.734915)" />
  <path
     sodipodi:type="arc"
     style="fill:#000000;fill-opacity:1;stroke:none"
     id="path3419-2"
     sodipodi:cx="-347.88861"
     sodipodi:cy="-100.42379"
     sodipodi:rx="35.084759"
     sodipodi:ry="32.548512"
     d="m -312.80385,-100.42379 a 35.084759,32.548512 0 1 1 -70.16952,0 35.084759,32.548512 0 1 1 70.16952,0 z"
     transform="matrix(0.02340712,0,0,0.02383407,18.228101,24.300228)" />
  <path
     sodipodi:type="arc"
     style="fill:#000000;fill-opacity:1;stroke:none"
     id="path3419-2-0"
     sodipodi:cx="-347.88861"
     sodipodi:cy="-100.42379"
     sodipodi:rx="35.084759"
     sodipodi:ry="32.548512"
     d="m -312.80385,-100.42379 a 35.084759,32.548512 0 1 1 -70.16952,0 35.084759,32.548512 0 1 1 70.16952,0 z"
     transform="matrix(0.02340712,0,0,0.02232608,20.346942,24.31458)" />
  <path
     sodipodi:type="arc"
     style="fill:#000000;fill-opacity:1;stroke:none"
     id="path3419-2-1"
     sodipodi:cx="-347.88861"
     sodipodi:cy="-100.42379"
     sodipodi:rx="35.084759"
     sodipodi:ry="32.548512"
     d="m -312.80385,-100.42379 a 35.084759,32.548512 0 1 1 -70.16952,0 35.084759,32.548512 0 1 1 70.16952,0 z"
     transform="matrix(0.02177854,0,0,0.02179049,15.665032,24.086707)" />
  <path
     sodipodi:type="arc"
     style="fill:#000000;fill-opacity:1;stroke:none"
     id="path3419-2-1-1"
     sodipodi:cx="-347.88861"
     sodipodi:cy="-100.42379"
     sodipodi:rx="35.084759"
     sodipodi:ry="32.548512"
     d="m -312.80385,-100.42379 a 35.084759,32.548512 0 1 1 -70.16952,0 35.084759,32.548512 0 1 1 70.16952,0 z"
     transform="matrix(0.02247804,0,0,0.02344653,20.075221,22.531971)" />
</svg>
